<!--?xml version="1.0" encoding="UTF-8"?-->
<svg id="Layer_1" xmlns="http://www.w3.org/2000/svg" viewBox="0 0 1460 595.28">
 &nbsp;<defs>
 &nbsp; &nbsp;<style>
 &nbsp; &nbsp; &nbsp;.cls-1 {
 &nbsp; &nbsp; &nbsp; &nbsp;fill: none;
 &nbsp; &nbsp; &nbsp;}

 &nbsp; &nbsp; &nbsp;.cls-2 {
 &nbsp; &nbsp; &nbsp; &nbsp;fill: currentColor;
 &nbsp; &nbsp; &nbsp;}
 &nbsp; &nbsp;</style>
 &nbsp;</defs>
 &nbsp;<rect class="cls-1" width="1460" height="595.28"></rect>
 &nbsp;<g>
 &nbsp; &nbsp;<path class="cls-2" d="M806.38,442.22h-223.66v-223.66h223.66v223.66ZM586.23,438.71h216.64v-216.64h-216.64v216.64Z"></path>
 &nbsp; &nbsp;<rect class="cls-2" x="791.49" y="402.5" width="112.95" height="3.51" transform="translate(-61.97 637.69) rotate(-39.88)"></rect>
 &nbsp; &nbsp;<rect class="cls-2" x="791.49" y="182.35" width="112.95" height="3.51" transform="translate(79.27 586.65) rotate(-39.89)"></rect>
 &nbsp; &nbsp;<polygon class="cls-2" points="893.06 368.04 889.55 368.04 889.55 149.65 671.79 149.65 585.6 221.67 583.35 218.97 670.52 146.14 893.06 146.14 893.06 368.04"></polygon>
 &nbsp; &nbsp;<g>
 &nbsp; &nbsp; &nbsp;<rect class="cls-2" x="669.4" y="147.89" width="3.51" height="8.84"></rect>
 &nbsp; &nbsp; &nbsp;<path class="cls-2" d="M672.91,335.91h-3.51v-14.62h3.51v14.62ZM672.91,306.68h-3.51v-14.61h3.51v14.61ZM672.91,277.45h-3.51v-14.62h3.51v14.62ZM672.91,248.22h-3.51v-14.62h3.51v14.62ZM672.91,218.99h-3.51v-14.62h3.51v14.62ZM672.91,189.76h-3.51v-14.62h3.51v14.62Z"></path>
 &nbsp; &nbsp; &nbsp;<polygon class="cls-2" points="665.5 375.06 663.24 372.36 669.4 367.22 669.4 359.2 672.91 359.2 672.91 368.86 665.5 375.06"></polygon>
 &nbsp; &nbsp; &nbsp;<path class="cls-2" d="M599.7,430.04l-2.25-2.69,4.73-3.95,2.25,2.69-4.73,3.95ZM616.04,416.38l-2.25-2.69,11.61-9.7,2.25,2.69-11.61,9.7ZM639.26,396.98l-2.25-2.69,11.61-9.7,2.25,2.69-11.61,9.7Z"></path>
 &nbsp; &nbsp; &nbsp;<rect class="cls-2" x="583.45" y="435.88" width="8.84" height="3.51" transform="translate(-143.86 478.69) rotate(-39.88)"></rect>
 &nbsp; &nbsp;</g>
 &nbsp; &nbsp;<path class="cls-2" d="M881.81,369.8h-14.04v-3.51h14.04v3.51ZM853.72,369.8h-14.04v-3.51h14.04v3.51ZM825.64,369.8h-14.04v-3.51h14.04v3.51ZM797.55,369.8h-14.04v-3.51h14.04v3.51ZM769.46,369.8h-14.04v-3.51h14.04v3.51ZM741.37,369.8h-14.04v-3.51h14.04v3.51ZM713.29,369.8h-14.04v-3.51h14.04v3.51ZM685.2,369.8h-14.04v-3.51h14.04v3.51Z"></path>
 &nbsp;</g>
 &nbsp;<g>
 &nbsp; &nbsp;<path class="cls-2" d="M635.61,460.12l2.64-3.54c1.63-1.8,4.22-3.2,7.25-3.2,5.12,0,8.49,3.2,8.49,7.48,0,1.69-.73,3.04-1.74,4.16-.9.96-2.36,1.97-3.99,3.04,5.23,1.12,8.32,4.55,8.32,8.66,0,9.16-10.79,13.04-14.78,13.04-2.64,0-5.06-1.12-5.85-1.97-.67-.73-.84-1.24-.84-1.85.06-.9.79-1.74,1.29-2.14.45-.34.96-.39,1.46.06,1.52,1.35,3.77,2.98,6.97,2.98,4.05,0,6.91-3.04,6.91-8.49-.06-5.17-3.82-7.2-7.42-7.2-1.29,0-2.87.34-3.77.62l-.39-1.69c5-1.63,9.05-3.88,9.05-8.04,0-3.32-2.14-5.23-5.4-5.23s-5.57,2.31-7.03,4.44l-1.18-1.12Z"></path>
 &nbsp; &nbsp;<path class="cls-2" d="M682.88,484.01c-2.47,3.26-6.24,5.73-9.61,5.73-7.14,0-11.36-5.79-11.36-11.8,0-4.44,1.91-8.15,5.68-11.02,2.98-2.31,6.35-3.2,8.54-3.2,2.53,0,4.39.79,5.23,1.52.79.62.9,1.01.9,1.63,0,1.35-1.41,2.53-2.02,2.53-.28,0-.51-.11-1.07-.56-1.74-1.57-3.65-2.36-5.68-2.36-3.71,0-6.97,3.15-6.97,8.99-.06,7.81,5.28,10.4,8.54,10.4,2.36,0,4.27-.62,6.86-3.09l.96,1.24Z"></path>
 &nbsp; &nbsp;<path class="cls-2" d="M716.55,489.07v-1.57c3.32-.34,3.71-.56,3.71-4.5v-9.39c0-3.99-1.35-6.52-4.83-6.52-2.14,0-4.1,1.18-6.24,2.92.06.68.17,1.35.17,2.42v10.91c0,3.54.51,3.82,3.6,4.16v1.57h-12.03v-1.57c3.49-.34,3.99-.56,3.99-4.27v-9.67c0-4.16-1.29-6.46-4.72-6.46-2.25,0-4.44,1.52-6.18,2.92v13.21c0,3.71.39,3.94,3.6,4.27v1.57h-12.09v-1.57c3.71-.34,4.05-.56,4.05-4.27v-11.64c0-3.6-.23-3.82-3.37-4.39v-1.41c2.64-.39,5.28-1.12,7.81-2.25v4.55c1.18-.9,2.36-1.85,4.16-2.92,1.41-.9,2.64-1.46,4.44-1.46,2.7,0,5,1.69,6.13,4.61,1.57-1.24,3.04-2.19,4.44-3.15,1.24-.79,2.81-1.46,4.44-1.46,4.38,0,7.08,3.15,7.08,8.66v10.85c0,3.77.34,3.94,3.54,4.27v1.57h-11.69Z"></path>
 &nbsp;</g>
 &nbsp;<g>
 &nbsp; &nbsp;<path class="cls-2" d="M474.77,312.77l2.64-3.54c1.63-1.8,4.22-3.2,7.25-3.2,5.12,0,8.49,3.2,8.49,7.48,0,1.69-.73,3.04-1.74,4.16-.9.96-2.36,1.97-3.99,3.04,5.23,1.12,8.32,4.55,8.32,8.66,0,9.16-10.79,13.04-14.78,13.04-2.64,0-5.06-1.12-5.85-1.97-.67-.73-.84-1.24-.84-1.85.06-.9.79-1.74,1.29-2.14.45-.34.96-.39,1.46.06,1.52,1.35,3.77,2.98,6.97,2.98,4.05,0,6.91-3.04,6.91-8.49-.06-5.17-3.82-7.2-7.42-7.2-1.29,0-2.87.34-3.77.62l-.39-1.69c5-1.63,9.05-3.88,9.05-8.04,0-3.32-2.14-5.23-5.4-5.23s-5.57,2.31-7.03,4.44l-1.18-1.12Z"></path>
 &nbsp; &nbsp;<path class="cls-2" d="M522.04,336.66c-2.47,3.26-6.24,5.73-9.61,5.73-7.14,0-11.36-5.79-11.36-11.8,0-4.44,1.91-8.15,5.68-11.02,2.98-2.31,6.35-3.2,8.54-3.2,2.53,0,4.38.79,5.23,1.52.79.62.9,1.01.9,1.63,0,1.35-1.41,2.53-2.02,2.53-.28,0-.51-.11-1.07-.56-1.74-1.57-3.65-2.36-5.68-2.36-3.71,0-6.97,3.15-6.97,8.99-.06,7.81,5.28,10.4,8.54,10.4,2.36,0,4.27-.62,6.86-3.09l.96,1.24Z"></path>
 &nbsp; &nbsp;<path class="cls-2" d="M555.71,341.72v-1.57c3.32-.34,3.71-.56,3.71-4.5v-9.39c0-3.99-1.35-6.52-4.83-6.52-2.14,0-4.1,1.18-6.24,2.92.06.68.17,1.35.17,2.42v10.91c0,3.54.51,3.82,3.6,4.16v1.57h-12.03v-1.57c3.49-.34,3.99-.56,3.99-4.27v-9.67c0-4.16-1.29-6.46-4.72-6.46-2.25,0-4.44,1.52-6.18,2.92v13.21c0,3.71.39,3.94,3.6,4.27v1.57h-12.09v-1.57c3.71-.34,4.05-.56,4.05-4.27v-11.64c0-3.6-.23-3.82-3.37-4.39v-1.41c2.64-.39,5.28-1.12,7.81-2.25v4.55c1.18-.9,2.36-1.85,4.16-2.92,1.41-.9,2.64-1.46,4.44-1.46,2.7,0,5,1.69,6.13,4.61,1.57-1.24,3.04-2.19,4.44-3.15,1.24-.79,2.81-1.46,4.44-1.46,4.38,0,7.08,3.15,7.08,8.66v10.85c0,3.77.34,3.94,3.54,4.27v1.57h-11.69Z"></path>
 &nbsp;</g>
</svg>