<!--?xml version="1.0" encoding="UTF-8"?-->
<svg id="Layer_1" xmlns="http://www.w3.org/2000/svg" viewBox="0 0 1460 595.28">
 &nbsp;<defs>
 &nbsp; &nbsp;<style>
 &nbsp; &nbsp; &nbsp;.cls-1 {
 &nbsp; &nbsp; &nbsp; &nbsp;fill: none;
 &nbsp; &nbsp; &nbsp;}

 &nbsp; &nbsp; &nbsp;.cls-2 {
 &nbsp; &nbsp; &nbsp; &nbsp;fill: currentColor;
 &nbsp; &nbsp; &nbsp;}
 &nbsp; &nbsp;</style>
 &nbsp;</defs>
 &nbsp;<rect class="cls-1" width="1460" height="595.28"></rect>
 &nbsp;<g>
 &nbsp; &nbsp;<path class="cls-2" d="M426.04,486.53v4.29c0,3.72.23,4,4.23,4.4v1.58h-13.19v-1.58c4.23-.4,4.51-.73,4.51-4.45v-4.23h-14.89v-1.69c5.36-7.61,11.16-15.84,16.8-23.68h2.54v22.67h5.53v2.71h-5.53ZM421.59,467.08c-3.55,5.19-7.5,10.94-11.39,16.75h11.39v-16.75Z"></path>
 &nbsp; &nbsp;<path class="cls-2" d="M456.04,491.72c-2.48,3.27-6.26,5.75-9.64,5.75-7.16,0-11.39-5.81-11.39-11.84,0-4.45,1.92-8.18,5.7-11.05,2.99-2.31,6.37-3.21,8.57-3.21,2.54,0,4.4.79,5.24,1.52.79.62.9,1.02.9,1.64,0,1.35-1.41,2.54-2.03,2.54-.28,0-.51-.11-1.07-.56-1.75-1.58-3.67-2.37-5.7-2.37-3.72,0-6.99,3.16-6.99,9.02-.06,7.84,5.3,10.43,8.57,10.43,2.37,0,4.29-.62,6.88-3.1l.96,1.24Z"></path>
 &nbsp; &nbsp;<path class="cls-2" d="M489.81,496.79v-1.58c3.33-.34,3.72-.56,3.72-4.51v-9.42c0-4-1.35-6.54-4.85-6.54-2.14,0-4.12,1.18-6.26,2.93.06.68.17,1.35.17,2.42v10.94c0,3.55.51,3.83,3.61,4.17v1.58h-12.07v-1.58c3.5-.34,4-.56,4-4.29v-9.7c0-4.17-1.3-6.48-4.74-6.48-2.26,0-4.45,1.52-6.2,2.93v13.25c0,3.72.39,3.95,3.61,4.29v1.58h-12.12v-1.58c3.72-.34,4.06-.56,4.06-4.29v-11.67c0-3.61-.23-3.83-3.38-4.4v-1.41c2.65-.39,5.3-1.13,7.84-2.26v4.57c1.18-.9,2.37-1.86,4.17-2.93,1.41-.9,2.65-1.47,4.45-1.47,2.71,0,5.02,1.69,6.15,4.62,1.58-1.24,3.04-2.2,4.45-3.16,1.24-.79,2.82-1.47,4.45-1.47,4.4,0,7.1,3.16,7.1,8.68v10.88c0,3.78.34,3.95,3.55,4.29v1.58h-11.73Z"></path>
 &nbsp;</g>
 &nbsp;<g>
 &nbsp; &nbsp;<path class="cls-2" d="M845.91,387.91v-1.58c6.26-.4,6.6-.68,6.6-4.91v-21.65c0-2.88-.39-2.99-2.88-3.21l-2.76-.28v-1.41c3.72-.62,7.44-1.52,10.32-2.76v29.32c0,4.29.34,4.51,6.65,4.91v1.58h-17.93Z"></path>
 &nbsp; &nbsp;<path class="cls-2" d="M893.5,380.42c-.73,2.54-1.69,5.41-2.26,7.5h-21.26v-1.35c3.1-3.05,6.48-6.37,9.25-9.59,3.55-4.17,6.94-8.68,6.94-13.59s-2.48-7.39-6.6-7.39c-3.89,0-6.32,3.04-7.78,5.24l-1.3-1.18,3.21-4.57c1.75-1.97,4.45-3.38,7.73-3.38,5.36,0,9.59,3.67,9.59,9.75,0,4.79-1.75,8.18-7.1,13.65-2.42,2.54-5.98,5.98-8.4,8.29h10.77c3.04,0,3.89-.28,5.81-3.83l1.41.45Z"></path>
 &nbsp; &nbsp;<path class="cls-2" d="M918.65,382.84c-2.48,3.27-6.26,5.75-9.64,5.75-7.16,0-11.39-5.81-11.39-11.84,0-4.45,1.92-8.18,5.7-11.05,2.99-2.31,6.37-3.21,8.57-3.21,2.54,0,4.4.79,5.24,1.52.79.62.9,1.02.9,1.64,0,1.35-1.41,2.54-2.03,2.54-.28,0-.51-.11-1.07-.56-1.75-1.58-3.67-2.37-5.7-2.37-3.72,0-6.99,3.16-6.99,9.02-.06,7.84,5.3,10.43,8.57,10.43,2.37,0,4.29-.62,6.88-3.1l.96,1.24Z"></path>
 &nbsp; &nbsp;<path class="cls-2" d="M952.43,387.91v-1.58c3.33-.34,3.72-.56,3.72-4.51v-9.42c0-4-1.35-6.54-4.85-6.54-2.14,0-4.12,1.18-6.26,2.93.06.68.17,1.35.17,2.42v10.94c0,3.55.51,3.83,3.61,4.17v1.58h-12.07v-1.58c3.5-.34,4-.56,4-4.29v-9.7c0-4.17-1.3-6.48-4.74-6.48-2.26,0-4.45,1.52-6.2,2.93v13.25c0,3.72.4,3.95,3.61,4.29v1.58h-12.12v-1.58c3.72-.34,4.06-.56,4.06-4.29v-11.67c0-3.61-.23-3.83-3.38-4.4v-1.41c2.65-.39,5.3-1.13,7.84-2.26v4.57c1.18-.9,2.37-1.86,4.17-2.93,1.41-.9,2.65-1.47,4.45-1.47,2.71,0,5.02,1.69,6.15,4.62,1.58-1.24,3.04-2.2,4.45-3.16,1.24-.79,2.82-1.47,4.45-1.47,4.4,0,7.11,3.16,7.11,8.68v10.88c0,3.78.34,3.95,3.55,4.29v1.58h-11.73Z"></path>
 &nbsp;</g>
 &nbsp;<g>
 &nbsp; &nbsp;<path class="cls-2" d="M277.26,405.2c-.73,2.54-1.69,5.41-2.26,7.5h-21.26v-1.35c3.1-3.05,6.48-6.37,9.25-9.59,3.55-4.17,6.94-8.68,6.94-13.59s-2.48-7.39-6.6-7.39c-3.89,0-6.32,3.04-7.78,5.24l-1.3-1.18,3.21-4.57c1.75-1.97,4.45-3.38,7.73-3.38,5.36,0,9.59,3.67,9.59,9.75,0,4.79-1.75,8.18-7.1,13.65-2.42,2.54-5.98,5.98-8.4,8.29h10.77c3.04,0,3.89-.28,5.81-3.83l1.41.45Z"></path>
 &nbsp; &nbsp;<path class="cls-2" d="M302.41,407.63c-2.48,3.27-6.26,5.75-9.64,5.75-7.16,0-11.39-5.81-11.39-11.84,0-4.45,1.92-8.18,5.7-11.05,2.99-2.31,6.37-3.21,8.57-3.21,2.54,0,4.4.79,5.24,1.52.79.62.9,1.02.9,1.64,0,1.35-1.41,2.54-2.03,2.54-.28,0-.51-.11-1.07-.56-1.75-1.58-3.67-2.37-5.7-2.37-3.72,0-6.99,3.16-6.99,9.02-.06,7.84,5.3,10.43,8.57,10.43,2.37,0,4.29-.62,6.88-3.1l.96,1.24Z"></path>
 &nbsp; &nbsp;<path class="cls-2" d="M336.18,412.7v-1.58c3.33-.34,3.72-.56,3.72-4.51v-9.42c0-4-1.35-6.54-4.85-6.54-2.14,0-4.12,1.18-6.26,2.93.06.68.17,1.35.17,2.42v10.94c0,3.55.51,3.83,3.61,4.17v1.58h-12.07v-1.58c3.5-.34,4-.56,4-4.29v-9.7c0-4.17-1.3-6.48-4.74-6.48-2.26,0-4.45,1.52-6.2,2.93v13.25c0,3.72.39,3.95,3.61,4.29v1.58h-12.12v-1.58c3.72-.34,4.06-.56,4.06-4.29v-11.67c0-3.61-.23-3.83-3.38-4.4v-1.41c2.65-.39,5.3-1.13,7.84-2.26v4.57c1.18-.9,2.37-1.86,4.17-2.93,1.41-.9,2.65-1.47,4.45-1.47,2.71,0,5.02,1.69,6.15,4.62,1.58-1.24,3.05-2.2,4.45-3.16,1.24-.79,2.82-1.47,4.45-1.47,4.4,0,7.1,3.16,7.1,8.68v10.88c0,3.78.34,3.95,3.55,4.29v1.58h-11.73Z"></path>
 &nbsp;</g>
 &nbsp;<g>
 &nbsp; &nbsp;<rect class="cls-2" x="899.16" y="149.57" width="5.06" height="10.11"></rect>
 &nbsp; &nbsp;<rect class="cls-2" x="899.16" y="184.8" width="5.06" height="25.11"></rect>
 &nbsp; &nbsp;<polygon class="cls-2" points="911.8 247.67 899.16 247.67 899.16 235.03 904.22 235.03 904.22 242.61 911.8 242.61 911.8 247.67"></polygon>
 &nbsp; &nbsp;<path class="cls-2" d="M1063.72,247.67h-18.99v-5.06h18.99v5.06ZM1025.74,247.67h-18.99v-5.06h18.99v5.06ZM987.76,247.67h-18.99v-5.06h18.99v5.06ZM949.78,247.67h-18.99v-5.06h18.99v5.06Z"></path>
 &nbsp; &nbsp;<rect class="cls-2" x="1082.71" y="242.61" width="10.11" height="5.06"></rect>
 &nbsp;</g>
 &nbsp;<g>
 &nbsp; &nbsp;<path class="cls-2" d="M558.6,446.96h-194.25v-98.81h194.25v98.81ZM367.71,443.59h187.51v-92.07h-187.51v92.07Z"></path>
 &nbsp; &nbsp;<rect class="cls-2" x="538.89" y="247.47" width="571.19" height="5.05" transform="translate(-35.37 304.04) rotate(-20.46)"></rect>
 &nbsp; &nbsp;<polygon class="cls-2" points="557.79 447.64 556.03 442.91 1089.54 243.85 1089.54 152.69 901.64 152.69 366.91 352.2 365.15 347.47 900.73 147.64 1094.59 147.64 1094.59 247.36 1092.95 247.97 557.79 447.64"></polygon>
 &nbsp; &nbsp;<g>
 &nbsp; &nbsp; &nbsp;<rect class="cls-2" x="898.66" y="150.16" width="5.05" height="10.1"></rect>
 &nbsp; &nbsp; &nbsp;<rect class="cls-2" x="898.66" y="185.34" width="5.05" height="25.08"></rect>
 &nbsp; &nbsp; &nbsp;<polygon class="cls-2" points="911.29 248.13 898.66 248.13 898.66 235.5 903.71 235.5 903.71 243.08 911.29 243.08 911.29 248.13"></polygon>
 &nbsp; &nbsp; &nbsp;<path class="cls-2" d="M1063,248.13h-18.96v-5.05h18.96v5.05ZM1025.07,248.13h-18.96v-5.05h18.96v5.05ZM987.14,248.13h-18.96v-5.05h18.96v5.05ZM949.22,248.13h-18.96v-5.05h18.96v5.05Z"></path>
 &nbsp; &nbsp; &nbsp;<rect class="cls-2" x="1081.97" y="243.08" width="10.1" height="5.05"></rect>
 &nbsp; &nbsp;</g>
 &nbsp; &nbsp;<path class="cls-2" d="M366.91,447.64l-1.77-4.73,5.2-1.94,1.77,4.73-5.2,1.94ZM391.04,438.64l-1.77-4.73,18.93-7.06,1.77,4.73-18.93,7.06ZM428.89,424.51l-1.77-4.73,18.93-7.06,1.77,4.73-18.93,7.06ZM466.75,410.39l-1.77-4.73,18.93-7.06,1.77,4.73-18.93,7.06ZM504.6,396.27l-1.77-4.73,18.93-7.06,1.77,4.73-18.93,7.06ZM542.45,382.14l-1.77-4.73,18.93-7.06,1.77,4.73-18.93,7.06ZM580.31,368.02l-1.77-4.73,18.93-7.06,1.77,4.73-18.93,7.06ZM618.16,353.9l-1.77-4.73,18.93-7.06,1.77,4.73-18.93,7.06ZM656.02,339.77l-1.77-4.73,18.93-7.06,1.77,4.73-18.93,7.06ZM693.87,325.65l-1.77-4.73,18.93-7.06,1.77,4.73-18.93,7.06ZM731.73,311.53l-1.77-4.73,18.93-7.06,1.77,4.73-18.93,7.06ZM769.58,297.4l-1.77-4.73,18.93-7.06,1.77,4.73-18.93,7.06ZM807.43,283.28l-1.77-4.73,18.93-7.06,1.77,4.73-18.93,7.06ZM845.29,269.15l-1.77-4.73,18.93-7.06,1.77,4.73-18.93,7.06ZM883.14,255.03l-1.77-4.73,18.93-7.06,1.77,4.73-18.93,7.06Z"></path>
 &nbsp;</g>
</svg>