<!--?xml version="1.0" encoding="UTF-8"?-->
<svg id="Layer_1" xmlns="http://www.w3.org/2000/svg" viewBox="0 0 1460 595.28">
 &nbsp;<defs>
 &nbsp; &nbsp;<style>
 &nbsp; &nbsp; &nbsp;.cls-1 {
 &nbsp; &nbsp; &nbsp; &nbsp;fill: none;
 &nbsp; &nbsp; &nbsp;}

 &nbsp; &nbsp; &nbsp;.cls-2 {
 &nbsp; &nbsp; &nbsp; &nbsp;fill: currentColor
 &nbsp; &nbsp; &nbsp;}
 &nbsp; &nbsp;</style>
 &nbsp;</defs>
 &nbsp;<rect class="cls-1" width="1460" height="595.28"></rect>
 &nbsp;<g>
 &nbsp; &nbsp;<path class="cls-2" d="M560.48,447.64h-195.83v-100.44h195.83v100.44ZM369.7,442.59h185.73v-90.34h-185.73v90.34Z"></path>
 &nbsp; &nbsp;<rect class="cls-2" x="539.95" y="247.42" width="570.89" height="5.05" transform="translate(-35.3 304.35) rotate(-20.46)"></rect>
 &nbsp; &nbsp;<polygon class="cls-2" points="558.84 447.48 557.07 442.75 1090.3 243.8 1090.3 152.69 902.5 152.69 368.06 352.09 366.29 347.36 901.59 147.64 1095.35 147.64 1095.35 247.3 1093.71 247.92 558.84 447.48"></polygon>
 &nbsp; &nbsp;<g>
 &nbsp; &nbsp; &nbsp;<rect class="cls-2" x="899.52" y="150.16" width="5.05" height="10.1"></rect>
 &nbsp; &nbsp; &nbsp;<rect class="cls-2" x="899.52" y="185.32" width="5.05" height="25.07"></rect>
 &nbsp; &nbsp; &nbsp;<polygon class="cls-2" points="912.14 248.08 899.52 248.08 899.52 235.46 904.57 235.46 904.57 243.03 912.14 243.03 912.14 248.08"></polygon>
 &nbsp; &nbsp; &nbsp;<path class="cls-2" d="M1063.78,248.08h-18.95v-5.05h18.95v5.05ZM1025.87,248.08h-18.95v-5.05h18.95v5.05ZM987.96,248.08h-18.95v-5.05h18.95v5.05ZM950.05,248.08h-18.95v-5.05h18.95v5.05Z"></path>
 &nbsp; &nbsp; &nbsp;<rect class="cls-2" x="1082.73" y="243.03" width="10.1" height="5.05"></rect>
 &nbsp; &nbsp;</g>
 &nbsp; &nbsp;<path class="cls-2" d="M368.06,447.48l-1.76-4.73,5.19-1.94,1.76,4.73-5.19,1.94ZM392.17,438.48l-1.76-4.73,18.92-7.06,1.76,4.73-18.92,7.06ZM430,424.37l-1.76-4.73,18.92-7.06,1.76,4.73-18.92,7.06ZM467.84,410.25l-1.76-4.73,18.92-7.06,1.76,4.73-18.92,7.06ZM505.67,396.13l-1.76-4.73,18.92-7.06,1.76,4.73-18.92,7.06ZM543.5,382.02l-1.76-4.73,18.92-7.06,1.76,4.73-18.92,7.06ZM581.34,367.9l-1.76-4.73,18.92-7.06,1.76,4.73-18.92,7.06ZM619.17,353.79l-1.76-4.73,18.92-7.06,1.76,4.73-18.92,7.06ZM657.01,339.67l-1.76-4.73,18.92-7.06,1.76,4.73-18.92,7.06ZM694.84,325.55l-1.76-4.73,18.92-7.06,1.76,4.73-18.92,7.06ZM732.68,311.44l-1.76-4.73,18.92-7.06,1.76,4.73-18.92,7.06ZM770.51,297.32l-1.76-4.73,18.92-7.06,1.76,4.73-18.92,7.06ZM808.34,283.21l-1.76-4.73,18.92-7.06,1.76,4.73-18.92,7.06ZM846.18,269.09l-1.76-4.73,18.92-7.06,1.76,4.73-18.92,7.06ZM884.01,254.97l-1.76-4.73,18.92-7.06,1.76,4.73-18.92,7.06Z"></path>
 &nbsp;</g>
</svg>