<!--?xml version="1.0" encoding="UTF-8"?-->
<svg id="Layer_1" xmlns="http://www.w3.org/2000/svg" viewBox="0 0 1460 595.28">
 &nbsp;<defs>
 &nbsp; &nbsp;<style>
 &nbsp; &nbsp; &nbsp;.cls-1 {
 &nbsp; &nbsp; &nbsp; &nbsp;fill: none;
 &nbsp; &nbsp; &nbsp;}

 &nbsp; &nbsp; &nbsp;.cls-2 {
 &nbsp; &nbsp; &nbsp; &nbsp;fill: currentColor;
 &nbsp; &nbsp; &nbsp;}
 &nbsp; &nbsp;</style>
 &nbsp;</defs>
 &nbsp;<rect class="cls-1" width="1460" height="595.28"></rect>
 &nbsp;<g>
 &nbsp; &nbsp;<g>
 &nbsp; &nbsp; &nbsp;<path class="cls-2" d="M806.75,249.33c2.96-4.62,6-7.18,8.21-7.18,1.93,0,3.24,2.21,4.83,7.52l1.04,3.66c6-8.28,8.97-11.18,12.08-11.18,2,0,2.96,1.45,2.89,2.97,0,.97-.76,2.69-1.66,3.31-.62.48-1.04.62-1.45.56-.76-.14-1.51-1.86-2.56-1.86-1.51,0-4.14,2.76-8.56,8.83l2.28,7.04c1.3,4.14,2.34,6.21,3.52,6.21,1.1,0,2.35-.83,5.03-4.07l1.25,1.59c-2.97,4.69-6.34,7.38-8.83,7.38-1.86,0-3.38-2.28-5.03-7.45l-1.86-6c-6.76,9.73-9.73,13.46-12.83,13.46-1.79,0-3.04-1.31-3.04-3.24.07-2,1.72-4.14,3.04-4.14.97,0,1.59,1.86,2.56,1.86,1.25,0,3.45-2.14,9.53-10.55l-1.86-6.07c-1.18-3.73-1.79-5.03-2.76-5.03-.69,0-2.07.69-4.42,3.93l-1.38-1.52-.02-.02Z"></path>
 &nbsp; &nbsp; &nbsp;<path class="cls-2" d="M855.98,243.06c0,4.78-3.59,7.7-7.52,7.7-4.16,0-7.52-2.91-7.52-7.7s3.42-7.7,7.52-7.7,7.52,3.07,7.52,7.7ZM843.89,243.06c0,3.19,1.88,5.3,4.62,5.3s4.5-2.11,4.5-5.24-1.82-5.35-4.56-5.35c-2.91,0-4.56,2.11-4.56,5.3h0Z"></path>
 &nbsp; &nbsp;</g>
 &nbsp; &nbsp;<path class="cls-2" d="M730,147.64c-82.71,0-150,67.29-150,150s67.29,150,150,150,150-67.29,150-150-67.29-150-150-150ZM730,441.64c-79.41,0-144-64.59-144-144s64.59-144,144-144c36.42,0,69.72,13.59,95.1,35.94,1.5,1.32,3,2.67,4.44,4.08,26.7,25.59,43.62,61.35,44.4,100.98.06.99.06,2.01.06,3s0,2.01-.06,3c-1.56,78.03-65.52,141-143.94,141h0Z"></path>
 &nbsp; &nbsp;<path class="cls-2" d="M792.91,294.64c-.75-16.08-7.56-30.63-18.21-41.34-1.41-1.44-2.88-2.79-4.44-4.05l-4.05,4.38c1.56,1.29,3.03,2.64,4.44,4.08,9.45,9.63,15.54,22.59,16.29,36.93.03.99.06,2.01.06,3s-.03,2.01-.06,3h5.97c.06-.99.09-1.98.09-3s-.03-2.01-.09-3h0Z"></path>
 &nbsp; &nbsp;<rect class="cls-2" x="730" y="294.64" width="147" height="6"></rect>
 &nbsp; &nbsp;<polygon class="cls-2" points="831.46 191.56 829.54 193.66 774.7 253.3 770.65 257.71 742.09 288.76 736.69 294.64 731.98 299.77 730 297.97 727.54 295.72 737.65 284.74 766.21 253.63 770.26 249.25 825.1 189.58 827.02 187.51 831.46 191.56"></polygon>
 &nbsp; &nbsp;<circle class="cls-2" cx="730" cy="297.64" r="15"></circle>
 &nbsp;</g>
</svg>