<!--?xml version="1.0" encoding="UTF-8"?-->
<svg id="Layer_1" xmlns="http://www.w3.org/2000/svg" viewBox="0 0 1460 595.28">
 &nbsp;<defs>
 &nbsp; &nbsp;<style>
 &nbsp; &nbsp; &nbsp;.cls-1 {
 &nbsp; &nbsp; &nbsp; &nbsp;fill: none;
 &nbsp; &nbsp; &nbsp;}

 &nbsp; &nbsp; &nbsp;.cls-2 {
 &nbsp; &nbsp; &nbsp; &nbsp;fill: currentColor;
 &nbsp; &nbsp; &nbsp;}

 &nbsp; &nbsp; &nbsp;.cls-3 {
 &nbsp; &nbsp; &nbsp; &nbsp;fill: currentColor;
 &nbsp; &nbsp; &nbsp;}
 &nbsp; &nbsp;</style>
 &nbsp;</defs>
 &nbsp;<rect class="cls-1" width="1460" height="595.28"></rect>
 &nbsp;<path class="cls-3" d="M746.57,253.15c-1.5-.61-2.98-1.17-4.52-1.6-1.94-.59-3.93-1.05-5.97-1.39l-2.75,5.63c2.05.28,4.08.7,6.08,1.25,7.11,1.94,13.61,5.74,18.96,11.09,4.66,4.66,8.13,10.2,10.22,16.23.68,1.9,1.23,3.9,1.65,5.88l5.53-2.69c-.44-1.97-1.02-3.94-1.75-5.82-2.41-6.64-6.27-12.69-11.4-17.84-4.66-4.66-10.1-8.27-16.02-10.73h0Z"></path>
 &nbsp;<g>
 &nbsp; &nbsp;<path class="cls-3" d="M876.41,269.9v-.03c-.21-.99-.39-1.92-.6-2.9s-.42-1.94-.66-2.93l-5.87,1.23c.24.96.45,1.94.66,2.93s.42,1.94.6,2.93c14.54,76.47-34.9,151.16-111.39,167.36-37.53,7.93-75.93.81-108.11-20.14-32.14-20.92-54.23-53.12-62.2-90.65-16.39-77.5,33.32-153.9,110.81-170.3,10-2.13,20.05-3.17,30.05-3.17,3.89,0,7.79.15,11.64.48,2.01.15,3.98.36,5.95.63l.69-5.95c-2.01-.27-3.98-.45-5.99-.6-14.39-1.23-29.06-.33-43.57,2.75-39.12,8.29-72.67,31.31-94.45,64.79-21.79,33.52-29.24,73.5-20.98,112.59,8.29,39.12,31.31,72.67,64.79,94.45,24.6,15.98,52.68,24.27,81.31,24.27,10.38,0,20.89-1.11,31.27-3.3,39.12-8.29,72.67-31.31,94.45-64.79,21.25-32.68,28.85-71.5,21.58-109.66h0Z"></path>
 &nbsp; &nbsp;<path class="cls-3" d="M747.99,149.38l-.69,5.95c21.31,2.63,41.9,10.15,60.45,22.21,16.07,10.44,29.63,23.73,40.16,39.08,10,14.54,17.24,30.98,21.37,48.63l5.87-1.23c-8.8-37.86-31.48-70.27-64.14-91.52-19.34-12.6-40.82-20.38-63.03-23.14h0v.02Z"></path>
 &nbsp;</g>
 &nbsp;<path class="cls-3" d="M876.41,269.87v.03l-5.87,1.23-126.18,26.73-14.33,3.03-1.05-4.91-.21-.96,2.51-.54,11.82-2.48,126.18-26.73,5.87-1.23c.24.99.44,1.94.66,2.93.21.99.39,1.92.6,2.9h0Z"></path>
 &nbsp;<path class="cls-3" d="M876.41,269.87v.03l-5.87,1.23-126.18,26.73-14.33,3.03-1.05-4.91-.21-.96,2.51-.54,11.82-2.48,126.18-26.73,5.87-1.23c.24.99.44,1.94.66,2.93.21.99.39,1.92.6,2.9h0Z"></path>
 &nbsp;<path class="cls-3" d="M747.99,149.38l-.69,5.95-14.72,127.97-1.29,11.16-.21,1.73-2.09-.24-3.86-.44,1.4-12.24,14.81-128.58.66-5.93c2.01.15,3.98.33,5.99.6h0Z"></path>
 &nbsp;<circle class="cls-3" cx="729.41" cy="297.94" r="14.96"></circle>
 &nbsp;<path class="cls-2" d="M750.67,136.76v-1.6c3.7-.45,4.15-1.02,3.36-3.18-.74-2.21-1.87-5.06-3.07-8.64h-12.28c-.91,2.55-1.76,4.78-2.55,7.11-1.25,3.7-.45,4.15,4.2,4.72v1.6h-13.13v-1.6c3.58-.45,4.49-.85,6.48-5.97l11.77-29.84,1.82-.34c3.58,9.72,7.51,20.47,11.09,30.3,1.82,4.94,2.34,5.41,6.36,5.85v1.6h-14.04ZM744.99,106.46c-1.82,4.89-3.75,10.07-5.46,14.56h10.64l-5.17-14.56h0Z"></path>
 &nbsp;<path class="cls-2" d="M918.55,263.4c5.46.91,9.9,3.52,9.9,9.04,0,3.86-2.16,6.94-5.52,8.75-2.96,1.65-5.86,2.21-9.83,2.21h-13.98v-1.6c4.83-.45,5.12-.97,5.12-5.46v-22.8c0-4.72-.51-5.12-5.12-5.52v-1.6h14.9c4.26,0,6.94.74,8.75,1.99,1.99,1.37,3.36,3.47,3.36,6.36,0,5.34-4.38,7.79-7.56,8.59v.02ZM912.01,262.72c6.25,0,8.81-2.5,8.81-7.17,0-3.98-2.44-7.05-7.9-7.05-1.59,0-2.62.17-3.18.57-.45.34-.63.97-.63,2.79v10.85h2.9,0ZM909.11,276.25c0,4.1.97,5.12,5,5.12,4.44,0,8.75-2.39,8.75-8.36s-4.1-8.3-11.03-8.3h-2.73v11.54Z"></path>
 &nbsp;<path class="cls-2" d="M696.92,305.52c9.72,0,18.42,7.45,18.42,18.76,0,12.22-8.3,19.84-18.76,19.84s-18.87-8.3-18.87-18.99,7.22-19.62,19.21-19.62ZM695.77,307.62c-6.36,0-12.17,5.34-12.17,15.97s5.8,18.37,13.87,18.37c6.88,0,12.06-5.12,12.06-16.09,0-11.94-6.31-18.25-13.76-18.25h0Z"></path>
</svg>