<!--?xml version="1.0" encoding="UTF-8"?-->
<svg id="Layer_1" xmlns="http://www.w3.org/2000/svg" viewBox="0 0 1460 595.28">
 &nbsp;<defs>
 &nbsp; &nbsp;<style>
 &nbsp; &nbsp; &nbsp;.cls-1 {
 &nbsp; &nbsp; &nbsp; &nbsp;fill: none;
 &nbsp; &nbsp; &nbsp;}

 &nbsp; &nbsp; &nbsp;.cls-2 {
 &nbsp; &nbsp; &nbsp; &nbsp;fill: currentColor;
 &nbsp; &nbsp; &nbsp;}

 &nbsp; &nbsp; &nbsp;.cls-3 {
 &nbsp; &nbsp; &nbsp; &nbsp;fill: currentColor;
 &nbsp; &nbsp; &nbsp;}
 &nbsp; &nbsp;</style>
 &nbsp;</defs>
 &nbsp;<rect class="cls-1" width="1460" height="595.28"></rect>
 &nbsp;<g>
 &nbsp; &nbsp;<path class="cls-2" d="M791.46,456.67c2.97-4.64,6.03-7.2,8.24-7.2,1.94,0,3.26,2.22,4.85,7.55l1.04,3.67c6.03-8.31,9-11.22,12.12-11.22,2.01,0,2.97,1.45,2.91,2.98,0,.97-.76,2.7-1.67,3.32-.63.49-1.04.63-1.45.55-.76-.14-1.52-1.87-2.56-1.87-1.52,0-4.15,2.77-8.59,8.86l2.28,7.06c1.32,4.15,2.36,6.23,3.53,6.23,1.1,0,2.36-.83,5.05-4.09l1.24,1.59c-2.97,4.71-6.37,7.41-8.86,7.41-1.87,0-3.4-2.28-5.05-7.47l-1.87-6.03c-6.78,9.77-9.77,13.5-12.88,13.5-1.8,0-3.05-1.32-3.05-3.26.07-2.01,1.73-4.15,3.05-4.15.97,0,1.59,1.87,2.56,1.87,1.24,0,3.46-2.14,9.56-10.6l-1.87-6.09c-1.18-3.74-1.8-5.05-2.77-5.05-.69,0-2.08.69-4.43,3.95l-1.38-1.52h0Z"></path>
 &nbsp; &nbsp;<path class="cls-2" d="M917.94,282c2.97-4.64,6.03-7.2,8.24-7.2,1.94,0,3.26,2.22,4.85,7.55l1.04,3.67c6.03-8.31,9-11.22,12.12-11.22,2.01,0,2.97,1.45,2.91,2.98,0,.97-.76,2.7-1.67,3.32-.63.49-1.04.63-1.45.55-.76-.14-1.52-1.87-2.56-1.87-1.52,0-4.15,2.77-8.59,8.86l2.28,7.06c1.32,4.15,2.36,6.23,3.53,6.23,1.1,0,2.36-.83,5.05-4.09l1.24,1.59c-2.97,4.71-6.37,7.41-8.86,7.41-1.87,0-3.4-2.28-5.05-7.47l-1.87-6.03c-6.78,9.77-9.77,13.5-12.88,13.5-1.8,0-3.05-1.32-3.05-3.26.07-2.01,1.73-4.15,3.05-4.15.97,0,1.59,1.87,2.56,1.87,1.24,0,3.46-2.14,9.56-10.6l-1.87-6.09c-1.18-3.74-1.8-5.05-2.77-5.05-.69,0-2.08.69-4.43,3.95l-1.38-1.52h0Z"></path>
 &nbsp; &nbsp;<path class="cls-3" d="M687.22,393.75c-.69-11.87-5.45-22.68-12.89-30.98-1.33-1.51-2.77-2.95-4.28-4.24l-4.24,4.24c1.51,1.33,2.92,2.74,4.24,4.24,6.39,7.25,10.45,16.51,11.11,26.74.09.99.12,1.99.12,3.01s-.03,2.02-.12,3.01h6.06c.06-.99.09-1.99.09-3.01s-.03-2.02-.09-3.01Z"></path>
 &nbsp; &nbsp;<path class="cls-3" d="M794.81,240.83c8.88,7.9,19.89,12.18,31.03,12.8,2,.13,4.05.13,6.03-.02v-6c-2,.13-4,.13-6,0-9.65-.62-19.05-4.28-26.77-11.06-.76-.64-1.49-1.32-2.22-2.04s-1.41-1.45-2.04-2.22l-4.28,4.28c.66.75,1.34,1.47,2.06,2.19s1.45,1.41,2.19,2.06h0Z"></path>
 &nbsp; &nbsp;<g>
 &nbsp; &nbsp; &nbsp;<path class="cls-2" d="M709.86,369.52h-4.79l-.81,4.28c-.51,2.67,0,3.02,3.67,3.28l-.3,1.41h-12.29l.3-1.41c3.93-.3,4.28-.55,4.99-4.34l.6-3.28h-13.19l.35-1.41c5.69-6.8,12.9-14.65,18.83-21.25h2.22l-3.93,20.5h4.79l-.45,2.22h0ZM704.83,351.94c-4.43,5.09-9.32,10.43-13.25,15.36h10.13l3.22-15.36h-.1Z"></path>
 &nbsp; &nbsp; &nbsp;<path class="cls-2" d="M733.08,350.73h-11.53l-2.92,9.27c2.57-.75,4.28-1.16,5.34-1.16,5.69,0,8.62,3.88,8.62,7.96s-2.32,7.56-6.34,10.07c-2.51,1.56-5.49,2.22-7.75,2.22-3.88,0-6.3-2.06-6.3-3.53,0-1.06,1.01-2.22,1.77-2.26.45-.05.91.25,1.81,1.1,1.51,1.41,3.12,2.37,5.24,2.37,3.73,0,7.36-2.67,7.36-8.36.05-3.98-2.12-6.9-7.15-6.9-1.96,0-3.98.61-4.73.86l-.35-.41,4.53-14.86h13.9l-1.46,3.63h-.02Z"></path>
 &nbsp; &nbsp; &nbsp;<path class="cls-2" d="M753.57,351.79c0,4.23-3.18,6.8-6.65,6.8-3.67,0-6.65-2.57-6.65-6.8s3.02-6.8,6.65-6.8,6.65,2.72,6.65,6.8ZM742.89,351.79c0,2.82,1.67,4.69,4.08,4.69s3.98-1.87,3.98-4.64-1.61-4.73-4.03-4.73c-2.57,0-4.03,1.87-4.03,4.69h0Z"></path>
 &nbsp; &nbsp;</g>
 &nbsp; &nbsp;<g>
 &nbsp; &nbsp; &nbsp;<path class="cls-2" d="M776.11,297.24h-4.79l-.81,4.28c-.51,2.67,0,3.02,3.67,3.28l-.3,1.41h-12.29l.3-1.41c3.93-.3,4.28-.55,4.99-4.34l.6-3.28h-13.19l.35-1.41c5.69-6.8,12.9-14.65,18.83-21.25h2.22l-3.93,20.5h4.79l-.45,2.22h0ZM771.08,279.67c-4.43,5.09-9.32,10.43-13.25,15.36h10.13l3.22-15.36h-.1Z"></path>
 &nbsp; &nbsp; &nbsp;<path class="cls-2" d="M799.33,278.45h-11.53l-2.92,9.27c2.57-.75,4.28-1.16,5.34-1.16,5.69,0,8.62,3.88,8.62,7.96s-2.32,7.56-6.34,10.07c-2.51,1.56-5.49,2.22-7.75,2.22-3.88,0-6.3-2.06-6.3-3.53,0-1.06,1.01-2.22,1.77-2.26.45-.05.91.25,1.81,1.1,1.51,1.41,3.12,2.37,5.24,2.37,3.73,0,7.36-2.67,7.36-8.36.05-3.98-2.12-6.9-7.15-6.9-1.96,0-3.98.61-4.73.86l-.35-.41,4.53-14.86h13.9l-1.46,3.63h-.02Z"></path>
 &nbsp; &nbsp; &nbsp;<path class="cls-2" d="M819.82,279.51c0,4.23-3.18,6.8-6.65,6.8-3.67,0-6.65-2.57-6.65-6.8s3.02-6.8,6.65-6.8,6.65,2.72,6.65,6.8ZM809.14,279.51c0,2.82,1.67,4.69,4.08,4.69s3.98-1.87,3.98-4.64-1.61-4.73-4.03-4.73c-2.57,0-4.03,1.87-4.03,4.69h0Z"></path>
 &nbsp; &nbsp;</g>
 &nbsp; &nbsp;<g>
 &nbsp; &nbsp; &nbsp;<rect class="cls-3" x="862.88" y="294.97" width="50.3" height="3.01"></rect>
 &nbsp; &nbsp; &nbsp;<polygon class="cls-3" points="841.62 296.48 871.58 308.72 864.47 296.48 871.58 284.23 841.62 296.48"></polygon>
 &nbsp; &nbsp;</g>
 &nbsp; &nbsp;<path class="cls-3" d="M729.47,447.96c-83.03,0-150.58-67.55-150.58-150.58s67.55-150.58,150.58-150.58,150.58,67.55,150.58,150.58-67.55,150.58-150.58,150.58ZM729.47,152.82c-79.71,0-144.56,64.85-144.56,144.56s64.85,144.56,144.56,144.56,144.56-64.84,144.56-144.56-64.85-144.56-144.56-144.56Z"></path>
 &nbsp; &nbsp;<path class="cls-3" d="M828.85,198v198.76h-198.76v-198.76h198.76M834.87,191.98h-210.81v210.81h210.81v-210.81h0Z"></path>
 &nbsp; &nbsp;<path class="cls-2" d="M660.2,228.11h-36.14v-36.14h36.14v36.14ZM630.09,222.09h24.09v-24.09h-24.09s0,24.09,0,24.09Z"></path>
 &nbsp; &nbsp;<path class="cls-2" d="M834.87,402.78h-36.14v-36.14h36.14v36.14ZM804.76,396.76h24.09v-24.09h-24.09v24.09h0Z"></path>
 &nbsp; &nbsp;<rect class="cls-3" x="583.07" y="295.64" width="290.24" height="6.02" transform="translate(2.1 602.38) rotate(-45)"></rect>
 &nbsp; &nbsp;<g>
 &nbsp; &nbsp; &nbsp;<g>
 &nbsp; &nbsp; &nbsp; &nbsp;<path class="cls-2" d="M683.63,265.04c3.43-3.43,8.23-3.43,11.13-.53,1.07,1.08,1.79,2.43,1.9,3.9.04.68-.25,2.54-.68,5.26,3.83-1.1,7.98-1.82,11.09,1.29,4.19,4.19,2.68,10.27-.72,13.67-3.98,3.98-9.2,4.61-12.8,1-1.82-1.82-2.03-3.62-1.9-5.19.07-1.08.53-3.4,1-5.44-3.68.97-7.04.9-9.59-1.64-3.11-3.11-3.33-8.41.57-12.31h0ZM684.35,266.69c-2.14,2.14-1.57,4.93.43,6.94,2.61,2.61,5.33,1.82,9.59.51.32-2.47.04-4.69-2.08-6.8-3.01-3-6.08-2.5-7.94-.64ZM705.56,286.98c2.39-2.39,2.29-5.44-.32-8.05-2.86-2.86-6.66-1.86-10.95-.36-.82,3.05-.22,5.8,1.9,7.91,3.3,3.3,7.01,2.86,9.38.51h0Z"></path>
 &nbsp; &nbsp; &nbsp; &nbsp;<path class="cls-2" d="M730.59,270.31l-2.29,2.29-21-9.62-1.54,3.83-2.37-1,2.86-7.01,16.78,7.98c1.03.46,2.14,1.07,2.96,1.61l.07-.07c-.51-.72-1.25-1.82-1.87-2.79l-20.75-34.06,2.37-2.37,24.75,41.21h0Z"></path>
 &nbsp; &nbsp; &nbsp; &nbsp;<path class="cls-2" d="M746.15,238.45c1.15,2.07,2.37,4.5,3.33,6.19l-13.49,13.49-.86-.86c.04-3.9.07-8.16-.21-11.95-.39-4.91-1.1-9.9-4.22-13.02s-6.26-3.11-8.87-.51c-2.47,2.47-2.07,5.94-1.61,8.27l-1.57.06-.86-4.93c-.14-2.36.68-4.97,2.75-7.04,3.4-3.4,8.4-3.76,12.27.11,3.04,3.04,4.08,6.3,4.14,13.17.07,3.15,0,7.59-.07,10.59l6.83-6.83c1.93-1.93,2.29-2.65,1.25-6.12l1.18-.61h0Z"></path>
 &nbsp; &nbsp; &nbsp;</g>
 &nbsp; &nbsp; &nbsp;<g>
 &nbsp; &nbsp; &nbsp; &nbsp;<line class="cls-1" x1="703.47" y1="231.46" x2="729.65" y2="205.29"></line>
 &nbsp; &nbsp; &nbsp; &nbsp;<polygon class="cls-3" points="705.61 233.58 731.78 207.41 729.65 205.29 703.47 231.46 705.61 233.58 705.61 233.58"></polygon>
 &nbsp; &nbsp; &nbsp;</g>
 &nbsp; &nbsp;</g>
 &nbsp; &nbsp;<g>
 &nbsp; &nbsp; &nbsp;<path class="cls-2" d="M774.21,464.93c-6.8,0-15.84-1.32-24.45-6.66-10.56-6.55-18.01-17.53-21.02-30.88l2.94-.66c2.82,12.57,9.8,22.87,19.66,28.99,11.08,6.89,23,6.59,29.13,5.81l.39,2.99c-1.8.23-4.06.42-6.66.42h0Z"></path>
 &nbsp; &nbsp; &nbsp;<polygon class="cls-2" points="729.47 405.8 743.47 434.98 730.82 428.61 719.03 436.43 729.47 405.8"></polygon>
 &nbsp; &nbsp;</g>
 &nbsp;</g>
</svg>