<!--?xml version="1.0" encoding="UTF-8"?-->
<svg id="Layer_1" xmlns="http://www.w3.org/2000/svg" viewBox="0 0 1460 595.28">
 &nbsp;<defs>
 &nbsp; &nbsp;<style>
 &nbsp; &nbsp; &nbsp;.cls-1 {
 &nbsp; &nbsp; &nbsp; &nbsp;fill: none;
 &nbsp; &nbsp; &nbsp;}

 &nbsp; &nbsp; &nbsp;.cls-2 {
 &nbsp; &nbsp; &nbsp; &nbsp;fill: currentColor;
 &nbsp; &nbsp; &nbsp;}

 &nbsp; &nbsp; &nbsp;.cls-3 {
 &nbsp; &nbsp; &nbsp; &nbsp;fill: currentColor;
 &nbsp; &nbsp; &nbsp;}
 &nbsp; &nbsp;</style>
 &nbsp;</defs>
 &nbsp;<rect class="cls-1" width="1460" height="595.28"></rect>
 &nbsp;<path class="cls-3" d="M729.74,147.94c-82.42.02-149.48,67.08-149.5,149.5.02,26.49,6.95,51.39,19.09,73,1.5,2.69,3.11,5.35,4.8,7.92,12.21,18.94,28.61,34.94,47.88,46.69,2.6,1.63,5.31,3.15,8.06,4.59,20.8,11.03,44.54,17.28,69.68,17.29,41.2-.02,78.6-16.78,105.66-43.84,27.06-27.06,43.82-64.45,43.84-105.66-.02-41.2-16.78-78.6-43.84-105.66-27.06-27.06-64.45-43.82-105.66-43.84h0ZM873.24,297.43c.02,79.13-64.37,143.52-143.5,143.5-22.15,0-43.19-5.05-61.92-14.06-2.43-1.16-4.78-2.36-7.13-3.66-10.67-5.9-20.52-13.08-29.34-21.39-2.08-1.94-4.06-3.93-6.01-6.01-7.49-7.95-14.08-16.74-19.62-26.21-1.33-2.3-2.6-4.63-3.83-7-10.02-19.58-15.66-41.71-15.66-65.17,0-39.58,16.08-75.45,42.07-101.43,25.98-25.98,61.85-42.07,101.43-42.07,4.35,0,8.62.21,12.85.6,2.11.17,4.25.4,6.32.7,63.84,8.54,114.53,59.23,123.05,123.05.27,2.09.51,4.19.67,6.3.38,4.23.6,8.5.6,12.85h0Z"></path>
 &nbsp;<path class="cls-3" d="M599.33,370.43c1.5,2.69,3.11,5.35,4.8,7.92.24-2.98.78-5.9,1.6-8.76-1.33-2.3-2.6-4.63-3.83-7-1.08,2.51-1.93,5.14-2.58,7.82h0ZM666.17,336.4c-1.5-.61-2.98-1.16-4.53-1.6-1.94-.6-3.93-1.06-5.96-1.39l-2.75,5.62c2.05.27,4.08.7,6.07,1.24,7.1,1.94,13.59,5.73,18.94,11.08,4.65,4.65,8.12,10.19,10.21,16.22.67,1.9,1.23,3.89,1.65,5.88l5.52-2.69c-.45-1.97-1.02-3.93-1.75-5.81-2.41-6.64-6.26-12.69-11.39-17.82-4.65-4.65-10.09-8.27-16.01-10.72h0ZM652.01,425.06c2.6,1.63,5.31,3.15,8.06,4.59,2.69-.7,5.26-1.63,7.76-2.77-2.43-1.16-4.78-2.36-7.13-3.66-2.81.91-5.71,1.52-8.69,1.84Z"></path>
 &nbsp;<path class="cls-2" d="M765.92,127.33c-.8,2.72-2.28,6.82-3.13,8.58-1.65.34-6.08,1.37-10.39,1.37-13.57,0-20.51-9.03-20.51-18.97,0-11.58,8.8-19.6,21.52-19.6,4.89,0,8.86,1.02,10.73,1.3.23,2.56.62,5.96,1.08,8.8l-1.76.39c-1.14-3.8-2.5-6.14-5.39-7.33-1.48-.68-3.8-1.08-5.96-1.08-9.37,0-14.32,6.93-14.32,16.3,0,10.96,5.68,18,14.88,18,5.8,0,8.63-2.67,11.53-8.35l1.71.57h0Z"></path>
 &nbsp;<path class="cls-2" d="M909.07,257.95c8.01,0,13.06,1.59,16.58,4.95,2.78,2.72,4.82,6.7,4.82,12.15,0,6.65-2.72,12.04-7.1,15.33-4.32,3.24-9.82,4.48-16.81,4.48h-13.29v-1.59c4.89-.46,5.11-.85,5.11-5.51v-22.66c0-4.89-.68-5.11-5.11-5.57v-1.59h15.8ZM903.33,287.32c0,4.26,1.82,5.45,6.08,5.45,10.23,0,15.45-6.99,15.45-16.93,0-6.19-2.1-10.9-6.58-13.63-2.61-1.65-5.91-2.27-9.71-2.27-2.56,0-3.92.34-4.48.8-.51.34-.74.96-.74,3.18v23.4h0Z"></path>
 &nbsp;<path class="cls-2" d="M601.62,412.62c9.71,0,18.4,7.44,18.4,18.75,0,12.21-8.29,19.82-18.74,19.82s-18.86-8.29-18.86-18.97,7.21-19.6,19.19-19.6h0ZM600.48,414.72c-6.37,0-12.15,5.34-12.15,15.96s5.8,18.34,13.86,18.34c6.87,0,12.04-5.11,12.04-16.08,0-11.93-6.3-18.23-13.75-18.23h0Z"></path>
 &nbsp;<polygon class="cls-3" points="871.97 278.28 873.87 277.36 876.5 282.72 872.64 284.58 695.33 370.75 689.81 373.43 631.36 401.82 627.47 403.73 623.45 399.71 625.35 395.82 652.94 339.01 655.69 333.39 742.59 154.53 744.46 150.69 749.84 153.33 748.91 155.23 661.65 334.79 659.01 340.27 632.63 394.55 688.16 367.56 693.57 364.93 871.97 278.28"></polygon>
</svg>