<!--?xml version="1.0" encoding="UTF-8"?-->
<svg id="Layer_1" xmlns="http://www.w3.org/2000/svg" viewBox="0 0 1460 595.28">
 &nbsp;<defs>
 &nbsp; &nbsp;<style>
 &nbsp; &nbsp; &nbsp;.cls-1 {
 &nbsp; &nbsp; &nbsp; &nbsp;fill: none;
 &nbsp; &nbsp; &nbsp;}

 &nbsp; &nbsp; &nbsp;.cls-2 {
 &nbsp; &nbsp; &nbsp; &nbsp;fill: currentColor;
 &nbsp; &nbsp; &nbsp;}

 &nbsp; &nbsp; &nbsp;.cls-3 {
 &nbsp; &nbsp; &nbsp; &nbsp;fill: currentColor;
 &nbsp; &nbsp; &nbsp;}
 &nbsp; &nbsp;</style>
 &nbsp;</defs>
 &nbsp;<rect class="cls-1" width="1460" height="595.28"></rect>
 &nbsp;<g>
 &nbsp; &nbsp;<g>
 &nbsp; &nbsp; &nbsp;<path class="cls-2" d="M800.83,269.29l-2.46,2.46,1.79,2.61c1.11,1.63,1.55,1.55,3.57-.21l.57.88-6.31,6.31-.57-.88c1.86-2.17,1.91-2.48.34-4.79l-1.37-2-6.77,6.78-.55-.91c-.56-6.41-.9-14.15-1.25-20.59l1.14-1.14,8.51,12.54,2.45-2.46.91,1.37v.02ZM789.22,262.85c.34,4.89.57,10.14,1.09,14.69l5.2-5.2-6.23-9.55-.05.05h0Z"></path>
 &nbsp; &nbsp; &nbsp;<path class="cls-2" d="M803.1,247.72l-5.92,5.92,3.25,6.25c.93-1.71,1.61-2.8,2.15-3.34,2.92-2.92,6.41-2.43,8.5-.34s2.69,5.07,1.91,8.43c-.49,2.09-1.68,3.96-2.84,5.12-2,2-4.3,2.17-5.05,1.42-.55-.55-.62-1.66-.25-2.07.2-.26.6-.34,1.5-.36,1.5-.05,2.82-.39,3.91-1.48,1.91-1.91,2.41-5.15-.52-8.07-2.02-2.07-4.63-2.45-7.21.13-1,1.01-1.73,2.35-2,2.87l-.39-.03-5.3-9.96,7.14-7.14,1.11,2.61h0Z"></path>
 &nbsp; &nbsp; &nbsp;<path class="cls-2" d="M814.17,237.74c2.17,2.17,1.86,5.11.08,6.91-1.89,1.89-4.73,2.09-6.9-.08s-1.94-5.04-.08-6.91c1.86-1.86,4.81-2.02,6.91.08ZM808.69,243.22c1.45,1.45,3.25,1.55,4.5.31s1.09-3-.34-4.42c-1.48-1.47-3.26-1.6-4.5-.36-1.32,1.32-1.11,3.03.34,4.47Z"></path>
 &nbsp; &nbsp;</g>
 &nbsp; &nbsp;<g>
 &nbsp; &nbsp; &nbsp;<path class="cls-2" d="M768.83,237.28l-2.46,2.45,1.79,2.61c1.11,1.63,1.55,1.55,3.57-.21l.57.89-6.31,6.31-.57-.88c1.86-2.17,1.91-2.48.34-4.79l-1.37-2-6.77,6.78-.55-.91c-.56-6.41-.9-14.15-1.25-20.59l1.14-1.14,8.51,12.54,2.45-2.45.91,1.37h0ZM757.21,230.85c.34,4.89.57,10.14,1.09,14.69l5.2-5.2-6.23-9.55-.05.05h0Z"></path>
 &nbsp; &nbsp; &nbsp;<path class="cls-2" d="M771.1,215.72l-5.92,5.92,3.25,6.26c.93-1.71,1.6-2.8,2.15-3.34,2.92-2.92,6.41-2.43,8.51-.34s2.69,5.07,1.91,8.43c-.49,2.09-1.68,3.95-2.84,5.12-2,2-4.3,2.18-5.05,1.43-.55-.55-.62-1.66-.25-2.07.2-.26.6-.34,1.5-.36,1.5-.05,2.82-.39,3.91-1.48,1.91-1.91,2.41-5.15-.52-8.07-2.02-2.07-4.63-2.45-7.21.13-1,1-1.73,2.35-2,2.87l-.39-.03-5.3-9.95,7.14-7.14,1.11,2.61h0Z"></path>
 &nbsp; &nbsp; &nbsp;<path class="cls-2" d="M782.17,205.73c2.17,2.18,1.86,5.12.08,6.91-1.89,1.89-4.73,2.09-6.9-.08-2.07-2.07-1.94-5.04-.08-6.9s4.81-2.02,6.91.07ZM776.68,211.22c1.45,1.45,3.25,1.55,4.5.31s1.09-3-.34-4.43c-1.48-1.47-3.26-1.6-4.5-.36-1.32,1.32-1.11,3.03.34,4.48Z"></path>
 &nbsp; &nbsp;</g>
 &nbsp; &nbsp;<g>
 &nbsp; &nbsp; &nbsp;<path class="cls-2" d="M660.05,346.06l-2.46,2.45,1.78,2.61c1.11,1.63,1.55,1.55,3.57-.21l.57.88-6.31,6.31-.57-.88c1.86-2.17,1.91-2.48.34-4.79l-1.37-2-6.77,6.78-.55-.91c-.56-6.41-.9-14.15-1.25-20.59l1.14-1.14,8.51,12.54,2.45-2.45.91,1.37h0ZM648.43,339.62c.34,4.89.57,10.14,1.09,14.69l5.2-5.2-6.23-9.55-.05.05h0Z"></path>
 &nbsp; &nbsp; &nbsp;<path class="cls-2" d="M662.32,324.49l-5.93,5.92,3.25,6.26c.93-1.71,1.6-2.8,2.15-3.34,2.92-2.92,6.41-2.43,8.51-.34s2.69,5.07,1.91,8.43c-.49,2.09-1.68,3.95-2.84,5.12-2,2-4.3,2.17-5.05,1.42-.55-.55-.61-1.66-.25-2.07.2-.26.6-.34,1.5-.36,1.5-.05,2.82-.39,3.91-1.48,1.91-1.91,2.41-5.15-.52-8.07-2.02-2.07-4.63-2.45-7.22.13-1,1-1.73,2.35-2,2.87l-.39-.03-5.3-9.95,7.14-7.14,1.11,2.61h0Z"></path>
 &nbsp; &nbsp; &nbsp;<path class="cls-2" d="M673.39,314.51c2.17,2.17,1.86,5.12.07,6.91-1.89,1.89-4.73,2.09-6.9-.08-2.07-2.07-1.94-5.04-.08-6.9s4.81-2.02,6.91.08h0ZM667.91,319.99c1.45,1.45,3.26,1.55,4.5.31s1.09-3-.34-4.42c-1.48-1.47-3.26-1.6-4.5-.36-1.32,1.32-1.11,3.03.34,4.48h0Z"></path>
 &nbsp; &nbsp;</g>
 &nbsp; &nbsp;<g>
 &nbsp; &nbsp; &nbsp;<path class="cls-2" d="M695.05,375.06l-2.46,2.46,1.79,2.61c1.11,1.63,1.55,1.55,3.57-.21l.57.88-6.31,6.31-.57-.88c1.86-2.17,1.91-2.48.34-4.79l-1.37-2-6.77,6.77-.55-.91c-.56-6.41-.9-14.15-1.25-20.59l1.14-1.14,8.51,12.55,2.45-2.46.91,1.37h0ZM683.43,368.63c.34,4.89.57,10.14,1.09,14.69l5.2-5.2-6.23-9.54-.05.05h0Z"></path>
 &nbsp; &nbsp; &nbsp;<path class="cls-2" d="M697.32,353.5l-5.92,5.92,3.25,6.25c.93-1.7,1.6-2.79,2.15-3.34,2.92-2.92,6.41-2.43,8.5-.34,2,2,2.69,5.07,1.91,8.44-.49,2.09-1.68,3.96-2.84,5.12-2,1.99-4.3,2.17-5.05,1.42-.55-.55-.62-1.66-.25-2.07.2-.25.6-.34,1.5-.36,1.5-.05,2.82-.39,3.91-1.47,1.91-1.91,2.41-5.14-.52-8.07-2.02-2.06-4.63-2.45-7.21.13-1,1.01-1.73,2.36-2,2.87l-.39-.02-5.3-9.96,7.14-7.14,1.11,2.61h0Z"></path>
 &nbsp; &nbsp; &nbsp;<path class="cls-2" d="M708.39,343.52c2.17,2.17,1.86,5.12.08,6.9-1.89,1.89-4.73,2.09-6.9-.08s-1.94-5.05-.08-6.91,4.81-2.02,6.91.08h0ZM702.9,349c1.45,1.45,3.25,1.55,4.5.31,1.25-1.24,1.09-3-.34-4.42s-3.26-1.61-4.5-.36c-1.32,1.32-1.11,3.02.34,4.47h0Z"></path>
 &nbsp; &nbsp;</g>
 &nbsp; &nbsp;<path class="cls-3" d="M730,447.64c-82.71,0-150-67.29-150-150s67.29-150,150-150,150,67.29,150,150-67.29,150-150,150ZM730,153.64c-79.4,0-144,64.6-144,144s64.6,144,144,144,144-64.6,144-144-64.6-144-144-144Z"></path>
 &nbsp; &nbsp;<path class="cls-3" d="M829,198.64v198h-198v-198h198M835,192.64h-210v210h210v-210h0Z"></path>
 &nbsp; &nbsp;<path class="cls-2" d="M661,228.64h-36v-36h36v36ZM631,222.64h24v-24h-24v24Z"></path>
 &nbsp; &nbsp;<path class="cls-2" d="M835,402.64h-36v-36h36v36ZM805,396.64h24v-24h-24v24Z"></path>
 &nbsp; &nbsp;<path class="cls-2" d="M627.12,404.76l-4.24-4.25,14.85-14.85,4.25,4.25s-14.85,14.85-14.85,14.85ZM656.82,375.06l-4.24-4.25,14.85-14.85,4.25,4.25s-14.85,14.85-14.85,14.85ZM686.52,345.36l-4.25-4.25,14.85-14.85,4.25,4.25-14.85,14.85ZM716.21,315.67l-4.25-4.25,14.85-14.85,4.25,4.25-14.85,14.85ZM745.92,285.97l-4.25-4.25,14.85-14.85,4.25,4.25-14.85,14.85ZM775.62,256.27l-4.25-4.25,14.85-14.85,4.25,4.25-14.85,14.85ZM805.32,226.57l-4.25-4.24,14.85-14.85,4.25,4.25s-14.85,14.85-14.85,14.85ZM835.01,196.87l-4.25-4.24,2.11-2.11,4.25,4.24-2.11,2.11Z"></path>
 &nbsp;</g>
</svg>