<!--?xml version="1.0" encoding="UTF-8"?-->
<svg id="Layer_1" xmlns="http://www.w3.org/2000/svg" viewBox="0 0 1460 595.28">
 &nbsp;<defs>
 &nbsp; &nbsp;<style>
 &nbsp; &nbsp; &nbsp;.cls-1 {
 &nbsp; &nbsp; &nbsp; &nbsp;fill: none;
 &nbsp; &nbsp; &nbsp;}

 &nbsp; &nbsp; &nbsp;.cls-2 {
 &nbsp; &nbsp; &nbsp; &nbsp;fill: currentColor;
 &nbsp; &nbsp; &nbsp;}

 &nbsp; &nbsp; &nbsp;.cls-3 {
 &nbsp; &nbsp; &nbsp; &nbsp;fill: currentColor;
 &nbsp; &nbsp; &nbsp;}
 &nbsp; &nbsp;</style>
 &nbsp;</defs>
 &nbsp;<rect class="cls-1" width="1460" height="595.28"></rect>
 &nbsp;<path class="cls-3" d="M730.15,148.05c-82.4,0-149.44,67.04-149.44,149.44s67.04,149.44,149.44,149.44,149.44-67.04,149.44-149.44-67.03-149.44-149.44-149.44ZM730.15,440.95c-79.11,0-143.46-64.35-143.46-143.46s64.35-143.46,143.46-143.46c38.47,0,73.41,15.18,99.2,39.9,1.43,1.37,2.84,2.78,4.25,4.22,24.12,25.14,39.21,59,39.96,96.36.06.98.06,2.01.06,2.99s0,2.01-.06,2.99c-1.56,77.74-65.27,140.48-143.4,140.48h-.01Z"></path>
 &nbsp;<path class="cls-3" d="M780.87,294.5c-.69-11.77-5.41-22.51-12.79-30.76-1.31-1.49-2.75-2.93-4.25-4.22l-4.22,4.22c1.49,1.31,2.9,2.72,4.22,4.22,6.34,7.21,10.37,16.38,11.02,26.54.09.98.12,1.98.12,2.99s-.03,2.01-.12,2.99h6.01c.06-.98.09-1.98.09-2.99s-.03-2.01-.09-2.99h.01Z"></path>
 &nbsp;<path class="cls-3" d="M745.09,297.49c0,1.01-.09,2.04-.3,2.99-1.37,6.82-7.41,11.96-14.65,11.96-8.25,0-14.94-6.69-14.94-14.94s6.69-14.94,14.94-14.94c3.05,0,5.89.93,8.25,2.45,1.68,1.14,3.11,2.57,4.22,4.25,1.04,1.59,1.79,3.35,2.18,5.26.2.95.3,1.98.3,2.99h0Z"></path>
 &nbsp;<g>
 &nbsp; &nbsp;<path class="cls-2" d="M929.16,211.66h-6.67l-1.13,5.97c-.71,3.73,0,4.22,5.13,4.57l-.42,1.97h-17.13l.42-1.97c5.48-.42,5.97-.77,6.95-6.04l.84-4.57h-18.4l.49-1.97c7.93-9.48,17.98-20.44,26.26-29.63h3.09l-5.48,28.59h6.67l-.63,3.09h.01ZM922.14,187.16c-6.18,7.09-12.99,14.53-18.47,21.42h14.12l4.49-21.42h-.14Z"></path>
 &nbsp; &nbsp;<path class="cls-2" d="M961.55,185.47h-16.09l-4.07,12.92c3.58-1.05,5.97-1.62,7.44-1.62,7.93,0,12.01,5.4,12.01,11.1s-3.23,10.53-8.85,14.04c-3.51,2.18-7.66,3.09-10.82,3.09-5.4,0-8.77-2.88-8.77-4.91,0-1.47,1.4-3.09,2.46-3.16.63-.07,1.26.35,2.53,1.55,2.11,1.97,4.35,3.31,7.31,3.31,5.2,0,10.26-3.73,10.26-11.66.07-5.55-2.95-9.62-9.97-9.62-2.74,0-5.55.84-6.6,1.2l-.49-.56,6.32-20.72h19.39l-2.04,5.06h.01Z"></path>
 &nbsp; &nbsp;<path class="cls-2" d="M990.14,186.94c0,5.9-4.42,9.48-9.27,9.48-5.13,0-9.27-3.58-9.27-9.48s4.21-9.48,9.27-9.48,9.27,3.8,9.27,9.48ZM975.24,186.94c0,3.93,2.31,6.53,5.69,6.53s5.55-2.6,5.55-6.46-2.25-6.6-5.62-6.6c-3.58,0-5.62,2.6-5.62,6.53h0Z"></path>
 &nbsp;</g>
 &nbsp;<polygon class="cls-3" points="876.6 294.5 876.6 300.48 722.94 300.48 738.4 285 759.62 263.74 763.84 259.53 829.35 193.92 831.53 191.74 835.74 195.99 833.59 198.14 768.08 263.74 763.84 267.96 742.62 289.24 737.36 294.5 876.6 294.5"></polygon>
 &nbsp;<g>
 &nbsp; &nbsp;<line class="cls-1" x1="788.23" y1="278.95" x2="894.4" y2="224.57"></line>
 &nbsp; &nbsp;<g>
 &nbsp; &nbsp; &nbsp;<rect class="cls-3" x="801.61" y="245.43" width="98.19" height="2.99" transform="translate(-19.03 414.95) rotate(-27.12)"></rect>
 &nbsp; &nbsp; &nbsp;<polygon class="cls-3" points="788.23 278.95 820.23 276.21 808.42 268.61 809.16 254.58 788.23 278.95"></polygon>
 &nbsp; &nbsp;</g>
 &nbsp;</g>
</svg>