<!--?xml version="1.0" encoding="UTF-8"?-->
<svg id="Layer_1" xmlns="http://www.w3.org/2000/svg" viewBox="0 0 1460 595.28">
 &nbsp;<defs>
 &nbsp; &nbsp;<style>
 &nbsp; &nbsp; &nbsp;.cls-1 {
 &nbsp; &nbsp; &nbsp; &nbsp;fill: none;
 &nbsp; &nbsp; &nbsp;}

 &nbsp; &nbsp; &nbsp;.cls-2 {
 &nbsp; &nbsp; &nbsp; &nbsp;fill: currentColor;
 &nbsp; &nbsp; &nbsp;}
 &nbsp; &nbsp;</style>
 &nbsp;</defs>
 &nbsp;<rect class="cls-1" width="1460" height="595.28"></rect>
 &nbsp;<g>
 &nbsp; &nbsp;<path class="cls-2" d="M618.76,333.3c2.16-2.98,5.31-5.72,7.18-5.72s2.34,1.99,2.45,6.95c.12,4.26.12,9.58.06,12.79,3.68-5.78,7.94-12.38,11.39-18.75h1.52c.41,6.25,1.05,13.61,1.69,20.15,2.81-3.45,8.47-11.1,8.53-14.72,0-1.23-.58-2.16-.88-2.8-.23-.47-.35-.82-.18-1.29.47-1.23,2.28-2.34,3.33-2.34,1.46,0,2.22,1.34,2.22,3.33,0,1.58-.47,3.21-1.52,5.14-2.63,4.91-8.64,12.44-13.49,18.57h-1.69c-.41-5.08-.99-12.32-1.58-18.16-3.8,6.37-8.41,13.08-11.56,18.16h-1.64c0-4.67,0-13.08-.41-19.27-.18-2.39-.41-3.5-.94-3.5-.47,0-1.58.76-3.5,2.86l-.99-1.4Z"></path>
 &nbsp; &nbsp;<path class="cls-2" d="M701.07,418.94c2.16-2.98,5.32-5.72,7.18-5.72s2.34,1.99,2.46,6.95c.11,4.26.11,9.58.06,12.79,3.68-5.78,7.94-12.38,11.39-18.75h1.52c.41,6.25,1.05,13.61,1.7,20.15,2.8-3.45,8.47-11.1,8.53-14.72,0-1.23-.59-2.16-.88-2.8-.23-.47-.35-.82-.17-1.29.47-1.23,2.28-2.34,3.33-2.34,1.46,0,2.22,1.34,2.22,3.33,0,1.58-.47,3.21-1.52,5.14-2.63,4.91-8.64,12.44-13.49,18.57h-1.69c-.41-5.08-.99-12.32-1.58-18.16-3.8,6.37-8.41,13.08-11.56,18.16h-1.64c0-4.67,0-13.08-.41-19.27-.17-2.39-.41-3.5-.94-3.5-.47,0-1.58.76-3.5,2.86l-.99-1.4Z"></path>
 &nbsp; &nbsp;<path class="cls-2" d="M772.3,328.04c-3.68,5.26-15.13,15.95-19.15,20.33.87-.06,2.04.23,3.33.64,2.28.76,4.73,1.87,6.6,1.87,1.52,0,3.21-.64,6.31-5.49l1.4,1.11c-3.1,6.13-6.02,8.59-8.58,8.59-2.39,0-5.2-1.58-8-2.86-1.69-.82-2.8-.93-3.62-.41-.76.47-1.23,1.11-1.69,1.75-.47.58-.58.82-.82.82s-.93-.76-.93-1.46c0-.76.53-1.75,2.98-4.44,3.8-4.32,12.97-13.08,16.06-16.59-.93.12-1.98.17-3.21.12-1.63-.06-4.44-.29-5.84-.29-2.39,0-3.97,1.75-5.72,4.85l-1.46-.93c1.87-4.38,4.15-7.94,5.96-7.94,2.28,0,9.17,1.28,11.68,1.28.93,0,2.22-.82,3.62-2.39l1.11,1.46Z"></path>
 &nbsp; &nbsp;<path class="cls-2" d="M585.26,413.68c-3.68,5.26-15.13,15.95-19.15,20.33.87-.06,2.04.23,3.33.64,2.28.76,4.73,1.87,6.6,1.87,1.52,0,3.21-.64,6.31-5.49l1.4,1.11c-3.1,6.13-6.02,8.59-8.58,8.59-2.39,0-5.2-1.58-8-2.86-1.69-.82-2.8-.93-3.62-.41-.76.47-1.23,1.11-1.69,1.75-.47.58-.58.82-.82.82s-.93-.76-.93-1.46c0-.76.53-1.75,2.98-4.44,3.8-4.32,12.97-13.08,16.06-16.59-.93.12-1.98.17-3.21.12-1.63-.06-4.44-.29-5.84-.29-2.39,0-3.97,1.75-5.72,4.85l-1.46-.93c1.87-4.38,4.15-7.94,5.96-7.94,2.28,0,9.17,1.28,11.68,1.28.93,0,2.22-.82,3.62-2.39l1.11,1.46Z"></path>
 &nbsp; &nbsp;<path class="cls-2" d="M734.2,166.34c2.16-2.98,5.31-5.72,7.18-5.72s2.34,1.99,2.45,6.95c.12,4.26.12,9.58.06,12.79,3.68-5.78,7.94-12.38,11.39-18.75h1.52c.41,6.25,1.05,13.61,1.69,20.15,2.81-3.45,8.47-11.1,8.53-14.72,0-1.23-.58-2.16-.88-2.8-.23-.47-.35-.82-.18-1.29.47-1.23,2.28-2.34,3.33-2.34,1.46,0,2.22,1.34,2.22,3.33,0,1.58-.47,3.21-1.52,5.14-2.63,4.91-8.64,12.44-13.49,18.57h-1.69c-.41-5.08-.99-12.32-1.58-18.16-3.8,6.37-8.41,13.08-11.56,18.16h-1.64c0-4.67,0-13.08-.41-19.27-.18-2.39-.41-3.5-.94-3.5-.47,0-1.58.76-3.5,2.86l-.99-1.4Z"></path>
 &nbsp; &nbsp;<path class="cls-2" d="M816.51,251.98c2.16-2.98,5.32-5.72,7.18-5.72s2.34,1.99,2.46,6.95c.11,4.26.11,9.58.06,12.79,3.68-5.78,7.94-12.38,11.39-18.75h1.52c.41,6.25,1.05,13.61,1.7,20.15,2.8-3.45,8.47-11.1,8.53-14.72,0-1.23-.59-2.16-.88-2.8-.23-.47-.35-.82-.17-1.29.47-1.23,2.28-2.34,3.33-2.34,1.46,0,2.22,1.34,2.22,3.33,0,1.58-.47,3.21-1.52,5.14-2.63,4.91-8.64,12.44-13.49,18.57h-1.69c-.41-5.08-.99-12.32-1.58-18.16-3.8,6.37-8.41,13.08-11.56,18.16h-1.64c0-4.67,0-13.08-.41-19.27-.17-2.39-.41-3.5-.94-3.5-.47,0-1.58.76-3.5,2.86l-.99-1.4Z"></path>
 &nbsp; &nbsp;<path class="cls-2" d="M887.74,161.08c-3.68,5.26-15.13,15.95-19.15,20.33.87-.06,2.04.23,3.33.64,2.28.76,4.73,1.87,6.6,1.87,1.52,0,3.21-.64,6.31-5.49l1.4,1.11c-3.1,6.13-6.02,8.59-8.58,8.59-2.39,0-5.2-1.58-8-2.86-1.69-.82-2.8-.93-3.62-.41-.76.47-1.23,1.11-1.69,1.75-.47.58-.58.82-.82.82s-.93-.76-.93-1.46c0-.76.53-1.75,2.98-4.44,3.8-4.32,12.97-13.08,16.06-16.59-.93.12-1.98.17-3.21.12-1.63-.06-4.44-.29-5.84-.29-2.39,0-3.97,1.75-5.72,4.85l-1.46-.93c1.87-4.38,4.15-7.94,5.96-7.94,2.28,0,9.17,1.28,11.68,1.28.93,0,2.22-.82,3.62-2.39l1.11,1.46Z"></path>
 &nbsp; &nbsp;<path class="cls-2" d="M700.7,246.72c-3.68,5.26-15.13,15.95-19.16,20.33.88-.06,2.04.23,3.33.64,2.28.76,4.73,1.87,6.6,1.87,1.52,0,3.21-.64,6.31-5.49l1.4,1.11c-3.1,6.13-6.02,8.59-8.58,8.59-2.4,0-5.2-1.58-8-2.86-1.69-.82-2.8-.93-3.62-.41-.76.47-1.23,1.11-1.69,1.75-.47.58-.58.82-.82.82s-.94-.76-.94-1.46c0-.76.53-1.75,2.98-4.44,3.8-4.32,12.97-13.08,16.06-16.59-.94.12-1.99.17-3.21.12-1.64-.06-4.44-.29-5.84-.29-2.39,0-3.97,1.75-5.72,4.85l-1.46-.93c1.87-4.38,4.15-7.94,5.96-7.94,2.28,0,9.17,1.28,11.68,1.28.93,0,2.22-.82,3.62-2.39l1.11,1.46Z"></path>
 &nbsp; &nbsp;<path class="cls-2" d="M817.26,208.25h-5.11c.08.84.13,1.68.13,2.54s-.05,1.7-.13,2.54c-1.3,12.88-12.17,22.96-25.37,22.96-3.99,0-7.77-.91-11.15-2.57-.76-.38-1.52-.79-2.24-1.24-.74-.46-1.42-.94-2.11-1.45l-2.82,4.24c.69.51,1.4.99,2.11,1.42.71.46,1.45.89,2.21,1.27,4.19,2.18,8.94,3.4,14,3.4,16,0,29.18-12.37,30.48-28.04.08-.84.1-1.68.1-2.54s-.03-1.7-.1-2.54ZM799.5,188.69c.74.41,1.45.86,2.13,1.37.69.48,1.35,1.02,1.98,1.6l2.84-4.27c-.66-.56-1.32-1.07-2.03-1.55-.69-.51-1.4-.97-2.13-1.37-4.55-2.72-9.86-4.27-15.52-4.27-16,0-29.18,12.37-30.48,28.04-.08.84-.1,1.68-.1,2.54s.03,1.7.1,2.54h5.11c-.08-.84-.13-1.68-.13-2.54s.05-1.7.13-2.54c1.27-12.88,12.17-22.96,25.37-22.96,4.62,0,8.97,1.24,12.73,3.4Z"></path>
 &nbsp; &nbsp;<path class="cls-2" d="M833.28,208.25c-.76-13.89-7.62-26.16-17.93-34.19-.66-.53-1.35-1.04-2.06-1.52-.69-.48-1.4-.94-2.11-1.4l-2.84,4.24c.74.43,1.45.91,2.13,1.4.71.48,1.4.99,2.06,1.52,8.97,7.11,14.91,17.86,15.65,29.95.05.84.08,1.68.08,2.54s-.03,1.7-.08,2.54h5.11c.03-.84.05-1.68.05-2.54s-.03-1.7-.05-2.54ZM764.53,245.76c-.71-.46-1.42-.91-2.08-1.42-9.75-7.09-16.31-18.29-17.07-31.01-.05-.84-.08-1.68-.08-2.54s.03-1.7.08-2.54h-5.11c-.03.84-.05,1.68-.05,2.54s.03,1.7.05,2.54c.81,14.5,8.26,27.25,19.35,35.23.69.53,1.4.99,2.11,1.42.71.48,1.42.91,2.16,1.32l2.82-4.22c-.76-.43-1.47-.86-2.18-1.32Z"></path>
 &nbsp; &nbsp;<path class="cls-2" d="M845.17,208.25c-.76-18.03-9.7-33.96-23.22-44.12-.69-.53-1.37-1.04-2.06-1.5-.71-.48-1.4-.97-2.13-1.4l-2.82,4.24c.74.43,1.42.89,2.13,1.37.69.48,1.4.99,2.06,1.5,12.14,9.3,20.22,23.65,20.96,39.9.05.84.08,1.68.08,2.54s-.03,1.7-.08,2.54h5.08c.05-.84.08-1.68.08-2.54s-.03-1.7-.08-2.54Z"></path>
 &nbsp; &nbsp;<path class="cls-2" d="M757.92,255.7c-.71-.46-1.42-.94-2.11-1.42-12.93-9.25-21.56-24.08-22.35-40.94-.05-.84-.08-1.68-.08-2.54s.03-1.7.08-2.54h-5.08c-.05.84-.08,1.68-.08,2.54s.03,1.7.08,2.54c.79,18.64,10.34,35.03,24.64,45.16.69.51,1.4.99,2.11,1.42.71.48,1.42.94,2.16,1.35l2.82-4.24c-.74-.43-1.47-.86-2.18-1.32Z"></path>
 &nbsp; &nbsp;<path class="cls-2" d="M701.05,381.96h-5.11c.08.84.13,1.68.13,2.54s-.05,1.7-.13,2.54c-1.27,12.85-12.19,22.96-25.37,22.96-3.84,0-7.49-.86-10.77-2.39-.76-.36-1.52-.76-2.24-1.19-.74-.43-1.45-.91-2.13-1.4l-2.82,4.22c.69.51,1.4.99,2.13,1.42.74.43,1.47.86,2.24,1.22,4.09,2.06,8.71,3.2,13.59,3.2,16,0,29.18-12.4,30.48-28.04.08-.84.1-1.68.1-2.54s-.03-1.7-.1-2.54ZM688.6,359.81c-.69-.51-1.4-.99-2.13-1.4-4.65-2.87-10.08-4.5-15.9-4.5-16,0-29.18,12.37-30.48,28.04-.08.84-.1,1.68-.1,2.54s.03,1.7.1,2.54h5.11c-.08-.84-.13-1.68-.13-2.54s.05-1.7.13-2.54c1.27-12.88,12.17-22.96,25.37-22.96,4.78,0,9.25,1.32,13.08,3.63.74.43,1.45.91,2.13,1.42.69.51,1.35,1.04,1.96,1.63l2.84-4.27c-.64-.56-1.3-1.09-1.98-1.6Z"></path>
 &nbsp; &nbsp;<path class="cls-2" d="M717.08,381.96c-.76-13.72-7.47-25.88-17.6-33.91-.66-.53-1.32-1.04-2.03-1.52-.69-.51-1.37-.97-2.11-1.42l-2.82,4.24c.71.43,1.42.89,2.11,1.4.71.48,1.37,1.02,2.03,1.55,8.76,7.09,14.58,17.7,15.32,29.67.05.84.08,1.68.08,2.54s-.03,1.7-.08,2.54h5.11c.03-.84.05-1.68.05-2.54s-.03-1.7-.05-2.54ZM648.73,419.7c-.74-.43-1.45-.91-2.13-1.42-9.93-7.04-16.64-18.36-17.42-31.24-.05-.84-.08-1.68-.08-2.54s.03-1.7.08-2.54h-5.11c-.03.84-.05,1.68-.05,2.54s.03,1.7.05,2.54c.81,14.66,8.41,27.53,19.71,35.51.69.48,1.4.94,2.11,1.4.71.46,1.45.89,2.18,1.3l2.84-4.27c-.76-.38-1.47-.81-2.18-1.27Z"></path>
 &nbsp; &nbsp;<path class="cls-2" d="M728.97,381.96c-.74-17.86-9.55-33.66-22.86-43.87-.66-.53-1.35-1.04-2.06-1.5-.69-.51-1.4-.99-2.11-1.42l-2.79,4.22c.71.46,1.42.91,2.11,1.42.69.48,1.37.97,2.03,1.5,11.94,9.3,19.86,23.55,20.6,39.65.05.84.08,1.68.08,2.54s-.03,1.7-.08,2.54h5.08c.05-.84.08-1.68.08-2.54s-.03-1.7-.08-2.54ZM642.1,429.63c-.71-.43-1.42-.91-2.11-1.4-13.16-9.19-21.97-24.18-22.76-41.2-.05-.84-.08-1.68-.08-2.54s.03-1.7.08-2.54h-5.08c-.05.84-.08,1.68-.08,2.54s.03,1.7.08,2.54c.79,18.8,10.52,35.31,25.02,45.42.69.51,1.4.97,2.11,1.42.71.46,1.45.91,2.18,1.3l2.82-4.24c-.74-.38-1.47-.84-2.18-1.3Z"></path>
 &nbsp; &nbsp;<g>
 &nbsp; &nbsp; &nbsp;<g>
 &nbsp; &nbsp; &nbsp; &nbsp;<rect class="cls-2" x="456.68" y="208.25" width="546.66" height="5.08"></rect>
 &nbsp; &nbsp; &nbsp; &nbsp;<polygon class="cls-2" points="1024.85 210.79 994.53 198.39 1001.72 210.79 994.53 223.17 1024.85 210.79"></polygon>
 &nbsp; &nbsp; &nbsp; &nbsp;<polygon class="cls-2" points="435.15 210.79 465.47 198.39 458.28 210.79 465.47 223.17 435.15 210.79"></polygon>
 &nbsp; &nbsp; &nbsp;</g>
 &nbsp; &nbsp; &nbsp;<g>
 &nbsp; &nbsp; &nbsp; &nbsp;<rect class="cls-2" x="456.68" y="381.96" width="546.66" height="5.08"></rect>
 &nbsp; &nbsp; &nbsp; &nbsp;<polygon class="cls-2" points="1024.85 384.49 994.53 372.1 1001.72 384.49 994.53 396.88 1024.85 384.49"></polygon>
 &nbsp; &nbsp; &nbsp; &nbsp;<polygon class="cls-2" points="435.15 384.49 465.47 372.1 458.28 384.49 465.47 396.88 435.15 384.49"></polygon>
 &nbsp; &nbsp; &nbsp;</g>
 &nbsp; &nbsp;</g>
 &nbsp; &nbsp;<g>
 &nbsp; &nbsp; &nbsp;<line class="cls-1" x1="869.11" y1="88.73" x2="590.89" y2="506.54"></line>
 &nbsp; &nbsp; &nbsp;<g>
 &nbsp; &nbsp; &nbsp; &nbsp;<polygon class="cls-2" points="871.23 90.14 869.5 92.73 821.95 164.13 819.14 168.34 815.35 174.06 812.53 178.3 806.46 187.39 803.62 191.66 792.57 208.25 790.89 210.79 789.19 213.33 775.62 233.72 772.78 237.97 766.71 247.08 763.89 251.3 760.11 257.02 757.29 261.26 706.11 338.09 703.29 342.31 699.48 348.05 696.66 352.29 690.59 361.41 687.74 365.68 676.9 381.96 675.19 384.5 673.52 387.04 659.8 407.61 656.98 411.88 650.91 420.97 648.07 425.24 644.28 430.93 641.46 435.17 594.7 505.38 593 507.94 590.89 506.55 588.78 505.12 590.48 502.56 637.17 432.45 639.99 428.24 643.77 422.55 646.59 418.28 652.61 409.24 655.43 405.02 667.42 387.04 669.1 384.5 670.8 381.96 683.65 362.63 686.47 358.41 692.52 349.35 695.34 345.1 699.15 339.39 701.94 335.17 753.02 258.49 755.81 254.27 759.62 248.56 762.44 244.34 768.46 235.27 771.28 231.03 783.09 213.33 784.77 210.79 786.47 208.25 799.5 188.69 802.29 184.47 808.34 175.38 811.18 171.14 814.94 165.47 817.76 161.23 865.29 89.88 866.99 87.32 869.1 88.74 871.23 90.14"></polygon>
 &nbsp; &nbsp; &nbsp; &nbsp;<polygon class="cls-2" points="881.04 70.82 853.91 89.19 868.22 90.07 874.54 102.93 881.04 70.82"></polygon>
 &nbsp; &nbsp; &nbsp; &nbsp;<polygon class="cls-2" points="578.96 524.45 585.46 492.35 591.78 505.2 606.08 506.08 578.96 524.45"></polygon>
 &nbsp; &nbsp; &nbsp;</g>
 &nbsp; &nbsp;</g>
 &nbsp; &nbsp;<path class="cls-2" d="M524.33,197.24h-14.95l.31-1.72c4.41-.49,4.9-1.04,4.6-3.68-.31-2.51-.8-5.58-1.35-9.13h-12.87c-1.04,1.96-3.12,5.52-4.53,8.27-1.9,3.62-.98,4.04,3.74,4.53l-.37,1.72h-14.03l.43-1.72c3.92-.49,4.72-.86,7.72-5.88l18.81-32.72,2.02-.31c2.7,18.02,4.04,26.23,5.27,33.64.67,4.29,1.16,4.84,5.64,5.27l-.43,1.72ZM510.24,164.33h-.12c-3.12,5.7-6.25,11.28-8.76,15.93h11.21l-2.33-15.93Z"></path>
 &nbsp; &nbsp;<path class="cls-2" d="M507.11,332.74c7.17,0,11.89,2.51,11.89,8.52,0,5.21-4.23,8.58-9.44,9.74,4.54,1.1,8.7,4.17,8.7,9.44,0,7.54-7.17,12.13-16.67,12.13h-16.3l.37-1.72c4.84-.43,5.51-.74,6.5-5.64l4.96-25.55c.8-4.41.18-4.78-4.84-5.21l.37-1.72h14.46ZM497.12,364.97c-.86,4.53.61,5.45,5.09,5.45,6.07,0,10.48-4.11,10.48-10.05s-4.72-8.21-9.99-8.21h-3.12l-2.45,12.81ZM503.62,350.08c7.05,0,9.99-3.8,9.99-8.76s-3.86-6.56-7.29-6.56c-2.45,0-3.43.06-3.98,3.25l-2.33,12.07h3.62Z"></path>
 &nbsp;</g>
</svg>