<!--?xml version="1.0" encoding="UTF-8"?-->
<svg id="Layer_1" xmlns="http://www.w3.org/2000/svg" viewBox="0 0 1460 595.28">
 &nbsp;<defs>
 &nbsp; &nbsp;<style>
 &nbsp; &nbsp; &nbsp;.cls-1 {
 &nbsp; &nbsp; &nbsp; &nbsp;fill: none;
 &nbsp; &nbsp; &nbsp;}

 &nbsp; &nbsp; &nbsp;.cls-2 {
 &nbsp; &nbsp; &nbsp; &nbsp;fill: currentColor;
 &nbsp; &nbsp; &nbsp;}
 &nbsp; &nbsp;</style>
 &nbsp;</defs>
 &nbsp;<rect class="cls-1" width="1460" height="595.28"></rect>
 &nbsp;<g>
 &nbsp; &nbsp;<g>
 &nbsp; &nbsp; &nbsp;<path class="cls-2" d="M786,370.88v3.75c0,3.26.2,3.5,3.7,3.85v1.38h-11.55v-1.38c3.7-.35,3.95-.64,3.95-3.9v-3.7h-13.03v-1.48c4.69-6.66,9.77-13.86,14.7-20.72h2.22v19.83h4.84v2.37h-4.84ZM782.1,353.86c-3.11,4.54-6.56,9.57-9.97,14.65h9.97v-14.65Z"></path>
 &nbsp; &nbsp; &nbsp;<path class="cls-2" d="M812.15,349.12l.3.4-1.28,3.26h-11.35c-.44,2.71-1.09,6.56-1.53,8.98,1.87-.69,4.59-1.43,5.82-1.43,6.06,0,9.27,4.29,9.27,8.39,0,2.96-1.23,5.82-4.24,8.29-2.71,2.17-6.12,3.45-8.73,3.45-2.32,0-4.14-.94-5.13-1.92-.69-.64-.89-1.03-.79-1.68,0-.44.4-1.19,1.04-1.68.44-.3.89-.4,1.38,0,1.43,1.28,3.16,2.71,6.22,2.71,4.14,0,6.12-3.55,6.12-7.25,0-4.34-2.62-7.45-8.09-7.45-2.02,0-3.65.44-4.93.89l-.15-.2c.74-3.85,1.82-10.81,2.37-14.75h13.72Z"></path>
 &nbsp; &nbsp; &nbsp;<path class="cls-2" d="M824.83,348.53c3.65,0,6.76,2.61,6.76,6.81s-3.26,6.91-6.76,6.91c-3.7,0-6.81-2.61-6.81-6.91,0-4.04,3.11-6.81,6.81-6.81ZM824.83,350.75c-2.56,0-4.1,1.92-4.1,4.59s1.73,4.64,4.1,4.64,4.05-1.73,4.05-4.54-1.68-4.69-4.05-4.69Z"></path>
 &nbsp; &nbsp;</g>
 &nbsp; &nbsp;<g>
 &nbsp; &nbsp; &nbsp;<path class="cls-2" d="M627.1,243.92v3.75c0,3.26.2,3.5,3.7,3.85v1.38h-11.55v-1.38c3.7-.35,3.95-.64,3.95-3.9v-3.7h-13.03v-1.48c4.69-6.66,9.77-13.86,14.7-20.72h2.22v19.83h4.83v2.37h-4.83ZM623.2,226.9c-3.11,4.54-6.56,9.57-9.96,14.65h9.96v-14.65Z"></path>
 &nbsp; &nbsp; &nbsp;<path class="cls-2" d="M653.25,222.16l.3.4-1.28,3.26h-11.35c-.44,2.71-1.09,6.56-1.53,8.98,1.88-.69,4.59-1.43,5.82-1.43,6.07,0,9.27,4.29,9.27,8.39,0,2.96-1.23,5.82-4.24,8.29-2.71,2.17-6.12,3.45-8.73,3.45-2.32,0-4.14-.94-5.13-1.92-.69-.64-.89-1.03-.79-1.68,0-.44.39-1.19,1.03-1.68.44-.3.89-.4,1.38,0,1.43,1.28,3.16,2.71,6.22,2.71,4.15,0,6.12-3.55,6.12-7.25,0-4.34-2.61-7.45-8.09-7.45-2.02,0-3.65.44-4.93.89l-.15-.2c.74-3.85,1.82-10.81,2.37-14.75h13.72Z"></path>
 &nbsp; &nbsp; &nbsp;<path class="cls-2" d="M665.93,221.57c3.65,0,6.76,2.61,6.76,6.81s-3.26,6.91-6.76,6.91c-3.7,0-6.81-2.61-6.81-6.91,0-4.04,3.11-6.81,6.81-6.81ZM665.93,223.79c-2.56,0-4.1,1.92-4.1,4.59s1.73,4.64,4.1,4.64,4.05-1.73,4.05-4.54-1.68-4.69-4.05-4.69Z"></path>
 &nbsp; &nbsp;</g>
 &nbsp; &nbsp;<g>
 &nbsp; &nbsp; &nbsp;<path class="cls-2" d="M691.59,455.84v5c0,4.34.26,4.67,4.93,5.13v1.84h-15.39v-1.84c4.93-.46,5.26-.86,5.26-5.2v-4.93h-17.37v-1.97c6.25-8.89,13.03-18.49,19.61-27.64h2.96v26.45h6.45v3.16h-6.45ZM686.4,433.14c-4.14,6.06-8.75,12.77-13.29,19.54h13.29v-19.54Z"></path>
 &nbsp; &nbsp; &nbsp;<path class="cls-2" d="M715.6,426.03c9.87,0,13.56,11.05,13.56,21.25,0,9.61-3.68,21.32-13.56,21.32s-13.75-10.86-13.75-21.25c0-9.61,3.75-21.32,13.75-21.32ZM715.6,428.34c-6.12,0-7.63,9.67-7.63,18.89s1.84,19.08,7.63,19.08,7.5-9.8,7.5-19.02-1.64-18.95-7.5-18.95Z"></path>
 &nbsp; &nbsp; &nbsp;<path class="cls-2" d="M766.84,404.78h2.49l-10.52,65.67-16.73-34.44-6.68,3.07-1.15-2.16,10.15-5.09,13.66,27.76,8.77-54.81Z"></path>
 &nbsp; &nbsp; &nbsp;<path class="cls-2" d="M798.98,459.06c-.86,2.96-1.98,6.32-2.63,8.75h-24.81v-1.58c3.62-3.56,7.56-7.44,10.79-11.19,4.15-4.87,8.1-10.13,8.1-15.86s-2.9-8.62-7.7-8.62c-4.54,0-7.37,3.55-9.08,6.12l-1.51-1.38,3.75-5.33c2.04-2.3,5.2-3.95,9.02-3.95,6.25,0,11.19,4.28,11.19,11.38,0,5.6-2.04,9.54-8.29,15.93-2.83,2.96-6.97,6.97-9.8,9.67h12.57c3.55,0,4.54-.33,6.78-4.47l1.64.53Z"></path>
 &nbsp; &nbsp;</g>
 &nbsp; &nbsp;<path class="cls-2" d="M909.62,393.24h-312.38v-245.6l312.38,245.6ZM603.82,386.66h286.79l-286.79-225.48v225.48Z"></path>
 &nbsp; &nbsp;<path class="cls-2" d="M642.26,391.59h-43.38v-43.38h43.38v43.38ZM602.17,388.3h36.8v-36.8h-36.8v36.8Z"></path>
 &nbsp; &nbsp;<rect class="cls-2" x="766.82" y="403.1" width="29.21" height="3.29"></rect>
 &nbsp; &nbsp;<g>
 &nbsp; &nbsp; &nbsp;<path class="cls-2" d="M469.66,291.74v5c0,4.34.26,4.67,4.93,5.13v1.84h-15.4v-1.84c4.93-.46,5.26-.86,5.26-5.2v-4.93h-17.37v-1.97c6.25-8.89,13.03-18.49,19.61-27.64h2.96v26.45h6.45v3.16h-6.45ZM464.47,269.03c-4.15,6.06-8.75,12.77-13.29,19.54h13.29v-19.54Z"></path>
 &nbsp; &nbsp; &nbsp;<path class="cls-2" d="M493.67,261.93c9.87,0,13.56,11.05,13.56,21.25,0,9.61-3.68,21.32-13.56,21.32s-13.75-10.86-13.75-21.25c0-9.61,3.75-21.32,13.75-21.32ZM493.67,264.23c-6.12,0-7.63,9.67-7.63,18.89s1.84,19.08,7.63,19.08,7.5-9.8,7.5-19.02-1.64-18.95-7.5-18.95Z"></path>
 &nbsp; &nbsp; &nbsp;<path class="cls-2" d="M544.91,240.67h2.5l-10.52,65.67-16.73-34.44-6.68,3.07-1.15-2.16,10.15-5.09,13.66,27.76,8.77-54.81Z"></path>
 &nbsp; &nbsp; &nbsp;<path class="cls-2" d="M577.05,294.96c-.86,2.96-1.98,6.32-2.63,8.75h-24.81v-1.58c3.62-3.56,7.56-7.44,10.79-11.19,4.15-4.87,8.1-10.13,8.1-15.86s-2.9-8.62-7.7-8.62c-4.54,0-7.37,3.55-9.08,6.12l-1.51-1.38,3.75-5.33c2.04-2.3,5.2-3.95,9.01-3.95,6.25,0,11.19,4.28,11.19,11.38,0,5.6-2.04,9.54-8.29,15.93-2.83,2.96-6.97,6.97-9.8,9.67h12.57c3.55,0,4.54-.33,6.78-4.47l1.64.53Z"></path>
 &nbsp; &nbsp;</g>
 &nbsp; &nbsp;<g>
 &nbsp; &nbsp; &nbsp;<path class="cls-2" d="M776.76,217.75c6.32,0,10.73,4.41,10.73,9.74,0,1.98-.59,3.88-1.84,5.33-.59.66-2.57,2.1-5.46,4.21,4.54,2.5,9.01,5.66,9.01,11.38,0,7.7-6.97,11.91-13.23,11.91-7.3,0-12.7-4.21-12.7-10.86,0-3.36,1.45-5.2,3.03-6.51,1.05-.92,3.62-2.63,5.92-4.08-4.28-2.5-7.3-5.66-7.3-10.33,0-5.72,4.67-10.79,11.84-10.79ZM776.76,258.09c4.41,0,7.11-2.9,7.11-7.7,0-5.26-4.41-7.83-9.74-10.4-3.55,2.04-5.53,5.13-5.53,9.02,0,6.05,3.82,9.08,8.16,9.08ZM775.91,219.92c-3.95,0-5.99,3.09-5.99,6.78,0,4.8,3.23,6.58,8.36,9.28,2.57-1.98,4.34-4.28,4.34-8.16,0-5.53-3.29-7.9-6.71-7.9Z"></path>
 &nbsp; &nbsp; &nbsp;<path class="cls-2" d="M808.21,217.75c9.87,0,13.56,11.05,13.56,21.25,0,9.61-3.68,21.32-13.56,21.32s-13.75-10.86-13.75-21.25c0-9.61,3.75-21.32,13.75-21.32ZM808.21,220.05c-6.12,0-7.63,9.67-7.63,18.89s1.84,19.08,7.63,19.08,7.5-9.8,7.5-19.02-1.64-18.95-7.5-18.95Z"></path>
 &nbsp; &nbsp;</g>
 &nbsp; &nbsp;<rect class="cls-2" x="544.89" y="239" width="29.21" height="3.29"></rect>
 &nbsp;</g>
</svg>