<!--?xml version="1.0" encoding="UTF-8"?-->
<svg id="Layer_1" xmlns="http://www.w3.org/2000/svg" viewBox="0 0 1460 595.28">
 &nbsp;<defs>
 &nbsp; &nbsp;<style>
 &nbsp; &nbsp; &nbsp;.cls-1 {
 &nbsp; &nbsp; &nbsp; &nbsp;fill: none;
 &nbsp; &nbsp; &nbsp;}

 &nbsp; &nbsp; &nbsp;.cls-2 {
 &nbsp; &nbsp; &nbsp; &nbsp;fill: currentColor;
 &nbsp; &nbsp; &nbsp;}
 &nbsp; &nbsp;</style>
 &nbsp;</defs>
 &nbsp;<rect class="cls-1" width="1460" height="595.28"></rect>
 &nbsp;<g>
 &nbsp; &nbsp;<g>
 &nbsp; &nbsp; &nbsp;<path class="cls-2" d="M475.05,229.74v-1.42c5.64-.35,5.94-.61,5.94-4.42v-19.51c0-2.59-.35-2.69-2.59-2.89l-2.49-.26v-1.27c3.35-.56,6.71-1.37,9.3-2.49v26.42c0,3.86.31,4.07,6,4.42v1.42h-16.16Z"></path>
 &nbsp; &nbsp; &nbsp;<path class="cls-2" d="M507.46,197.48c7.62,0,10.47,8.54,10.47,16.41,0,7.42-2.85,16.46-10.47,16.46s-10.62-8.38-10.62-16.41c0-7.42,2.89-16.46,10.62-16.46ZM507.46,199.25c-4.73,0-5.89,7.47-5.89,14.58s1.42,14.74,5.89,14.74,5.79-7.57,5.79-14.68-1.27-14.63-5.79-14.63Z"></path>
 &nbsp; &nbsp; &nbsp;<path class="cls-2" d="M530.27,210.58c1.07-.56,2.23-.86,3.25-.86,5.39,0,9.1,4.22,9.1,9.4,0,6.1-4.37,11.23-10.47,11.23s-10.57-4.93-10.57-12.7c0-10.47,7.98-17.07,14.07-19.16,1.12-.41,3.66-.96,5.74-1.32l.3,1.67c-1.63.36-4.01,1.02-5.54,1.73-3.1,1.42-7.93,4.77-9.3,11.74l3.4-1.73ZM531.49,212.62c-2.03,0-3.76.76-4.93,1.42-.2.92-.31,2.19-.31,3.46,0,6.35,2.39,11.03,6.71,11.03,3.96,0,5.18-4.16,5.18-7.57,0-4.22-2.03-8.33-6.66-8.33Z"></path>
 &nbsp; &nbsp; &nbsp;<path class="cls-2" d="M553.53,197.48c3.76,0,6.96,2.69,6.96,7.01s-3.35,7.11-6.96,7.11c-3.81,0-7.01-2.69-7.01-7.11,0-4.16,3.2-7.01,7.01-7.01ZM553.53,199.76c-2.64,0-4.22,1.98-4.22,4.73s1.78,4.78,4.22,4.78,4.17-1.78,4.17-4.68-1.73-4.83-4.17-4.83Z"></path>
 &nbsp; &nbsp;</g>
 &nbsp; &nbsp;<g>
 &nbsp; &nbsp; &nbsp;<path class="cls-2" d="M754.56,393.75c-.66,2.28-1.52,4.88-2.03,6.76h-19.15v-1.22c2.79-2.74,5.84-5.74,8.33-8.64,3.2-3.76,6.25-7.83,6.25-12.25s-2.23-6.66-5.95-6.66c-3.5,0-5.69,2.74-7.01,4.73l-1.17-1.07,2.9-4.12c1.58-1.78,4.01-3.05,6.96-3.05,4.83,0,8.64,3.3,8.64,8.79,0,4.32-1.57,7.37-6.4,12.3-2.19,2.29-5.39,5.39-7.57,7.47h9.7c2.74,0,3.51-.26,5.23-3.46l1.27.41Z"></path>
 &nbsp; &nbsp; &nbsp;<path class="cls-2" d="M759.13,374.34l2.39-3.2c1.47-1.62,3.81-2.9,6.55-2.9,4.62,0,7.67,2.9,7.67,6.76,0,1.52-.66,2.74-1.58,3.76-.81.86-2.13,1.78-3.61,2.74,4.73,1.02,7.52,4.12,7.52,7.82,0,8.28-9.76,11.79-13.36,11.79-2.39,0-4.57-1.02-5.28-1.78-.61-.66-.76-1.12-.76-1.68.05-.81.71-1.58,1.17-1.93.41-.3.86-.35,1.32.05,1.37,1.22,3.41,2.69,6.3,2.69,3.66,0,6.25-2.75,6.25-7.67-.05-4.67-3.46-6.5-6.71-6.5-1.17,0-2.59.31-3.4.56l-.36-1.53c4.52-1.47,8.18-3.5,8.18-7.27,0-3-1.93-4.73-4.88-4.73s-5.03,2.08-6.35,4.01l-1.07-1.01Z"></path>
 &nbsp; &nbsp; &nbsp;<path class="cls-2" d="M790.16,368.24c3.76,0,6.96,2.69,6.96,7.01s-3.35,7.11-6.96,7.11c-3.81,0-7.01-2.69-7.01-7.11,0-4.16,3.2-7.01,7.01-7.01ZM790.16,370.53c-2.64,0-4.22,1.98-4.22,4.73s1.78,4.78,4.22,4.78,4.17-1.78,4.17-4.68-1.73-4.83-4.17-4.83Z"></path>
 &nbsp; &nbsp;</g>
 &nbsp; &nbsp;<g>
 &nbsp; &nbsp; &nbsp;<path class="cls-2" d="M391.58,403.25c2.19-3.4,4.42-5.28,6.05-5.28,1.42,0,2.39,1.63,3.56,5.54l.76,2.69c4.42-6.1,6.61-8.23,8.89-8.23,1.47,0,2.18,1.07,2.13,2.18,0,.71-.56,1.98-1.22,2.44-.46.36-.76.46-1.07.41-.56-.1-1.12-1.37-1.88-1.37-1.12,0-3.05,2.03-6.3,6.5l1.68,5.18c.97,3.05,1.73,4.57,2.59,4.57.81,0,1.73-.61,3.71-3l.92,1.17c-2.19,3.46-4.68,5.44-6.5,5.44-1.37,0-2.49-1.68-3.71-5.49l-1.37-4.42c-4.98,7.16-7.16,9.91-9.45,9.91-1.32,0-2.23-.96-2.23-2.39.05-1.47,1.27-3.05,2.23-3.05.71,0,1.17,1.37,1.88,1.37.92,0,2.54-1.58,7.01-7.77l-1.37-4.47c-.86-2.74-1.32-3.71-2.03-3.71-.51,0-1.53.51-3.25,2.9l-1.02-1.12Z"></path>
 &nbsp; &nbsp; &nbsp;<path class="cls-2" d="M431.1,393.95c0,4.27-3.2,6.86-6.7,6.86-3.71,0-6.71-2.59-6.71-6.86s3.05-6.86,6.71-6.86,6.7,2.74,6.7,6.86ZM420.33,393.95c0,2.84,1.68,4.72,4.12,4.72s4.02-1.88,4.02-4.67-1.63-4.78-4.07-4.78c-2.59,0-4.07,1.88-4.07,4.73Z"></path>
 &nbsp; &nbsp;</g>
 &nbsp; &nbsp;<g>
 &nbsp; &nbsp; &nbsp;<path class="cls-2" d="M494.09,281.67c-4.88,10.31-9.6,20.58-14.53,31.1l-3.66.35-.35-.56c5.28-8.59,10.87-19.1,14.89-27.8h-10.87c-3.3,0-3.5.46-4.88,3.81h-1.58c.51-2.84.71-5.38.96-7.57h19.71l.31.66Z"></path>
 &nbsp; &nbsp; &nbsp;<path class="cls-2" d="M513.84,303.41v3.86c0,3.35.2,3.61,3.81,3.96v1.42h-11.89v-1.42c3.81-.35,4.06-.66,4.06-4.01v-3.81h-13.41v-1.52c4.83-6.86,10.06-14.28,15.14-21.34h2.29v20.43h4.98v2.44h-4.98ZM509.83,285.89c-3.2,4.67-6.76,9.86-10.26,15.09h10.26v-15.09Z"></path>
 &nbsp; &nbsp; &nbsp;<path class="cls-2" d="M529.18,280.39c3.76,0,6.96,2.69,6.96,7.01s-3.35,7.11-6.96,7.11c-3.81,0-7.01-2.69-7.01-7.11,0-4.17,3.2-7.01,7.01-7.01ZM529.18,282.68c-2.64,0-4.22,1.98-4.22,4.73s1.78,4.78,4.22,4.78,4.17-1.78,4.17-4.68-1.73-4.83-4.17-4.83Z"></path>
 &nbsp; &nbsp;</g>
 &nbsp; &nbsp;<g>
 &nbsp; &nbsp; &nbsp;<path class="cls-2" d="M493.12,389.2c-3.2,4.57-13.16,13.87-16.67,17.68.76-.05,1.78.2,2.9.56,1.98.66,4.12,1.63,5.74,1.63,1.32,0,2.79-.56,5.49-4.78l1.22.96c-2.69,5.34-5.23,7.47-7.47,7.47-2.08,0-4.52-1.37-6.96-2.49-1.47-.71-2.44-.81-3.15-.35-.66.4-1.07.96-1.47,1.52-.41.51-.51.71-.71.71s-.81-.66-.81-1.27c0-.66.46-1.53,2.59-3.86,3.3-3.76,11.28-11.38,13.97-14.43-.81.1-1.73.15-2.79.1-1.42-.05-3.86-.25-5.08-.25-2.08,0-3.46,1.52-4.98,4.22l-1.27-.81c1.62-3.81,3.61-6.91,5.18-6.91,1.98,0,7.98,1.12,10.16,1.12.81,0,1.93-.71,3.15-2.08l.96,1.27Z"></path>
 &nbsp; &nbsp; &nbsp;<path class="cls-2" d="M511.35,384.78c0,4.27-3.2,6.86-6.71,6.86-3.71,0-6.71-2.59-6.71-6.86s3.05-6.86,6.71-6.86,6.71,2.74,6.71,6.86ZM500.58,384.78c0,2.85,1.68,4.73,4.12,4.73s4.02-1.88,4.02-4.67-1.63-4.78-4.07-4.78c-2.59,0-4.07,1.88-4.07,4.73Z"></path>
 &nbsp; &nbsp;</g>
 &nbsp; &nbsp;<path class="cls-2" d="M470.71,91.81c0,.86-.71,2.03-1.58,2.44-.46.2-.76.1-1.17-.35-1.37-1.58-2.64-2.29-3.81-2.29-1.32,0-2.74,1.07-2.74,2.89,0,1.68,1.52,2.9,3.35,4.32,3.05,2.39,4.37,3.71,4.37,5.94,0,4.17-5.28,7.83-9.4,7.83-2.44,0-4.78-1.68-4.78-3.46,0-1.12,1.22-2.49,2.08-2.59.35-.05.56.15.86.51,1.27,1.83,2.8,2.95,4.47,2.95,2.08,0,3.35-1.52,3.35-3.15,0-1.22-.56-2.44-2.95-4.42-2.39-1.88-4.47-3.3-4.42-5.95,0-1.52.61-3.2,2.64-4.93,1.62-1.47,3.96-2.49,5.69-2.49,2.23,0,4.01,1.32,4.01,2.74Z"></path>
 &nbsp; &nbsp;<path class="cls-2" d="M1097.28,371.55c2.54-3,5.23-4.83,6.71-4.83,1.73,0,1.58,2.69.61,7.06l-.31,1.37c2.74-4.68,6.25-8.43,8.28-8.43,1.22,0,2.34,1.01,2.34,2.28,0,1.12-1.07,2.64-1.98,3.25-.46.31-.87.31-1.12,0-.56-.61-1.07-1.47-1.68-1.47-1.17,0-3.66,3.61-4.83,5.69-1.78,3.2-2.69,7.88-3.71,12.75-1.12.2-2.69.66-3.71,1.02l-.35-.36c1.22-4.67,3-12.4,3.71-16.11.56-2.85.41-3.3.05-3.3-.51,0-1.78.81-3.3,2.34l-.71-1.27Z"></path>
 &nbsp; &nbsp;<path class="cls-2" d="M1118.35,448.35c-1.01.1-3.61.31-5.13.31-2.28,10.57-3,13.82-3.25,15.34-.25,1.58.05,2.03.51,2.03,1.02,0,2.69-1.32,4.57-3.2l.66,1.27c-1.62,2.49-5.59,5.39-7.77,5.39-1.78,0-2.64-1.37-1.32-7.37l2.95-13.47h-4.06v-.46l1.47-1.63h3.05l1.17-5.43c.81-.46,2.95-1.83,4.01-2.8l.46.25c-.61,2.03-1.42,5.34-1.98,7.98h5.64l-.96,1.78Z"></path>
 &nbsp; &nbsp;<rect class="cls-2" x="262.32" y="311.61" width="384.17" height="5.08" transform="translate(125.77 758.19) rotate(-88.15)"></rect>
 &nbsp; &nbsp;<rect class="cls-2" x="718.68" y="-60.79" width="5.08" height="785.1" transform="translate(183.45 915.74) rotate(-72.06)"></rect>
 &nbsp; &nbsp;<rect class="cls-2" x="339.51" y="413.97" width="747.26" height="5.08" transform="translate(-33.16 62.84) rotate(-4.93)"></rect>
 &nbsp;</g>
</svg>