<!--?xml version="1.0" encoding="UTF-8"?-->
<svg id="Layer_1" xmlns="http://www.w3.org/2000/svg" viewBox="0 0 1460 595.28">
 &nbsp;<defs>
 &nbsp; &nbsp;<style>
 &nbsp; &nbsp; &nbsp;.cls-1 {
 &nbsp; &nbsp; &nbsp; &nbsp;fill: none;
 &nbsp; &nbsp; &nbsp;}

 &nbsp; &nbsp; &nbsp;.cls-2 {
 &nbsp; &nbsp; &nbsp; &nbsp;fill: currentColor;
 &nbsp; &nbsp; &nbsp;}
 &nbsp; &nbsp;</style>
 &nbsp;</defs>
 &nbsp;<rect class="cls-1" width="1460" height="595.28"></rect>
 &nbsp;<g>
 &nbsp; &nbsp;<path class="cls-2" d="M878.51,385.39h-296.88v-175.21h296.88v175.21ZM586.5,380.52h287.15v-165.48h-287.15v165.48Z"></path>
 &nbsp; &nbsp;<g>
 &nbsp; &nbsp; &nbsp;<path class="cls-2" d="M710.9,203.55v-1.36c5.4-.34,5.7-.58,5.7-4.23v-18.69c0-2.48-.34-2.58-2.48-2.77l-2.39-.24v-1.22c3.21-.53,6.43-1.31,8.91-2.39v25.31c0,3.7.29,3.89,5.74,4.23v1.36h-15.48Z"></path>
 &nbsp; &nbsp; &nbsp;<path class="cls-2" d="M751.98,197.08c-.63,2.19-1.46,4.67-1.95,6.47h-18.35v-1.17c2.68-2.63,5.6-5.5,7.98-8.27,3.07-3.6,5.99-7.5,5.99-11.73s-2.14-6.38-5.7-6.38c-3.36,0-5.45,2.63-6.72,4.53l-1.12-1.02,2.78-3.94c1.51-1.7,3.85-2.92,6.67-2.92,4.62,0,8.28,3.17,8.28,8.42,0,4.14-1.51,7.06-6.13,11.78-2.09,2.19-5.16,5.16-7.26,7.16h9.3c2.63,0,3.36-.24,5.01-3.31l1.22.39Z"></path>
 &nbsp; &nbsp;</g>
 &nbsp; &nbsp;<g>
 &nbsp; &nbsp; &nbsp;<path class="cls-2" d="M710.9,422.64v-1.36c5.4-.34,5.7-.58,5.7-4.23v-18.69c0-2.48-.34-2.58-2.48-2.77l-2.39-.24v-1.22c3.21-.53,6.43-1.31,8.91-2.39v25.31c0,3.7.29,3.89,5.74,4.23v1.36h-15.48Z"></path>
 &nbsp; &nbsp; &nbsp;<path class="cls-2" d="M751.98,416.16c-.63,2.19-1.46,4.67-1.95,6.47h-18.35v-1.17c2.68-2.63,5.6-5.5,7.98-8.27,3.07-3.6,5.99-7.5,5.99-11.73s-2.14-6.38-5.7-6.38c-3.36,0-5.45,2.63-6.72,4.53l-1.12-1.02,2.78-3.94c1.51-1.7,3.85-2.92,6.67-2.92,4.62,0,8.28,3.17,8.28,8.42,0,4.14-1.51,7.06-6.13,11.78-2.09,2.19-5.16,5.16-7.26,7.16h9.3c2.63,0,3.36-.24,5.01-3.31l1.22.39Z"></path>
 &nbsp; &nbsp;</g>
 &nbsp; &nbsp;<path class="cls-2" d="M908.16,283.4c-4.67,9.88-9.2,19.72-13.92,29.79l-3.51.34-.34-.53c5.06-8.23,10.42-18.3,14.26-26.63h-10.42c-3.16,0-3.36.44-4.67,3.65h-1.51c.49-2.73.68-5.16.92-7.25h18.89l.29.63Z"></path>
 &nbsp; &nbsp;<path class="cls-2" d="M571.94,283.4c-4.68,9.88-9.2,19.72-13.93,29.79l-3.5.34-.34-.53c5.06-8.23,10.42-18.3,14.26-26.63h-10.42c-3.16,0-3.36.44-4.67,3.65h-1.51c.48-2.73.68-5.16.92-7.25h18.89l.29.63Z"></path>
 &nbsp;</g>
</svg>