<!--?xml version="1.0" encoding="UTF-8"?-->
<svg id="Layer_1" xmlns="http://www.w3.org/2000/svg" viewBox="0 0 1460 595.28">
 &nbsp;<defs>
 &nbsp; &nbsp;<style>
 &nbsp; &nbsp; &nbsp;.cls-1 {
 &nbsp; &nbsp; &nbsp; &nbsp;fill: none;
 &nbsp; &nbsp; &nbsp;}

 &nbsp; &nbsp; &nbsp;.cls-2 {
 &nbsp; &nbsp; &nbsp; &nbsp;fill: currentColor;
 &nbsp; &nbsp; &nbsp;}
 &nbsp; &nbsp;</style>
 &nbsp;</defs>
 &nbsp;<rect class="cls-1" width="1460" height="595.28"></rect>
 &nbsp;<g>
 &nbsp; &nbsp;<path class="cls-2" d="M788.07,266.53c-4.04,4.64-8.81,7.29-13.38,7.29s-7.49-3.51-7.49-9.81c0-5.5,2.25-11.79,6.76-15.9,3.11-2.92,7.42-4.97,10.53-4.97,2.92,0,5.1,1.52,5.17,3.05.07,1.25-.93,2.98-2.25,3.44-.6.27-.99.2-1.52-.39-1.53-1.86-2.98-2.85-5.04-2.85-5.04,0-8.08,8.35-8.08,16.16,0,4.84,1.85,7.29,4.9,7.29,3.51,0,7.42-2.98,9.4-5.03l1,1.72Z"></path>
 &nbsp; &nbsp;<path class="cls-2" d="M750.1,440.88c-3.24,4.37-7.35,6.76-9.21,6.76s-2.65-1.52-1.46-7.55l.93-4.57c-2.45,4.04-5.96,7.35-7.95,8.95-2.12,1.72-4.64,3.18-6.82,3.18-2.32,0-4.24-2.85-4.24-8.21,0-6.23,2.85-13.12,7.35-17.23,3.45-3.18,8.21-5.23,12.66-5.23,3.38,0,6.43.99,7.69,1.13-1.2,4.18-3.51,14.38-4.77,21.86-.33,1.85-.2,2.58.33,2.58.79,0,2.19-.86,4.57-3.31l.93,1.66ZM738.11,435.38c1.46-1.85,3.18-5.16,3.84-7.95.66-2.52,1.25-4.9,1.46-6.49-.92-.47-3.11-1.06-5.03-1.06-7.82,0-11.46,10.07-11.46,18.68,0,2.65.73,4.37,2.05,4.37,2.06,0,4.97-2.05,9.15-7.55Z"></path>
 &nbsp; &nbsp;<path class="cls-2" d="M552.85,255.78c3.25-.33,6.16-1.06,8.08-1.66,1.06-.4,1.59-.53,1.99-.53.6,0,.66.66.33,2.05-2.25,8.94-4.04,17.29-5.83,25.38,4.9-6.3,10.53-9.67,14.44-9.67s4.77,4.37,4.77,7.29c0,7.95-4.57,15.83-10.4,19.74-4.04,2.72-7.49,3.64-9.87,3.64-1.72,0-3.18-.53-4.37-1.79-1.39-1.46-2.45-4.04-1.13-10.67,1.85-9.21,4.04-18.82,6.09-28.88.53-2.65.06-2.78-1.92-2.98-.73-.06-1.92-.13-2.58-.13l.4-1.79ZM571.13,279.63c0-2.38-.67-4.37-2.65-4.37-2.19,0-5.56,1.92-9.61,7.22-1.72,2.19-2.72,4.57-3.25,7.82-1.06,6.43.93,8.68,3.84,8.68,6.96,0,11.66-12.26,11.66-19.35Z"></path>
 &nbsp; &nbsp;<path class="cls-2" d="M909.74,394.9h-314.51v-247.27l314.51,247.27ZM601.86,388.28h288.74l-288.74-227.01v227.01Z"></path>
 &nbsp; &nbsp;<path class="cls-2" d="M640.57,393.25h-43.67v-43.67h43.67v43.67ZM600.21,389.94h37.05v-37.04h-37.05v37.04Z"></path>
 &nbsp;</g>
</svg>