<!--?xml version="1.0" encoding="UTF-8"?-->
<svg id="Layer_1" xmlns="http://www.w3.org/2000/svg" viewBox="0 0 1460 595.28">
 &nbsp;<defs>
 &nbsp; &nbsp;<style>
 &nbsp; &nbsp; &nbsp;.cls-1 {
 &nbsp; &nbsp; &nbsp; &nbsp;fill: none;
 &nbsp; &nbsp; &nbsp;}

 &nbsp; &nbsp; &nbsp;.cls-2, .cls-3 {
 &nbsp; &nbsp; &nbsp; &nbsp;fill: currentColor;
 &nbsp; &nbsp; &nbsp;}

 &nbsp; &nbsp; &nbsp;.cls-3 {
 &nbsp; &nbsp; &nbsp; &nbsp;stroke: currentColor;
 &nbsp; &nbsp; &nbsp; &nbsp;stroke-miterlimit: 10;
 &nbsp; &nbsp; &nbsp;}
 &nbsp; &nbsp;</style>
 &nbsp;</defs>
 &nbsp;<rect class="cls-1" width="1460" height="595.28"></rect>
 &nbsp;<g>
 &nbsp; &nbsp;<path class="cls-2" d="M684.02,162.6h-3.83c.07.6.11,1.24.11,1.88s-.04,1.24-.11,1.88c-.94,14.24-12.85,25.55-27.35,25.55-4.17,0-8.15-.94-11.68-2.67-1.13-.49-2.22-1.09-3.27-1.8l-1.88,3.31c1.05.68,2.1,1.28,3.23,1.8,4.13,1.99,8.72,3.12,13.6,3.12,16.57,0,30.2-12.96,31.18-29.3.04-.64.04-1.24.04-1.88s0-1.24-.04-1.88Z"></path>
 &nbsp; &nbsp;<path class="cls-2" d="M822,187.25c-1.05.71-2.14,1.35-3.27,1.88-3.61,1.8-7.66,2.78-11.98,2.78-14.5,0-26.41-11.31-27.35-25.55-.08-.64-.11-1.24-.11-1.88s.04-1.28.11-1.88h-3.79c-.07.64-.07,1.24-.07,1.88s0,1.24.07,1.88c.94,16.34,14.58,29.3,31.14,29.3,4.96,0,9.69-1.16,13.86-3.27,1.13-.53,2.22-1.16,3.27-1.88l-1.88-3.27Z"></path>
 &nbsp; &nbsp;<path class="cls-2" d="M855.92,297.28c0-9.47,4.81-17.84,12.13-22.77,1.01-.71,2.1-1.35,3.23-1.88l-1.88-3.27c-1.13.53-2.22,1.16-3.23,1.88-8.45,5.56-14.01,15.18-14.01,26.03s5.56,20.47,14.01,26.03c1.01.71,2.1,1.35,3.23,1.88l1.88-3.27c-1.13-.53-2.22-1.16-3.23-1.88-7.33-4.92-12.13-13.3-12.13-22.77Z"></path>
 &nbsp; &nbsp;<path class="cls-2" d="M820.65,402.17c-4.17-2.1-8.9-3.27-13.9-3.27-16.57,0-30.2,13-31.14,29.34-.07.64-.07,1.24-.07,1.88s0,1.24.07,1.88h3.79c-.08-.64-.11-1.24-.11-1.88s.04-1.24.11-1.88c.94-14.28,12.85-25.58,27.35-25.58,4.32,0,8.38.98,11.98,2.82,1.13.49,2.25,1.13,3.31,1.84l1.84-3.27c-1.01-.68-2.1-1.31-3.23-1.88Z"></path>
 &nbsp; &nbsp;<path class="cls-2" d="M684.47,428.24c-.98-16.34-14.61-29.34-31.18-29.34-5,0-9.73,1.16-13.94,3.31-1.13.56-2.22,1.2-3.27,1.88l1.92,3.27c1.01-.71,2.1-1.35,3.23-1.88,3.64-1.8,7.74-2.82,12.06-2.82,14.5,0,26.41,11.31,27.35,25.58.07.64.11,1.24.11,1.88s-.04,1.24-.11,1.88h3.83c.04-.64.04-1.24.04-1.88s0-1.24-.04-1.88Z"></path>
 &nbsp; &nbsp;<path class="cls-2" d="M593.82,271.25c-1.01-.68-2.1-1.31-3.23-1.88l-1.92,3.31c1.13.49,2.22,1.13,3.27,1.8,7.29,4.96,12.13,13.34,12.13,22.8s-4.85,17.84-12.13,22.8c-1.05.68-2.14,1.31-3.27,1.84l1.92,3.27c1.13-.56,2.22-1.2,3.23-1.88,8.45-5.6,14.01-15.18,14.01-26.03s-5.56-20.44-14.01-26.03Z"></path>
 &nbsp; &nbsp;<g>
 &nbsp; &nbsp; &nbsp;<path class="cls-2" d="M666.45,224.08v-.95c3.75-.24,3.96-.41,3.96-2.94v-12.99c0-1.72-.24-1.79-1.72-1.93l-1.66-.17v-.84c2.23-.37,4.46-.91,6.19-1.66v17.59c0,2.57.2,2.7,3.99,2.94v.95h-10.76Z"></path>
 &nbsp; &nbsp; &nbsp;<path class="cls-2" d="M694.98,219.58c-.44,1.52-1.01,3.25-1.35,4.5h-12.75v-.81c1.86-1.83,3.89-3.82,5.55-5.75,2.13-2.51,4.16-5.21,4.16-8.15s-1.49-4.43-3.96-4.43c-2.33,0-3.79,1.83-4.67,3.15l-.78-.71,1.93-2.74c1.05-1.18,2.67-2.03,4.63-2.03,3.21,0,5.75,2.2,5.75,5.85,0,2.88-1.05,4.9-4.26,8.18-1.45,1.52-3.58,3.58-5.04,4.97h6.46c1.83,0,2.33-.17,3.49-2.3l.84.27Z"></path>
 &nbsp; &nbsp; &nbsp;<path class="cls-2" d="M704.42,202.6c5.07,0,6.97,5.68,6.97,10.93,0,4.94-1.89,10.96-6.97,10.96s-7.07-5.58-7.07-10.93c0-4.94,1.93-10.96,7.07-10.96ZM704.42,203.79c-3.14,0-3.92,4.97-3.92,9.71s.95,9.81,3.92,9.81,3.86-5.04,3.86-9.77-.84-9.74-3.86-9.74Z"></path>
 &nbsp; &nbsp; &nbsp;<path class="cls-2" d="M718.68,202.6c2.5,0,4.63,1.79,4.63,4.67s-2.23,4.74-4.63,4.74c-2.54,0-4.67-1.79-4.67-4.74,0-2.77,2.13-4.67,4.67-4.67ZM718.68,204.13c-1.76,0-2.81,1.32-2.81,3.14s1.18,3.18,2.81,3.18,2.77-1.18,2.77-3.11-1.15-3.21-2.77-3.21Z"></path>
 &nbsp; &nbsp;</g>
 &nbsp; &nbsp;<g>
 &nbsp; &nbsp; &nbsp;<path class="cls-2" d="M792.5,305.49v-.95c3.75-.24,3.96-.41,3.96-2.94v-12.99c0-1.72-.24-1.79-1.72-1.93l-1.66-.17v-.84c2.23-.37,4.46-.91,6.19-1.66v17.59c0,2.57.2,2.7,3.99,2.94v.95h-10.76Z"></path>
 &nbsp; &nbsp; &nbsp;<path class="cls-2" d="M821.04,300.99c-.44,1.52-1.01,3.25-1.35,4.5h-12.75v-.81c1.86-1.83,3.89-3.82,5.55-5.75,2.13-2.51,4.16-5.21,4.16-8.15s-1.49-4.43-3.96-4.43c-2.33,0-3.79,1.83-4.67,3.15l-.78-.71,1.93-2.74c1.05-1.18,2.67-2.03,4.63-2.03,3.21,0,5.75,2.2,5.75,5.85,0,2.88-1.05,4.9-4.26,8.18-1.45,1.52-3.58,3.58-5.04,4.97h6.46c1.83,0,2.33-.17,3.49-2.3l.84.27Z"></path>
 &nbsp; &nbsp; &nbsp;<path class="cls-2" d="M830.47,284.01c5.07,0,6.97,5.68,6.97,10.93,0,4.94-1.89,10.96-6.97,10.96s-7.07-5.58-7.07-10.93c0-4.94,1.93-10.96,7.07-10.96ZM830.47,285.2c-3.14,0-3.92,4.97-3.92,9.71s.95,9.81,3.92,9.81,3.86-5.04,3.86-9.77-.84-9.74-3.86-9.74Z"></path>
 &nbsp; &nbsp; &nbsp;<path class="cls-2" d="M844.74,284.01c2.5,0,4.63,1.79,4.63,4.67s-2.23,4.74-4.63,4.74c-2.54,0-4.67-1.79-4.67-4.74,0-2.77,2.13-4.67,4.67-4.67ZM844.74,285.54c-1.76,0-2.81,1.32-2.81,3.14s1.18,3.18,2.81,3.18,2.77-1.18,2.77-3.11-1.15-3.21-2.77-3.21Z"></path>
 &nbsp; &nbsp;</g>
 &nbsp; &nbsp;<g>
 &nbsp; &nbsp; &nbsp;<path class="cls-2" d="M621.09,305.9v-.95c3.75-.24,3.95-.41,3.95-2.94v-12.99c0-1.72-.23-1.79-1.72-1.93l-1.66-.17v-.84c2.23-.37,4.46-.91,6.19-1.66v17.59c0,2.57.21,2.7,3.99,2.94v.95h-10.75Z"></path>
 &nbsp; &nbsp; &nbsp;<path class="cls-2" d="M649.63,301.4c-.44,1.52-1.02,3.25-1.35,4.5h-12.75v-.81c1.86-1.83,3.89-3.82,5.55-5.75,2.13-2.51,4.16-5.21,4.16-8.15s-1.49-4.43-3.95-4.43c-2.33,0-3.79,1.83-4.67,3.15l-.78-.71,1.93-2.74c1.05-1.18,2.67-2.03,4.63-2.03,3.21,0,5.75,2.2,5.75,5.85,0,2.88-1.05,4.9-4.26,8.18-1.45,1.52-3.58,3.58-5.04,4.97h6.46c1.82,0,2.33-.17,3.48-2.3l.85.27Z"></path>
 &nbsp; &nbsp; &nbsp;<path class="cls-2" d="M659.06,284.42c5.07,0,6.97,5.68,6.97,10.93,0,4.94-1.9,10.96-6.97,10.96s-7.07-5.58-7.07-10.93c0-4.94,1.93-10.96,7.07-10.96ZM659.06,285.61c-3.15,0-3.93,4.97-3.93,9.71s.95,9.81,3.93,9.81,3.86-5.04,3.86-9.77-.85-9.74-3.86-9.74Z"></path>
 &nbsp; &nbsp; &nbsp;<path class="cls-2" d="M673.33,284.42c2.51,0,4.63,1.79,4.63,4.67s-2.23,4.74-4.63,4.74c-2.54,0-4.67-1.79-4.67-4.74,0-2.77,2.13-4.67,4.67-4.67ZM673.33,285.94c-1.76,0-2.81,1.32-2.81,3.14s1.18,3.18,2.81,3.18,2.77-1.18,2.77-3.11-1.15-3.21-2.77-3.21Z"></path>
 &nbsp; &nbsp;</g>
 &nbsp; &nbsp;<g>
 &nbsp; &nbsp; &nbsp;<path class="cls-2" d="M740.14,224.08v-.95c3.75-.24,3.95-.41,3.95-2.94v-12.99c0-1.72-.23-1.79-1.72-1.93l-1.66-.17v-.84c2.23-.37,4.47-.91,6.19-1.66v17.59c0,2.57.2,2.7,3.99,2.94v.95h-10.76Z"></path>
 &nbsp; &nbsp; &nbsp;<path class="cls-2" d="M768.68,219.58c-.44,1.52-1.02,3.25-1.35,4.5h-12.75v-.81c1.86-1.83,3.89-3.82,5.55-5.75,2.14-2.51,4.16-5.21,4.16-8.15s-1.49-4.43-3.95-4.43c-2.33,0-3.79,1.83-4.67,3.15l-.78-.71,1.93-2.74c1.05-1.18,2.67-2.03,4.63-2.03,3.21,0,5.75,2.2,5.75,5.85,0,2.88-1.05,4.9-4.26,8.18-1.45,1.52-3.59,3.58-5.04,4.97h6.46c1.82,0,2.33-.17,3.48-2.3l.85.27Z"></path>
 &nbsp; &nbsp; &nbsp;<path class="cls-2" d="M778.11,202.6c5.07,0,6.97,5.68,6.97,10.93,0,4.94-1.9,10.96-6.97,10.96s-7.07-5.58-7.07-10.93c0-4.94,1.93-10.96,7.07-10.96ZM778.11,203.79c-3.15,0-3.93,4.97-3.93,9.71s.95,9.81,3.93,9.81,3.86-5.04,3.86-9.77-.85-9.74-3.86-9.74Z"></path>
 &nbsp; &nbsp; &nbsp;<path class="cls-2" d="M792.37,202.6c2.51,0,4.64,1.79,4.64,4.67s-2.23,4.74-4.64,4.74c-2.54,0-4.67-1.79-4.67-4.74,0-2.77,2.13-4.67,4.67-4.67ZM792.37,204.13c-1.76,0-2.8,1.32-2.8,3.14s1.18,3.18,2.8,3.18,2.77-1.18,2.77-3.11-1.15-3.21-2.77-3.21Z"></path>
 &nbsp; &nbsp;</g>
 &nbsp; &nbsp;<g>
 &nbsp; &nbsp; &nbsp;<path class="cls-2" d="M663.37,390.41v-.95c3.75-.24,3.95-.41,3.95-2.94v-12.99c0-1.72-.23-1.79-1.72-1.93l-1.66-.17v-.84c2.23-.37,4.46-.91,6.19-1.66v17.59c0,2.57.21,2.7,3.99,2.94v.95h-10.75Z"></path>
 &nbsp; &nbsp; &nbsp;<path class="cls-2" d="M691.91,385.91c-.44,1.52-1.02,3.25-1.35,4.5h-12.75v-.81c1.86-1.83,3.89-3.82,5.55-5.75,2.13-2.51,4.16-5.21,4.16-8.15s-1.49-4.43-3.95-4.43c-2.33,0-3.79,1.83-4.67,3.15l-.78-.71,1.93-2.74c1.05-1.18,2.67-2.03,4.63-2.03,3.21,0,5.75,2.2,5.75,5.85,0,2.88-1.05,4.9-4.26,8.18-1.45,1.52-3.58,3.58-5.04,4.97h6.46c1.82,0,2.33-.17,3.48-2.3l.85.27Z"></path>
 &nbsp; &nbsp; &nbsp;<path class="cls-2" d="M701.34,368.93c5.07,0,6.97,5.68,6.97,10.93,0,4.94-1.9,10.96-6.97,10.96s-7.07-5.58-7.07-10.93c0-4.94,1.93-10.96,7.07-10.96ZM701.34,370.12c-3.15,0-3.93,4.97-3.93,9.71s.95,9.81,3.93,9.81,3.86-5.04,3.86-9.77-.85-9.74-3.86-9.74Z"></path>
 &nbsp; &nbsp; &nbsp;<path class="cls-2" d="M715.61,368.93c2.51,0,4.63,1.79,4.63,4.67s-2.23,4.74-4.63,4.74c-2.54,0-4.67-1.79-4.67-4.74,0-2.77,2.13-4.67,4.67-4.67ZM715.61,370.46c-1.76,0-2.81,1.32-2.81,3.14s1.18,3.18,2.81,3.18,2.77-1.18,2.77-3.11-1.15-3.21-2.77-3.21Z"></path>
 &nbsp; &nbsp;</g>
 &nbsp; &nbsp;<g>
 &nbsp; &nbsp; &nbsp;<path class="cls-2" d="M737.06,390.41v-.95c3.75-.24,3.95-.41,3.95-2.94v-12.99c0-1.72-.23-1.79-1.72-1.93l-1.66-.17v-.84c2.23-.37,4.46-.91,6.19-1.66v17.59c0,2.57.2,2.7,3.99,2.94v.95h-10.75Z"></path>
 &nbsp; &nbsp; &nbsp;<path class="cls-2" d="M765.6,385.91c-.44,1.52-1.01,3.25-1.35,4.5h-12.75v-.81c1.86-1.83,3.89-3.82,5.55-5.75,2.13-2.51,4.16-5.21,4.16-8.15s-1.49-4.43-3.95-4.43c-2.33,0-3.79,1.83-4.67,3.15l-.78-.71,1.93-2.74c1.05-1.18,2.67-2.03,4.64-2.03,3.21,0,5.75,2.2,5.75,5.85,0,2.88-1.05,4.9-4.26,8.18-1.45,1.52-3.58,3.58-5.04,4.97h6.46c1.83,0,2.33-.17,3.49-2.3l.84.27Z"></path>
 &nbsp; &nbsp; &nbsp;<path class="cls-2" d="M775.03,368.93c5.07,0,6.96,5.68,6.96,10.93,0,4.94-1.89,10.96-6.96,10.96s-7.07-5.58-7.07-10.93c0-4.94,1.93-10.96,7.07-10.96ZM775.03,370.11c-3.15,0-3.93,4.97-3.93,9.71s.95,9.81,3.93,9.81,3.85-5.04,3.85-9.77-.84-9.74-3.85-9.74Z"></path>
 &nbsp; &nbsp; &nbsp;<path class="cls-2" d="M789.3,368.93c2.5,0,4.63,1.79,4.63,4.67s-2.23,4.74-4.63,4.74c-2.54,0-4.67-1.79-4.67-4.74,0-2.77,2.13-4.67,4.67-4.67ZM789.3,370.45c-1.76,0-2.81,1.32-2.81,3.14s1.18,3.18,2.81,3.18,2.77-1.18,2.77-3.11-1.15-3.21-2.77-3.21Z"></path>
 &nbsp; &nbsp;</g>
 &nbsp; &nbsp;<rect class="cls-2" x="609.5" y="216.73" width="3.75" height="35.07" transform="translate(102.82 646.63) rotate(-60)"></rect>
 &nbsp; &nbsp;<rect class="cls-2" x="604.31" y="225.72" width="3.75" height="35.07" transform="translate(92.44 646.63) rotate(-60)"></rect>
 &nbsp; &nbsp;<rect class="cls-2" x="591.25" y="348.01" width="35.07" height="3.75" transform="translate(-93.38 351.54) rotate(-30.02)"></rect>
 &nbsp; &nbsp;<rect class="cls-2" x="596.44" y="357" width="35.07" height="3.75" transform="translate(-97.18 355.35) rotate(-30.02)"></rect>
 &nbsp; &nbsp;<path class="cls-3" d="M871.29,272.64l-1.88-3.27-17.28-29.9-1.88-3.23-3.31-5.75-1.88-3.27-21.19-36.7-1.88-3.27-13.71-23.7-.53-.94h-155.53l-14.35,24.83-1.88,3.31-24.08,41.66-1.88,3.27-3.31,5.71-1.88,3.27-14.28,24.72-1.92,3.31-14.2,24.61,14.2,24.64,1.92,3.27,14.28,24.79,1.88,3.23,3.34,5.75,1.84,3.23,24.16,41.89,1.92,3.27,13.67,23.7.56.94h155.53l14.28-24.68,1.84-3.27,26.56-45.98,1.88-3.27,3.31-5.75,1.88-3.23,11.91-20.62,1.88-3.27,14.24-24.64-14.24-24.64ZM868.06,320.05l-1.88,3.27-11.91,20.62-1.88,3.23-3.31,5.75-1.88,3.27-26.56,45.98-1.92,3.31-13.15,22.77h-151.21l-13.15-22.77-1.88-3.27-24.16-41.89-1.88-3.23-3.31-5.75-1.88-3.23-14.31-24.79-1.88-3.23-13.15-22.8,13.15-22.8,1.88-3.23,14.28-24.72,1.88-3.27,3.31-5.71,1.88-3.27,24.08-41.74,1.92-3.31,13.22-22.88h151.21l13.15,22.77,1.88,3.27,21.23,36.7,1.88,3.27,3.31,5.75,1.88,3.23,17.28,29.9,1.88,3.27,13.15,22.77-13.15,22.77Z"></path>
 &nbsp; &nbsp;<rect class="cls-2" x="722.92" y="147.64" width="3.76" height="35.07"></rect>
 &nbsp; &nbsp;<rect class="cls-2" x="733.3" y="147.64" width="3.76" height="35.07"></rect>
 &nbsp; &nbsp;<rect class="cls-2" x="717.73" y="412.57" width="3.76" height="35.07"></rect>
 &nbsp; &nbsp;<rect class="cls-2" x="728.11" y="412.57" width="3.76" height="35.07"></rect>
 &nbsp; &nbsp;<rect class="cls-2" x="826.87" y="227.9" width="35.07" height="3.75" transform="translate(-1.67 453.32) rotate(-30.02)"></rect>
 &nbsp; &nbsp;<rect class="cls-2" x="832.06" y="236.89" width="35.07" height="3.75" transform="translate(-5.47 457.12) rotate(-30.02)"></rect>
 &nbsp; &nbsp;<rect class="cls-2" x="852.85" y="328.82" width="3.75" height="35.07" transform="translate(127.43 913.43) rotate(-60)"></rect>
 &nbsp; &nbsp;<rect class="cls-2" x="847.66" y="337.82" width="3.75" height="35.07" transform="translate(117.02 913.39) rotate(-60)"></rect>
 &nbsp;</g>
</svg>