<!--?xml version="1.0" encoding="UTF-8"?-->
<svg id="Layer_1" xmlns="http://www.w3.org/2000/svg" viewBox="0 0 1460 595.28">
 &nbsp;<defs>
 &nbsp; &nbsp;<style>
 &nbsp; &nbsp; &nbsp;.cls-1 {
 &nbsp; &nbsp; &nbsp; &nbsp;fill: none;
 &nbsp; &nbsp; &nbsp;}

 &nbsp; &nbsp; &nbsp;.cls-2 {
 &nbsp; &nbsp; &nbsp; &nbsp;fill: currentColor;
 &nbsp; &nbsp; &nbsp;}
 &nbsp; &nbsp;</style>
 &nbsp;</defs>
 &nbsp;<rect class="cls-1" width="1460" height="595.28"></rect>
 &nbsp;<g>
 &nbsp; &nbsp;<path class="cls-2" d="M740.06,441.15c-3.12,4.2-7.06,6.49-8.84,6.49s-2.54-1.47-1.4-7.25l.89-4.39c-2.35,3.88-5.72,7.06-7.63,8.58-2.03,1.65-4.45,3.05-6.55,3.05-2.23,0-4.07-2.73-4.07-7.89,0-5.98,2.73-12.59,7.06-16.53,3.31-3.05,7.89-5.02,12.14-5.02,3.24,0,6.17.95,7.38,1.08-1.14,4-3.37,13.8-4.58,20.99-.32,1.78-.19,2.48.32,2.48.76,0,2.1-.83,4.39-3.18l.89,1.59ZM728.55,435.87c1.4-1.78,3.05-4.96,3.69-7.63.64-2.42,1.21-4.71,1.4-6.23-.89-.44-2.99-1.02-4.83-1.02-7.5,0-11,9.66-11,17.93,0,2.54.7,4.2,1.97,4.2,1.97,0,4.77-1.97,8.77-7.25Z"></path>
 &nbsp; &nbsp;<path class="cls-2" d="M513.58,250.51c3.11-.32,5.91-1.02,7.76-1.59,1.02-.38,1.52-.51,1.91-.51.57,0,.64.64.32,1.97-2.16,8.58-3.88,16.6-5.6,24.35,4.71-6.04,10.11-9.29,13.86-9.29s4.58,4.2,4.58,7c0,7.63-4.39,15.2-9.98,18.95-3.88,2.61-7.18,3.5-9.47,3.5-1.65,0-3.05-.51-4.2-1.72-1.33-1.4-2.35-3.88-1.08-10.24,1.78-8.84,3.88-18.06,5.85-27.73.51-2.54.06-2.67-1.84-2.86-.7-.07-1.84-.13-2.48-.13l.38-1.72ZM531.13,273.4c0-2.29-.64-4.2-2.54-4.2-2.1,0-5.34,1.84-9.22,6.93-1.65,2.1-2.61,4.39-3.12,7.5-1.02,6.17.89,8.33,3.69,8.33,6.68,0,11.19-11.76,11.19-18.57Z"></path>
 &nbsp; &nbsp;<path class="cls-2" d="M798.7,242.19c-3.88,4.45-8.46,6.99-12.85,6.99s-7.18-3.37-7.18-9.41c0-5.28,2.16-11.32,6.49-15.26,2.99-2.8,7.12-4.77,10.11-4.77,2.8,0,4.9,1.46,4.96,2.92.06,1.21-.89,2.86-2.16,3.31-.57.25-.95.19-1.46-.38-1.46-1.78-2.86-2.73-4.83-2.73-4.83,0-7.76,8.01-7.76,15.52,0,4.64,1.78,6.99,4.71,6.99,3.37,0,7.12-2.86,9.03-4.83l.95,1.65Z"></path>
 &nbsp; &nbsp;<path class="cls-2" d="M948.91,384.05h-394.64v-236.41l394.64,236.41ZM560.63,377.69h365.3l-365.3-218.83v218.83Z"></path>
 &nbsp; &nbsp;<path class="cls-2" d="M597.78,382.46h-41.92v-41.92h41.92v41.92ZM559.04,379.28h35.56v-35.56h-35.56v35.56Z"></path>
 &nbsp;</g>
</svg>