<!--?xml version="1.0" encoding="UTF-8"?-->
<svg id="Layer_1" xmlns="http://www.w3.org/2000/svg" viewBox="0 0 1460 595.28">
 &nbsp;<defs>
 &nbsp; &nbsp;<style>
 &nbsp; &nbsp; &nbsp;.cls-1 {
 &nbsp; &nbsp; &nbsp; &nbsp;fill: none;
 &nbsp; &nbsp; &nbsp;}

 &nbsp; &nbsp; &nbsp;.cls-2 {
 &nbsp; &nbsp; &nbsp; &nbsp;fill: currentColor;
 &nbsp; &nbsp; &nbsp;}
 &nbsp; &nbsp;</style>
 &nbsp;</defs>
 &nbsp;<rect class="cls-1" width="1460" height="595.28"></rect>
 &nbsp;<path class="cls-2" d="M702.69,443.5h-54.6v-54.6h54.6v54.6ZM652.23,439.36h46.32v-46.32h-46.32v46.32Z"></path>
 &nbsp;<g>
 &nbsp; &nbsp;<path class="cls-2" d="M495.98,358.86c1.3-.69,2.73-1.06,3.97-1.06,6.59,0,11.12,5.15,11.12,11.49,0,7.45-5.34,13.72-12.79,13.72s-12.91-6.02-12.91-15.53c0-12.79,9.74-20.86,17.2-23.41,1.37-.5,4.47-1.18,7.02-1.62l.37,2.05c-1.99.44-4.91,1.25-6.77,2.12-3.79,1.74-9.69,5.83-11.37,14.35l4.16-2.11ZM497.47,361.35c-2.48,0-4.59.93-6.02,1.74-.25,1.12-.37,2.67-.37,4.22,0,7.76,2.92,13.47,8.2,13.47,4.84,0,6.33-5.09,6.33-9.25,0-5.15-2.48-10.18-8.14-10.18Z"></path>
 &nbsp; &nbsp;<path class="cls-2" d="M528.34,342.84c9.32,0,12.79,10.43,12.79,20.06,0,9.07-3.48,20.12-12.79,20.12s-12.98-10.25-12.98-20.06c0-9.07,3.54-20.12,12.98-20.12ZM528.34,345.01c-5.77,0-7.21,9.13-7.21,17.82s1.74,18.01,7.21,18.01,7.08-9.25,7.08-17.94-1.55-17.89-7.08-17.89Z"></path>
 &nbsp; &nbsp;<path class="cls-2" d="M554.55,342.84c4.59,0,8.51,3.29,8.51,8.57s-4.1,8.69-8.51,8.69c-4.66,0-8.57-3.29-8.57-8.69,0-5.09,3.91-8.57,8.57-8.57ZM554.55,345.64c-3.23,0-5.16,2.42-5.16,5.77s2.18,5.84,5.16,5.84,5.09-2.18,5.09-5.72-2.11-5.9-5.09-5.9Z"></path>
 &nbsp;</g>
 &nbsp;<path class="cls-2" d="M597.15,261.58c5.96,0,10.12,4.16,10.12,9.19,0,1.86-.56,3.66-1.74,5.03-.56.62-2.42,1.99-5.15,3.97,4.29,2.36,8.51,5.35,8.51,10.75,0,7.26-6.58,11.24-12.48,11.24-6.89,0-11.99-3.98-11.99-10.25,0-3.17,1.37-4.91,2.86-6.15.99-.87,3.42-2.48,5.59-3.85-4.04-2.36-6.9-5.34-6.9-9.74,0-5.41,4.41-10.19,11.18-10.19ZM597.15,299.66c4.16,0,6.71-2.73,6.71-7.27,0-4.97-4.16-7.39-9.19-9.81-3.35,1.92-5.22,4.84-5.22,8.51,0,5.72,3.61,8.57,7.7,8.57ZM596.35,263.64c-3.73,0-5.65,2.92-5.65,6.4,0,4.53,3.04,6.21,7.88,8.75,2.43-1.86,4.1-4.04,4.1-7.7,0-5.22-3.11-7.45-6.33-7.45Z"></path>
 &nbsp;<path class="cls-2" d="M643.67,491.74v4.72c0,4.1.25,4.41,4.66,4.84v1.74h-14.53v-1.74c4.66-.44,4.97-.81,4.97-4.91v-4.66h-16.4v-1.86c5.9-8.39,12.3-17.45,18.51-26.09h2.79v24.96h6.09v2.98h-6.09ZM638.76,470.31c-3.91,5.71-8.26,12.04-12.55,18.44h12.55v-18.44Z"></path>
 &nbsp;<path class="cls-2" d="M836.74,491.74v4.72c0,4.1.25,4.41,4.66,4.84v1.74h-14.53v-1.74c4.66-.44,4.97-.81,4.97-4.9v-4.66h-16.4v-1.86c5.9-8.39,12.3-17.45,18.51-26.08h2.79v24.96h6.09v2.98h-6.09ZM831.84,470.31c-3.91,5.71-8.26,12.04-12.55,18.44h12.55v-18.44Z"></path>
 &nbsp;<path class="cls-2" d="M870.59,255.96c5.96,0,10.12,4.16,10.12,9.19,0,1.86-.56,3.66-1.74,5.03-.56.62-2.42,1.99-5.16,3.97,4.29,2.36,8.51,5.34,8.51,10.74,0,7.27-6.58,11.24-12.48,11.24-6.9,0-11.99-3.97-11.99-10.25,0-3.17,1.37-4.9,2.86-6.15.99-.87,3.41-2.48,5.59-3.85-4.04-2.36-6.89-5.34-6.89-9.75,0-5.41,4.41-10.19,11.18-10.19ZM870.59,294.03c4.16,0,6.7-2.73,6.7-7.27,0-4.97-4.16-7.39-9.19-9.81-3.36,1.92-5.22,4.84-5.22,8.51,0,5.71,3.6,8.57,7.7,8.57ZM869.78,258.01c-3.73,0-5.65,2.92-5.65,6.4,0,4.53,3.04,6.21,7.89,8.75,2.42-1.86,4.1-4.04,4.1-7.7,0-5.22-3.11-7.45-6.33-7.45Z"></path>
 &nbsp;<g>
 &nbsp; &nbsp;<path class="cls-2" d="M587.84,177.92l2.92-3.91c1.8-1.99,4.66-3.54,8.01-3.54,5.65,0,9.38,3.54,9.38,8.26,0,1.86-.81,3.35-1.92,4.59-.99,1.06-2.61,2.18-4.41,3.36,5.77,1.24,9.19,5.03,9.19,9.56,0,10.12-11.92,14.41-16.33,14.41-2.92,0-5.59-1.24-6.46-2.17-.74-.81-.93-1.37-.93-2.05.06-.99.87-1.92,1.43-2.36.5-.37,1.06-.43,1.61.06,1.68,1.49,4.16,3.29,7.7,3.29,4.47,0,7.64-3.36,7.64-9.38-.06-5.71-4.22-7.95-8.2-7.95-1.43,0-3.17.38-4.16.68l-.44-1.86c5.53-1.8,9.99-4.29,9.99-8.88,0-3.66-2.36-5.77-5.96-5.77s-6.15,2.54-7.76,4.9l-1.3-1.24Z"></path>
 &nbsp; &nbsp;<path class="cls-2" d="M629.69,170.47c9.32,0,12.79,10.43,12.79,20.06,0,9.07-3.48,20.12-12.79,20.12s-12.98-10.25-12.98-20.06c0-9.07,3.54-20.12,12.98-20.12ZM629.69,172.64c-5.77,0-7.21,9.13-7.21,17.83s1.74,18.01,7.21,18.01,7.08-9.26,7.08-17.95-1.55-17.89-7.08-17.89Z"></path>
 &nbsp; &nbsp;<path class="cls-2" d="M655.9,170.47c4.59,0,8.51,3.29,8.51,8.57s-4.1,8.7-8.51,8.7c-4.66,0-8.57-3.29-8.57-8.7,0-5.09,3.91-8.57,8.57-8.57ZM655.9,173.26c-3.23,0-5.16,2.42-5.16,5.77s2.18,5.84,5.16,5.84,5.09-2.17,5.09-5.71-2.11-5.9-5.09-5.9Z"></path>
 &nbsp;</g>
 &nbsp;<g>
 &nbsp; &nbsp;<path class="cls-2" d="M665.74,247.06c-1.77,0-3.59-.22-5.46-.66-13.86-3.28-26.72-18.19-31.57-26.82l3.61-2.03c4.51,8.02,16.35,21.85,28.92,24.83,5.01,1.18,9.6.42,13.6-2.28,2.43-1.64,4.33-3.06,5.96-4.46l2.69,3.15c-1.75,1.5-3.77,3.01-6.34,4.75-3.49,2.35-7.31,3.53-11.41,3.53Z"></path>
 &nbsp; &nbsp;<polygon class="cls-2" points="690.89 222 669.14 237.48 680.81 237.93 686.2 248.28 690.89 222"></polygon>
 &nbsp;</g>
 &nbsp;<g>
 &nbsp; &nbsp;<path class="cls-2" d="M587.15,418.06l-3.14-2.7c1.4-1.63,2.81-3.52,4.46-5.96,2.7-4,3.47-8.58,2.28-13.61-2.98-12.57-16.8-24.41-24.82-28.91l2.03-3.61c8.62,4.85,23.54,17.71,26.82,31.57,1.47,6.2.51,11.88-2.87,16.87-1.73,2.58-3.24,4.59-4.75,6.34Z"></path>
 &nbsp; &nbsp;<polygon class="cls-2" points="570.37 425.46 596.65 420.77 586.3 415.37 585.85 403.71 570.37 425.46"></polygon>
 &nbsp;</g>
 &nbsp;<g>
 &nbsp; &nbsp;<path class="cls-2" d="M919.58,353.82c1.3-.68,2.73-1.06,3.97-1.06,6.59,0,11.12,5.16,11.12,11.49,0,7.45-5.34,13.72-12.79,13.72s-12.91-6.02-12.91-15.53c0-12.79,9.74-20.86,17.2-23.41,1.37-.5,4.47-1.18,7.02-1.61l.37,2.05c-1.99.44-4.91,1.25-6.77,2.11-3.79,1.74-9.69,5.83-11.37,14.35l4.16-2.11ZM921.07,356.31c-2.48,0-4.59.93-6.02,1.74-.25,1.12-.37,2.67-.37,4.22,0,7.76,2.92,13.48,8.2,13.48,4.84,0,6.33-5.09,6.33-9.25,0-5.16-2.48-10.19-8.14-10.19Z"></path>
 &nbsp; &nbsp;<path class="cls-2" d="M951.94,337.8c9.32,0,12.79,10.43,12.79,20.06,0,9.07-3.48,20.12-12.79,20.12s-12.98-10.25-12.98-20.06c0-9.07,3.54-20.12,12.98-20.12ZM951.94,339.97c-5.77,0-7.21,9.13-7.21,17.83s1.74,18.01,7.21,18.01,7.08-9.26,7.08-17.95-1.55-17.89-7.08-17.89Z"></path>
 &nbsp; &nbsp;<path class="cls-2" d="M978.14,337.8c4.59,0,8.51,3.29,8.51,8.57s-4.1,8.7-8.51,8.7c-4.66,0-8.57-3.29-8.57-8.7,0-5.09,3.91-8.57,8.57-8.57ZM978.14,340.59c-3.23,0-5.16,2.42-5.16,5.77s2.18,5.84,5.16,5.84,5.09-2.17,5.09-5.71-2.11-5.9-5.09-5.9Z"></path>
 &nbsp;</g>
 &nbsp;<g>
 &nbsp; &nbsp;<path class="cls-2" d="M875.7,418.06c-1.5-1.74-3-3.76-4.75-6.34-3.37-5-4.34-10.68-2.87-16.87,3.28-13.86,18.19-26.72,26.82-31.57l2.03,3.61c-8.02,4.51-21.85,16.35-24.83,28.92-1.19,5.03-.42,9.6,2.27,13.6,1.65,2.44,3.07,4.33,4.46,5.96l-3.15,2.69Z"></path>
 &nbsp; &nbsp;<polygon class="cls-2" points="892.48 425.46 877 403.7 876.55 415.37 866.2 420.77 892.48 425.46"></polygon>
 &nbsp;</g>
 &nbsp;<path class="cls-2" d="M698.63,181.16v258.21s-149.08,0-149.08,0l149.08-258.21M706.91,150.26l-171.7,297.4h171.7s0-297.4,0-297.4h0Z"></path>
 &nbsp;<path class="cls-2" d="M814.99,442.76h-54.6v-54.6h54.6v54.6ZM764.53,438.62h46.32v-46.32h-46.32v46.32Z"></path>
 &nbsp;<path class="cls-2" d="M764.44,180.41l149.08,258.21h-149.08V180.41M756.16,149.51v297.4h171.7s-171.7-297.4-171.7-297.4h0Z"></path>
 &nbsp;<g>
 &nbsp; &nbsp;<path class="cls-2" d="M811.55,179.33l2.92-3.91c1.8-1.99,4.66-3.54,8.01-3.54,5.65,0,9.38,3.54,9.38,8.26,0,1.86-.81,3.35-1.93,4.59-.99,1.06-2.61,2.18-4.41,3.36,5.77,1.24,9.19,5.03,9.19,9.56,0,10.12-11.92,14.41-16.33,14.41-2.92,0-5.59-1.24-6.46-2.17-.74-.81-.93-1.37-.93-2.05.06-.99.87-1.92,1.43-2.36.5-.37,1.06-.43,1.61.06,1.68,1.49,4.16,3.29,7.7,3.29,4.47,0,7.64-3.36,7.64-9.38-.06-5.71-4.22-7.95-8.2-7.95-1.43,0-3.17.38-4.16.68l-.44-1.86c5.53-1.8,10-4.29,10-8.88,0-3.66-2.36-5.77-5.96-5.77s-6.15,2.54-7.76,4.9l-1.31-1.24Z"></path>
 &nbsp; &nbsp;<path class="cls-2" d="M853.4,171.88c9.32,0,12.79,10.43,12.79,20.06,0,9.07-3.48,20.12-12.79,20.12s-12.98-10.25-12.98-20.06c0-9.07,3.54-20.12,12.98-20.12ZM853.4,174.05c-5.77,0-7.2,9.13-7.2,17.83s1.74,18.01,7.2,18.01,7.08-9.26,7.08-17.95-1.55-17.89-7.08-17.89Z"></path>
 &nbsp; &nbsp;<path class="cls-2" d="M879.61,171.88c4.59,0,8.51,3.29,8.51,8.57s-4.1,8.7-8.51,8.7c-4.66,0-8.57-3.29-8.57-8.7,0-5.09,3.91-8.57,8.57-8.57ZM879.61,174.67c-3.23,0-5.16,2.42-5.16,5.77s2.18,5.84,5.16,5.84,5.09-2.17,5.09-5.71-2.11-5.9-5.09-5.9Z"></path>
 &nbsp;</g>
 &nbsp;<g>
 &nbsp; &nbsp;<path class="cls-2" d="M796.91,245.66c-4.1,0-7.92-1.18-11.41-3.54-2.56-1.72-4.57-3.23-6.34-4.75l2.7-3.14c1.64,1.41,3.53,2.83,5.95,4.46,4,2.7,8.58,3.47,13.61,2.28,12.57-2.98,24.41-16.81,28.91-24.83l3.61,2.03c-4.84,8.62-17.7,23.54-31.56,26.82-1.88.44-3.7.67-5.47.67Z"></path>
 &nbsp; &nbsp;<polygon class="cls-2" points="771.76 220.59 776.45 246.88 781.84 236.52 793.51 236.07 771.76 220.59"></polygon>
 &nbsp;</g>
</svg>