<!--?xml version="1.0" encoding="UTF-8"?-->
<svg id="Layer_1" xmlns="http://www.w3.org/2000/svg" viewBox="0 0 1460 595.28">
 &nbsp;<defs>
 &nbsp; &nbsp;<style>
 &nbsp; &nbsp; &nbsp;.cls-1 {
 &nbsp; &nbsp; &nbsp; &nbsp;fill: none;
 &nbsp; &nbsp; &nbsp;}

 &nbsp; &nbsp; &nbsp;.cls-2 {
 &nbsp; &nbsp; &nbsp; &nbsp;fill: currentColor;
 &nbsp; &nbsp; &nbsp;}
 &nbsp; &nbsp;</style>
 &nbsp;</defs>
 &nbsp;<rect class="cls-1" width="1460" height="595.28"></rect>
 &nbsp;<g>
 &nbsp; &nbsp;<g>
 &nbsp; &nbsp; &nbsp;<path class="cls-2" d="M439.85,411.9h-44.45v-44.45h44.45v44.45ZM398.77,408.53h37.71v-37.71h-37.71v37.71Z"></path>
 &nbsp; &nbsp; &nbsp;<path class="cls-2" d="M417.61,280.31c3.24-.34,6.34-1.01,8.3-1.69,1.01-.4,1.48-.54,1.89-.54.54,0,.67.67.34,2.23-1.89,8.63-4.32,19.35-6.21,27.99,5.4-7.49,12.21-12.14,16.39-12.14,2.29,0,4.45,1.08,2.36,9.64-.94,4.18-2.23,9.85-3.31,14.09-.47,1.82-.4,2.56.13,2.56.61,0,2.23-.81,4.65-3.37l1.01,1.62c-3.31,4.52-7.69,6.68-9.65,6.68s-2.5-2.09-1.35-6.88c1.21-4.65,2.63-10.66,3.71-15.17.94-3.85.4-4.86-.94-4.86-2.5,0-7.56,3.24-12.07,10.65-1.28,1.96-1.89,3.51-2.43,5.67-.61,2.7-1.48,6.68-2.02,9.31-1.55.27-3.37.81-4.86,1.28l-.47-.47c2.9-13.02,6.41-29.47,8.77-41.54.54-2.77.13-2.83-1.89-3.04-.74-.07-2.23-.2-2.77-.2l.4-1.82Z"></path>
 &nbsp; &nbsp; &nbsp;<path class="cls-2" d="M614.36,413.58h-327.33l109.11-230.21,218.22,230.21ZM297.69,406.84h300.98l-200.66-211.69-100.33,211.69Z"></path>
 &nbsp; &nbsp; &nbsp;<g>
 &nbsp; &nbsp; &nbsp; &nbsp;<rect class="cls-2" x="395.39" y="189.26" width="3.37" height="8.43"></rect>
 &nbsp; &nbsp; &nbsp; &nbsp;<path class="cls-2" d="M398.77,386.08h-3.37v-15.7h3.37v15.7ZM398.77,354.68h-3.37v-15.7h3.37v15.7ZM398.77,323.28h-3.37v-15.7h3.37v15.7ZM398.77,291.88h-3.37v-15.7h3.37v15.7ZM398.77,260.49h-3.37v-15.7h3.37v15.7ZM398.77,229.09h-3.37v-15.7h3.37v15.7Z"></path>
 &nbsp; &nbsp; &nbsp; &nbsp;<rect class="cls-2" x="395.39" y="401.78" width="3.37" height="8.43"></rect>
 &nbsp; &nbsp; &nbsp;</g>
 &nbsp; &nbsp;</g>
 &nbsp; &nbsp;<g>
 &nbsp; &nbsp; &nbsp;<path class="cls-2" d="M788.32,411.9h-44.45v-44.45h44.45v44.45ZM747.24,408.53h37.71v-37.71h-37.71v37.71Z"></path>
 &nbsp; &nbsp; &nbsp;<path class="cls-2" d="M701.63,280.31c3.24-.34,6.34-1.01,8.3-1.69,1.01-.4,1.48-.54,1.89-.54.54,0,.67.67.34,2.23-1.89,8.63-4.32,19.35-6.21,27.99,5.4-7.49,12.21-12.14,16.39-12.14,2.29,0,4.45,1.08,2.36,9.64-.94,4.18-2.23,9.85-3.31,14.09-.47,1.82-.4,2.56.13,2.56.61,0,2.23-.81,4.65-3.37l1.01,1.62c-3.31,4.52-7.69,6.68-9.65,6.68s-2.5-2.09-1.35-6.88c1.21-4.65,2.63-10.66,3.71-15.17.94-3.85.4-4.86-.94-4.86-2.5,0-7.56,3.24-12.07,10.65-1.28,1.96-1.89,3.51-2.43,5.67-.61,2.7-1.48,6.68-2.02,9.31-1.55.27-3.37.81-4.86,1.28l-.47-.47c2.9-13.02,6.41-29.47,8.77-41.54.54-2.77.13-2.83-1.89-3.04-.74-.07-2.23-.2-2.77-.2l.4-1.82Z"></path>
 &nbsp; &nbsp; &nbsp;<path class="cls-2" d="M1172.97,413.58h-329.71l-99.84-231.89,429.55,231.89ZM847.69,406.84h298.6l-389.01-210,90.42,210Z"></path>
 &nbsp; &nbsp; &nbsp;<g>
 &nbsp; &nbsp; &nbsp; &nbsp;<rect class="cls-2" x="743.87" y="189.26" width="3.37" height="8.43"></rect>
 &nbsp; &nbsp; &nbsp; &nbsp;<path class="cls-2" d="M747.24,386.08h-3.37v-15.7h3.37v15.7ZM747.24,354.68h-3.37v-15.7h3.37v15.7ZM747.24,323.28h-3.37v-15.7h3.37v15.7ZM747.24,291.88h-3.37v-15.7h3.37v15.7ZM747.24,260.49h-3.37v-15.7h3.37v15.7ZM747.24,229.09h-3.37v-15.7h3.37v15.7Z"></path>
 &nbsp; &nbsp; &nbsp; &nbsp;<rect class="cls-2" x="743.87" y="401.78" width="3.37" height="8.43"></rect>
 &nbsp; &nbsp; &nbsp;</g>
 &nbsp; &nbsp; &nbsp;<g>
 &nbsp; &nbsp; &nbsp; &nbsp;<rect class="cls-2" x="1007.45" y="408.53" width="8.43" height="3.37"></rect>
 &nbsp; &nbsp; &nbsp; &nbsp;<path class="cls-2" d="M991.75,411.9h-15.7v-3.37h15.7v3.37ZM960.35,411.9h-15.7v-3.37h15.7v3.37ZM928.96,411.9h-15.7v-3.37h15.7v3.37ZM897.56,411.9h-15.7v-3.37h15.7v3.37ZM866.16,411.9h-15.7v-3.37h15.7v3.37ZM834.76,411.9h-15.7v-3.37h15.7v3.37Z"></path>
 &nbsp; &nbsp; &nbsp; &nbsp;<rect class="cls-2" x="794.93" y="408.53" width="8.43" height="3.37"></rect>
 &nbsp; &nbsp; &nbsp;</g>
 &nbsp; &nbsp;</g>
 &nbsp;</g>
</svg>