<!--?xml version="1.0" encoding="UTF-8"?-->
<svg id="Layer_1" xmlns="http://www.w3.org/2000/svg" viewBox="0 0 1460 595.28">
 &nbsp;<defs>
 &nbsp; &nbsp;<style>
 &nbsp; &nbsp; &nbsp;.cls-1 {
 &nbsp; &nbsp; &nbsp; &nbsp;fill: none;
 &nbsp; &nbsp; &nbsp;}

 &nbsp; &nbsp; &nbsp;.cls-2 {
 &nbsp; &nbsp; &nbsp; &nbsp;fill: currentColor;
 &nbsp; &nbsp; &nbsp;}
 &nbsp; &nbsp;</style>
 &nbsp;</defs>
 &nbsp;<rect class="cls-1" width="1460" height="595.28"></rect>
 &nbsp;<g>
 &nbsp; &nbsp;<path class="cls-2" d="M729.95,403.98c3.06-.31,5.81-1,7.63-1.56,1-.38,1.5-.5,1.88-.5.56,0,.63.63.31,1.94-2.13,8.44-3.82,16.32-5.51,23.96,4.63-5.94,9.94-9.13,13.63-9.13s4.5,4.13,4.5,6.88c0,7.5-4.31,14.95-9.82,18.64-3.81,2.56-7.07,3.44-9.32,3.44-1.63,0-3-.5-4.13-1.69-1.31-1.38-2.31-3.82-1.06-10.07,1.75-8.69,3.81-17.76,5.76-27.27.5-2.5.06-2.63-1.81-2.82-.69-.06-1.81-.13-2.44-.13l.38-1.69ZM747.21,426.5c0-2.25-.63-4.13-2.5-4.13-2.06,0-5.25,1.81-9.07,6.82-1.63,2.06-2.56,4.32-3.07,7.38-1,6.07.87,8.19,3.63,8.19,6.56,0,11.01-11.57,11.01-18.26Z"></path>
 &nbsp; &nbsp;<path class="cls-2" d="M518.08,248.82c3-.31,5.88-.94,7.69-1.56.94-.38,1.37-.5,1.75-.5.5,0,.63.62.31,2.06-1.75,8.01-4,17.95-5.76,25.95,5-6.94,11.32-11.25,15.2-11.25,2.13,0,4.13,1,2.19,8.94-.88,3.88-2.06,9.13-3.07,13.07-.44,1.69-.38,2.38.13,2.38.56,0,2.06-.75,4.31-3.13l.94,1.5c-3.07,4.19-7.13,6.19-8.95,6.19s-2.31-1.94-1.25-6.38c1.12-4.31,2.44-9.88,3.44-14.07.88-3.57.38-4.51-.87-4.51-2.31,0-7.01,3-11.2,9.88-1.19,1.81-1.75,3.25-2.25,5.25-.56,2.5-1.37,6.19-1.87,8.63-1.44.25-3.13.75-4.5,1.19l-.44-.44c2.69-12.07,5.94-27.33,8.13-38.53.5-2.56.13-2.63-1.75-2.82-.69-.06-2.06-.19-2.56-.19l.38-1.69Z"></path>
 &nbsp; &nbsp;<path class="cls-2" d="M946.11,380.15h-388.14v-232.52l388.14,232.52ZM564.22,373.9h359.28l-359.28-215.23v215.23Z"></path>
 &nbsp; &nbsp;<path class="cls-2" d="M600.76,378.59h-41.23v-41.23h41.23v41.23ZM562.66,375.47h34.97v-34.97h-34.97v34.97Z"></path>
 &nbsp;</g>
</svg>