<!--?xml version="1.0" encoding="UTF-8"?-->
<svg id="Layer_1" xmlns="http://www.w3.org/2000/svg" viewBox="0 0 1460 595.28">
 &nbsp;<defs>
 &nbsp; &nbsp;<style>
 &nbsp; &nbsp; &nbsp;.cls-1 {
 &nbsp; &nbsp; &nbsp; &nbsp;fill: none;
 &nbsp; &nbsp; &nbsp;}

 &nbsp; &nbsp; &nbsp;.cls-2 {
 &nbsp; &nbsp; &nbsp; &nbsp;fill: currentColor;
 &nbsp; &nbsp; &nbsp;}
 &nbsp; &nbsp;</style>
 &nbsp;</defs>
 &nbsp;<rect class="cls-1" width="1460" height="595.28"></rect>
 &nbsp;<g>
 &nbsp; &nbsp;<g>
 &nbsp; &nbsp; &nbsp;<path class="cls-2" d="M786.84,372.4v3.77c0,3.28.2,3.53,3.73,3.87v1.39h-11.63v-1.39c3.73-.35,3.97-.65,3.97-3.92v-3.73h-13.11v-1.49c4.72-6.71,9.83-13.96,14.8-20.86h2.24v19.97h4.87v2.39h-4.87ZM782.91,355.26c-3.13,4.57-6.61,9.64-10.03,14.75h10.03v-14.75Z"></path>
 &nbsp; &nbsp; &nbsp;<path class="cls-2" d="M813.16,350.49l.3.39-1.29,3.28h-11.43c-.45,2.73-1.09,6.61-1.54,9.04,1.89-.7,4.62-1.44,5.86-1.44,6.11,0,9.34,4.32,9.34,8.45,0,2.98-1.24,5.86-4.27,8.34-2.73,2.19-6.16,3.47-8.79,3.47-2.34,0-4.17-.94-5.17-1.93-.7-.65-.89-1.04-.79-1.69,0-.45.39-1.2,1.04-1.69.45-.3.9-.4,1.39,0,1.44,1.29,3.18,2.73,6.26,2.73,4.18,0,6.16-3.58,6.16-7.3,0-4.37-2.63-7.5-8.15-7.5-2.04,0-3.68.45-4.97.89l-.15-.2c.74-3.87,1.84-10.88,2.38-14.85h13.81Z"></path>
 &nbsp; &nbsp; &nbsp;<path class="cls-2" d="M825.93,349.9c3.68,0,6.81,2.63,6.81,6.85s-3.28,6.96-6.81,6.96c-3.73,0-6.85-2.63-6.85-6.96,0-4.07,3.13-6.85,6.85-6.85ZM825.93,352.13c-2.58,0-4.12,1.94-4.12,4.62s1.74,4.67,4.12,4.67,4.07-1.73,4.07-4.57-1.69-4.72-4.07-4.72Z"></path>
 &nbsp; &nbsp;</g>
 &nbsp; &nbsp;<g>
 &nbsp; &nbsp; &nbsp;<path class="cls-2" d="M626.86,244.57v3.78c0,3.28.2,3.53,3.73,3.87v1.39h-11.62v-1.39c3.73-.35,3.97-.65,3.97-3.93v-3.73h-13.11v-1.49c4.72-6.71,9.83-13.96,14.8-20.87h2.24v19.97h4.87v2.39h-4.87ZM622.93,227.43c-3.13,4.57-6.6,9.63-10.03,14.75h10.03v-14.75Z"></path>
 &nbsp; &nbsp; &nbsp;<path class="cls-2" d="M653.19,222.66l.3.4-1.29,3.28h-11.43c-.45,2.73-1.09,6.6-1.54,9.04,1.89-.69,4.62-1.44,5.86-1.44,6.11,0,9.34,4.32,9.34,8.44,0,2.98-1.24,5.86-4.27,8.34-2.73,2.19-6.16,3.48-8.79,3.48-2.34,0-4.17-.94-5.16-1.94-.7-.64-.9-1.04-.8-1.69,0-.45.39-1.19,1.04-1.69.45-.3.9-.39,1.39,0,1.44,1.29,3.18,2.74,6.26,2.74,4.17,0,6.16-3.58,6.16-7.3,0-4.37-2.63-7.5-8.14-7.5-2.04,0-3.68.45-4.97.89l-.15-.19c.74-3.87,1.84-10.88,2.38-14.86h13.81Z"></path>
 &nbsp; &nbsp; &nbsp;<path class="cls-2" d="M665.95,222.06c3.67,0,6.8,2.63,6.8,6.86s-3.28,6.95-6.8,6.95c-3.73,0-6.86-2.63-6.86-6.95,0-4.07,3.13-6.86,6.86-6.86ZM665.95,224.3c-2.58,0-4.13,1.93-4.13,4.62s1.74,4.67,4.13,4.67,4.07-1.74,4.07-4.57-1.69-4.72-4.07-4.72Z"></path>
 &nbsp; &nbsp;</g>
 &nbsp; &nbsp;<g>
 &nbsp; &nbsp; &nbsp;<path class="cls-2" d="M795.59,264.21c-.86,2.98-1.99,6.36-2.65,8.81h-24.97v-1.59c3.64-3.58,7.62-7.49,10.86-11.26,4.18-4.9,8.15-10.2,8.15-15.97s-2.92-8.68-7.75-8.68c-4.57,0-7.42,3.58-9.14,6.16l-1.52-1.39,3.78-5.37c2.05-2.32,5.23-3.97,9.07-3.97,6.29,0,11.26,4.3,11.26,11.46,0,5.63-2.05,9.61-8.35,16.03-2.85,2.98-7.02,7.02-9.87,9.74h12.66c3.58,0,4.57-.33,6.82-4.51l1.66.53Z"></path>
 &nbsp; &nbsp; &nbsp;<path class="cls-2" d="M814.53,230.96c6.36,0,10.8,4.44,10.8,9.8,0,1.99-.6,3.91-1.86,5.37-.6.66-2.58,2.12-5.5,4.24,4.57,2.52,9.07,5.7,9.07,11.46,0,7.75-7.02,11.99-13.31,11.99-7.35,0-12.78-4.24-12.78-10.93,0-3.38,1.46-5.24,3.05-6.56,1.06-.93,3.64-2.65,5.96-4.11-4.3-2.52-7.35-5.7-7.35-10.4,0-5.77,4.7-10.86,11.92-10.86ZM814.53,271.57c4.44,0,7.15-2.91,7.15-7.75,0-5.3-4.44-7.88-9.81-10.47-3.58,2.05-5.56,5.17-5.56,9.08,0,6.09,3.84,9.14,8.21,9.14ZM813.67,233.14c-3.98,0-6.03,3.11-6.03,6.82,0,4.83,3.25,6.62,8.42,9.34,2.58-1.99,4.37-4.31,4.37-8.21,0-5.57-3.31-7.95-6.76-7.95Z"></path>
 &nbsp; &nbsp;</g>
 &nbsp; &nbsp;<path class="cls-2" d="M723.76,423.85c2.85-4.44,5.77-6.89,7.88-6.89,1.86,0,3.11,2.12,4.64,7.22l.99,3.51c5.76-7.95,8.61-10.73,11.59-10.73,1.92,0,2.85,1.39,2.78,2.85,0,.93-.73,2.58-1.59,3.18-.6.47-1,.6-1.39.53-.73-.13-1.46-1.79-2.45-1.79-1.46,0-3.97,2.65-8.21,8.48l2.18,6.76c1.26,3.97,2.25,5.96,3.38,5.96,1.06,0,2.25-.8,4.84-3.91l1.19,1.52c-2.85,4.51-6.09,7.09-8.48,7.09-1.79,0-3.24-2.19-4.84-7.16l-1.79-5.76c-6.49,9.34-9.34,12.92-12.32,12.92-1.72,0-2.92-1.26-2.92-3.11.07-1.92,1.66-3.97,2.92-3.97.93,0,1.52,1.79,2.45,1.79,1.19,0,3.31-2.05,9.14-10.14l-1.79-5.83c-1.13-3.58-1.72-4.84-2.65-4.84-.66,0-1.99.66-4.24,3.77l-1.33-1.46Z"></path>
 &nbsp; &nbsp;<path class="cls-2" d="M553.21,278.24c2.85-4.44,5.77-6.89,7.88-6.89,1.86,0,3.11,2.12,4.64,7.22l.99,3.51c5.76-7.95,8.61-10.73,11.59-10.73,1.92,0,2.85,1.39,2.78,2.85,0,.93-.73,2.58-1.59,3.18-.6.47-1,.6-1.39.53-.73-.13-1.46-1.79-2.45-1.79-1.46,0-3.97,2.65-8.21,8.48l2.18,6.76c1.26,3.97,2.25,5.96,3.38,5.96,1.06,0,2.25-.8,4.84-3.91l1.19,1.52c-2.85,4.51-6.09,7.09-8.48,7.09-1.79,0-3.24-2.19-4.84-7.16l-1.79-5.76c-6.49,9.34-9.34,12.92-12.32,12.92-1.72,0-2.92-1.26-2.92-3.11.07-1.92,1.66-3.97,2.92-3.97.93,0,1.52,1.79,2.45,1.79,1.19,0,3.31-2.05,9.14-10.14l-1.79-5.83c-1.13-3.58-1.72-4.84-2.65-4.84-.66,0-1.99.66-4.24,3.77l-1.33-1.46Z"></path>
 &nbsp; &nbsp;<path class="cls-2" d="M911.29,394.91h-314.5v-247.27l314.5,247.27ZM603.42,388.28h288.74l-288.74-227.01v227.01Z"></path>
 &nbsp; &nbsp;<path class="cls-2" d="M642.12,393.25h-43.67v-43.67h43.67v43.67ZM601.76,389.94h37.05v-37.05h-37.05v37.05Z"></path>
 &nbsp;</g>
</svg>