<!--?xml version="1.0" encoding="UTF-8"?-->
<svg id="Layer_1" xmlns="http://www.w3.org/2000/svg" viewBox="0 0 1460 595.28">
 &nbsp;<defs>
 &nbsp; &nbsp;<style>
 &nbsp; &nbsp; &nbsp;.cls-1 {
 &nbsp; &nbsp; &nbsp; &nbsp;fill: none;
 &nbsp; &nbsp; &nbsp;}

 &nbsp; &nbsp; &nbsp;.cls-2 {
 &nbsp; &nbsp; &nbsp; &nbsp;fill: currentColor;
 &nbsp; &nbsp; &nbsp;}

 &nbsp; &nbsp; &nbsp;.cls-3 {
 &nbsp; &nbsp; &nbsp; &nbsp;fill: currentColor;
 &nbsp; &nbsp; &nbsp;}
 &nbsp; &nbsp;</style>
 &nbsp;</defs>
 &nbsp;<rect class="cls-1" width="1460" height="595.28"></rect>
 &nbsp;<g>
 &nbsp; &nbsp;<rect class="cls-2" x="532.19" y="492.55" width="395.62" height="5.09"></rect>
 &nbsp; &nbsp;<rect class="cls-2" x="532.19" y="97.64" width="5.09" height="397.45"></rect>
 &nbsp; &nbsp;<path class="cls-2" d="M588.32,441.51v51.04h-51.04v-51.04h51.04M590.87,438.96h-56.13v56.13h56.13v-56.13h0Z"></path>
 &nbsp; &nbsp;<g>
 &nbsp; &nbsp; &nbsp;<line class="cls-3" x1="534.74" y1="495.09" x2="819.22" y2="103.54"></line>
 &nbsp; &nbsp; &nbsp;<g>
 &nbsp; &nbsp; &nbsp; &nbsp;<rect class="cls-2" x="439.43" y="305.5" width="462.41" height="5.09" transform="translate(27.11 669.32) rotate(-53.98)"></rect>
 &nbsp; &nbsp; &nbsp; &nbsp;<polygon class="cls-2" points="819.22 103.54 811.4 135.43 805.59 122.3 791.3 120.83 819.22 103.54"></polygon>
 &nbsp; &nbsp; &nbsp;</g>
 &nbsp; &nbsp;</g>
 &nbsp; &nbsp;<g>
 &nbsp; &nbsp; &nbsp;<line class="cls-3" x1="534.74" y1="495.09" x2="663.31" y2="99.39"></line>
 &nbsp; &nbsp; &nbsp;<g>
 &nbsp; &nbsp; &nbsp; &nbsp;<rect class="cls-2" x="398.44" y="304.95" width="394.49" height="5.09" transform="translate(119.15 779) rotate(-72)"></rect>
 &nbsp; &nbsp; &nbsp; &nbsp;<polygon class="cls-2" points="663.31 99.39 665.73 132.14 656.14 121.44 642.11 124.46 663.31 99.39"></polygon>
 &nbsp; &nbsp; &nbsp;</g>
 &nbsp; &nbsp;</g>
 &nbsp; &nbsp;<g>
 &nbsp; &nbsp; &nbsp;<path class="cls-2" d="M640.78,428.82l2.75-3.69c1.7-1.87,4.39-3.34,7.55-3.34,5.33,0,8.84,3.34,8.84,7.79,0,1.76-.76,3.16-1.82,4.33-.94.99-2.46,2.05-4.16,3.16,5.45,1.17,8.67,4.74,8.67,9.02,0,9.54-11.24,13.58-15.4,13.58-2.75,0-5.27-1.17-6.09-2.05-.7-.76-.88-1.29-.88-1.93.06-.94.82-1.82,1.35-2.23.47-.35,1-.41,1.52.06,1.58,1.41,3.92,3.1,7.26,3.1,4.21,0,7.2-3.16,7.2-8.84-.06-5.39-3.98-7.49-7.73-7.49-1.35,0-2.99.35-3.92.64l-.41-1.76c5.21-1.7,9.43-4.04,9.43-8.37,0-3.45-2.23-5.45-5.62-5.45s-5.8,2.4-7.32,4.63l-1.23-1.17Z"></path>
 &nbsp; &nbsp; &nbsp;<path class="cls-2" d="M669.3,438.66c2.52-3.92,5.09-6.09,6.97-6.09,1.64,0,2.75,1.87,4.1,6.38l.88,3.1c5.09-7.03,7.61-9.48,10.25-9.48,1.7,0,2.52,1.23,2.46,2.52,0,.82-.64,2.28-1.4,2.81-.53.41-.88.53-1.23.47-.64-.12-1.29-1.58-2.17-1.58-1.29,0-3.51,2.34-7.26,7.49l1.93,5.97c1.11,3.51,1.99,5.27,2.99,5.27.94,0,1.99-.7,4.27-3.45l1.05,1.35c-2.52,3.98-5.39,6.26-7.49,6.26-1.58,0-2.87-1.93-4.27-6.32l-1.58-5.09c-5.74,8.26-8.26,11.42-10.89,11.42-1.52,0-2.58-1.11-2.58-2.75.06-1.7,1.46-3.51,2.58-3.51.82,0,1.35,1.58,2.17,1.58,1.05,0,2.93-1.82,8.08-8.96l-1.58-5.15c-.99-3.16-1.52-4.27-2.34-4.27-.58,0-1.76.59-3.75,3.34l-1.17-1.29Z"></path>
 &nbsp; &nbsp; &nbsp;<path class="cls-2" d="M714.85,427.94c0,4.92-3.69,7.9-7.73,7.9-4.27,0-7.73-2.99-7.73-7.9s3.51-7.9,7.73-7.9,7.73,3.16,7.73,7.9ZM702.44,427.94c0,3.28,1.93,5.45,4.74,5.45s4.62-2.17,4.62-5.39-1.87-5.5-4.68-5.5c-2.98,0-4.68,2.17-4.68,5.44Z"></path>
 &nbsp; &nbsp;</g>
 &nbsp; &nbsp;<g>
 &nbsp; &nbsp; &nbsp;<path class="cls-2" d="M633.26,275.7c2.52-3.92,5.09-6.09,6.97-6.09,1.64,0,2.75,1.87,4.1,6.38l.88,3.1c5.09-7.03,7.61-9.48,10.25-9.48,1.7,0,2.52,1.23,2.46,2.52,0,.82-.64,2.28-1.4,2.81-.53.41-.88.53-1.23.47-.64-.12-1.29-1.58-2.17-1.58-1.29,0-3.51,2.34-7.26,7.49l1.93,5.97c1.11,3.51,1.99,5.27,2.98,5.27.94,0,1.99-.7,4.27-3.45l1.05,1.35c-2.52,3.98-5.39,6.26-7.49,6.26-1.58,0-2.87-1.93-4.27-6.32l-1.58-5.09c-5.74,8.26-8.26,11.42-10.89,11.42-1.52,0-2.58-1.11-2.58-2.75.06-1.7,1.46-3.51,2.58-3.51.82,0,1.35,1.58,2.17,1.58,1.05,0,2.93-1.82,8.08-8.96l-1.58-5.15c-1-3.16-1.52-4.27-2.34-4.27-.59,0-1.76.59-3.75,3.34l-1.17-1.29Z"></path>
 &nbsp; &nbsp; &nbsp;<path class="cls-2" d="M678.82,264.99c0,4.92-3.69,7.9-7.73,7.9-4.27,0-7.73-2.99-7.73-7.9s3.51-7.9,7.73-7.9,7.73,3.16,7.73,7.9ZM666.4,264.99c0,3.28,1.93,5.45,4.74,5.45s4.62-2.17,4.62-5.39-1.87-5.5-4.68-5.5c-2.98,0-4.68,2.17-4.68,5.44Z"></path>
 &nbsp; &nbsp;</g>
 &nbsp; &nbsp;<g>
 &nbsp; &nbsp; &nbsp;<path class="cls-2" d="M551.78,280.79c2.52-3.92,5.09-6.09,6.97-6.09,1.64,0,2.75,1.87,4.1,6.38l.88,3.1c5.09-7.03,7.61-9.48,10.25-9.48,1.7,0,2.52,1.23,2.46,2.52,0,.82-.64,2.28-1.4,2.81-.53.41-.88.53-1.23.47-.64-.12-1.29-1.58-2.17-1.58-1.29,0-3.51,2.34-7.26,7.49l1.93,5.97c1.11,3.51,1.99,5.27,2.98,5.27.94,0,1.99-.7,4.27-3.45l1.05,1.35c-2.52,3.98-5.39,6.26-7.49,6.26-1.58,0-2.87-1.93-4.27-6.32l-1.58-5.09c-5.74,8.26-8.26,11.42-10.89,11.42-1.52,0-2.58-1.11-2.58-2.75.06-1.7,1.46-3.51,2.58-3.51.82,0,1.35,1.58,2.17,1.58,1.05,0,2.93-1.82,8.08-8.96l-1.58-5.15c-1-3.16-1.52-4.27-2.34-4.27-.59,0-1.76.59-3.75,3.34l-1.17-1.29Z"></path>
 &nbsp; &nbsp; &nbsp;<path class="cls-2" d="M597.34,270.08c0,4.92-3.69,7.9-7.73,7.9-4.27,0-7.73-2.99-7.73-7.9s3.51-7.9,7.73-7.9,7.73,3.16,7.73,7.9ZM584.93,270.08c0,3.28,1.93,5.45,4.74,5.45s4.62-2.17,4.62-5.39-1.87-5.5-4.68-5.5c-2.98,0-4.68,2.17-4.68,5.44Z"></path>
 &nbsp; &nbsp;</g>
 &nbsp;</g>
</svg>