<!--?xml version="1.0" encoding="UTF-8"?-->
<svg id="Layer_1" xmlns="http://www.w3.org/2000/svg" viewBox="0 0 1460 595.28">
 &nbsp;<defs>
 &nbsp; &nbsp;<style>
 &nbsp; &nbsp; &nbsp;.cls-1 {
 &nbsp; &nbsp; &nbsp; &nbsp;fill: none;
 &nbsp; &nbsp; &nbsp;}

 &nbsp; &nbsp; &nbsp;.cls-2, .cls-3 {
 &nbsp; &nbsp; &nbsp; &nbsp;fill: currentColor;
 &nbsp; &nbsp; &nbsp;}

 &nbsp; &nbsp; &nbsp;.cls-3 {
 &nbsp; &nbsp; &nbsp; &nbsp;stroke: currentColor;
 &nbsp; &nbsp; &nbsp; &nbsp;stroke-miterlimit: 10;
 &nbsp; &nbsp; &nbsp;}
 &nbsp; &nbsp;</style>
 &nbsp;</defs>
 &nbsp;<rect class="cls-1" width="1460" height="595.28"></rect>
 &nbsp;<g>
 &nbsp; &nbsp;<path class="cls-2" d="M611.53,259.17c5.98,0,10.17,4.18,10.17,9.23,0,1.87-.56,3.68-1.75,5.05-.56.63-2.43,2-5.17,3.99,4.3,2.37,8.54,5.36,8.54,10.79,0,7.29-6.61,11.29-12.53,11.29-6.92,0-12.04-3.99-12.04-10.29,0-3.18,1.37-4.92,2.87-6.17,1-.87,3.43-2.49,5.61-3.86-4.05-2.37-6.92-5.36-6.92-9.79,0-5.43,4.43-10.23,11.22-10.23ZM611.53,297.39c4.18,0,6.73-2.74,6.73-7.29,0-4.99-4.18-7.42-9.23-9.85-3.37,1.93-5.24,4.86-5.24,8.55,0,5.74,3.62,8.6,7.73,8.6ZM610.71,261.23c-3.74,0-5.67,2.93-5.67,6.42,0,4.55,3.05,6.24,7.92,8.79,2.43-1.87,4.12-4.05,4.12-7.73,0-5.24-3.12-7.48-6.36-7.48Z"></path>
 &nbsp; &nbsp;<path class="cls-2" d="M849.67,259.17c5.99,0,10.17,4.18,10.17,9.23,0,1.87-.56,3.68-1.75,5.05-.56.63-2.43,2-5.18,3.99,4.3,2.37,8.54,5.36,8.54,10.79,0,7.29-6.61,11.29-12.53,11.29-6.92,0-12.03-3.99-12.03-10.29,0-3.18,1.37-4.92,2.87-6.17,1-.87,3.43-2.49,5.61-3.86-4.06-2.37-6.92-5.36-6.92-9.79,0-5.43,4.42-10.23,11.22-10.23ZM849.67,297.39c4.18,0,6.73-2.74,6.73-7.29,0-4.99-4.18-7.42-9.23-9.85-3.37,1.93-5.24,4.86-5.24,8.55,0,5.74,3.62,8.6,7.73,8.6ZM848.86,261.23c-3.74,0-5.68,2.93-5.68,6.42,0,4.55,3.06,6.24,7.92,8.79,2.43-1.87,4.11-4.05,4.11-7.73,0-5.24-3.12-7.48-6.36-7.48Z"></path>
 &nbsp; &nbsp;<path class="cls-2" d="M737.39,464.82c5.99,0,10.17,4.18,10.17,9.23,0,1.87-.56,3.68-1.75,5.05-.56.63-2.43,2-5.18,3.99,4.3,2.37,8.54,5.36,8.54,10.79,0,7.29-6.61,11.29-12.53,11.29-6.92,0-12.03-3.99-12.03-10.29,0-3.18,1.37-4.92,2.87-6.17,1-.87,3.43-2.49,5.61-3.86-4.06-2.37-6.92-5.36-6.92-9.79,0-5.43,4.42-10.23,11.22-10.23ZM737.39,503.04c4.18,0,6.73-2.74,6.73-7.29,0-4.99-4.18-7.42-9.23-9.85-3.37,1.93-5.24,4.86-5.24,8.55,0,5.74,3.62,8.6,7.73,8.6ZM736.58,466.88c-3.74,0-5.68,2.93-5.68,6.42,0,4.55,3.06,6.24,7.92,8.79,2.43-1.87,4.11-4.05,4.11-7.73,0-5.24-3.12-7.48-6.36-7.48Z"></path>
 &nbsp; &nbsp;<path class="cls-2" d="M754.28,191.19c-1.16.79-2.33,1.45-3.57,2.12-6.03,3.12-12.85,4.86-20.08,4.86s-14.05-1.75-20.08-4.86c-1.25-.67-2.41-1.33-3.58-2.12l-2.12,3.62c1.16.75,2.37,1.45,3.62,2.08,6.65,3.49,14.18,5.45,22.16,5.45s15.55-1.95,22.16-5.45c1.25-.62,2.45-1.33,3.62-2.08l-2.12-3.62Z"></path>
 &nbsp; &nbsp;<path class="cls-2" d="M877.28,404.24c-1.25.62-2.45,1.29-3.62,2.04-12.8,8.19-21.45,22.28-22.12,38.37-.08.67-.08,1.37-.08,2.08s0,1.41.08,2.08h4.12c-.04-.71-.04-1.37-.04-2.08s0-1.37.04-2.08c.71-14.55,8.52-27.31,20.08-34.75,1.16-.75,2.37-1.45,3.62-2.08l-2.08-3.57Z"></path>
 &nbsp; &nbsp;<path class="cls-2" d="M609.78,444.64c-.71-16.13-9.39-30.22-22.2-38.37-1.16-.75-2.37-1.45-3.57-2.08l-2.08,3.57c1.25.67,2.41,1.33,3.57,2.08,11.56,7.48,19.41,20.2,20.12,34.79.04.71.04,1.37.04,2.08s0,1.37-.04,2.08h4.16c.04-.67.04-1.37.04-2.08s0-1.41-.04-2.08Z"></path>
 &nbsp; &nbsp;<path class="cls-3" d="M879.36,407.81l-2.08-3.57-44.81-77.61-2.08-3.62-73.99-128.2-2.12-3.62-23.65-40.99-23.65,40.99-2.12,3.62-73.99,128.2-2.08,3.62-44.77,77.57-2.08,3.57-23.69,41.03h344.78l-23.65-40.99ZM565.43,444.64l20.08-34.79,2.08-3.57,44.77-77.57,2.08-3.62,74.04-128.2,2.08-3.57,20.08-34.79,20.08,34.79,2.08,3.57,74.04,128.2,2.08,3.62,44.77,77.57,2.08,3.62,20.08,34.75h-330.39Z"></path>
 &nbsp;</g>
</svg>