<!--?xml version="1.0" encoding="UTF-8"?-->
<svg id="Layer_1" xmlns="http://www.w3.org/2000/svg" viewBox="0 0 1460 595.28">
 &nbsp;<defs>
 &nbsp; &nbsp;<style>
 &nbsp; &nbsp; &nbsp;.cls-1 {
 &nbsp; &nbsp; &nbsp; &nbsp;fill: none;
 &nbsp; &nbsp; &nbsp;}

 &nbsp; &nbsp; &nbsp;.cls-2 {
 &nbsp; &nbsp; &nbsp; &nbsp;fill: currentColor;
 &nbsp; &nbsp; &nbsp;}
 &nbsp; &nbsp;</style>
 &nbsp;</defs>
 &nbsp;<rect class="cls-1" width="1460" height="595.28"></rect>
 &nbsp;<g>
 &nbsp; &nbsp;<path class="cls-2" d="M682.39,364.73l-.19-1.26c-2.29-15.65,3.62-31.04,15.82-41.15l.98-.81,30.11,36.37-46.72,6.85ZM698.68,325.1c-10.53,9.26-15.75,22.83-14.12,36.74l39.72-5.82-25.6-30.92h0Z"></path>
 &nbsp; &nbsp;<path class="cls-2" d="M671.76,366.28l-.19-1.26c-2.84-19.38,4.48-38.43,19.59-50.97l.98-.81,36.97,44.64-57.35,8.4ZM691.82,316.83c-13.44,11.69-20.07,28.93-17.9,46.57l50.35-7.38-32.45-39.19h0Z"></path>
 &nbsp; &nbsp;<path class="cls-2" d="M191.9,436.6l55.72-36.57.7,1.06c4.76,7.28,7.82,15.41,9.1,24.16l.25,1.71-65.77,9.64ZM246.87,403.56l-43.98,28.87,51.89-7.61c-1.23-7.65-3.88-14.8-7.91-21.26Z"></path>
 &nbsp; &nbsp;<path class="cls-2" d="M191.9,436.6l65.25-42.83.71,1.02c6.07,8.77,10.07,18.56,11.87,29.1l.22,1.28-78.04,11.43h0ZM256.46,397.26l-53.57,35.16,64.09-9.39c-1.76-9.28-5.29-17.94-10.52-25.77Z"></path>
 &nbsp; &nbsp;<path class="cls-2" d="M581.75,221.38c-13.05,0-25.53-6.56-32.86-17.64l-.7-1.06,33.96-22.28,25.71,31.04-.97.81c-5.57,4.65-12.31,7.67-19.49,8.72-1.88.28-3.77.41-5.64.41h-.01ZM551.73,203.4c7.96,11.17,21.66,17.06,35.29,15.06,6.3-.92,12.24-3.46,17.25-7.36l-22.63-27.32-29.91,19.62Z"></path>
 &nbsp; &nbsp;<path class="cls-2" d="M191.9,436.6l45.94-30.16.69,1.07c3.82,5.87,6.28,12.41,7.3,19.44l.25,1.71-54.19,7.94h0ZM237.08,409.98l-34.19,22.45,40.3-5.91c-.97-5.93-3.02-11.48-6.11-16.54Z"></path>
 &nbsp; &nbsp;<g>
 &nbsp; &nbsp; &nbsp;<path class="cls-2" d="M469.99,437.88c-.66,2.28-1.53,4.88-2.03,6.76h-19.15v-1.22c2.79-2.74,5.84-5.74,8.33-8.64,3.2-3.76,6.25-7.83,6.25-12.25s-2.23-6.66-5.94-6.66c-3.51,0-5.69,2.74-7.01,4.73l-1.17-1.07,2.9-4.12c1.57-1.78,4.01-3.05,6.96-3.05,4.83,0,8.64,3.3,8.64,8.79,0,4.32-1.58,7.37-6.4,12.3-2.19,2.29-5.39,5.39-7.57,7.47h9.71c2.74,0,3.5-.26,5.23-3.46l1.27.41h-.02Z"></path>
 &nbsp; &nbsp; &nbsp;<path class="cls-2" d="M476.39,444.64v-1.42c5.64-.35,5.95-.61,5.95-4.42v-19.51c0-2.59-.35-2.69-2.59-2.89l-2.49-.26v-1.27c3.35-.56,6.71-1.37,9.3-2.49v26.42c0,3.86.31,4.07,6,4.42v1.42h-16.17Z"></path>
 &nbsp; &nbsp;</g>
 &nbsp; &nbsp;<path class="cls-2" d="M165.87,431.87c5.95,0,9.86,2.08,9.86,7.06,0,4.32-3.5,7.11-7.83,8.08,3.76.92,7.22,3.46,7.22,7.83,0,6.25-5.94,10.06-13.82,10.06h-13.51l.31-1.42c4.01-.35,4.57-.61,5.39-4.67l4.12-21.19c.66-3.66.15-3.96-4.01-4.32l.31-1.42h11.99-.03ZM157.59,458.59c-.71,3.76.51,4.52,4.22,4.52,5.03,0,8.69-3.4,8.69-8.33s-3.91-6.81-8.28-6.81h-2.59l-2.03,10.62h-.01ZM162.98,446.25c5.84,0,8.28-3.15,8.28-7.27s-3.2-5.44-6.04-5.44c-2.03,0-2.85.05-3.3,2.69l-1.93,10.01h3-.01Z"></path>
 &nbsp; &nbsp;<path class="cls-2" d="M596.08,164.07h-12.4l.25-1.42c3.66-.4,4.07-.86,3.81-3.05-.26-2.08-.66-4.62-1.12-7.57h-10.67c-.86,1.63-2.59,4.57-3.76,6.86-1.58,3-.81,3.35,3.1,3.76l-.31,1.42h-11.64l.36-1.42c3.25-.4,3.91-.71,6.4-4.88l15.6-27.13,1.68-.25c2.24,14.94,3.35,21.75,4.37,27.9.56,3.56.96,4.01,4.68,4.37l-.36,1.42h.01ZM584.4,136.78h-.1c-2.59,4.73-5.18,9.35-7.27,13.21h9.3l-1.93-13.21Z"></path>
 &nbsp; &nbsp;<path class="cls-2" d="M767.2,372.95c-.66,2.03-2.34,5.95-3.2,7.32-1.52.2-4.73,1.07-8.38,1.07-8.74,0-15.04-5.39-15.04-14.68,0-11.99,9.35-19.82,20.73-19.82,4.27,0,7.01.71,8.84,1.22-.35,1.73-.76,5.13-1.02,7.67l-1.58.1c-.1-5.95-2.59-7.16-7.37-7.16-8.69,0-14.73,8.43-14.73,17.94,0,7.67,3.76,12.85,10.57,12.85,4.98,0,7.32-2.95,9.81-7.16l1.37.66h0Z"></path>
 &nbsp; &nbsp;<path class="cls-2" d="M851.23,413.61c2.44,0,4.72,0,6.6-.05-.3,1.22-.86,4.73-1.32,7.72l-1.58.05c-.2-5.28-1.07-5.79-4.37-5.79h-5.03c-1.68,0-2.13.1-2.49,2.03l-2.14,10.92h5.23c4.17,0,4.37-.61,5.79-4.17h1.53l-2.08,10.52h-1.53c0-3.91.15-4.43-4.17-4.43h-5.13l-1.78,9.05c-.76,3.61-.66,5.23,2.95,5.23h3.76c3,0,4.32-.31,5.74-1.63,1.22-1.12,2.39-2.85,3.35-4.67l1.47.51c-.51,1.42-2.24,6.15-2.9,7.72h-24.75l.36-1.42c4.47-.46,4.88-.61,5.64-4.67l4.02-20.78c.76-3.91.51-4.37-3.91-4.73l.31-1.42h16.43Z"></path>
 &nbsp; &nbsp;<path class="cls-2" d="M1161.41,174.92c9.76,0,15.9,4.88,15.9,13.97,0,6.45-2.9,12.14-8.13,15.4-4.32,2.74-7.88,3.66-14.07,3.66h-12.7l.36-1.42c4.12-.35,4.57-.81,5.28-4.73l4.01-20.68c.76-4.01.61-4.42-3.91-4.77l.35-1.42h12.91,0ZM1152.37,201.34c-.81,4.27,1.83,4.73,4.78,4.73,10.42,0,15.45-8.18,15.45-17.43,0-7.88-4.12-11.94-11.59-11.94-3,0-3.96.26-4.47,3l-4.17,21.64h0Z"></path>
 &nbsp; &nbsp;<path class="cls-2" d="M1305.56,343h6.66c-.41,1.73-.97,4.98-1.32,7.77h-1.58c-.05-.96-.15-2.29-.41-3.56-.35-1.58-1.27-2.28-4.01-2.28h-5.64c-1.68,0-1.98.2-2.29,1.93l-2.18,11.53h6c4.22,0,4.42-.56,6-4.12h1.52l-2.13,10.67h-1.47c-.05-4.16-.25-4.57-4.32-4.57h-5.95l-1.88,9.35c-.76,4.17-.51,4.52,4.32,4.88l-.31,1.42h-13.82l.35-1.42c4.12-.35,4.42-.66,5.28-4.93l3.91-20.22c.86-4.42.46-4.62-3.86-5.03l.35-1.42h16.78Z"></path>
 &nbsp; &nbsp;<path class="cls-2" d="M991.58,291.15c1.07-.56,2.23-.86,3.25-.86,5.39,0,9.1,4.22,9.1,9.4,0,6.1-4.37,11.23-10.47,11.23s-10.57-4.93-10.57-12.7c0-10.47,7.98-17.07,14.07-19.16,1.12-.41,3.66-.96,5.74-1.32l.31,1.67c-1.63.36-4.01,1.02-5.54,1.73-3.1,1.42-7.93,4.77-9.3,11.74l3.4-1.73h0ZM992.8,293.18c-2.03,0-3.76.76-4.93,1.42-.2.92-.31,2.19-.31,3.46,0,6.35,2.39,11.03,6.71,11.03,3.96,0,5.18-4.16,5.18-7.57,0-4.22-2.03-8.33-6.66-8.33h0Z"></path>
 &nbsp; &nbsp;<path class="cls-2" d="M1100.99,405.98c-4.88,10.31-9.6,20.58-14.53,31.1l-3.66.35-.35-.56c5.28-8.59,10.87-19.1,14.89-27.79h-10.87c-3.3,0-3.5.46-4.88,3.81h-1.58c.51-2.85.71-5.39.96-7.57h19.71l.31.66Z"></path>
 &nbsp; &nbsp;<path class="cls-2" d="M1237.5,262.72l2.39-3.2c1.47-1.62,3.81-2.9,6.55-2.9,4.62,0,7.67,2.9,7.67,6.76,0,1.52-.66,2.74-1.58,3.76-.81.86-2.13,1.78-3.61,2.74,4.73,1.02,7.52,4.11,7.52,7.82,0,8.28-9.76,11.79-13.36,11.79-2.39,0-4.57-1.02-5.28-1.78-.61-.66-.76-1.12-.76-1.68.05-.81.71-1.58,1.17-1.93.41-.3.86-.35,1.32.05,1.37,1.22,3.41,2.69,6.3,2.69,3.66,0,6.25-2.75,6.25-7.67-.05-4.67-3.46-6.5-6.71-6.5-1.17,0-2.59.3-3.4.56l-.36-1.53c4.52-1.47,8.18-3.5,8.18-7.26,0-3-1.93-4.73-4.88-4.73s-5.03,2.08-6.35,4.01l-1.07-1.01h0Z"></path>
 &nbsp; &nbsp;<path class="cls-2" d="M186.4,438.69l396-259.97,149.12,180.09-545.13,79.89h0ZM581.39,185.46l-30.04,19.71-342.96,225.17,513.47-75.25-140.46-169.63h0Z"></path>
 &nbsp; &nbsp;<path class="cls-2" d="M1233.97,360.24l-.19-1.26c-1.71-11.66,2.7-23.13,11.78-30.66l.98-.81,22.8,27.55-35.38,5.18h0ZM1246.23,331.1c-7.43,6.68-11.14,16.33-10.09,26.25l28.38-4.16-18.29-22.09Z"></path>
 &nbsp; &nbsp;<path class="cls-2" d="M1226.13,361.38l-.19-1.26c-2.11-14.41,3.33-28.58,14.57-37.91l.98-.81,27.87,33.65-43.22,6.33h-.01ZM1241.17,325c-9.57,8.47-14.32,20.83-12.88,33.5l36.22-5.31-23.35-28.19h.01Z"></path>
 &nbsp; &nbsp;<path class="cls-2" d="M870.94,413.43l42.65-27.99.7,1.06c3.53,5.41,5.81,11.45,6.76,17.96l.24,1.59-50.35,7.38h0ZM912.84,388.97l-30.9,20.28,36.46-5.34c-.9-5.37-2.77-10.38-5.55-14.94h-.01Z"></path>
 &nbsp; &nbsp;<path class="cls-2" d="M870.94,413.43l49.67-32.6.71,1.02c4.51,6.51,7.48,13.78,8.81,21.6l.22,1.28-59.4,8.7h0ZM919.92,384.32l-37.99,24.93,45.45-6.66c-1.29-6.56-3.8-12.69-7.47-18.27h0Z"></path>
 &nbsp; &nbsp;<path class="cls-2" d="M1160.01,254.44c-9.74,0-19.05-4.9-24.52-13.16l-.7-1.06,25.58-16.78,19.36,23.38-.97.81c-4.15,3.47-9.18,5.72-14.55,6.51-1.4.2-2.81.31-4.2.31h0ZM1138.34,240.92c5.83,7.96,15.7,12.14,25.51,10.7,4.48-.66,8.7-2.43,12.3-5.15l-16.28-19.66-21.53,14.12h0Z"></path>
 &nbsp; &nbsp;<path class="cls-2" d="M870.94,413.43l35.43-23.26.69,1.07c2.84,4.37,4.67,9.24,5.44,14.47l.24,1.59-41.8,6.12h0ZM905.61,393.72l-23.68,15.54,27.91-4.09c-.71-4.09-2.13-7.94-4.23-11.45Z"></path>
 &nbsp; &nbsp;<path class="cls-2" d="M865.45,415.52l295.17-193.78,111.15,134.23-406.33,59.54h0ZM1159.61,228.49l-272.17,178.68,374.66-54.91-102.49-123.78h0Z"></path>
 &nbsp;</g>
 &nbsp;<path d="M680.35,255.81c2.14-3.33,4.32-5.17,5.91-5.17,1.39,0,2.33,1.59,3.48,5.42l.75,2.63c4.32-5.96,6.46-8.05,8.7-8.05,1.44,0,2.14,1.04,2.09,2.14,0,.7-.55,1.94-1.19,2.38-.45.35-.75.45-1.04.4-.55-.1-1.09-1.34-1.84-1.34-1.09,0-2.98,1.99-6.16,6.36l1.64,5.07c.94,2.98,1.69,4.47,2.53,4.47.79,0,1.69-.6,3.63-2.93l.89,1.14c-2.14,3.38-4.57,5.32-6.36,5.32-1.34,0-2.43-1.64-3.63-5.37l-1.34-4.32c-4.87,7-7.01,9.69-9.24,9.69-1.29,0-2.19-.94-2.19-2.33.05-1.44,1.24-2.98,2.19-2.98.7,0,1.14,1.34,1.84,1.34.89,0,2.48-1.54,6.86-7.6l-1.34-4.37c-.84-2.68-1.29-3.63-1.99-3.63-.5,0-1.49.5-3.18,2.83l-.99-1.09Z"></path>
</svg>