<!--?xml version="1.0" encoding="UTF-8"?-->
<svg id="Layer_1" xmlns="http://www.w3.org/2000/svg" viewBox="0 0 1460 595.28">
 &nbsp;<defs>
 &nbsp; &nbsp;<style>
 &nbsp; &nbsp; &nbsp;.cls-1 {
 &nbsp; &nbsp; &nbsp; &nbsp;fill: none;
 &nbsp; &nbsp; &nbsp;}

 &nbsp; &nbsp; &nbsp;.cls-2 {
 &nbsp; &nbsp; &nbsp; &nbsp;fill: currentColor;
 &nbsp; &nbsp; &nbsp;}

 &nbsp; &nbsp; &nbsp;.cls-3 {
 &nbsp; &nbsp; &nbsp; &nbsp;fill: currentColor;
 &nbsp; &nbsp; &nbsp;}
 &nbsp; &nbsp;</style>
 &nbsp;</defs>
 &nbsp;<rect class="cls-2" x="521.62" y="503.15" width="417.14" height="5.37"></rect>
 &nbsp;<rect class="cls-2" x="521.62" y="86.76" width="5.37" height="419.07"></rect>
 &nbsp;<path class="cls-2" d="M580.81,449.33v53.82h-53.82v-53.82h53.82M583.49,446.65h-59.19v59.19h59.19v-59.19h0Z"></path>
 &nbsp;<g>
 &nbsp; &nbsp;<line class="cls-3" x1="525.01" y1="504.7" x2="845.5" y2="94.49"></line>
 &nbsp; &nbsp;<g>
 &nbsp; &nbsp; &nbsp;<polygon class="cls-2" points="525.47 508.47 521.24 505.16 522.89 503.05 831.03 108.65 835.26 111.95 833.61 114.07 525.47 508.47"></polygon>
 &nbsp; &nbsp; &nbsp;<polygon class="cls-2" points="845.5 94.49 836.09 127.81 830.45 113.76 815.45 111.69 845.5 94.49"></polygon>
 &nbsp; &nbsp;</g>
 &nbsp;</g>
 &nbsp;<g>
 &nbsp; &nbsp;<path class="cls-2" d="M584.38,373.6c-3.03,4.07-6.85,6.3-8.58,6.3s-2.47-1.42-1.36-7.04l.87-4.26c-2.28,3.77-5.56,6.85-7.41,8.33-1.97,1.6-4.32,2.96-6.36,2.96-2.16,0-3.95-2.65-3.95-7.65,0-5.8,2.65-12.22,6.85-16.05,3.21-2.96,7.65-4.88,11.79-4.88,3.15,0,5.99.93,7.16,1.05-1.11,3.89-3.27,13.4-4.44,20.37-.31,1.73-.19,2.41.31,2.41.74,0,2.04-.8,4.26-3.09l.86,1.54ZM573.2,368.48c1.36-1.73,2.96-4.82,3.58-7.41.62-2.35,1.17-4.57,1.36-6.05-.87-.43-2.9-.99-4.69-.99-7.28,0-10.68,9.38-10.68,17.41,0,2.47.68,4.07,1.91,4.07,1.91,0,4.63-1.91,8.52-7.04Z"></path>
 &nbsp; &nbsp;<path class="cls-2" d="M608.77,346.44c0,5.19-3.89,8.33-8.15,8.33-4.5,0-8.15-3.15-8.15-8.33s3.7-8.33,8.15-8.33,8.15,3.33,8.15,8.33ZM595.68,346.44c0,3.46,2.04,5.74,5,5.74s4.88-2.28,4.88-5.68-1.97-5.8-4.94-5.8c-3.15,0-4.94,2.28-4.94,5.74Z"></path>
 &nbsp;</g>
 &nbsp;<g>
 &nbsp; &nbsp;<path class="cls-2" d="M639.27,425.4c3.03-.31,5.74-.99,7.53-1.54.99-.37,1.48-.49,1.85-.49.56,0,.62.62.31,1.91-2.1,8.33-3.77,16.11-5.43,23.64,4.57-5.86,9.82-9.01,13.46-9.01s4.44,4.07,4.44,6.79c0,7.41-4.26,14.75-9.69,18.4-3.76,2.53-6.98,3.4-9.2,3.4-1.61,0-2.97-.49-4.07-1.67-1.3-1.36-2.29-3.77-1.05-9.94,1.73-8.58,3.77-17.53,5.68-26.92.49-2.47.06-2.59-1.79-2.78-.68-.06-1.79-.12-2.41-.12l.37-1.67ZM656.31,447.62c0-2.22-.62-4.07-2.47-4.07-2.04,0-5.19,1.79-8.95,6.73-1.6,2.04-2.53,4.26-3.02,7.29-.99,5.99.86,8.09,3.58,8.09,6.48,0,10.87-11.42,10.87-18.03Z"></path>
 &nbsp; &nbsp;<path class="cls-2" d="M686.01,435.03c0,5.19-3.89,8.33-8.15,8.33-4.51,0-8.15-3.15-8.15-8.33s3.7-8.33,8.15-8.33,8.15,3.33,8.15,8.33ZM672.92,435.03c0,3.46,2.04,5.74,5,5.74s4.88-2.28,4.88-5.68-1.98-5.8-4.94-5.8c-3.15,0-4.94,2.28-4.94,5.74Z"></path>
 &nbsp;</g>
 &nbsp;<rect class="cls-1" width="1460" height="595.28"></rect>
</svg>