<!--?xml version="1.0" encoding="UTF-8"?-->
<svg id="Layer_1" xmlns="http://www.w3.org/2000/svg" viewBox="0 0 1460 595.28">
 &nbsp;<defs>
 &nbsp; &nbsp;<style>
 &nbsp; &nbsp; &nbsp;.cls-1 {
 &nbsp; &nbsp; &nbsp; &nbsp;fill: none;
 &nbsp; &nbsp; &nbsp;}

 &nbsp; &nbsp; &nbsp;.cls-2 {
 &nbsp; &nbsp; &nbsp; &nbsp;fill: currentColor;
 &nbsp; &nbsp; &nbsp;}
 &nbsp; &nbsp;</style>
 &nbsp;</defs>
 &nbsp;<rect class="cls-1" width="1460" height="595.28"></rect>
 &nbsp;<g>
 &nbsp; &nbsp;<g>
 &nbsp; &nbsp; &nbsp;<path class="cls-2" d="M817.74,410.13v-1.57c6.24-.4,6.58-.67,6.58-4.89v-21.6c0-2.87-.39-2.98-2.87-3.21l-2.75-.28v-1.41c3.71-.62,7.42-1.52,10.29-2.75v29.25c0,4.27.34,4.5,6.64,4.89v1.57h-17.89Z"></path>
 &nbsp; &nbsp; &nbsp;<path class="cls-2" d="M853.62,374.42c8.44,0,11.59,9.45,11.59,18.17,0,8.21-3.15,18.22-11.59,18.22s-11.76-9.28-11.76-18.17c0-8.21,3.2-18.22,11.76-18.22ZM853.62,376.38c-5.23,0-6.53,8.27-6.53,16.15s1.57,16.31,6.53,16.31,6.41-8.38,6.41-16.26-1.41-16.2-6.41-16.2Z"></path>
 &nbsp; &nbsp; &nbsp;<path class="cls-2" d="M870.27,381.16l2.64-3.54c1.63-1.8,4.22-3.2,7.25-3.2,5.12,0,8.49,3.2,8.49,7.48,0,1.68-.73,3.04-1.74,4.16-.9.96-2.36,1.97-3.99,3.04,5.23,1.12,8.32,4.56,8.32,8.66,0,9.17-10.8,13.05-14.79,13.05-2.64,0-5.06-1.12-5.85-1.97-.67-.73-.84-1.24-.84-1.86.05-.9.78-1.74,1.29-2.14.45-.34.96-.39,1.46.06,1.52,1.35,3.77,2.98,6.97,2.98,4.05,0,6.92-3.04,6.92-8.5-.06-5.17-3.82-7.2-7.43-7.2-1.29,0-2.87.34-3.76.62l-.4-1.68c5.01-1.63,9.05-3.88,9.05-8.05,0-3.32-2.13-5.23-5.4-5.23s-5.57,2.3-7.03,4.44l-1.18-1.12Z"></path>
 &nbsp; &nbsp; &nbsp;<path class="cls-2" d="M904.64,374.42c4.16,0,7.71,2.98,7.71,7.76s-3.71,7.88-7.71,7.88c-4.22,0-7.76-2.98-7.76-7.88,0-4.61,3.54-7.76,7.76-7.76ZM904.64,376.95c-2.92,0-4.67,2.19-4.67,5.23s1.97,5.29,4.67,5.29,4.61-1.97,4.61-5.17-1.91-5.34-4.61-5.34Z"></path>
 &nbsp; &nbsp;</g>
 &nbsp; &nbsp;<g>
 &nbsp; &nbsp; &nbsp;<path class="cls-2" d="M551.6,218.96v-1.57c6.24-.4,6.58-.67,6.58-4.89v-21.6c0-2.87-.4-2.98-2.87-3.21l-2.76-.28v-1.41c3.71-.62,7.42-1.52,10.29-2.75v29.25c0,4.27.34,4.5,6.64,4.89v1.57h-17.89Z"></path>
 &nbsp; &nbsp; &nbsp;<path class="cls-2" d="M587.49,183.25c8.44,0,11.59,9.45,11.59,18.17,0,8.21-3.15,18.22-11.59,18.22s-11.76-9.28-11.76-18.17c0-8.21,3.2-18.22,11.76-18.22ZM587.49,185.21c-5.23,0-6.52,8.27-6.52,16.15s1.57,16.31,6.52,16.31,6.41-8.38,6.41-16.26-1.41-16.2-6.41-16.2Z"></path>
 &nbsp; &nbsp; &nbsp;<path class="cls-2" d="M604.14,190l2.64-3.54c1.63-1.8,4.22-3.2,7.25-3.2,5.12,0,8.49,3.2,8.49,7.48,0,1.68-.73,3.04-1.74,4.16-.9.96-2.36,1.97-3.99,3.04,5.23,1.12,8.32,4.56,8.32,8.66,0,9.17-10.8,13.05-14.79,13.05-2.64,0-5.06-1.12-5.85-1.97-.67-.73-.84-1.24-.84-1.86.05-.9.78-1.74,1.29-2.14.45-.34.96-.39,1.46.06,1.52,1.35,3.77,2.98,6.97,2.98,4.05,0,6.92-3.04,6.92-8.5-.06-5.17-3.82-7.2-7.43-7.2-1.29,0-2.87.34-3.76.62l-.4-1.68c5.01-1.63,9.05-3.88,9.05-8.05,0-3.32-2.13-5.23-5.4-5.23s-5.57,2.3-7.03,4.44l-1.18-1.12Z"></path>
 &nbsp; &nbsp; &nbsp;<path class="cls-2" d="M638.5,183.25c4.16,0,7.7,2.98,7.7,7.76s-3.71,7.88-7.7,7.88c-4.22,0-7.76-2.98-7.76-7.88,0-4.61,3.54-7.76,7.76-7.76ZM638.5,185.78c-2.92,0-4.67,2.19-4.67,5.23s1.97,5.29,4.67,5.29,4.61-1.97,4.61-5.17-1.91-5.34-4.61-5.34Z"></path>
 &nbsp; &nbsp;</g>
 &nbsp; &nbsp;<g>
 &nbsp; &nbsp; &nbsp;<path class="cls-2" d="M917.86,199.44c2.42-3.77,4.89-5.85,6.69-5.85,1.58,0,2.64,1.8,3.94,6.13l.85,2.98c4.89-6.75,7.31-9.11,9.84-9.11,1.63,0,2.42,1.18,2.37,2.42,0,.79-.62,2.19-1.35,2.7-.51.39-.84.51-1.18.45-.62-.11-1.24-1.52-2.08-1.52-1.24,0-3.37,2.25-6.97,7.2l1.85,5.73c1.07,3.38,1.92,5.06,2.87,5.06.9,0,1.91-.68,4.11-3.32l1.01,1.29c-2.42,3.82-5.18,6.02-7.2,6.02-1.52,0-2.76-1.86-4.11-6.08l-1.52-4.89c-5.52,7.93-7.93,10.97-10.46,10.97-1.46,0-2.48-1.07-2.48-2.64.05-1.63,1.41-3.37,2.48-3.37.79,0,1.29,1.52,2.08,1.52,1.01,0,2.81-1.75,7.76-8.61l-1.52-4.95c-.96-3.04-1.46-4.11-2.25-4.11-.56,0-1.69.56-3.6,3.2l-1.12-1.24Z"></path>
 &nbsp; &nbsp; &nbsp;<path class="cls-2" d="M961.62,189.15c0,4.72-3.54,7.59-7.43,7.59-4.11,0-7.43-2.87-7.43-7.59s3.38-7.6,7.43-7.6,7.43,3.04,7.43,7.6ZM949.69,189.15c0,3.15,1.86,5.23,4.56,5.23s4.44-2.08,4.44-5.17-1.8-5.29-4.5-5.29c-2.87,0-4.5,2.08-4.5,5.23Z"></path>
 &nbsp; &nbsp;</g>
 &nbsp; &nbsp;<g>
 &nbsp; &nbsp; &nbsp;<path class="cls-2" d="M506.55,385.43c2.42-3.77,4.9-5.85,6.69-5.85,1.57,0,2.64,1.8,3.94,6.13l.84,2.98c4.89-6.75,7.31-9.11,9.84-9.11,1.63,0,2.42,1.18,2.36,2.42,0,.79-.62,2.19-1.35,2.7-.51.39-.84.51-1.18.45-.62-.11-1.24-1.52-2.08-1.52-1.24,0-3.38,2.25-6.98,7.2l1.86,5.73c1.07,3.38,1.91,5.06,2.87,5.06.9,0,1.91-.68,4.11-3.32l1.01,1.29c-2.42,3.82-5.17,6.02-7.2,6.02-1.52,0-2.75-1.86-4.1-6.08l-1.52-4.89c-5.51,7.93-7.93,10.97-10.46,10.97-1.46,0-2.48-1.07-2.48-2.64.06-1.63,1.41-3.37,2.48-3.37.79,0,1.29,1.52,2.08,1.52,1.01,0,2.81-1.75,7.76-8.61l-1.52-4.95c-.96-3.04-1.46-4.11-2.25-4.11-.56,0-1.68.56-3.6,3.2l-1.13-1.24Z"></path>
 &nbsp; &nbsp; &nbsp;<path class="cls-2" d="M550.31,375.14c0,4.72-3.54,7.59-7.42,7.59-4.11,0-7.42-2.87-7.42-7.59s3.37-7.6,7.42-7.6,7.42,3.04,7.42,7.6ZM538.39,375.14c0,3.15,1.86,5.23,4.56,5.23s4.45-2.08,4.45-5.17-1.8-5.29-4.5-5.29c-2.87,0-4.5,2.08-4.5,5.23Z"></path>
 &nbsp; &nbsp;</g>
 &nbsp; &nbsp;<path class="cls-2" d="M927.64,432.63h-457.69l62.41-269.99h457.69l-62.41,269.99ZM479.38,425.13h442.29l58.94-254.99h-442.29l-58.94,254.99Z"></path>
 &nbsp; &nbsp;<polygon class="cls-2" points="521.25 298.82 510.04 276.78 490.3 291.67 488.04 288.68 511.36 271.09 524.59 297.13 521.25 298.82"></polygon>
 &nbsp; &nbsp;<polygon class="cls-2" points="518.41 311.09 507.2 289.05 487.46 303.94 485.21 300.94 508.52 283.36 521.75 309.39 518.41 311.09"></polygon>
 &nbsp; &nbsp;<polygon class="cls-2" points="972.06 294.79 960.85 272.74 941.11 287.63 938.85 284.63 962.17 267.05 975.4 293.09 972.06 294.79"></polygon>
 &nbsp; &nbsp;<polygon class="cls-2" points="969.22 307.05 958.02 285 938.28 299.9 936.02 296.9 959.34 279.31 972.56 305.35 969.22 307.05"></polygon>
 &nbsp; &nbsp;<polygon class="cls-2" points="751.2 185.14 748.8 182.27 767.75 166.39 748.8 150.51 751.2 147.64 773.59 166.39 751.2 185.14"></polygon>
 &nbsp; &nbsp;<polygon class="cls-2" points="690.53 447.64 688.12 444.76 707.08 428.88 688.12 413 690.53 410.13 712.91 428.88 690.53 447.64"></polygon>
 &nbsp;</g>
</svg>