<!--?xml version="1.0" encoding="UTF-8"?-->
<svg id="Layer_1" xmlns="http://www.w3.org/2000/svg" viewBox="0 0 1460 595.28">
 &nbsp;<defs>
 &nbsp; &nbsp;<style>
 &nbsp; &nbsp; &nbsp;.cls-1 {
 &nbsp; &nbsp; &nbsp; &nbsp;fill: none;
 &nbsp; &nbsp; &nbsp;}

 &nbsp; &nbsp; &nbsp;.cls-2 {
 &nbsp; &nbsp; &nbsp; &nbsp;fill: currentColor;
 &nbsp; &nbsp; &nbsp;}
 &nbsp; &nbsp;</style>
 &nbsp;</defs>
 &nbsp;<rect class="cls-1" width="1460" height="595.28"></rect>
 &nbsp;<g>
 &nbsp; &nbsp;<path class="cls-2" d="M430.88,437.83h-12.4l.25-1.42c3.66-.4,4.07-.86,3.81-3.05-.26-2.08-.66-4.62-1.12-7.57h-10.67c-.86,1.63-2.59,4.57-3.76,6.86-1.58,3-.81,3.35,3.1,3.76l-.31,1.42h-11.64l.36-1.42c3.25-.4,3.91-.71,6.4-4.88l15.6-27.13,1.68-.25c2.24,14.94,3.35,21.75,4.37,27.9.56,3.56.96,4.01,4.68,4.37l-.36,1.42ZM419.2,410.55h-.1c-2.59,4.73-5.18,9.35-7.27,13.21h9.3l-1.93-13.21Z"></path>
 &nbsp; &nbsp;<path class="cls-2" d="M710.44,437.27l-268.84-19.11,107.54-250.17,161.3,269.28ZM449.1,413.59l251.97,17.92-151.18-252.39-100.79,234.47Z"></path>
 &nbsp; &nbsp;<path class="cls-2" d="M549.32,229.31c-7.57,0-14.92-1.5-21.83-4.45l-1.17-.5,23.02-53.59,29.87,49.88-1.09.65c-8.7,5.24-18.66,8-28.8,8ZM529.66,223.02c14.77,5.88,32.11,4.71,46.05-3.24l-26.01-43.43-20.05,46.67Z"></path>
 &nbsp; &nbsp;<path class="cls-2" d="M549.32,241.68c-9.29,0-18.29-1.84-26.74-5.46l-1.17-.5,5.41-12.52,22.52-52.42,36.24,60.5-1.09.65c-10.61,6.38-22.77,9.76-35.18,9.76ZM524.75,234.37c7.79,3.17,16.04,4.77,24.56,4.77,11.52,0,22.82-3.02,32.77-8.75l-32.38-54.05-24.95,58.03Z"></path>
 &nbsp; &nbsp;<path class="cls-2" d="M499.55,420.99l-56.07-3.97,22.16-51.58,1.17.5c20.05,8.6,33,28.25,33,50.06,0,1.26-.05,2.51-.16,3.74l-.11,1.25ZM447.23,414.73l49.98,3.54c.04-.75.06-1.52.06-2.28,0-20.37-11.85-38.76-30.3-47.21l-19.74,45.95Z"></path>
 &nbsp; &nbsp;<path class="cls-2" d="M708.1,435.83l-58.74-4.17.09-1.27c1.26-18.32,11.46-34.93,27.28-44.44l1.09-.65,30.28,50.53ZM652.08,429.3l51.33,3.65-26.46-44.15c-14.14,8.95-23.34,23.93-24.87,40.5Z"></path>
 &nbsp; &nbsp;<path class="cls-2" d="M708.1,435.83l-83.94-5.98.09-1.27c1.85-26.51,16.62-50.55,39.5-64.3l1.09-.65,43.26,72.19ZM626.88,427.5l76.53,5.45-39.44-65.82c-21.19,13.2-34.96,35.61-37.09,60.37Z"></path>
 &nbsp; &nbsp;<path class="cls-2" d="M708.1,435.83l-71.26-5.06.09-1.27c1.56-22.41,14.03-42.71,33.35-54.31l1.09-.65,36.73,61.3ZM639.56,428.42l63.85,4.54-32.91-54.92c-17.64,11.05-29.11,29.73-30.95,50.39Z"></path>
 &nbsp; &nbsp;<path class="cls-2" d="M1027.56,403.44l-201.27-14.31,80.51-187.29,120.76,201.6ZM833.78,384.56l184.4,13.11-110.64-184.71-73.76,171.6Z"></path>
 &nbsp; &nbsp;<path class="cls-2" d="M907.02,249.02c-5.65,0-11.13-1.12-16.3-3.32l-1.17-.5,17.43-40.58,22.62,37.77-1.09.65c-6.49,3.91-13.93,5.98-21.5,5.98ZM892.9,243.84c10.67,4.15,23.13,3.29,33.21-2.34l-18.75-31.32-14.46,33.66Z"></path>
 &nbsp; &nbsp;<path class="cls-2" d="M907.02,258.18c-6.93,0-13.63-1.37-19.93-4.07l-1.17-.5,21.07-48.99,27.34,45.63-1.09.65c-7.91,4.76-16.97,7.27-26.22,7.27ZM889.27,252.26c13.31,5.29,28.98,4.24,41.57-2.89l-23.48-39.18-18.09,42.08Z"></path>
 &nbsp; &nbsp;<path class="cls-2" d="M870.47,390.98l-42.3-3,16.73-38.92,1.17.5c14.97,6.42,24.64,21.09,24.64,37.38,0,.94-.04,1.88-.12,2.8l-.11,1.25ZM831.91,385.7l36.22,2.57c.02-.44.03-.89.03-1.33,0-14.84-8.57-28.26-21.94-34.52l-14.3,33.29Z"></path>
 &nbsp; &nbsp;<path class="cls-2" d="M1025.22,401.99l-44.46-3.16.09-1.26c.94-13.67,8.55-26.07,20.36-33.17l1.09-.65,22.92,38.24ZM983.49,396.48l37.04,2.63-19.09-31.86c-10.13,6.53-16.74,17.3-17.95,29.23Z"></path>
 &nbsp; &nbsp;<path class="cls-2" d="M1025.22,401.99l-63.12-4.49.09-1.27c1.38-19.74,12.38-37.64,29.41-47.87l1.09-.65,32.53,54.29ZM964.82,395.15l55.71,3.97-28.71-47.91c-15.35,9.68-25.35,25.95-27,43.94Z"></path>
 &nbsp; &nbsp;<path class="cls-2" d="M1025.22,401.99l-53.73-3.81.09-1.27c1.16-16.7,10.45-31.83,24.86-40.48l1.09-.65,27.7,46.22ZM974.21,395.83l46.32,3.29-23.87-39.84c-12.72,8.09-21.01,21.6-22.45,36.55Z"></path>
 &nbsp; &nbsp;<path class="cls-2" d="M551.6,129.26c5.95,0,9.86,2.08,9.86,7.06,0,4.32-3.5,7.11-7.83,8.08,3.76.92,7.22,3.46,7.22,7.83,0,6.25-5.94,10.06-13.82,10.06h-13.51l.31-1.42c4.01-.35,4.57-.61,5.39-4.67l4.12-21.19c.66-3.66.15-3.96-4.01-4.32l.31-1.42h11.99ZM543.32,155.99c-.71,3.76.51,4.52,4.22,4.52,5.03,0,8.69-3.4,8.69-8.33s-3.91-6.81-8.28-6.81h-2.59l-2.03,10.62ZM548.71,143.64c5.84,0,8.28-3.15,8.28-7.27s-3.2-5.44-6.04-5.44c-2.03,0-2.85.05-3.3,2.69l-1.93,10.01h3Z"></path>
 &nbsp; &nbsp;<path class="cls-2" d="M746.37,457.63c-.66,2.03-2.34,5.95-3.2,7.32-1.52.2-4.73,1.07-8.38,1.07-8.74,0-15.04-5.39-15.04-14.68,0-11.99,9.35-19.82,20.73-19.82,4.27,0,7.01.71,8.84,1.22-.35,1.73-.76,5.13-1.02,7.67l-1.58.1c-.1-5.95-2.59-7.16-7.37-7.16-8.69,0-14.73,8.43-14.73,17.94,0,7.67,3.76,12.85,10.57,12.85,4.98,0,7.32-2.95,9.81-7.16l1.37.66Z"></path>
 &nbsp; &nbsp;<path class="cls-2" d="M917.69,159.85c2.44,0,4.72,0,6.6-.05-.3,1.22-.86,4.73-1.32,7.72l-1.58.05c-.2-5.28-1.07-5.79-4.37-5.79h-5.03c-1.68,0-2.13.1-2.49,2.03l-2.14,10.92h5.23c4.17,0,4.37-.61,5.79-4.17h1.53l-2.08,10.52h-1.53c0-3.91.15-4.43-4.17-4.43h-5.13l-1.78,9.05c-.76,3.61-.66,5.23,2.95,5.23h3.76c3,0,4.32-.31,5.74-1.63,1.22-1.12,2.39-2.85,3.35-4.67l1.47.51c-.51,1.42-2.24,6.15-2.9,7.72h-24.75l.36-1.42c4.47-.46,4.88-.61,5.64-4.67l4.02-20.78c.76-3.91.51-4.37-3.91-4.73l.31-1.42h16.41Z"></path>
 &nbsp; &nbsp;<path class="cls-2" d="M804.18,375.29c9.76,0,15.9,4.88,15.9,13.97,0,6.45-2.9,12.14-8.13,15.4-4.32,2.74-7.88,3.66-14.07,3.66h-12.7l.36-1.42c4.12-.35,4.57-.81,5.28-4.73l4.01-20.68c.76-4.01.61-4.42-3.91-4.77l.35-1.42h12.91ZM795.14,401.71c-.81,4.27,1.83,4.73,4.78,4.73,10.42,0,15.45-8.18,15.45-17.43,0-7.88-4.12-11.94-11.59-11.94-3,0-3.96.26-4.47,3l-4.17,21.64Z"></path>
 &nbsp; &nbsp;<path class="cls-2" d="M1055.18,394.36h6.66c-.41,1.73-.97,4.98-1.32,7.77h-1.58c-.05-.96-.15-2.29-.41-3.56-.35-1.58-1.27-2.28-4.01-2.28h-5.64c-1.68,0-1.98.2-2.29,1.93l-2.18,11.53h6c4.22,0,4.42-.56,6-4.12h1.52l-2.13,10.67h-1.47c-.05-4.16-.25-4.57-4.32-4.57h-5.95l-1.88,9.35c-.76,4.17-.51,4.52,4.32,4.88l-.31,1.42h-13.82l.35-1.42c4.12-.35,4.42-.66,5.28-4.93l3.91-20.22c.86-4.42.46-4.62-3.86-5.03l.35-1.42h16.77Z"></path>
 &nbsp;</g>
</svg>