<!--?xml version="1.0" encoding="UTF-8"?-->
<svg id="Layer_1" xmlns="http://www.w3.org/2000/svg" viewBox="0 0 1460 595.28">
 &nbsp;<defs>
 &nbsp; &nbsp;<style>
 &nbsp; &nbsp; &nbsp;.cls-1 {
 &nbsp; &nbsp; &nbsp; &nbsp;fill: none;
 &nbsp; &nbsp; &nbsp;}

 &nbsp; &nbsp; &nbsp;.cls-2 {
 &nbsp; &nbsp; &nbsp; &nbsp;fill: currentColor;
 &nbsp; &nbsp; &nbsp;}
 &nbsp; &nbsp;</style>
 &nbsp;</defs>
 &nbsp;<rect class="cls-1" width="1460" height="595.28"></rect>
 &nbsp;<g>
 &nbsp; &nbsp;<path class="cls-2" d="M600.48,290.87c2.28-3.56,4.62-5.52,6.32-5.52,1.49,0,2.49,1.7,3.72,5.79l.8,2.81c4.62-6.37,6.9-8.6,9.3-8.6,1.54,0,2.28,1.11,2.23,2.28,0,.74-.59,2.07-1.28,2.55-.48.37-.8.48-1.11.43-.58-.11-1.17-1.43-1.97-1.43-1.17,0-3.18,2.12-6.59,6.8l1.75,5.42c1.01,3.19,1.8,4.78,2.71,4.78.85,0,1.81-.64,3.88-3.13l.96,1.22c-2.28,3.61-4.89,5.68-6.8,5.68-1.43,0-2.6-1.75-3.88-5.74l-1.44-4.62c-5.2,7.49-7.49,10.36-9.88,10.36-1.38,0-2.34-1.01-2.34-2.5.05-1.54,1.33-3.19,2.34-3.19.75,0,1.22,1.43,1.97,1.43.96,0,2.66-1.65,7.33-8.13l-1.44-4.67c-.9-2.87-1.38-3.88-2.12-3.88-.53,0-1.59.53-3.4,3.03l-1.06-1.17Z"></path>
 &nbsp; &nbsp;<path class="cls-2" d="M368.67,290.87c2.28-3.56,4.62-5.53,6.32-5.53,1.49,0,2.5,1.7,3.72,5.79l.8,2.82c4.62-6.37,6.91-8.61,9.3-8.61,1.54,0,2.28,1.11,2.23,2.28,0,.74-.59,2.07-1.28,2.55-.48.37-.8.48-1.11.43-.59-.11-1.17-1.43-1.97-1.43-1.17,0-3.19,2.13-6.59,6.8l1.75,5.42c1.01,3.19,1.8,4.78,2.71,4.78.85,0,1.81-.64,3.88-3.13l.95,1.22c-2.28,3.61-4.88,5.68-6.8,5.68-1.43,0-2.6-1.75-3.88-5.74l-1.43-4.62c-5.21,7.49-7.49,10.36-9.88,10.36-1.38,0-2.34-1.01-2.34-2.5.05-1.54,1.33-3.19,2.34-3.19.74,0,1.22,1.43,1.97,1.43.95,0,2.66-1.65,7.33-8.13l-1.43-4.67c-.9-2.87-1.38-3.88-2.13-3.88-.53,0-1.59.53-3.4,3.03l-1.06-1.17Z"></path>
 &nbsp; &nbsp;<path class="cls-2" d="M889.55,178.8c2.29-3.56,4.62-5.53,6.32-5.53,1.49,0,2.5,1.7,3.72,5.79l.8,2.82c4.62-6.37,6.9-8.61,9.29-8.61,1.54,0,2.28,1.11,2.23,2.28,0,.74-.58,2.07-1.27,2.55-.48.37-.8.48-1.12.43-.58-.11-1.17-1.43-1.96-1.43-1.17,0-3.19,2.13-6.59,6.8l1.75,5.42c1.01,3.19,1.81,4.78,2.71,4.78.85,0,1.8-.64,3.88-3.13l.96,1.22c-2.29,3.61-4.89,5.68-6.8,5.68-1.44,0-2.6-1.75-3.88-5.74l-1.43-4.62c-5.2,7.49-7.49,10.36-9.88,10.36-1.38,0-2.34-1.01-2.34-2.5.05-1.54,1.33-3.19,2.34-3.19.74,0,1.22,1.43,1.97,1.43.96,0,2.66-1.65,7.33-8.13l-1.44-4.67c-.9-2.87-1.38-3.88-2.12-3.88-.53,0-1.59.53-3.4,3.03l-1.06-1.17Z"></path>
 &nbsp; &nbsp;<path class="cls-2" d="M707.29,290.6c1.65-2.44,4.62-5.26,6.53-5.26s2.55,3.4,2.87,8.02c.37,4.57.59,9.24.8,12.64,2.39-3.56,7.7-11.1,7.65-14.98,0-1.06-.53-2.02-.8-2.6-.26-.64-.26-1.11.21-1.7.53-.69,1.59-1.38,2.44-1.38,1.22,0,1.97,1.17,1.97,2.92,0,1.49-.53,3.66-1.86,6.11-4.3,7.91-13.17,20.34-19.28,27.03l-5.52,1.43-.48-1.22c5.31-3.4,9.56-7.76,12.16-11.26-.05-4.25-.69-11.9-1.17-16.73-.32-3.24-.85-4.46-1.38-4.46-.58,0-2.02,1.22-3.3,2.82l-.85-1.38Z"></path>
 &nbsp; &nbsp;<path class="cls-2" d="M1073.27,290.6c1.65-2.44,4.62-5.26,6.53-5.26s2.55,3.4,2.87,8.02c.37,4.57.59,9.24.8,12.64,2.39-3.56,7.7-11.1,7.65-14.98,0-1.06-.53-2.02-.8-2.6-.26-.64-.26-1.11.21-1.7.53-.69,1.59-1.38,2.44-1.38,1.22,0,1.97,1.17,1.97,2.92,0,1.49-.53,3.66-1.86,6.11-4.3,7.91-13.17,20.34-19.28,27.03l-5.53,1.43-.48-1.22c5.31-3.4,9.56-7.76,12.17-11.26-.05-4.25-.69-11.9-1.17-16.73-.32-3.24-.85-4.46-1.38-4.46-.58,0-2.02,1.22-3.29,2.82l-.85-1.38Z"></path>
 &nbsp; &nbsp;<path class="cls-2" d="M889.55,403.57c2.29-3.56,4.62-5.53,6.32-5.53,1.49,0,2.5,1.7,3.72,5.79l.8,2.82c4.62-6.37,6.9-8.61,9.29-8.61,1.54,0,2.28,1.11,2.23,2.28,0,.74-.58,2.07-1.27,2.55-.48.37-.8.48-1.12.43-.58-.11-1.17-1.43-1.96-1.43-1.17,0-3.19,2.13-6.59,6.8l1.75,5.42c1.01,3.19,1.81,4.78,2.71,4.78.85,0,1.8-.64,3.88-3.13l.96,1.22c-2.29,3.61-4.89,5.68-6.8,5.68-1.44,0-2.6-1.75-3.88-5.74l-1.43-4.62c-5.2,7.49-7.49,10.36-9.88,10.36-1.38,0-2.34-1.01-2.34-2.5.05-1.54,1.33-3.19,2.34-3.19.74,0,1.22,1.43,1.97,1.43.96,0,2.66-1.65,7.33-8.13l-1.44-4.67c-.9-2.87-1.38-3.88-2.12-3.88-.53,0-1.59.53-3.4,3.03l-1.06-1.17Z"></path>
 &nbsp; &nbsp;<path class="cls-2" d="M1061.47,393.59h-323.92v-191.17h323.92v191.17ZM742.86,388.28h313.3v-180.55h-313.3v180.55Z"></path>
 &nbsp; &nbsp;<path class="cls-2" d="M484.57,178.16c2.29-3.56,4.62-5.53,6.32-5.53,1.49,0,2.5,1.7,3.72,5.79l.8,2.82c4.62-6.37,6.9-8.61,9.29-8.61,1.54,0,2.28,1.11,2.23,2.28,0,.74-.58,2.07-1.27,2.55-.48.37-.8.48-1.12.43-.58-.11-1.17-1.43-1.96-1.43-1.17,0-3.19,2.13-6.59,6.8l1.75,5.42c1.01,3.19,1.81,4.78,2.71,4.78.85,0,1.8-.64,3.88-3.13l.96,1.22c-2.29,3.61-4.89,5.68-6.8,5.68-1.44,0-2.6-1.75-3.88-5.74l-1.43-4.62c-5.2,7.49-7.49,10.36-9.88,10.36-1.38,0-2.34-1.01-2.34-2.5.05-1.54,1.33-3.19,2.34-3.19.74,0,1.22,1.43,1.97,1.43.96,0,2.66-1.65,7.33-8.13l-1.44-4.67c-.9-2.87-1.38-3.88-2.12-3.88-.53,0-1.59.53-3.4,3.03l-1.06-1.17Z"></path>
 &nbsp; &nbsp;<path class="cls-2" d="M484.57,403.57c2.29-3.56,4.62-5.52,6.32-5.52,1.49,0,2.5,1.7,3.72,5.79l.8,2.81c4.62-6.37,6.9-8.6,9.29-8.6,1.54,0,2.28,1.11,2.23,2.28,0,.74-.58,2.07-1.27,2.55-.48.37-.8.48-1.12.43-.58-.11-1.17-1.43-1.96-1.43-1.17,0-3.19,2.12-6.59,6.8l1.75,5.42c1.01,3.19,1.81,4.78,2.71,4.78.85,0,1.8-.64,3.88-3.13l.96,1.22c-2.29,3.61-4.89,5.68-6.8,5.68-1.44,0-2.6-1.75-3.88-5.74l-1.43-4.62c-5.2,7.49-7.49,10.36-9.88,10.36-1.38,0-2.34-1.01-2.34-2.5.05-1.54,1.33-3.19,2.34-3.19.74,0,1.22,1.43,1.97,1.43.96,0,2.66-1.65,7.33-8.13l-1.44-4.67c-.9-2.87-1.38-3.88-2.12-3.88-.53,0-1.59.53-3.4,3.03l-1.06-1.17Z"></path>
 &nbsp; &nbsp;<path class="cls-2" d="M589.53,393.59h-191.17v-191.17h191.17v191.17ZM403.67,388.28h180.55v-180.55h-180.55v180.55Z"></path>
 &nbsp;</g>
</svg>