<!--?xml version="1.0" encoding="UTF-8"?-->
<svg id="Layer_1" xmlns="http://www.w3.org/2000/svg" viewBox="0 0 1460 595.28">
 &nbsp;<defs>
 &nbsp; &nbsp;<style>
 &nbsp; &nbsp; &nbsp;.cls-1 {
 &nbsp; &nbsp; &nbsp; &nbsp;fill: none;
 &nbsp; &nbsp; &nbsp;}

 &nbsp; &nbsp; &nbsp;.cls-2 {
 &nbsp; &nbsp; &nbsp; &nbsp;fill: currentColor;
 &nbsp; &nbsp; &nbsp;}

 &nbsp; &nbsp; &nbsp;.cls-3 {
 &nbsp; &nbsp; &nbsp; &nbsp;fill: currentColor;
 &nbsp; &nbsp; &nbsp;}
 &nbsp; &nbsp;</style>
 &nbsp;</defs>
 &nbsp;<rect class="cls-1" width="1460" height="595.28"></rect>
 &nbsp;<g>
 &nbsp; &nbsp;<rect class="cls-2" x="532.19" y="492.55" width="395.62" height="5.09"></rect>
 &nbsp; &nbsp;<rect class="cls-2" x="532.19" y="97.64" width="5.09" height="397.45"></rect>
 &nbsp; &nbsp;<path class="cls-2" d="M588.32,441.51v51.04h-51.04v-51.04h51.04M590.87,438.96h-56.13v56.13h56.13v-56.13h0Z"></path>
 &nbsp; &nbsp;<g>
 &nbsp; &nbsp; &nbsp;<line class="cls-3" x1="535.4" y1="494.02" x2="839.36" y2="104.97"></line>
 &nbsp; &nbsp; &nbsp;<g>
 &nbsp; &nbsp; &nbsp; &nbsp;<rect class="cls-2" x="444.67" y="305.45" width="472.13" height="5.09" transform="translate(18.93 654.8) rotate(-52)"></rect>
 &nbsp; &nbsp; &nbsp; &nbsp;<polygon class="cls-2" points="839.36 104.97 830.43 136.57 825.08 123.24 810.86 121.28 839.36 104.97"></polygon>
 &nbsp; &nbsp; &nbsp;</g>
 &nbsp; &nbsp;</g>
 &nbsp; &nbsp;<g>
 &nbsp; &nbsp; &nbsp;<path class="cls-2" d="M556.76,344.8l2.75-3.69c1.7-1.87,4.39-3.34,7.55-3.34,5.33,0,8.84,3.34,8.84,7.79,0,1.76-.76,3.16-1.82,4.33-.94.99-2.46,2.05-4.16,3.16,5.45,1.17,8.67,4.74,8.67,9.02,0,9.54-11.24,13.58-15.4,13.58-2.75,0-5.27-1.17-6.09-2.05-.7-.76-.88-1.29-.88-1.93.06-.94.82-1.82,1.35-2.23.47-.35,1-.41,1.52.06,1.58,1.41,3.92,3.1,7.26,3.1,4.21,0,7.2-3.16,7.2-8.84-.06-5.39-3.98-7.49-7.73-7.49-1.35,0-2.99.35-3.92.64l-.41-1.76c5.21-1.7,9.43-4.04,9.43-8.37,0-3.45-2.23-5.45-5.62-5.45s-5.8,2.4-7.32,4.63l-1.23-1.17Z"></path>
 &nbsp; &nbsp; &nbsp;<path class="cls-2" d="M596.63,337.77c5.62,0,9.54,3.92,9.54,8.67,0,1.76-.53,3.45-1.64,4.74-.53.59-2.28,1.87-4.86,3.75,4.04,2.23,8.02,5.04,8.02,10.13,0,6.85-6.21,10.6-11.77,10.6-6.5,0-11.3-3.75-11.3-9.66,0-2.99,1.29-4.63,2.7-5.8.93-.82,3.22-2.34,5.27-3.63-3.81-2.23-6.5-5.04-6.5-9.19,0-5.09,4.16-9.6,10.54-9.6ZM596.63,373.66c3.92,0,6.32-2.58,6.32-6.85,0-4.68-3.92-6.97-8.67-9.25-3.16,1.82-4.92,4.57-4.92,8.02,0,5.39,3.39,8.08,7.26,8.08ZM595.87,339.7c-3.51,0-5.33,2.75-5.33,6.03,0,4.27,2.87,5.86,7.43,8.26,2.28-1.76,3.86-3.81,3.86-7.26,0-4.92-2.93-7.03-5.97-7.03Z"></path>
 &nbsp; &nbsp; &nbsp;<path class="cls-2" d="M620.94,337.77c4.33,0,8.02,3.1,8.02,8.08s-3.86,8.2-8.02,8.2c-4.39,0-8.08-3.1-8.08-8.2,0-4.8,3.69-8.08,8.08-8.08ZM620.94,340.41c-3.05,0-4.86,2.28-4.86,5.44s2.05,5.5,4.86,5.5,4.8-2.05,4.8-5.39-1.99-5.56-4.8-5.56Z"></path>
 &nbsp; &nbsp;</g>
 &nbsp; &nbsp;<g>
 &nbsp; &nbsp; &nbsp;<path class="cls-2" d="M643.77,418.81c2.87-.29,5.45-.94,7.14-1.46.94-.35,1.41-.47,1.76-.47.53,0,.58.59.29,1.82-1.99,7.9-3.57,15.28-5.15,22.42,4.33-5.56,9.31-8.55,12.77-8.55s4.21,3.86,4.21,6.44c0,7.03-4.04,13.99-9.19,17.45-3.57,2.4-6.62,3.22-8.72,3.22-1.52,0-2.81-.47-3.86-1.58-1.23-1.29-2.17-3.57-1-9.43,1.64-8.14,3.57-16.63,5.39-25.53.47-2.34.06-2.46-1.7-2.64-.64-.06-1.7-.12-2.29-.12l.35-1.58ZM659.93,439.89c0-2.11-.59-3.86-2.34-3.86-1.93,0-4.92,1.7-8.49,6.38-1.52,1.93-2.4,4.04-2.87,6.91-.94,5.68.82,7.67,3.39,7.67,6.15,0,10.31-10.83,10.31-17.1Z"></path>
 &nbsp; &nbsp; &nbsp;<path class="cls-2" d="M688.09,427.94c0,4.92-3.69,7.9-7.73,7.9-4.27,0-7.73-2.99-7.73-7.9s3.51-7.9,7.73-7.9,7.73,3.16,7.73,7.9ZM675.68,427.94c0,3.28,1.93,5.45,4.74,5.45s4.62-2.17,4.62-5.39-1.87-5.5-4.68-5.5c-2.99,0-4.68,2.17-4.68,5.44Z"></path>
 &nbsp; &nbsp;</g>
 &nbsp;</g>
</svg>