<!--?xml version="1.0" encoding="UTF-8"?-->
<svg id="Layer_1" xmlns="http://www.w3.org/2000/svg" viewBox="0 0 1460 595.28">
 &nbsp;<defs>
 &nbsp; &nbsp;<style>
 &nbsp; &nbsp; &nbsp;.cls-1 {
 &nbsp; &nbsp; &nbsp; &nbsp;fill: none;
 &nbsp; &nbsp; &nbsp;}

 &nbsp; &nbsp; &nbsp;.cls-2 {
 &nbsp; &nbsp; &nbsp; &nbsp;fill: currentColor;
 &nbsp; &nbsp; &nbsp;}

 &nbsp; &nbsp; &nbsp;.cls-3 {
 &nbsp; &nbsp; &nbsp; &nbsp;fill: currentColor;
 &nbsp; &nbsp; &nbsp;}
 &nbsp; &nbsp;</style>
 &nbsp;</defs>
 &nbsp;<rect class="cls-1" width="1460" height="595.28"></rect>
 &nbsp;<g>
 &nbsp; &nbsp;<g>
 &nbsp; &nbsp; &nbsp;<line class="cls-3" x1="720.33" y1="448.58" x2="995.49" y2="289.72"></line>
 &nbsp; &nbsp; &nbsp;<g>
 &nbsp; &nbsp; &nbsp; &nbsp;<rect class="cls-2" x="700.49" y="371.99" width="296.2" height="5.08" transform="translate(-73.58 474.39) rotate(-29.99)"></rect>
 &nbsp; &nbsp; &nbsp; &nbsp;<polygon class="cls-2" points="995.49 289.72 975.42 315.61 975.46 301.28 963.03 294.15 995.49 289.72"></polygon>
 &nbsp; &nbsp; &nbsp;</g>
 &nbsp; &nbsp;</g>
 &nbsp; &nbsp;<g>
 &nbsp; &nbsp; &nbsp;<line class="cls-3" x1="720.33" y1="448.58" x2="831.13" y2="144.16"></line>
 &nbsp; &nbsp; &nbsp;<g>
 &nbsp; &nbsp; &nbsp; &nbsp;<rect class="cls-2" x="620.84" y="303.94" width="302.44" height="5.08" transform="translate(220.08 927.22) rotate(-70.01)"></rect>
 &nbsp; &nbsp; &nbsp; &nbsp;<polygon class="cls-2" points="831.13 144.16 832.41 176.89 823.22 165.89 809.12 168.42 831.13 144.16"></polygon>
 &nbsp; &nbsp; &nbsp;</g>
 &nbsp; &nbsp;</g>
 &nbsp; &nbsp;<g>
 &nbsp; &nbsp; &nbsp;<line class="cls-3" x1="720.33" y1="448.58" x2="451.19" y2="222.74"></line>
 &nbsp; &nbsp; &nbsp;<g>
 &nbsp; &nbsp; &nbsp; &nbsp;<rect class="cls-2" x="591.47" y="177.66" width="5.08" height="329.82" transform="translate(-50.24 577.41) rotate(-50)"></rect>
 &nbsp; &nbsp; &nbsp; &nbsp;<polygon class="cls-2" points="451.19 222.74 482.39 232.74 468.91 237.61 466.46 251.72 451.19 222.74"></polygon>
 &nbsp; &nbsp; &nbsp;</g>
 &nbsp; &nbsp;</g>
 &nbsp; &nbsp;<g>
 &nbsp; &nbsp; &nbsp;<path class="cls-2" d="M846.53,436.42c-7.11-5.34-11.64-14.23-11.64-23.63s4.57-18.19,11.64-23.52l1.02,1.27c-4.98,4.73-8.49,13.06-8.49,22.31s3.71,17.78,8.49,22.31l-1.02,1.27Z"></path>
 &nbsp; &nbsp; &nbsp;<path class="cls-2" d="M852.52,408.93c2.19-3.4,4.42-5.28,6.05-5.28,1.42,0,2.39,1.63,3.56,5.54l.76,2.69c4.42-6.1,6.61-8.23,8.89-8.23,1.47,0,2.19,1.07,2.13,2.19,0,.71-.56,1.98-1.22,2.44-.46.36-.76.46-1.07.41-.56-.1-1.12-1.37-1.88-1.37-1.12,0-3.05,2.03-6.3,6.5l1.68,5.18c.97,3.05,1.73,4.57,2.59,4.57.81,0,1.73-.61,3.71-3l.91,1.17c-2.19,3.46-4.67,5.44-6.5,5.44-1.37,0-2.49-1.68-3.71-5.49l-1.37-4.42c-4.98,7.16-7.16,9.91-9.45,9.91-1.32,0-2.24-.97-2.24-2.39.05-1.47,1.27-3.05,2.24-3.05.71,0,1.17,1.37,1.88,1.37.91,0,2.54-1.58,7.01-7.77l-1.37-4.47c-.86-2.74-1.32-3.71-2.03-3.71-.51,0-1.52.51-3.25,2.9l-1.02-1.12Z"></path>
 &nbsp; &nbsp; &nbsp;<path class="cls-2" d="M901.34,414.93v11.64h-3.05v-11.64h-10.72v-2.79h10.72v-10.57h3.05v10.57h10.67v2.79h-10.67Z"></path>
 &nbsp; &nbsp; &nbsp;<path class="cls-2" d="M949.25,419.81c-.66,2.29-1.52,4.88-2.03,6.76h-19.16v-1.22c2.8-2.74,5.84-5.74,8.33-8.64,3.2-3.76,6.25-7.82,6.25-12.24s-2.23-6.66-5.94-6.66c-3.51,0-5.69,2.74-7.01,4.73l-1.17-1.07,2.89-4.12c1.58-1.78,4.01-3.05,6.96-3.05,4.83,0,8.64,3.3,8.64,8.79,0,4.32-1.58,7.37-6.4,12.3-2.19,2.29-5.39,5.39-7.57,7.47h9.7c2.74,0,3.51-.25,5.23-3.46l1.27.41Z"></path>
 &nbsp; &nbsp; &nbsp;<path class="cls-2" d="M963.42,394.3c7.62,0,10.47,8.54,10.47,16.41,0,7.42-2.85,16.46-10.47,16.46s-10.62-8.38-10.62-16.41c0-7.42,2.89-16.46,10.62-16.46ZM963.42,396.08c-4.73,0-5.89,7.47-5.89,14.58s1.42,14.74,5.89,14.74,5.79-7.57,5.79-14.68-1.27-14.63-5.79-14.63Z"></path>
 &nbsp; &nbsp; &nbsp;<path class="cls-2" d="M978.76,389.27c7.11,5.39,11.64,14.23,11.64,23.63s-4.57,18.19-11.64,23.53l-1.07-1.27c4.93-4.62,8.54-13.06,8.54-22.26s-3.61-17.78-8.54-22.36l1.07-1.27Z"></path>
 &nbsp; &nbsp; &nbsp;<path class="cls-2" d="M1013,399.64c0,4.27-3.2,6.86-6.71,6.86-3.71,0-6.71-2.59-6.71-6.86s3.05-6.86,6.71-6.86,6.71,2.74,6.71,6.86ZM1002.23,399.64c0,2.85,1.68,4.73,4.12,4.73s4.02-1.88,4.02-4.67-1.63-4.78-4.07-4.78c-2.59,0-4.07,1.88-4.07,4.73Z"></path>
 &nbsp; &nbsp;</g>
 &nbsp; &nbsp;<g>
 &nbsp; &nbsp; &nbsp;<path class="cls-2" d="M589.83,414.95c-.66,2.29-1.53,4.88-2.03,6.76h-19.15v-1.22c2.79-2.74,5.84-5.74,8.33-8.64,3.2-3.76,6.25-7.82,6.25-12.24s-2.24-6.66-5.95-6.66c-3.5,0-5.69,2.74-7.01,4.73l-1.17-1.07,2.9-4.12c1.58-1.78,4.01-3.05,6.96-3.05,4.83,0,8.64,3.3,8.64,8.79,0,4.32-1.58,7.37-6.4,12.3-2.18,2.29-5.39,5.39-7.57,7.47h9.71c2.74,0,3.5-.25,5.23-3.46l1.27.41Z"></path>
 &nbsp; &nbsp; &nbsp;<path class="cls-2" d="M594.5,404.08c2.19-3.4,4.42-5.28,6.05-5.28,1.42,0,2.39,1.63,3.55,5.54l.76,2.69c4.42-6.1,6.61-8.23,8.89-8.23,1.47,0,2.19,1.07,2.14,2.19,0,.71-.56,1.98-1.22,2.44-.46.36-.76.46-1.07.41-.56-.1-1.12-1.37-1.88-1.37-1.12,0-3.05,2.03-6.3,6.5l1.68,5.18c.96,3.05,1.73,4.57,2.59,4.57.81,0,1.73-.61,3.71-3l.92,1.17c-2.19,3.46-4.68,5.44-6.5,5.44-1.37,0-2.49-1.68-3.71-5.49l-1.37-4.42c-4.98,7.16-7.16,9.91-9.45,9.91-1.32,0-2.23-.97-2.23-2.39.05-1.47,1.27-3.05,2.23-3.05.71,0,1.17,1.37,1.88,1.37.92,0,2.54-1.58,7.01-7.77l-1.37-4.47c-.86-2.74-1.32-3.71-2.03-3.71-.51,0-1.53.51-3.25,2.9l-1.02-1.12Z"></path>
 &nbsp; &nbsp; &nbsp;<path class="cls-2" d="M634.02,394.78c0,4.27-3.2,6.86-6.7,6.86-3.71,0-6.71-2.59-6.71-6.86s3.05-6.86,6.71-6.86,6.7,2.74,6.7,6.86ZM623.25,394.78c0,2.85,1.68,4.73,4.12,4.73s4.01-1.88,4.01-4.67-1.62-4.78-4.06-4.78c-2.59,0-4.07,1.88-4.07,4.73Z"></path>
 &nbsp; &nbsp;</g>
 &nbsp; &nbsp;<g>
 &nbsp; &nbsp; &nbsp;<path class="cls-2" d="M694.14,368.48c-.66,2.29-1.52,4.88-2.03,6.76h-19.15v-1.22c2.79-2.74,5.84-5.74,8.33-8.64,3.2-3.76,6.25-7.82,6.25-12.24s-2.23-6.66-5.95-6.66c-3.5,0-5.69,2.74-7.01,4.73l-1.17-1.07,2.9-4.12c1.58-1.78,4.01-3.05,6.96-3.05,4.83,0,8.64,3.3,8.64,8.79,0,4.32-1.57,7.37-6.4,12.3-2.19,2.29-5.39,5.39-7.57,7.47h9.7c2.74,0,3.51-.25,5.23-3.46l1.27.41Z"></path>
 &nbsp; &nbsp; &nbsp;<path class="cls-2" d="M698.81,357.61c2.19-3.4,4.42-5.28,6.05-5.28,1.42,0,2.39,1.63,3.56,5.54l.76,2.69c4.42-6.1,6.61-8.23,8.89-8.23,1.47,0,2.18,1.07,2.13,2.19,0,.71-.56,1.98-1.22,2.44-.46.36-.76.46-1.07.41-.56-.1-1.12-1.37-1.88-1.37-1.12,0-3.05,2.03-6.3,6.5l1.68,5.18c.97,3.05,1.73,4.57,2.59,4.57.81,0,1.73-.61,3.71-3l.92,1.17c-2.19,3.46-4.68,5.44-6.5,5.44-1.37,0-2.49-1.68-3.71-5.49l-1.37-4.42c-4.98,7.16-7.16,9.91-9.45,9.91-1.32,0-2.23-.97-2.23-2.39.05-1.47,1.27-3.05,2.23-3.05.71,0,1.17,1.37,1.88,1.37.92,0,2.54-1.58,7.01-7.77l-1.37-4.47c-.86-2.74-1.32-3.71-2.03-3.71-.51,0-1.53.51-3.25,2.9l-1.02-1.12Z"></path>
 &nbsp; &nbsp; &nbsp;<path class="cls-2" d="M738.33,348.31c0,4.27-3.2,6.86-6.7,6.86-3.71,0-6.71-2.59-6.71-6.86s3.05-6.86,6.71-6.86,6.7,2.74,6.7,6.86ZM727.56,348.31c0,2.85,1.68,4.73,4.12,4.73s4.02-1.88,4.02-4.67-1.63-4.78-4.07-4.78c-2.59,0-4.07,1.88-4.07,4.73Z"></path>
 &nbsp; &nbsp;</g>
 &nbsp; &nbsp;<g>
 &nbsp; &nbsp; &nbsp;<path class="cls-2" d="M804.2,383.17c-8.82-1.11-17.15-6.6-21.81-14.76-4.63-8.12-5.04-18.07-1.54-26.2l1.51.6c-1.98,6.57-.9,15.55,3.68,23.58,4.48,7.86,12.03,13.61,18.42,15.18l-.25,1.61Z"></path>
 &nbsp; &nbsp; &nbsp;<path class="cls-2" d="M791.47,348.95l.49-3.96c.48-2.14,1.88-4.4,4.26-5.76,4.02-2.29,8.1-1.28,10.01,2.07.75,1.32.78,2.71.49,4.05-.28,1.15-.97,2.6-1.77,4.17,4.61-1.46,8.57-.15,10.41,3.07,4.1,7.2-2.63,15.07-5.77,16.86-2.08,1.18-4.48,1.38-5.47,1.07-.86-.27-1.22-.6-1.49-1.08-.36-.73-.16-1.72.06-2.25.2-.47.57-.74,1.17-.61,1.8.38,4.29.65,6.81-.78,3.18-1.81,4.07-5.48,1.63-9.76-2.36-4.04-6.22-3.94-9.05-2.33-1.01.58-2.1,1.55-2.68,2.17l-1.07-1.15c3.2-3.52,5.37-7.1,3.51-10.36-1.48-2.6-4.02-3.15-6.58-1.69-2.47,1.41-3.34,4.3-3.53,6.63l-1.43-.35Z"></path>
 &nbsp; &nbsp; &nbsp;<path class="cls-2" d="M817.19,344.12c.21-4.04,1.23-6.78,2.63-7.59,1.24-.71,2.88.23,5.83,3.05l2,1.96c.82-7.49,1.66-10.42,3.65-11.55,1.28-.73,2.43-.15,2.93.84.35.62.5,2,.15,2.72-.22.54-.43.78-.73.88-.53.19-1.65-.64-2.31-.26-.97.55-1.64,3.28-2.25,8.77l4.02,3.67c2.35,2.17,3.77,3.12,4.52,2.69.71-.4,1.2-1.39,1.74-4.44l1.37.56c-.19,4.08-1.37,7.04-2.96,7.94-1.19.68-2.99-.22-5.94-2.93l-3.38-3.16c-.78,8.69-1.32,12.15-3.3,13.29-1.15.65-2.42.27-3.13-.97-.68-1.3-.4-3.28.43-3.76.62-.35,1.69.61,2.31.26.79-.45,1.43-2.63,2.24-10.23l-3.41-3.2c-2.11-1.96-2.98-2.57-3.6-2.22-.44.25-1.07,1.2-1.39,4.13l-1.44-.47Z"></path>
 &nbsp; &nbsp; &nbsp;<path class="cls-2" d="M862.58,325.14l5.76,10.11-2.65,1.51-5.76-10.11-9.31,5.31-1.38-2.43,9.31-5.31-5.23-9.18,2.65-1.51,5.23,9.18,9.27-5.28,1.38,2.43-9.27,5.28Z"></path>
 &nbsp; &nbsp; &nbsp;<path class="cls-2" d="M906.61,305.66c.56,2.31,1.09,4.99,1.58,6.88l-16.64,9.49-.6-1.06c1.07-3.77,2.23-7.88,2.96-11.63.92-4.85,1.56-9.89-.64-13.73-2.09-3.66-5.24-4.68-8.46-2.84-3.05,1.74-3.59,5.2-3.75,7.58l-1.54-.35.48-5.01c.49-2.33,1.98-4.64,4.54-6.1,4.19-2.39,9.14-1.41,11.86,3.36,2.14,3.75,2.28,7.18.53,13.85-.77,3.07-2.01,7.35-2.88,10.24.26-.15,8.03-4.58,8.43-4.81,2.39-1.36,2.92-1.96,2.84-5.59l1.3-.28Z"></path>
 &nbsp; &nbsp; &nbsp;<path class="cls-2" d="M906.29,276.48c6.62-3.77,13.32,2.23,17.22,9.07,3.68,6.44,5.68,15.71-.94,19.49-6.75,3.85-13.38-2.02-17.35-9-3.68-6.44-5.64-15.73,1.07-19.56ZM907.17,278.02c-4.1,2.34-1.42,9.41,2.1,15.59,3.52,6.18,8.53,12.1,12.42,9.88,3.97-2.27,1.28-9.45-2.24-15.63-3.55-6.22-8.35-12.08-12.28-9.84Z"></path>
 &nbsp; &nbsp; &nbsp;<path class="cls-2" d="M917.12,264.51c8.85,1.16,17.15,6.6,21.81,14.76,4.63,8.12,5.04,18.07,1.54,26.2l-1.56-.58c1.99-6.46.95-15.57-3.61-23.56-4.45-7.81-11.94-13.66-18.49-15.19l.3-1.63Z"></path>
 &nbsp; &nbsp; &nbsp;<path class="cls-2" d="M952,256.56c2.11,3.71.62,7.54-2.43,9.28-3.22,1.84-7.11,1.07-9.22-2.64-2.01-3.53-.75-7.47,2.43-9.28,3.18-1.81,7.18-.94,9.22,2.64ZM942.64,261.89c1.41,2.47,3.8,3.27,5.92,2.07,2.12-1.21,2.55-3.62,1.17-6.05-1.43-2.52-3.78-3.35-5.9-2.14-2.25,1.28-2.6,3.65-1.19,6.12Z"></path>
 &nbsp; &nbsp;</g>
 &nbsp; &nbsp;<rect class="cls-2" x="447" y="446.04" width="546.67" height="5.08"></rect>
 &nbsp;</g>
</svg>