<!--?xml version="1.0" encoding="UTF-8"?-->
<svg id="Layer_1" xmlns="http://www.w3.org/2000/svg" viewBox="0 0 1460 842.47">
 &nbsp;<defs>
 &nbsp; &nbsp;<style>
 &nbsp; &nbsp; &nbsp;.cls-1 {
 &nbsp; &nbsp; &nbsp; &nbsp;fill: none;
 &nbsp; &nbsp; &nbsp;}

 &nbsp; &nbsp; &nbsp;.cls-2 {
 &nbsp; &nbsp; &nbsp; &nbsp;fill: currentColor;
 &nbsp; &nbsp; &nbsp;}
 &nbsp; &nbsp;</style>
 &nbsp;</defs>
 &nbsp;<rect class="cls-1" y="109.03" width="1460" height="595.28"></rect>
 &nbsp;<g>
 &nbsp; &nbsp;<g>
 &nbsp; &nbsp; &nbsp;<path class="cls-2" d="M795.99,417.03l2.39-3.2c1.47-1.62,3.81-2.9,6.55-2.9,4.62,0,7.67,2.9,7.67,6.76,0,1.52-.66,2.74-1.58,3.76-.81.86-2.13,1.78-3.61,2.74,4.73,1.02,7.52,4.12,7.52,7.82,0,8.28-9.76,11.79-13.36,11.79-2.39,0-4.57-1.02-5.28-1.78-.61-.66-.76-1.12-.76-1.68.05-.81.71-1.58,1.17-1.93.41-.3.86-.35,1.32.05,1.37,1.22,3.41,2.69,6.3,2.69,3.66,0,6.25-2.75,6.25-7.67-.05-4.67-3.46-6.5-6.71-6.5-1.17,0-2.59.31-3.4.56l-.36-1.53c4.52-1.47,8.18-3.5,8.18-7.27,0-3-1.93-4.73-4.88-4.73s-5.03,2.08-6.35,4.01l-1.07-1.01Z"></path>
 &nbsp; &nbsp; &nbsp;<path class="cls-2" d="M830.23,410.93c7.62,0,10.47,8.54,10.47,16.41,0,7.42-2.85,16.46-10.47,16.46s-10.62-8.38-10.62-16.41c0-7.42,2.9-16.46,10.62-16.46ZM830.23,412.71c-4.73,0-5.89,7.47-5.89,14.58s1.42,14.74,5.89,14.74,5.79-7.57,5.79-14.68-1.27-14.63-5.79-14.63Z"></path>
 &nbsp; &nbsp; &nbsp;<path class="cls-2" d="M851.66,410.93c3.76,0,6.96,2.69,6.96,7.01s-3.35,7.11-6.96,7.11c-3.81,0-7.01-2.69-7.01-7.11,0-4.16,3.2-7.01,7.01-7.01ZM851.66,413.22c-2.64,0-4.22,1.98-4.22,4.73s1.78,4.78,4.22,4.78,4.17-1.78,4.17-4.68-1.73-4.83-4.17-4.83Z"></path>
 &nbsp; &nbsp;</g>
 &nbsp; &nbsp;<g>
 &nbsp; &nbsp; &nbsp;<path class="cls-2" d="M886.53,309.63c2.19-3.41,4.42-5.28,6.05-5.28,1.42,0,2.39,1.62,3.55,5.54l.76,2.69c4.42-6.1,6.61-8.23,8.89-8.23,1.47,0,2.19,1.07,2.14,2.18,0,.71-.56,1.98-1.22,2.44-.46.35-.76.46-1.07.4-.56-.1-1.12-1.37-1.88-1.37-1.12,0-3.05,2.03-6.3,6.5l1.68,5.18c.96,3.05,1.73,4.57,2.59,4.57.81,0,1.73-.61,3.71-3l.91,1.17c-2.19,3.46-4.67,5.44-6.5,5.44-1.37,0-2.49-1.68-3.71-5.49l-1.37-4.42c-4.98,7.17-7.16,9.91-9.45,9.91-1.32,0-2.24-.96-2.24-2.39.05-1.47,1.27-3.05,2.24-3.05.71,0,1.17,1.37,1.88,1.37.91,0,2.54-1.58,7.01-7.77l-1.37-4.47c-.86-2.74-1.32-3.71-2.03-3.71-.51,0-1.52.51-3.25,2.9l-1.02-1.12Z"></path>
 &nbsp; &nbsp; &nbsp;<path class="cls-2" d="M926.06,300.33c0,4.27-3.2,6.86-6.71,6.86-3.71,0-6.71-2.59-6.71-6.86s3.05-6.86,6.71-6.86,6.71,2.74,6.71,6.86ZM915.29,300.33c0,2.85,1.68,4.73,4.12,4.73s4.01-1.88,4.01-4.67-1.62-4.78-4.06-4.78c-2.59,0-4.07,1.88-4.07,4.73Z"></path>
 &nbsp; &nbsp;</g>
 &nbsp; &nbsp;<g>
 &nbsp; &nbsp; &nbsp;<path class="cls-2" d="M877.61,379.88c1.88-2.59,4.62-4.98,6.25-4.98s2.03,1.73,2.14,6.04c.1,3.71.1,8.33.05,11.13,3.2-5.03,6.91-10.77,9.91-16.31h1.32c.36,5.44.92,11.84,1.47,17.53,2.44-3,7.37-9.65,7.42-12.8,0-1.07-.51-1.88-.76-2.44-.2-.41-.31-.71-.15-1.12.41-1.07,1.98-2.03,2.9-2.03,1.27,0,1.93,1.17,1.93,2.89,0,1.37-.41,2.8-1.32,4.47-2.29,4.27-7.52,10.82-11.74,16.16h-1.47c-.36-4.42-.86-10.72-1.37-15.8-3.3,5.54-7.32,11.38-10.06,15.8h-1.42c0-4.07,0-11.38-.36-16.77-.15-2.08-.36-3.05-.81-3.05-.41,0-1.37.66-3.05,2.49l-.86-1.22Z"></path>
 &nbsp; &nbsp; &nbsp;<path class="cls-2" d="M928.66,370.88c0,4.27-3.2,6.86-6.7,6.86-3.71,0-6.71-2.59-6.71-6.86s3.05-6.86,6.71-6.86,6.7,2.74,6.7,6.86ZM917.89,370.88c0,2.85,1.68,4.73,4.12,4.73s4.01-1.88,4.01-4.67-1.63-4.78-4.07-4.78c-2.59,0-4.07,1.88-4.07,4.73Z"></path>
 &nbsp; &nbsp;</g>
 &nbsp; &nbsp;<g>
 &nbsp; &nbsp; &nbsp;<path class="cls-2" d="M879.28,472.47c1.88-2.59,4.62-4.98,6.25-4.98s2.03,1.73,2.13,6.04c.1,3.71.1,8.33.05,11.13,3.2-5.03,6.91-10.77,9.91-16.31h1.32c.36,5.44.91,11.84,1.47,17.53,2.44-3,7.37-9.65,7.42-12.8,0-1.07-.51-1.88-.76-2.44-.2-.41-.31-.71-.15-1.12.41-1.07,1.98-2.03,2.9-2.03,1.27,0,1.93,1.17,1.93,2.89,0,1.37-.41,2.8-1.32,4.47-2.29,4.27-7.52,10.82-11.74,16.16h-1.47c-.36-4.42-.87-10.72-1.37-15.8-3.3,5.54-7.32,11.38-10.06,15.8h-1.42c0-4.07,0-11.38-.35-16.77-.15-2.08-.36-3.05-.81-3.05-.41,0-1.37.66-3.05,2.49l-.86-1.22Z"></path>
 &nbsp; &nbsp; &nbsp;<path class="cls-2" d="M930.34,463.48c0,4.27-3.2,6.86-6.71,6.86-3.71,0-6.71-2.59-6.71-6.86s3.05-6.86,6.71-6.86,6.71,2.74,6.71,6.86ZM919.57,463.48c0,2.85,1.68,4.73,4.12,4.73s4.01-1.88,4.01-4.67-1.62-4.78-4.07-4.78c-2.59,0-4.06,1.88-4.06,4.73Z"></path>
 &nbsp; &nbsp;</g>
 &nbsp; &nbsp;<rect class="cls-2" x="519.76" width="5.08" height="842.47"></rect>
 &nbsp; &nbsp;<rect class="cls-2" x="935.16" width="5.08" height="842.47"></rect>
 &nbsp; &nbsp;<polygon class="cls-2" points="523.86 592.7 520.75 588.68 728.24 427.79 520.78 272.25 523.83 268.19 736.62 427.72 523.86 592.7"></polygon>
 &nbsp; &nbsp;<polygon class="cls-2" points="936.6 528.36 726.46 427.72 936.63 330.56 938.76 335.17 738.39 427.8 938.79 523.78 936.6 528.36"></polygon>
 &nbsp; &nbsp;<g>
 &nbsp; &nbsp; &nbsp;<line class="cls-2" x1="828.09" y1="359.83" x2="846.27" y2="392.05"></line>
 &nbsp; &nbsp; &nbsp;<rect class="cls-2" x="835.91" y="357.45" width="2.54" height="36.99" transform="translate(-76.7 459.82) rotate(-29.43)"></rect>
 &nbsp; &nbsp;</g>
 &nbsp; &nbsp;<g>
 &nbsp; &nbsp; &nbsp;<line class="cls-2" x1="837.18" y1="355.82" x2="855.35" y2="388.04"></line>
 &nbsp; &nbsp; &nbsp;<rect class="cls-2" x="845" y="353.44" width="2.54" height="36.99" transform="translate(-73.55 463.77) rotate(-29.43)"></rect>
 &nbsp; &nbsp;</g>
 &nbsp; &nbsp;<g>
 &nbsp; &nbsp; &nbsp;<line class="cls-2" x1="828.09" y1="492.77" x2="846.27" y2="460.55"></line>
 &nbsp; &nbsp; &nbsp;<rect class="cls-2" x="818.68" y="475.39" width="36.99" height="2.54" transform="translate(10.35 971.05) rotate(-60.53)"></rect>
 &nbsp; &nbsp;</g>
 &nbsp; &nbsp;<g>
 &nbsp; &nbsp; &nbsp;<line class="cls-2" x1="837.18" y1="496.78" x2="855.35" y2="464.56"></line>
 &nbsp; &nbsp; &nbsp;<rect class="cls-2" x="827.77" y="479.4" width="36.99" height="2.54" transform="translate(11.48 981) rotate(-60.53)"></rect>
 &nbsp; &nbsp;</g>
 &nbsp;</g>
</svg>