<!--?xml version="1.0" encoding="UTF-8"?-->
<svg id="Layer_1" xmlns="http://www.w3.org/2000/svg" viewBox="0 0 1460 595.28">
 &nbsp;<defs>
 &nbsp; &nbsp;<style>
 &nbsp; &nbsp; &nbsp;.cls-1 {
 &nbsp; &nbsp; &nbsp; &nbsp;fill: none;
 &nbsp; &nbsp; &nbsp;}

 &nbsp; &nbsp; &nbsp;.cls-2, .cls-3 {
 &nbsp; &nbsp; &nbsp; &nbsp;fill: currentColor;
 &nbsp; &nbsp; &nbsp;}

 &nbsp; &nbsp; &nbsp;.cls-3 {
 &nbsp; &nbsp; &nbsp; &nbsp;stroke: currentColor;
 &nbsp; &nbsp; &nbsp; &nbsp;stroke-miterlimit: 10;
 &nbsp; &nbsp; &nbsp;}
 &nbsp; &nbsp;</style>
 &nbsp;</defs>
 &nbsp;<rect class="cls-1" width="1460" height="595.28"></rect>
 &nbsp;<g>
 &nbsp; &nbsp;<path class="cls-2" d="M752.46,186.56c-1.11.75-2.21,1.38-3.39,2.01-5.72,2.96-12.2,4.62-19.07,4.62s-13.34-1.66-19.07-4.62c-1.18-.63-2.29-1.26-3.39-2.01l-2.01,3.43c1.11.71,2.25,1.38,3.43,1.97,6.32,3.32,13.46,5.17,21.04,5.17s14.76-1.86,21.04-5.17c1.18-.59,2.33-1.26,3.43-1.97l-2.01-3.43Z"></path>
 &nbsp; &nbsp;<path class="cls-2" d="M869.26,388.86c-1.18.59-2.33,1.22-3.43,1.93-12.16,7.78-20.37,21.16-21,36.43-.08.63-.08,1.3-.08,1.97s0,1.34.08,1.97h3.91c-.04-.67-.04-1.3-.04-1.97s0-1.3.04-1.97c.67-13.82,8.09-25.93,19.07-33,1.11-.71,2.25-1.38,3.43-1.97l-1.97-3.39Z"></path>
 &nbsp; &nbsp;<path class="cls-2" d="M615.25,427.23c-.67-15.32-8.92-28.7-21.08-36.43-1.11-.71-2.25-1.38-3.39-1.97l-1.97,3.39c1.18.63,2.29,1.26,3.39,1.97,10.97,7.11,18.43,19.18,19.1,33.04.04.67.04,1.3.04,1.97s0,1.3-.04,1.97h3.95c.04-.63.04-1.3.04-1.97s0-1.34-.04-1.97Z"></path>
 &nbsp; &nbsp;<path class="cls-3" d="M871.23,392.25l-1.97-3.39-42.55-73.7-1.97-3.43-70.26-121.73-2.01-3.43-22.46-38.92-22.46,38.92-2.01,3.43-70.26,121.73-1.97,3.43-42.51,73.66-1.97,3.39-22.5,38.96h327.39l-22.46-38.92ZM573.13,427.23l19.07-33.04,1.97-3.39,42.51-73.66,1.97-3.43,70.3-121.73,1.97-3.39,19.07-33.04,19.07,33.04,1.97,3.39,70.3,121.73,1.97,3.43,42.51,73.66,1.97,3.43,19.07,33h-313.73Z"></path>
 &nbsp; &nbsp;<rect class="cls-2" x="728.04" y="410.79" width="3.95" height="36.85"></rect>
 &nbsp; &nbsp;<rect class="cls-2" x="805.37" y="312.59" width="36.85" height="3.94" transform="translate(-46.86 454.39) rotate(-30.02)"></rect>
 &nbsp; &nbsp;<rect class="cls-2" x="634.24" y="296.14" width="3.94" height="36.85" transform="translate(45.68 708.25) rotate(-60)"></rect>
 &nbsp; &nbsp;<g>
 &nbsp; &nbsp; &nbsp;<path class="cls-2" d="M625.14,389.81c.99-.52,2.09-.81,3.03-.81,5.02,0,8.48,3.93,8.48,8.76,0,5.68-4.07,10.46-9.75,10.46s-9.85-4.59-9.85-11.83c0-9.75,7.43-15.9,13.11-17.85,1.04-.38,3.41-.9,5.35-1.23l.29,1.56c-1.51.33-3.74.95-5.16,1.61-2.89,1.32-7.39,4.45-8.67,10.94l3.17-1.61ZM626.27,391.7c-1.89,0-3.5.71-4.59,1.33-.19.85-.29,2.04-.29,3.22,0,5.92,2.22,10.27,6.25,10.27,3.69,0,4.83-3.88,4.83-7.05,0-3.93-1.89-7.76-6.2-7.76Z"></path>
 &nbsp; &nbsp; &nbsp;<path class="cls-2" d="M649.82,377.59c7.1,0,9.75,7.96,9.75,15.29,0,6.91-2.65,15.34-9.75,15.34s-9.9-7.81-9.9-15.29c0-6.92,2.7-15.34,9.9-15.34ZM649.82,379.25c-4.4,0-5.49,6.96-5.49,13.59s1.33,13.73,5.49,13.73,5.4-7.05,5.4-13.68-1.18-13.63-5.4-13.63Z"></path>
 &nbsp; &nbsp; &nbsp;<path class="cls-2" d="M669.81,377.59c3.5,0,6.48,2.51,6.48,6.53s-3.12,6.63-6.48,6.63c-3.55,0-6.53-2.51-6.53-6.63,0-3.88,2.98-6.53,6.53-6.53ZM669.81,379.72c-2.46,0-3.93,1.85-3.93,4.4s1.66,4.45,3.93,4.45,3.88-1.66,3.88-4.36-1.61-4.5-3.88-4.5Z"></path>
 &nbsp; &nbsp;</g>
 &nbsp; &nbsp;<g>
 &nbsp; &nbsp; &nbsp;<path class="cls-2" d="M791.69,389.81c.99-.52,2.08-.81,3.03-.81,5.02,0,8.47,3.93,8.47,8.76,0,5.68-4.07,10.46-9.75,10.46s-9.85-4.59-9.85-11.83c0-9.75,7.43-15.9,13.11-17.85,1.04-.38,3.41-.9,5.35-1.23l.29,1.56c-1.52.33-3.74.95-5.17,1.61-2.88,1.32-7.38,4.45-8.66,10.94l3.17-1.61ZM792.83,391.7c-1.89,0-3.5.71-4.59,1.33-.19.85-.29,2.04-.29,3.22,0,5.92,2.22,10.27,6.25,10.27,3.69,0,4.83-3.88,4.83-7.05,0-3.93-1.9-7.76-6.2-7.76Z"></path>
 &nbsp; &nbsp; &nbsp;<path class="cls-2" d="M816.37,377.59c7.1,0,9.75,7.96,9.75,15.29,0,6.91-2.65,15.34-9.75,15.34s-9.9-7.81-9.9-15.29c0-6.92,2.7-15.34,9.9-15.34ZM816.37,379.25c-4.4,0-5.49,6.96-5.49,13.59s1.33,13.73,5.49,13.73,5.4-7.05,5.4-13.68-1.19-13.63-5.4-13.63Z"></path>
 &nbsp; &nbsp; &nbsp;<path class="cls-2" d="M836.36,377.59c3.5,0,6.48,2.51,6.48,6.53s-3.12,6.63-6.48,6.63c-3.55,0-6.54-2.51-6.54-6.63,0-3.88,2.98-6.53,6.54-6.53ZM836.36,379.72c-2.46,0-3.93,1.85-3.93,4.4s1.66,4.45,3.93,4.45,3.88-1.66,3.88-4.36-1.61-4.5-3.88-4.5Z"></path>
 &nbsp; &nbsp;</g>
 &nbsp; &nbsp;<g>
 &nbsp; &nbsp; &nbsp;<path class="cls-2" d="M711.13,235.76c.99-.52,2.08-.81,3.03-.81,5.02,0,8.47,3.93,8.47,8.76,0,5.68-4.07,10.46-9.75,10.46s-9.85-4.59-9.85-11.83c0-9.75,7.43-15.9,13.11-17.85,1.04-.38,3.41-.9,5.35-1.23l.29,1.56c-1.51.33-3.74.95-5.16,1.61-2.89,1.32-7.38,4.45-8.66,10.94l3.17-1.61ZM712.27,237.65c-1.9,0-3.5.71-4.59,1.33-.19.85-.28,2.04-.28,3.22,0,5.92,2.22,10.27,6.25,10.27,3.69,0,4.83-3.88,4.83-7.05,0-3.93-1.89-7.76-6.2-7.76Z"></path>
 &nbsp; &nbsp; &nbsp;<path class="cls-2" d="M735.8,223.54c7.1,0,9.75,7.96,9.75,15.29,0,6.91-2.65,15.34-9.75,15.34s-9.89-7.81-9.89-15.29c0-6.92,2.7-15.34,9.89-15.34ZM735.8,225.2c-4.4,0-5.49,6.96-5.49,13.59s1.33,13.73,5.49,13.73,5.4-7.05,5.4-13.68-1.18-13.63-5.4-13.63Z"></path>
 &nbsp; &nbsp; &nbsp;<path class="cls-2" d="M755.8,223.54c3.5,0,6.49,2.51,6.49,6.53s-3.13,6.63-6.49,6.63c-3.55,0-6.53-2.51-6.53-6.63,0-3.88,2.98-6.53,6.53-6.53ZM755.8,225.67c-2.46,0-3.93,1.85-3.93,4.4s1.66,4.45,3.93,4.45,3.88-1.66,3.88-4.36-1.61-4.5-3.88-4.5Z"></path>
 &nbsp; &nbsp;</g>
 &nbsp;</g>
</svg>