<!--?xml version="1.0" encoding="UTF-8"?-->
<svg id="Layer_1" xmlns="http://www.w3.org/2000/svg" viewBox="0 0 1460 595.28">
 &nbsp;<defs>
 &nbsp; &nbsp;<style>
 &nbsp; &nbsp; &nbsp;.cls-1 {
 &nbsp; &nbsp; &nbsp; &nbsp;fill: none;
 &nbsp; &nbsp; &nbsp;}

 &nbsp; &nbsp; &nbsp;.cls-2 {
 &nbsp; &nbsp; &nbsp; &nbsp;fill: currentColor;
 &nbsp; &nbsp; &nbsp;}
 &nbsp; &nbsp;</style>
 &nbsp;</defs>
 &nbsp;<rect class="cls-1" width="1460" height="595.28"></rect>
 &nbsp;<g>
 &nbsp; &nbsp;<g>
 &nbsp; &nbsp; &nbsp;<path class="cls-2" d="M817.74,410.14v-1.57c6.24-.4,6.58-.67,6.58-4.89v-21.6c0-2.87-.39-2.98-2.86-3.21l-2.76-.28v-1.41c3.71-.62,7.42-1.52,10.29-2.75v29.25c0,4.27.34,4.5,6.64,4.89v1.57h-17.89Z"></path>
 &nbsp; &nbsp; &nbsp;<path class="cls-2" d="M853.62,374.42c8.44,0,11.59,9.45,11.59,18.17,0,8.21-3.15,18.22-11.59,18.22s-11.75-9.28-11.75-18.17c0-8.21,3.2-18.22,11.75-18.22ZM853.62,376.39c-5.23,0-6.52,8.27-6.52,16.15s1.57,16.31,6.52,16.31,6.41-8.38,6.41-16.26-1.41-16.2-6.41-16.2Z"></path>
 &nbsp; &nbsp; &nbsp;<path class="cls-2" d="M870.27,381.17l2.64-3.54c1.63-1.8,4.22-3.2,7.25-3.2,5.12,0,8.5,3.2,8.5,7.48,0,1.68-.73,3.04-1.74,4.16-.9.96-2.37,1.97-4,3.04,5.23,1.12,8.32,4.56,8.32,8.66,0,9.17-10.8,13.05-14.79,13.05-2.64,0-5.06-1.12-5.85-1.97-.68-.73-.85-1.24-.85-1.86.05-.9.79-1.74,1.29-2.14.45-.34.96-.39,1.46.06,1.52,1.35,3.76,2.98,6.97,2.98,4.05,0,6.92-3.04,6.92-8.5-.06-5.17-3.83-7.2-7.43-7.2-1.3,0-2.87.34-3.77.62l-.39-1.68c5-1.63,9.05-3.88,9.05-8.05,0-3.32-2.14-5.23-5.4-5.23s-5.57,2.3-7.03,4.44l-1.18-1.12Z"></path>
 &nbsp; &nbsp; &nbsp;<path class="cls-2" d="M904.64,374.42c4.16,0,7.7,2.98,7.7,7.76s-3.71,7.88-7.7,7.88c-4.22,0-7.76-2.98-7.76-7.88,0-4.61,3.54-7.76,7.76-7.76ZM904.64,376.95c-2.92,0-4.67,2.19-4.67,5.23s1.97,5.29,4.67,5.29,4.61-1.97,4.61-5.17-1.91-5.34-4.61-5.34Z"></path>
 &nbsp; &nbsp;</g>
 &nbsp; &nbsp;<path class="cls-2" d="M927.63,432.63h-457.68l62.41-269.99h457.68l-62.41,269.99ZM479.39,425.13h442.29l58.94-254.99h-442.29l-58.94,254.99Z"></path>
 &nbsp; &nbsp;<polygon class="cls-2" points="521.25 298.83 510.05 276.78 490.3 291.67 488.05 288.68 511.36 271.09 524.59 297.13 521.25 298.83"></polygon>
 &nbsp; &nbsp;<polygon class="cls-2" points="518.42 311.09 507.21 289.05 487.47 303.94 485.21 300.95 508.53 283.36 521.76 309.39 518.42 311.09"></polygon>
 &nbsp; &nbsp;<polygon class="cls-2" points="972.06 294.79 960.85 272.74 941.11 287.64 938.86 284.64 962.17 267.05 975.4 293.09 972.06 294.79"></polygon>
 &nbsp; &nbsp;<polygon class="cls-2" points="969.22 307.05 958.01 285.01 938.28 299.9 936.02 296.9 959.33 279.32 972.56 305.35 969.22 307.05"></polygon>
 &nbsp; &nbsp;<polygon class="cls-2" points="751.2 185.15 748.8 182.27 767.76 166.39 748.8 150.52 751.2 147.64 773.59 166.39 751.2 185.15"></polygon>
 &nbsp; &nbsp;<polygon class="cls-2" points="690.53 447.64 688.12 444.77 707.08 428.88 688.12 413 690.53 410.13 712.92 428.88 690.53 447.64"></polygon>
 &nbsp;</g>
</svg>