<!--?xml version="1.0" encoding="UTF-8"?-->
<svg id="Layer_1" xmlns="http://www.w3.org/2000/svg" viewBox="0 0 1460 595.28">
 &nbsp;<defs>
 &nbsp; &nbsp;<style>
 &nbsp; &nbsp; &nbsp;.cls-1 {
 &nbsp; &nbsp; &nbsp; &nbsp;fill: none;
 &nbsp; &nbsp; &nbsp;}

 &nbsp; &nbsp; &nbsp;.cls-2 {
 &nbsp; &nbsp; &nbsp; &nbsp;fill: currentColor;
 &nbsp; &nbsp; &nbsp;}
 &nbsp; &nbsp;</style>
 &nbsp;</defs>
 &nbsp;<rect class="cls-1" width="1460" height="595.28"></rect>
 &nbsp;<g>
 &nbsp; &nbsp;<g>
 &nbsp; &nbsp; &nbsp;<path class="cls-2" d="M426.03,293.77c1.3-.68,2.72-1.06,3.96-1.06,6.56,0,11.08,5.14,11.08,11.46,0,7.43-5.32,13.69-12.76,13.69s-12.88-6.01-12.88-15.48c0-12.76,9.72-20.81,17.15-23.35,1.36-.5,4.46-1.18,7-1.61l.37,2.04c-1.98.43-4.89,1.24-6.75,2.1-3.78,1.74-9.66,5.82-11.33,14.3l4.15-2.1ZM427.51,296.24c-2.48,0-4.58.93-6.01,1.74-.25,1.11-.37,2.66-.37,4.21,0,7.74,2.91,13.44,8.17,13.44,4.83,0,6.32-5.08,6.32-9.23,0-5.14-2.48-10.15-8.11-10.15Z"></path>
 &nbsp; &nbsp; &nbsp;<path class="cls-2" d="M483.05,311.54c-2.72,3.59-6.87,6.32-10.59,6.32-7.87,0-12.51-6.38-12.51-13,0-4.89,2.11-8.98,6.25-12.14,3.28-2.54,7-3.53,9.41-3.53,2.79,0,4.83.87,5.76,1.67.87.68.99,1.12.99,1.8,0,1.49-1.55,2.79-2.23,2.79-.31,0-.56-.12-1.18-.62-1.92-1.74-4.03-2.6-6.25-2.6-4.09,0-7.68,3.47-7.68,9.91-.06,8.61,5.82,11.46,9.41,11.46,2.6,0,4.7-.68,7.55-3.41l1.05,1.36Z"></path>
 &nbsp; &nbsp; &nbsp;<path class="cls-2" d="M520.13,317.11v-1.73c3.65-.37,4.09-.62,4.09-4.95v-10.34c0-4.4-1.48-7.18-5.33-7.18-2.35,0-4.52,1.3-6.87,3.22.06.74.18,1.49.18,2.66v12.01c0,3.9.56,4.21,3.96,4.58v1.73h-13.25v-1.73c3.84-.37,4.4-.62,4.4-4.71v-10.65c0-4.58-1.42-7.12-5.2-7.12-2.48,0-4.89,1.67-6.81,3.22v14.55c0,4.09.43,4.33,3.96,4.71v1.73h-13.31v-1.73c4.09-.37,4.46-.62,4.46-4.71v-12.82c0-3.96-.25-4.21-3.72-4.83v-1.55c2.91-.44,5.82-1.24,8.61-2.48v5.02c1.3-.99,2.6-2.04,4.58-3.22,1.55-.99,2.91-1.61,4.89-1.61,2.97,0,5.51,1.86,6.75,5.08,1.73-1.36,3.34-2.42,4.89-3.47,1.36-.86,3.1-1.61,4.89-1.61,4.83,0,7.8,3.47,7.8,9.53v11.95c0,4.15.37,4.33,3.9,4.71v1.73h-12.88Z"></path>
 &nbsp; &nbsp;</g>
 &nbsp; &nbsp;<g>
 &nbsp; &nbsp; &nbsp;<path class="cls-2" d="M657.87,175.69v-1.73c6.87-.44,7.25-.74,7.25-5.39v-23.78c0-3.16-.44-3.28-3.16-3.53l-3.04-.31v-1.55c4.09-.68,8.17-1.67,11.33-3.03v32.2c0,4.7.37,4.95,7.31,5.39v1.73h-19.69Z"></path>
 &nbsp; &nbsp; &nbsp;<path class="cls-2" d="M697.37,136.37c9.29,0,12.76,10.4,12.76,20,0,9.04-3.47,20.06-12.76,20.06s-12.94-10.22-12.94-20c0-9.04,3.53-20.06,12.94-20.06ZM697.37,138.54c-5.76,0-7.18,9.1-7.18,17.77s1.74,17.96,7.18,17.96,7.06-9.23,7.06-17.9-1.55-17.83-7.06-17.83Z"></path>
 &nbsp; &nbsp; &nbsp;<path class="cls-2" d="M752.16,170.12c-2.72,3.59-6.87,6.32-10.59,6.32-7.87,0-12.51-6.38-12.51-13,0-4.89,2.1-8.98,6.25-12.14,3.28-2.54,7-3.53,9.41-3.53,2.79,0,4.83.87,5.76,1.67.87.68.99,1.12.99,1.8,0,1.49-1.55,2.79-2.23,2.79-.31,0-.56-.12-1.18-.62-1.92-1.74-4.02-2.6-6.25-2.6-4.09,0-7.68,3.47-7.68,9.91-.06,8.61,5.82,11.46,9.41,11.46,2.6,0,4.71-.68,7.55-3.41l1.05,1.36Z"></path>
 &nbsp; &nbsp; &nbsp;<path class="cls-2" d="M789.25,175.69v-1.73c3.65-.37,4.09-.62,4.09-4.95v-10.34c0-4.4-1.49-7.18-5.33-7.18-2.35,0-4.52,1.3-6.87,3.22.06.74.19,1.49.19,2.66v12.01c0,3.9.56,4.21,3.96,4.58v1.73h-13.25v-1.73c3.84-.37,4.4-.62,4.4-4.71v-10.65c0-4.58-1.42-7.12-5.2-7.12-2.48,0-4.89,1.67-6.81,3.22v14.55c0,4.09.44,4.33,3.96,4.71v1.73h-13.31v-1.73c4.09-.37,4.46-.62,4.46-4.71v-12.82c0-3.96-.25-4.21-3.72-4.83v-1.55c2.91-.44,5.82-1.24,8.61-2.48v5.02c1.3-.99,2.6-2.04,4.58-3.22,1.55-.99,2.91-1.61,4.89-1.61,2.97,0,5.51,1.86,6.75,5.08,1.74-1.36,3.34-2.42,4.89-3.47,1.36-.86,3.1-1.61,4.89-1.61,4.83,0,7.8,3.47,7.8,9.53v11.95c0,4.15.37,4.33,3.9,4.71v1.73h-12.88Z"></path>
 &nbsp; &nbsp;</g>
 &nbsp; &nbsp;<path class="cls-2" d="M918.83,409.08h-377.66v-222.88h377.66v222.88ZM547.36,402.89h365.28v-210.5h-365.28v210.5Z"></path>
 &nbsp;</g>
</svg>