<!--?xml version="1.0" encoding="UTF-8"?-->
<svg id="Layer_1" xmlns="http://www.w3.org/2000/svg" viewBox="0 0 1460 595.28">
 &nbsp;<defs>
 &nbsp; &nbsp;<style>
 &nbsp; &nbsp; &nbsp;.cls-1 {
 &nbsp; &nbsp; &nbsp; &nbsp;fill: none;
 &nbsp; &nbsp; &nbsp;}

 &nbsp; &nbsp; &nbsp;.cls-2, .cls-3 {
 &nbsp; &nbsp; &nbsp; &nbsp;fill: currentColor;
 &nbsp; &nbsp; &nbsp;}

 &nbsp; &nbsp; &nbsp;.cls-3 {
 &nbsp; &nbsp; &nbsp; &nbsp;stroke: currentColor;
 &nbsp; &nbsp; &nbsp; &nbsp;stroke-miterlimit: 10;
 &nbsp; &nbsp; &nbsp;}
 &nbsp; &nbsp;</style>
 &nbsp;</defs>
 &nbsp;<rect class="cls-1" width="1460" height="595.28"></rect>
 &nbsp;<g>
 &nbsp; &nbsp;<path class="cls-2" d="M610.75,256.74c5.99,0,10.18,4.18,10.18,9.24,0,1.87-.56,3.68-1.75,5.06-.56.63-2.43,2-5.18,4,4.3,2.37,8.55,5.37,8.55,10.8,0,7.3-6.62,11.3-12.55,11.3-6.93,0-12.05-4-12.05-10.3,0-3.18,1.37-4.93,2.87-6.18,1-.87,3.43-2.5,5.62-3.87-4.06-2.37-6.93-5.37-6.93-9.8,0-5.43,4.43-10.24,11.24-10.24ZM610.75,295.01c4.18,0,6.74-2.75,6.74-7.3,0-5-4.18-7.43-9.24-9.86-3.37,1.93-5.25,4.87-5.25,8.56,0,5.74,3.62,8.61,7.74,8.61ZM609.94,258.8c-3.74,0-5.68,2.93-5.68,6.43,0,4.56,3.06,6.24,7.93,8.8,2.43-1.87,4.12-4.06,4.12-7.74,0-5.24-3.12-7.49-6.37-7.49Z"></path>
 &nbsp; &nbsp;<path class="cls-2" d="M849.2,256.73c6,0,10.18,4.19,10.18,9.24,0,1.87-.56,3.68-1.75,5.06-.56.63-2.43,2-5.18,3.99,4.31,2.37,8.55,5.37,8.55,10.8,0,7.3-6.62,11.3-12.55,11.3-6.93,0-12.05-4-12.05-10.3,0-3.19,1.37-4.93,2.87-6.19,1-.87,3.43-2.5,5.62-3.87-4.06-2.37-6.93-5.37-6.93-9.8,0-5.44,4.43-10.24,11.23-10.24ZM849.2,295.01c4.19,0,6.74-2.75,6.74-7.31,0-4.99-4.18-7.43-9.24-9.86-3.37,1.93-5.24,4.87-5.24,8.55,0,5.75,3.62,8.62,7.74,8.62ZM848.39,258.8c-3.75,0-5.68,2.93-5.68,6.43,0,4.55,3.06,6.24,7.93,8.8,2.43-1.87,4.12-4.06,4.12-7.74,0-5.24-3.12-7.49-6.37-7.49Z"></path>
 &nbsp; &nbsp;<path class="cls-2" d="M736.77,462.65c6,0,10.18,4.18,10.18,9.24,0,1.87-.56,3.68-1.75,5.06-.56.63-2.43,2-5.18,4,4.31,2.37,8.55,5.37,8.55,10.8,0,7.3-6.62,11.3-12.55,11.3-6.93,0-12.05-4-12.05-10.3,0-3.18,1.37-4.93,2.87-6.18,1-.87,3.43-2.5,5.62-3.87-4.06-2.37-6.93-5.37-6.93-9.8,0-5.43,4.43-10.24,11.23-10.24ZM736.77,500.92c4.19,0,6.74-2.75,6.74-7.3,0-5-4.18-7.43-9.24-9.86-3.37,1.93-5.24,4.87-5.24,8.56,0,5.74,3.62,8.61,7.74,8.61ZM735.96,464.71c-3.75,0-5.68,2.93-5.68,6.43,0,4.56,3.06,6.24,7.93,8.8,2.43-1.87,4.12-4.06,4.12-7.74,0-5.24-3.12-7.49-6.37-7.49Z"></path>
 &nbsp; &nbsp;<path class="cls-3" d="M878.92,405.57l-2.08-3.58-44.87-77.71-2.08-3.62-74.09-128.36-2.12-3.62-23.68-41.04-23.68,41.04-2.12,3.62-74.09,128.36-2.08,3.62-44.83,77.67-2.08,3.58-23.72,41.08h345.21l-23.68-41.04ZM564.6,442.44l20.1-34.84,2.08-3.58,44.83-77.67,2.08-3.62,74.13-128.36,2.08-3.58,20.1-34.84,20.1,34.84,2.08,3.58,74.13,128.36,2.08,3.62,44.83,77.67,2.08,3.62,20.1,34.8h-330.81Z"></path>
 &nbsp; &nbsp;<g>
 &nbsp; &nbsp; &nbsp;<rect class="cls-2" x="727.92" y="155.96" width="4.16" height="10.41"></rect>
 &nbsp; &nbsp; &nbsp;<path class="cls-2" d="M732.08,415.44h-4.16v-20.76h4.16v20.76ZM732.08,373.93h-4.16v-20.75h4.16v20.75ZM732.08,332.42h-4.16v-20.75h4.16v20.75ZM732.08,290.9h-4.16v-20.76h4.16v20.76ZM732.08,249.39h-4.16v-20.76h4.16v20.76ZM732.08,207.88h-4.16v-20.76h4.16v20.76Z"></path>
 &nbsp; &nbsp; &nbsp;<rect class="cls-2" x="727.92" y="436.2" width="4.16" height="10.41"></rect>
 &nbsp; &nbsp;</g>
 &nbsp; &nbsp;<g>
 &nbsp; &nbsp; &nbsp;<path class="cls-2" d="M668.79,343.46h-4.58l-.76,4.09c-.48,2.55,0,2.89,3.51,3.13l-.29,1.35h-11.74l.28-1.35c3.76-.29,4.09-.53,4.76-4.14l.58-3.13h-12.61l.33-1.35c5.45-6.5,12.32-14.01,18.01-20.31h2.12l-3.76,19.6h4.57l-.43,2.12ZM663.98,326.66c-4.24,4.87-8.91,9.97-12.67,14.69h9.68l3.08-14.69h-.1Z"></path>
 &nbsp; &nbsp; &nbsp;<path class="cls-2" d="M695.64,305.91h1.83l-7.71,48.05-12.23-25.2-4.89,2.25-.84-1.58,7.43-3.73,10,20.31,6.41-40.1Z"></path>
 &nbsp; &nbsp; &nbsp;<path class="cls-2" d="M700.14,327.24l2.27-3.03c1.4-1.54,3.61-2.74,6.21-2.74,4.38,0,7.27,2.74,7.27,6.4,0,1.45-.63,2.6-1.5,3.56-.76.82-2.02,1.68-3.41,2.6,4.48.96,7.12,3.9,7.12,7.41,0,7.85-9.24,11.17-12.66,11.17-2.26,0-4.33-.96-5.01-1.68-.58-.63-.72-1.06-.72-1.59.05-.77.67-1.49,1.11-1.83.39-.29.82-.34,1.25.05,1.3,1.15,3.23,2.55,5.97,2.55,3.46,0,5.92-2.6,5.92-7.27-.05-4.43-3.28-6.16-6.36-6.16-1.11,0-2.46.29-3.22.53l-.34-1.44c4.28-1.4,7.76-3.32,7.76-6.89,0-2.84-1.83-4.48-4.63-4.48s-4.76,1.97-6.02,3.8l-1.02-.96Z"></path>
 &nbsp; &nbsp;</g>
 &nbsp; &nbsp;<rect class="cls-2" x="695.61" y="305.48" width="21.37" height="2.41"></rect>
 &nbsp;</g>
</svg>