<!--?xml version="1.0" encoding="UTF-8"?-->
<svg id="Layer_1" xmlns="http://www.w3.org/2000/svg" viewBox="0 0 1460 595.28">
 &nbsp;<defs>
 &nbsp; &nbsp;<style>
 &nbsp; &nbsp; &nbsp;.cls-1 {
 &nbsp; &nbsp; &nbsp; &nbsp;fill: none;
 &nbsp; &nbsp; &nbsp;}

 &nbsp; &nbsp; &nbsp;.cls-2 {
 &nbsp; &nbsp; &nbsp; &nbsp;fill: currentColor;
 &nbsp; &nbsp; &nbsp;}
 &nbsp; &nbsp;</style>
 &nbsp;</defs>
 &nbsp;<rect class="cls-1" width="1460" height="595.28"></rect>
 &nbsp;<g>
 &nbsp; &nbsp;<g>
 &nbsp; &nbsp; &nbsp;<path class="cls-2" d="M871.16,443.18c-.1-19.47,12.92-36.85,31.66-42.26l.35-.05v1.31s.35,1.18.35,1.18c-17.66,5.1-29.92,21.47-29.83,39.8h-2.54Z"></path>
 &nbsp; &nbsp; &nbsp;<path class="cls-2" d="M594.53,541.06h-76.5l62.6-39.32.71.87c4.99,6.14,8.64,13.14,10.85,20.82,1.55,5.36,2.34,10.86,2.34,16.35v1.27ZM526.85,538.52h65.12c-.11-4.83-.86-9.66-2.22-14.38-2.01-6.99-5.27-13.39-9.68-19.05l-53.22,33.42Z"></path>
 &nbsp; &nbsp; &nbsp;<path class="cls-2" d="M632,473.09l-1.35-2.15,93.95-59,.68,1.07c2.82,4.44,5,9.31,6.48,14.47,1.47,5.13,2.22,10.41,2.22,15.7h-2.54c0-5.05-.71-10.09-2.12-15-1.3-4.51-3.15-8.79-5.52-12.74l-91.8,57.65Z"></path>
 &nbsp; &nbsp; &nbsp;<path class="cls-2" d="M859.55,443.18c-.07-24.64,16.35-46.8,39.94-53.89l.73,2.43c-22.52,6.77-38.2,27.93-38.13,51.45h-2.54Z"></path>
 &nbsp; &nbsp; &nbsp;<path class="cls-2" d="M944.69,541.66h-46.2v-1.27c-.03-19.39,12.99-36.7,31.66-42.09l1.92-.56,12.63,43.91ZM901.04,539.12h40.28l-10.99-38.22c-16.9,5.12-28.76,20.65-29.28,38.22Z"></path>
 &nbsp; &nbsp; &nbsp;<path class="cls-2" d="M944.69,541.66h-57.82v-1.27c0-16.98,7.95-33.42,21.27-43.98,5.73-4.54,12.24-7.89,19.33-9.93l1.22-.35,16,55.54ZM889.43,539.12h51.89l-14.36-49.84c-6.3,1.98-12.09,5.04-17.24,9.12-12.39,9.82-19.91,24.96-20.3,40.72Z"></path>
 &nbsp; &nbsp; &nbsp;<path class="cls-2" d="M946.38,542.93h-432.75l366.49-230.18,66.27,230.18ZM531.26,537.85h408.37l-62.54-217.2-345.83,217.2Z"></path>
 &nbsp; &nbsp; &nbsp;<path class="cls-2" d="M918.38,445.71h-249.95l211.68-132.96,38.27,132.96ZM686.07,440.63h225.57l-34.54-119.98-191.03,119.98Z"></path>
 &nbsp; &nbsp; &nbsp;<polygon class="cls-2" points="796.75 455.27 795.11 453.33 807.24 443.17 795.11 433.02 796.75 431.07 811.19 443.17 796.75 455.27"></polygon>
 &nbsp; &nbsp; &nbsp;<polygon class="cls-2" points="750.85 552.49 749.22 550.55 761.34 540.39 749.22 530.24 750.85 528.29 765.29 540.39 750.85 552.49"></polygon>
 &nbsp; &nbsp;</g>
 &nbsp; &nbsp;<path class="cls-2" d="M601.41,82.56h-1.27v-37.16l29.19,22.95-.79,1c-6.61,8.4-16.5,13.21-27.13,13.21ZM602.68,50.63v29.37c8.95-.35,17.23-4.39,23.06-11.23l-23.06-18.13Z"></path>
 &nbsp; &nbsp;<path class="cls-2" d="M601.41,92.85h-1.27v-47.45l37.26,29.3-.78,1c-8.53,10.9-21.36,17.15-35.21,17.15ZM602.68,50.63v39.66c12.15-.35,23.38-5.82,31.15-15.17l-31.15-24.49Z"></path>
 &nbsp; &nbsp;<path class="cls-2" d="M727.87,181.97v-2.54c9.45,0,18.25-4.08,24.35-11.25l-51.29-40.31,1.57-2,52.78,41.48v1.06l-.27.37c-6.59,8.38-16.49,13.18-27.13,13.18Z"></path>
 &nbsp; &nbsp;<path class="cls-2" d="M879.45,265.01h-38.19v-1.27c0-7.84,2.55-15.22,7.38-21.34l.79-.99,30.02,23.6ZM843.82,262.47h28.28l-22.23-17.48c-3.73,5.12-5.8,11.12-6.05,17.48Z"></path>
 &nbsp; &nbsp;<path class="cls-2" d="M727.87,192.26v-2.54c12.63,0,24.38-5.51,32.42-15.16l-67.44-53.02,1.57-2,69.45,54.61-.78,1c-8.54,10.88-21.37,17.12-35.21,17.12Z"></path>
 &nbsp; &nbsp;<polygon class="cls-2" points="612.16 167.12 601.4 154.28 590.64 167.12 588.7 165.49 601.4 150.32 614.1 165.49 612.16 167.12"></polygon>
 &nbsp; &nbsp;<polygon class="cls-2" points="738.63 216.83 727.87 203.98 717.12 216.83 715.17 215.2 727.87 200.03 740.58 215.2 738.63 216.83"></polygon>
 &nbsp; &nbsp;<path class="cls-2" d="M883.12,266.28h-284.25V42.79l284.25,223.49ZM603.95,261.2h264.49L603.95,53.24v207.96Z"></path>
 &nbsp; &nbsp;<path class="cls-2" d="M639.38,265.01h-39.25v-39.25h39.25v39.25ZM602.67,262.47h34.17v-34.17h-34.17v34.17Z"></path>
 &nbsp; &nbsp;<path class="cls-2" d="M765.84,265.01h-39.25v-39.25h39.25v39.25ZM729.13,262.47h34.17v-34.17h-34.17v34.17Z"></path>
 &nbsp; &nbsp;<path class="cls-2" d="M883.12,266.28h-157.78v-124.08l157.78,124.08ZM730.41,261.2h138.02l-138.02-108.54v108.54Z"></path>
 &nbsp;</g>
</svg>