<!--?xml version="1.0" encoding="UTF-8"?-->
<svg id="Layer_1" xmlns="http://www.w3.org/2000/svg" viewBox="0 0 1460 595.28">
 &nbsp;<defs>
 &nbsp; &nbsp;<style>
 &nbsp; &nbsp; &nbsp;.cls-1 {
 &nbsp; &nbsp; &nbsp; &nbsp;fill: none;
 &nbsp; &nbsp; &nbsp;}

 &nbsp; &nbsp; &nbsp;.cls-2 {
 &nbsp; &nbsp; &nbsp; &nbsp;fill: currentColor;
 &nbsp; &nbsp; &nbsp;}

 &nbsp; &nbsp; &nbsp;.cls-3 {
 &nbsp; &nbsp; &nbsp; &nbsp;fill: currentColor;
 &nbsp; &nbsp; &nbsp;}
 &nbsp; &nbsp;</style>
 &nbsp;</defs>
 &nbsp;<rect class="cls-1" width="1460" height="595.28"></rect>
 &nbsp;<g>
 &nbsp; &nbsp;<g>
 &nbsp; &nbsp; &nbsp;<path class="cls-2" d="M689.94,237.59c2.51-3.91,5.08-6.07,6.95-6.07,1.64,0,2.75,1.87,4.09,6.37l.88,3.1c5.08-7.01,7.6-9.46,10.22-9.46,1.69,0,2.51,1.23,2.45,2.51,0,.82-.64,2.28-1.4,2.8-.53.41-.88.53-1.23.47-.64-.12-1.28-1.58-2.16-1.58-1.28,0-3.5,2.34-7.24,7.48l1.92,5.96c1.11,3.5,1.99,5.26,2.98,5.26.94,0,1.99-.7,4.26-3.45l1.05,1.34c-2.51,3.97-5.37,6.25-7.48,6.25-1.58,0-2.86-1.93-4.26-6.31l-1.58-5.08c-5.72,8.24-8.24,11.39-10.86,11.39-1.52,0-2.57-1.11-2.57-2.74.06-1.69,1.46-3.5,2.57-3.5.82,0,1.34,1.58,2.16,1.58,1.05,0,2.92-1.81,8.06-8.94l-1.58-5.14c-.99-3.15-1.52-4.26-2.34-4.26-.58,0-1.75.58-3.74,3.33l-1.17-1.29Z"></path>
 &nbsp; &nbsp; &nbsp;<path class="cls-2" d="M735.39,226.9c0,4.91-3.68,7.89-7.71,7.89-4.26,0-7.71-2.98-7.71-7.89s3.5-7.88,7.71-7.88,7.71,3.15,7.71,7.88ZM723.01,226.9c0,3.27,1.93,5.43,4.73,5.43s4.61-2.16,4.61-5.37-1.87-5.49-4.67-5.49c-2.98,0-4.67,2.16-4.67,5.43Z"></path>
 &nbsp; &nbsp;</g>
 &nbsp; &nbsp;<g>
 &nbsp; &nbsp; &nbsp;<path class="cls-2" d="M751.11,343.72c2.51-3.91,5.08-6.07,6.95-6.07,1.64,0,2.75,1.87,4.09,6.37l.88,3.1c5.08-7.01,7.59-9.46,10.22-9.46,1.7,0,2.51,1.23,2.46,2.51,0,.82-.64,2.28-1.4,2.8-.53.41-.88.53-1.23.47-.64-.12-1.28-1.58-2.16-1.58-1.28,0-3.5,2.34-7.24,7.48l1.93,5.96c1.11,3.5,1.98,5.26,2.98,5.26.94,0,1.99-.7,4.27-3.45l1.05,1.34c-2.51,3.97-5.38,6.25-7.48,6.25-1.58,0-2.86-1.93-4.27-6.31l-1.58-5.08c-5.72,8.24-8.24,11.39-10.86,11.39-1.52,0-2.57-1.11-2.57-2.74.06-1.69,1.46-3.5,2.57-3.5.82,0,1.34,1.58,2.16,1.58,1.05,0,2.92-1.81,8.06-8.94l-1.58-5.14c-.99-3.15-1.52-4.26-2.34-4.26-.59,0-1.75.58-3.74,3.33l-1.17-1.29Z"></path>
 &nbsp; &nbsp; &nbsp;<path class="cls-2" d="M796.55,333.03c0,4.91-3.68,7.89-7.71,7.89-4.26,0-7.71-2.98-7.71-7.89s3.5-7.88,7.71-7.88,7.71,3.15,7.71,7.88ZM784.17,333.03c0,3.27,1.93,5.43,4.73,5.43s4.62-2.16,4.62-5.37-1.87-5.49-4.67-5.49c-2.98,0-4.67,2.16-4.67,5.43Z"></path>
 &nbsp; &nbsp;</g>
 &nbsp; &nbsp;<g>
 &nbsp; &nbsp; &nbsp;<path class="cls-2" d="M806.91,246.52c1.81-2.69,5.08-5.78,7.18-5.78s2.8,3.74,3.16,8.82c.41,5.02.64,10.16.87,13.9,2.63-3.91,8.47-12.21,8.41-16.47,0-1.17-.59-2.22-.88-2.86-.29-.7-.29-1.23.23-1.87.59-.76,1.75-1.52,2.69-1.52,1.34,0,2.16,1.28,2.16,3.21,0,1.64-.58,4.03-2.04,6.72-4.73,8.7-14.48,22.37-21.2,29.73l-6.07,1.58-.53-1.34c5.84-3.74,10.51-8.53,13.37-12.38-.06-4.67-.76-13.08-1.28-18.4-.35-3.56-.93-4.91-1.52-4.91-.64,0-2.22,1.34-3.62,3.1l-.93-1.52Z"></path>
 &nbsp; &nbsp; &nbsp;<path class="cls-2" d="M852.29,236.13c0,4.91-3.68,7.89-7.71,7.89-4.26,0-7.71-2.98-7.71-7.89s3.5-7.88,7.71-7.88,7.71,3.15,7.71,7.88ZM839.91,236.13c0,3.27,1.92,5.43,4.73,5.43s4.62-2.16,4.62-5.37-1.87-5.49-4.67-5.49c-2.98,0-4.67,2.16-4.67,5.43Z"></path>
 &nbsp; &nbsp;</g>
 &nbsp; &nbsp;<g>
 &nbsp; &nbsp; &nbsp;<path class="cls-2" d="M612.73,334.61c1.81-2.69,5.08-5.78,7.18-5.78s2.8,3.74,3.16,8.82c.41,5.02.64,10.16.88,13.9,2.63-3.91,8.47-12.21,8.41-16.47,0-1.17-.59-2.22-.88-2.86-.29-.7-.29-1.23.24-1.87.58-.76,1.75-1.52,2.69-1.52,1.34,0,2.16,1.28,2.16,3.21,0,1.64-.58,4.03-2.04,6.72-4.73,8.7-14.48,22.37-21.2,29.73l-6.08,1.58-.53-1.34c5.84-3.74,10.51-8.53,13.38-12.38-.06-4.67-.76-13.08-1.28-18.4-.35-3.56-.94-4.91-1.52-4.91-.64,0-2.22,1.34-3.62,3.1l-.94-1.52Z"></path>
 &nbsp; &nbsp; &nbsp;<path class="cls-2" d="M658.11,324.21c0,4.91-3.68,7.89-7.71,7.89-4.26,0-7.71-2.98-7.71-7.89s3.5-7.88,7.71-7.88,7.71,3.15,7.71,7.88ZM645.73,324.21c0,3.27,1.93,5.43,4.73,5.43s4.62-2.16,4.62-5.37-1.87-5.49-4.67-5.49c-2.98,0-4.67,2.16-4.67,5.43Z"></path>
 &nbsp; &nbsp;</g>
 &nbsp; &nbsp;<g>
 &nbsp; &nbsp; &nbsp;<rect class="cls-2" x="478.19" y="295.1" width="503.62" height="5.08"></rect>
 &nbsp; &nbsp; &nbsp;<polygon class="cls-2" points="456.67 297.64 486.99 310.03 479.8 297.64 486.99 285.25 456.67 297.64"></polygon>
 &nbsp; &nbsp; &nbsp;<polygon class="cls-2" points="1003.33 297.64 973.01 310.03 980.2 297.64 973.01 285.25 1003.33 297.64"></polygon>
 &nbsp; &nbsp;</g>
 &nbsp; &nbsp;<g>
 &nbsp; &nbsp; &nbsp;<line class="cls-3" x1="550.68" y1="503.92" x2="909.32" y2="91.35"></line>
 &nbsp; &nbsp; &nbsp;<g>
 &nbsp; &nbsp; &nbsp; &nbsp;<rect class="cls-2" x="478.19" y="295.1" width="503.63" height="5.08" transform="translate(26.44 653.29) rotate(-49)"></rect>
 &nbsp; &nbsp; &nbsp; &nbsp;<polygon class="cls-2" points="550.68 503.92 579.92 489.17 565.85 486.47 561.22 472.91 550.68 503.92"></polygon>
 &nbsp; &nbsp; &nbsp; &nbsp;<polygon class="cls-2" points="909.32 91.35 898.78 122.37 894.15 108.81 880.08 106.11 909.32 91.35"></polygon>
 &nbsp; &nbsp; &nbsp;</g>
 &nbsp; &nbsp;</g>
 &nbsp; &nbsp;<path class="cls-2" d="M760.47,295.1h-5.11c.08.84.13,1.68.13,2.54s-.05,1.7-.13,2.54c-1.27,12.88-12.17,22.96-25.37,22.96-5.46,0-10.54-1.73-14.71-4.67-.71-.48-1.37-1.02-2.01-1.6-.66-.56-1.27-1.14-1.83-1.75l-3.35,3.86c.61.61,1.22,1.19,1.85,1.73.64.58,1.3,1.09,1.98,1.63,5.05,3.68,11.3,5.89,18.06,5.89,16,0,29.18-12.37,30.48-28.04.08-.84.1-1.68.1-2.54s-.03-1.7-.1-2.54ZM729.99,272.16c5.49,0,10.54,1.73,14.71,4.7.69.46,1.37.99,2.01,1.55.64.56,1.27,1.14,1.85,1.78l3.33-3.84c-.58-.64-1.22-1.22-1.85-1.75-.64-.58-1.3-1.09-1.98-1.6-5.05-3.71-11.3-5.92-18.06-5.92-16,0-29.18,12.37-30.48,28.02-.08.84-.1,1.68-.1,2.54s.03,1.7.1,2.54h5.11c-.08-.84-.13-1.68-.13-2.54s.05-1.7.13-2.54c1.3-12.85,12.19-22.94,25.37-22.94Z"></path>
 &nbsp; &nbsp;<path class="cls-2" d="M776.49,295.1c-.66-12.07-5.94-22.94-14.1-30.84-.61-.61-1.22-1.17-1.88-1.73-.64-.56-1.3-1.12-1.98-1.6l-3.33,3.84c.69.51,1.32,1.02,1.96,1.6.66.53,1.3,1.14,1.91,1.73,7.09,6.99,11.68,16.46,12.32,27,.05.84.08,1.68.08,2.54s-.03,1.7-.08,2.54h5.11c.03-.84.05-1.68.05-2.54s-.03-1.7-.05-2.54ZM702.81,328.93c-.66-.56-1.27-1.14-1.88-1.73-7.09-6.96-11.71-16.46-12.34-27.03-.05-.84-.08-1.68-.08-2.54s.03-1.7.08-2.54h-5.11c-.03.84-.05,1.68-.05,2.54s.03,1.7.05,2.54c.66,12.09,5.94,22.94,14.12,30.86.61.61,1.22,1.17,1.88,1.73.64.56,1.3,1.12,1.96,1.63l3.35-3.86c-.69-.51-1.35-1.04-1.98-1.6Z"></path>
 &nbsp; &nbsp;<path class="cls-2" d="M788.41,295.1c-.66-15.67-7.52-29.74-18.19-39.85-.61-.61-1.24-1.17-1.88-1.7-.64-.58-1.3-1.12-1.96-1.63l-3.33,3.84c.66.51,1.32,1.07,1.96,1.6.64.56,1.27,1.14,1.88,1.73,9.6,9.19,15.77,21.89,16.43,36.02.05.84.08,1.68.08,2.54s-.03,1.7-.08,2.54h5.08c.05-.84.08-1.68.08-2.54s-.03-1.7-.08-2.54ZM694.99,337.92c-.64-.53-1.27-1.12-1.88-1.7-9.6-9.17-15.77-21.89-16.43-36.04-.05-.84-.08-1.68-.08-2.54s.03-1.7.08-2.54h-5.08c-.05.84-.08,1.68-.08,2.54s.03,1.7.08,2.54c.66,15.67,7.52,29.77,18.19,39.88.61.61,1.24,1.17,1.88,1.7.64.58,1.3,1.12,1.96,1.63l3.33-3.84c-.66-.51-1.32-1.04-1.96-1.63Z"></path>
 &nbsp;</g>
</svg>