<!--?xml version="1.0" encoding="UTF-8"?-->
<svg id="Layer_1" xmlns="http://www.w3.org/2000/svg" viewBox="0 0 1460 595.28">
 &nbsp;<defs>
 &nbsp; &nbsp;<style>
 &nbsp; &nbsp; &nbsp;.cls-1 {
 &nbsp; &nbsp; &nbsp; &nbsp;fill: none;
 &nbsp; &nbsp; &nbsp;}

 &nbsp; &nbsp; &nbsp;.cls-2, .cls-3 {
 &nbsp; &nbsp; &nbsp; &nbsp;fill: currentColor;
 &nbsp; &nbsp; &nbsp;}

 &nbsp; &nbsp; &nbsp;.cls-3 {
 &nbsp; &nbsp; &nbsp; &nbsp;stroke: currentColor;
 &nbsp; &nbsp; &nbsp; &nbsp;stroke-miterlimit: 10;
 &nbsp; &nbsp; &nbsp;}
 &nbsp; &nbsp;</style>
 &nbsp;</defs>
 &nbsp;<rect class="cls-1" width="1460" height="595.28"></rect>
 &nbsp;<g>
 &nbsp; &nbsp;<g>
 &nbsp; &nbsp; &nbsp;<path class="cls-2" d="M764.63,173.78l3.26-4.37c2.01-2.22,5.2-3.95,8.94-3.95,6.31,0,10.46,3.95,10.46,9.21,0,2.08-.9,3.74-2.15,5.13-1.11,1.18-2.91,2.42-4.92,3.74,6.44,1.39,10.26,5.61,10.26,10.67,0,11.29-13.3,16.07-18.22,16.07-3.26,0-6.24-1.39-7.2-2.42-.83-.9-1.04-1.52-1.04-2.29.07-1.11.97-2.15,1.6-2.63.55-.42,1.18-.49,1.8.07,1.87,1.66,4.65,3.67,8.59,3.67,4.99,0,8.52-3.74,8.52-10.46-.07-6.37-4.71-8.87-9.15-8.87-1.59,0-3.53.42-4.64.76l-.49-2.08c6.17-2.01,11.15-4.78,11.15-9.91,0-4.09-2.63-6.44-6.65-6.44s-6.86,2.84-8.66,5.47l-1.46-1.39Z"></path>
 &nbsp; &nbsp; &nbsp;<path class="cls-2" d="M825.61,200.25c-.9,3.12-2.08,6.65-2.77,9.21h-26.12v-1.66c3.81-3.74,7.97-7.83,11.36-11.78,4.37-5.13,8.52-10.67,8.52-16.7s-3.05-9.08-8.1-9.08c-4.78,0-7.76,3.74-9.56,6.44l-1.6-1.46,3.95-5.61c2.15-2.42,5.48-4.16,9.49-4.16,6.58,0,11.78,4.5,11.78,11.99,0,5.89-2.15,10.05-8.73,16.77-2.98,3.12-7.34,7.34-10.33,10.18h13.24c3.74,0,4.78-.35,7.14-4.71l1.73.55Z"></path>
 &nbsp; &nbsp; &nbsp;<path class="cls-2" d="M840.58,165.46c5.13,0,9.49,3.67,9.49,9.56s-4.57,9.7-9.49,9.7c-5.2,0-9.56-3.67-9.56-9.7,0-5.68,4.36-9.56,9.56-9.56ZM840.58,168.58c-3.6,0-5.75,2.7-5.75,6.44s2.42,6.51,5.75,6.51,5.68-2.42,5.68-6.37-2.36-6.58-5.68-6.58Z"></path>
 &nbsp; &nbsp;</g>
 &nbsp; &nbsp;<path class="cls-2" d="M806.51,413.77c-1.35.29-2.61.65-3.87,1.14-12.02,4.28-20.79,15.41-21.6,28.65-.04.65-.08,1.35-.08,2.04s.04,1.39.08,2.04h4.12c-.08-.69-.12-1.35-.12-2.04s.04-1.35.12-2.04c.77-11.37,8.27-20.95,18.59-24.74,1.22-.49,2.53-.86,3.87-1.14l-1.1-3.91Z"></path>
 &nbsp; &nbsp;<path class="cls-2" d="M678.89,443.56c-.82-13.29-9.62-24.46-21.73-28.7-1.26-.45-2.53-.86-3.87-1.14l-1.14,3.91c1.34.29,2.65.65,3.87,1.14,10.39,3.71,17.98,13.33,18.75,24.78.08.69.12,1.35.12,2.04s-.04,1.35-.12,2.04h4.12c.04-.65.08-1.35.08-2.04s-.04-1.39-.08-2.04Z"></path>
 &nbsp; &nbsp;<rect class="cls-2" x="681.81" y="295.41" width="4.07" height="38.06" transform="translate(193.11 885.14) rotate(-74)"></rect>
 &nbsp; &nbsp;<rect class="cls-2" x="756.97" y="312.4" width="38.06" height="4.07" transform="translate(-56.6 225.95) rotate(-15.99)"></rect>
 &nbsp; &nbsp;<path class="cls-3" d="M807.61,417.68l-1.1-3.91-65.67-228.06-1.14-3.95-9.82-34.12-9.82,34.12-1.14,3.95-65.63,228.02-1.14,3.91-8.64,30h172.74l-8.64-29.96ZM648.89,443.56l7.13-24.78,1.14-3.91,65.67-228.02,1.14-3.91,5.91-20.54,5.91,20.54,1.14,3.91,65.71,228.06,1.1,3.91,7.13,24.74h-161.98Z"></path>
 &nbsp; &nbsp;<g>
 &nbsp; &nbsp; &nbsp;<path class="cls-2" d="M749.99,235.49c-3.32,0-6.62-.54-9.75-1.69-2.79-1.02-5.33-2.51-7.56-4.43l2.66-3.09c1.85,1.6,3.97,2.84,6.3,3.69,10.28,3.77,25.82-.28,32.58-12.29l3.55,2c-5.51,9.8-16.73,15.81-27.78,15.81Z"></path>
 &nbsp; &nbsp; &nbsp;<polygon class="cls-2" points="726.27 212.38 729.64 238.45 735.43 228.52 746.93 228.63 726.27 212.38"></polygon>
 &nbsp; &nbsp;</g>
 &nbsp;</g>
</svg>