<!--?xml version="1.0" encoding="UTF-8"?-->
<svg id="Layer_1" xmlns="http://www.w3.org/2000/svg" viewBox="0 0 1460 595.28">
 &nbsp;<defs>
 &nbsp; &nbsp;<style>
 &nbsp; &nbsp; &nbsp;.cls-1 {
 &nbsp; &nbsp; &nbsp; &nbsp;fill: none;
 &nbsp; &nbsp; &nbsp;}

 &nbsp; &nbsp; &nbsp;.cls-2 {
 &nbsp; &nbsp; &nbsp; &nbsp;fill: currentColor;
 &nbsp; &nbsp; &nbsp;}
 &nbsp; &nbsp;</style>
 &nbsp;</defs>
 &nbsp;<rect class="cls-1" width="1460" height="595.28"></rect>
 &nbsp;<path class="cls-2" d="M713.84,425.68c2.75-4.28,5.57-6.65,7.61-6.65,1.79,0,3.01,2.04,4.48,6.97l.96,3.39c5.56-7.67,8.31-10.36,11.19-10.36,1.85,0,2.75,1.34,2.69,2.75,0,.9-.7,2.5-1.53,3.07-.58.45-.96.57-1.35.51-.7-.13-1.41-1.73-2.36-1.73-1.41,0-3.84,2.56-7.93,8.18l2.11,6.52c1.21,3.84,2.18,5.76,3.26,5.76,1.02,0,2.17-.77,4.67-3.77l1.15,1.47c-2.75,4.35-5.88,6.84-8.18,6.84-1.73,0-3.13-2.11-4.67-6.9l-1.72-5.56c-6.27,9.01-9.01,12.47-11.89,12.47-1.66,0-2.82-1.22-2.82-3.01.06-1.85,1.6-3.84,2.82-3.84.89,0,1.47,1.73,2.37,1.73,1.15,0,3.2-1.98,8.82-9.78l-1.73-5.63c-1.09-3.45-1.66-4.67-2.56-4.67-.64,0-1.92.64-4.09,3.64l-1.28-1.4Z"></path>
 &nbsp;<path class="cls-2" d="M517.05,257.14c1.85-1.98,4.67-3.45,8.38-3.45,5.62,0,8.5,4.16,8.5,7.8,0,4.8-3.52,7.16-7.67,9.53,4.22,1.22,7.61,4.35,7.61,9.02,0,8.5-10.29,15.03-18.22,15.03-4.54,0-7.67-2.69-7.67-4.41,0-1.41,1.41-2.94,2.3-2.94.51,0,1.02.38,1.73.96,2.3,2.11,4.28,3.32,7.03,3.32,5.18,0,9.14-3.26,9.14-9.97.07-5.5-3.26-7.99-7.16-7.99-1.53,0-2.94.32-3.77.58l-.32-1.79c7.42-2.04,11.7-4.99,11.7-9.85,0-3.32-1.85-5.43-5.31-5.43-3.65,0-6.33,2.43-8.12,4.73l-1.34-1.41,3.2-3.71Z"></path>
 &nbsp;<path class="cls-2" d="M804.89,213.09h-14.64l-3.71,11.76c3.26-.96,5.44-1.47,6.78-1.47,7.22,0,10.93,4.93,10.93,10.1s-2.94,9.59-8.06,12.79c-3.2,1.98-6.97,2.81-9.84,2.81-4.92,0-7.99-2.62-7.99-4.48,0-1.34,1.28-2.81,2.24-2.88.58-.06,1.15.32,2.3,1.41,1.92,1.79,3.96,3.01,6.65,3.01,4.73,0,9.34-3.39,9.34-10.62.06-5.05-2.69-8.76-9.08-8.76-2.49,0-5.05.77-6.01,1.09l-.45-.51,5.76-18.86h17.65l-1.85,4.6Z"></path>
 &nbsp;<path class="cls-2" d="M950.75,384.7h-396.81v-237.71l396.81,237.71ZM560.33,378.31h367.31l-367.31-220.04v220.04Z"></path>
 &nbsp;<path class="cls-2" d="M597.68,383.1h-42.15v-42.15h42.15v42.15ZM558.73,379.9h35.76v-35.76h-35.76v35.76Z"></path>
</svg>