<!--?xml version="1.0" encoding="UTF-8"?-->
<svg id="Layer_1" xmlns="http://www.w3.org/2000/svg" viewBox="0 0 1460 595.28">
 &nbsp;<defs>
 &nbsp; &nbsp;<style>
 &nbsp; &nbsp; &nbsp;.cls-1 {
 &nbsp; &nbsp; &nbsp; &nbsp;fill: none;
 &nbsp; &nbsp; &nbsp;}

 &nbsp; &nbsp; &nbsp;.cls-2 {
 &nbsp; &nbsp; &nbsp; &nbsp;fill: currentColor;
 &nbsp; &nbsp; &nbsp;}
 &nbsp; &nbsp;</style>
 &nbsp;</defs>
 &nbsp;<rect class="cls-1" width="1460" height="595.28"></rect>
 &nbsp;<g>
 &nbsp; &nbsp;<g>
 &nbsp; &nbsp; &nbsp;<path class="cls-2" d="M752.71,215.8v3.91c0,3.4.2,3.65,3.86,4.01v1.44h-12.04v-1.44c3.86-.36,4.12-.67,4.12-4.07v-3.86h-13.59v-1.54c4.89-6.95,10.19-14.46,15.34-21.61h2.31v20.68h5.04v2.47h-5.04ZM748.64,198.05c-3.24,4.73-6.85,9.98-10.4,15.28h10.4v-15.28Z"></path>
 &nbsp; &nbsp; &nbsp;<path class="cls-2" d="M779.98,193.11l.31.42-1.34,3.4h-11.83c-.46,2.83-1.13,6.84-1.59,9.36,1.95-.72,4.78-1.49,6.07-1.49,6.33,0,9.67,4.48,9.67,8.74,0,3.09-1.29,6.07-4.43,8.64-2.83,2.26-6.38,3.6-9.11,3.6-2.42,0-4.32-.98-5.35-2.01-.72-.66-.92-1.08-.82-1.75,0-.46.41-1.23,1.08-1.75.46-.31.92-.41,1.44,0,1.49,1.34,3.29,2.83,6.48,2.83,4.32,0,6.39-3.71,6.39-7.56,0-4.53-2.73-7.77-8.44-7.77-2.11,0-3.81.46-5.15.92l-.15-.2c.77-4.01,1.9-11.27,2.47-15.39h14.3Z"></path>
 &nbsp; &nbsp; &nbsp;<path class="cls-2" d="M793.2,192.49c3.81,0,7.05,2.73,7.05,7.1s-3.4,7.2-7.05,7.2c-3.86,0-7.1-2.73-7.1-7.2,0-4.22,3.24-7.1,7.1-7.1ZM793.2,194.81c-2.67,0-4.27,2-4.27,4.78s1.8,4.84,4.27,4.84,4.22-1.8,4.22-4.74-1.75-4.88-4.22-4.88Z"></path>
 &nbsp; &nbsp;</g>
 &nbsp; &nbsp;<g>
 &nbsp; &nbsp; &nbsp;<path class="cls-2" d="M794.84,272.4v3.91c0,3.4.21,3.65,3.86,4.01v1.44h-12.04v-1.44c3.86-.36,4.11-.67,4.11-4.06v-3.86h-13.58v-1.54c4.88-6.95,10.18-14.46,15.33-21.61h2.32v20.68h5.04v2.47h-5.04ZM790.77,254.64c-3.24,4.73-6.84,9.98-10.39,15.28h10.39v-15.28Z"></path>
 &nbsp; &nbsp; &nbsp;<path class="cls-2" d="M822.11,249.7l.31.41-1.33,3.4h-11.84c-.46,2.83-1.13,6.84-1.59,9.36,1.96-.72,4.79-1.49,6.07-1.49,6.33,0,9.67,4.48,9.67,8.75,0,3.09-1.29,6.07-4.42,8.64-2.83,2.26-6.38,3.6-9.11,3.6-2.42,0-4.32-.98-5.35-2.01-.72-.67-.93-1.08-.82-1.75,0-.46.41-1.24,1.08-1.75.46-.31.93-.41,1.44,0,1.49,1.34,3.3,2.83,6.49,2.83,4.32,0,6.38-3.71,6.38-7.56,0-4.53-2.73-7.77-8.44-7.77-2.11,0-3.81.46-5.15.92l-.15-.2c.77-4.01,1.9-11.27,2.47-15.39h14.3Z"></path>
 &nbsp; &nbsp; &nbsp;<path class="cls-2" d="M835.34,249.09c3.81,0,7.05,2.73,7.05,7.1s-3.4,7.21-7.05,7.21c-3.86,0-7.1-2.73-7.1-7.21,0-4.22,3.24-7.1,7.1-7.1ZM835.34,251.4c-2.68,0-4.27,2.01-4.27,4.78s1.8,4.84,4.27,4.84,4.22-1.8,4.22-4.73-1.75-4.89-4.22-4.89Z"></path>
 &nbsp; &nbsp;</g>
 &nbsp; &nbsp;<g>
 &nbsp; &nbsp; &nbsp;<path class="cls-2" d="M673.23,395.73v3.91c0,3.4.2,3.65,3.86,4.01v1.44h-12.04v-1.44c3.86-.36,4.12-.67,4.12-4.06v-3.86h-13.58v-1.54c4.89-6.95,10.19-14.46,15.33-21.61h2.32v20.68h5.04v2.47h-5.04ZM669.16,377.98c-3.24,4.73-6.84,9.98-10.39,15.28h10.39v-15.28Z"></path>
 &nbsp; &nbsp; &nbsp;<path class="cls-2" d="M700.5,373.04l.31.41-1.34,3.4h-11.84c-.46,2.83-1.13,6.84-1.59,9.36,1.96-.72,4.79-1.49,6.07-1.49,6.33,0,9.67,4.48,9.67,8.75,0,3.09-1.29,6.07-4.43,8.64-2.83,2.26-6.38,3.6-9.11,3.6-2.42,0-4.32-.98-5.35-2.01-.72-.67-.92-1.08-.82-1.75,0-.46.41-1.24,1.08-1.75.46-.31.93-.41,1.44,0,1.49,1.34,3.29,2.83,6.48,2.83,4.32,0,6.38-3.71,6.38-7.56,0-4.53-2.73-7.77-8.44-7.77-2.11,0-3.81.46-5.15.92l-.15-.2c.77-4.01,1.9-11.27,2.47-15.39h14.3Z"></path>
 &nbsp; &nbsp; &nbsp;<path class="cls-2" d="M713.72,372.42c3.81,0,7.05,2.73,7.05,7.1s-3.4,7.21-7.05,7.21c-3.86,0-7.1-2.73-7.1-7.21,0-4.22,3.24-7.1,7.1-7.1ZM713.72,374.74c-2.67,0-4.27,2.01-4.27,4.78s1.8,4.84,4.27,4.84,4.22-1.8,4.22-4.73-1.75-4.89-4.22-4.89Z"></path>
 &nbsp; &nbsp;</g>
 &nbsp; &nbsp;<g>
 &nbsp; &nbsp; &nbsp;<path class="cls-2" d="M638.44,337.29v3.91c0,3.4.2,3.65,3.86,4.01v1.44h-12.04v-1.44c3.86-.36,4.12-.67,4.12-4.06v-3.86h-13.58v-1.54c4.89-6.95,10.19-14.46,15.33-21.61h2.32v20.68h5.04v2.47h-5.04ZM634.37,319.53c-3.24,4.73-6.84,9.98-10.39,15.28h10.39v-15.28Z"></path>
 &nbsp; &nbsp; &nbsp;<path class="cls-2" d="M665.71,314.59l.31.41-1.34,3.4h-11.84c-.46,2.83-1.13,6.84-1.59,9.36,1.96-.72,4.78-1.49,6.07-1.49,6.33,0,9.67,4.48,9.67,8.75,0,3.09-1.29,6.07-4.43,8.64-2.83,2.26-6.38,3.6-9.11,3.6-2.42,0-4.32-.98-5.35-2.01-.72-.67-.93-1.08-.82-1.75,0-.46.41-1.24,1.08-1.75.46-.31.92-.41,1.44,0,1.49,1.34,3.29,2.83,6.48,2.83,4.32,0,6.38-3.71,6.38-7.56,0-4.53-2.73-7.77-8.44-7.77-2.11,0-3.81.46-5.15.92l-.15-.2c.77-4.01,1.9-11.27,2.47-15.39h14.3Z"></path>
 &nbsp; &nbsp; &nbsp;<path class="cls-2" d="M678.93,313.98c3.81,0,7.05,2.73,7.05,7.1s-3.4,7.21-7.05,7.21c-3.86,0-7.1-2.73-7.1-7.21,0-4.22,3.24-7.1,7.1-7.1ZM678.93,316.29c-2.68,0-4.27,2.01-4.27,4.78s1.8,4.84,4.27,4.84,4.22-1.8,4.22-4.73-1.75-4.89-4.22-4.89Z"></path>
 &nbsp; &nbsp;</g>
 &nbsp; &nbsp;<path class="cls-2" d="M846.29,385.32v27.44h-27.44v-27.44h27.44M849.72,381.89h-34.3v34.3h34.3v-34.3h0Z"></path>
 &nbsp; &nbsp;<path class="cls-2" d="M640.46,179.49v27.44h-27.44v-27.44h27.44M643.89,176.06h-34.3v34.3h34.3v-34.3h0Z"></path>
 &nbsp; &nbsp;<path class="cls-2" d="M867.64,288.89c2.95-4.6,5.97-7.14,8.17-7.14,1.92,0,3.23,2.19,4.8,7.48l1.03,3.63c5.97-8.23,8.92-11.12,12.01-11.12,1.99,0,2.95,1.44,2.88,2.95,0,.96-.75,2.68-1.64,3.29-.62.48-1.03.62-1.44.55-.75-.14-1.51-1.85-2.54-1.85-1.51,0-4.12,2.74-8.51,8.78l2.26,7c1.31,4.12,2.33,6.18,3.5,6.18,1.1,0,2.33-.82,5.01-4.05l1.24,1.58c-2.95,4.67-6.31,7.34-8.78,7.34-1.86,0-3.36-2.26-5.01-7.41l-1.85-5.97c-6.72,9.67-9.67,13.38-12.76,13.38-1.79,0-3.02-1.3-3.02-3.23.07-1.99,1.72-4.12,3.02-4.12.96,0,1.58,1.85,2.54,1.85,1.24,0,3.43-2.13,9.47-10.5l-1.86-6.04c-1.17-3.71-1.78-5.01-2.74-5.01-.69,0-2.06.69-4.4,3.91l-1.37-1.51Z"></path>
 &nbsp; &nbsp;<path class="cls-2" d="M568.14,288.89c2.95-4.6,5.97-7.14,8.17-7.14,1.92,0,3.22,2.19,4.8,7.48l1.03,3.64c5.97-8.23,8.92-11.12,12.01-11.12,1.99,0,2.95,1.44,2.88,2.95,0,.96-.76,2.68-1.65,3.3-.62.48-1.03.62-1.44.55-.75-.14-1.51-1.86-2.54-1.86-1.51,0-4.11,2.75-8.51,8.78l2.26,7c1.31,4.12,2.33,6.18,3.5,6.18,1.1,0,2.33-.82,5.01-4.05l1.24,1.58c-2.95,4.67-6.31,7.34-8.78,7.34-1.85,0-3.36-2.26-5.01-7.41l-1.86-5.97c-6.72,9.67-9.67,13.38-12.76,13.38-1.78,0-3.02-1.31-3.02-3.23.07-1.99,1.72-4.12,3.02-4.12.96,0,1.58,1.85,2.54,1.85,1.24,0,3.43-2.13,9.47-10.5l-1.86-6.04c-1.17-3.71-1.78-5.01-2.74-5.01-.69,0-2.06.69-4.39,3.91l-1.37-1.51Z"></path>
 &nbsp; &nbsp;<path class="cls-2" d="M853.15,419.63h-246.99v-246.99h246.99v246.99ZM613.02,412.77h233.27v-233.27h-233.27v233.27Z"></path>
 &nbsp; &nbsp;<path class="cls-2" d="M717.89,143.27c2.95-4.6,5.97-7.14,8.16-7.14,1.92,0,3.23,2.2,4.8,7.48l1.03,3.64c5.97-8.23,8.92-11.12,12.01-11.12,1.99,0,2.95,1.44,2.88,2.95,0,.96-.76,2.68-1.65,3.29-.62.48-1.03.62-1.44.55-.76-.14-1.51-1.85-2.54-1.85-1.51,0-4.12,2.75-8.51,8.78l2.26,7c1.3,4.12,2.33,6.17,3.5,6.17,1.1,0,2.33-.82,5.01-4.05l1.23,1.58c-2.95,4.67-6.31,7.34-8.78,7.34-1.85,0-3.36-2.26-5.01-7.41l-1.85-5.97c-6.73,9.67-9.67,13.38-12.76,13.38-1.78,0-3.02-1.31-3.02-3.23.07-1.99,1.72-4.12,3.02-4.12.96,0,1.58,1.85,2.54,1.85,1.23,0,3.43-2.13,9.47-10.5l-1.85-6.04c-1.17-3.71-1.79-5.01-2.75-5.01-.68,0-2.06.69-4.39,3.91l-1.37-1.51Z"></path>
 &nbsp; &nbsp;<path class="cls-2" d="M717.89,434.51c2.95-4.6,5.97-7.14,8.16-7.14,1.92,0,3.23,2.19,4.8,7.48l1.03,3.64c5.97-8.23,8.92-11.12,12.01-11.12,1.99,0,2.95,1.44,2.88,2.95,0,.96-.75,2.68-1.64,3.29-.62.48-1.03.62-1.44.55-.75-.14-1.51-1.85-2.54-1.85-1.51,0-4.12,2.75-8.51,8.78l2.26,7c1.3,4.11,2.33,6.17,3.5,6.17,1.1,0,2.33-.82,5.01-4.05l1.23,1.58c-2.95,4.66-6.31,7.34-8.78,7.34-1.85,0-3.36-2.26-5.01-7.41l-1.85-5.97c-6.73,9.67-9.67,13.38-12.76,13.38-1.79,0-3.02-1.31-3.02-3.23.07-1.99,1.72-4.11,3.02-4.11.96,0,1.57,1.85,2.54,1.85,1.23,0,3.43-2.12,9.47-10.5l-1.85-6.04c-1.17-3.71-1.79-5.01-2.74-5.01-.69,0-2.06.69-4.39,3.91l-1.37-1.51Z"></path>
 &nbsp; &nbsp;<g>
 &nbsp; &nbsp; &nbsp;<rect class="cls-2" x="608.33" y="411.45" width="8.58" height="3.43" transform="translate(-112.72 554.2) rotate(-45)"></rect>
 &nbsp; &nbsp; &nbsp;<path class="cls-2" d="M628.86,399.34l-2.43-2.43,12-12,2.43,2.43-12,12ZM652.86,375.34l-2.43-2.43,12-12,2.43,2.43-12,12ZM676.86,351.34l-2.43-2.43,12-12,2.43,2.43-12,12ZM700.87,327.34l-2.43-2.43,12-12,2.43,2.43-12,12ZM724.87,303.34l-2.43-2.43,12-12,2.43,2.43-12,12ZM748.87,279.34l-2.43-2.43,12-12,2.43,2.43-12,12ZM772.87,255.34l-2.43-2.43,12-12,2.43,2.43-12,12ZM796.87,231.34l-2.43-2.43,12-12,2.43,2.43-12,12ZM820.87,207.34l-2.43-2.43,12-12,2.43,2.43-12,12Z"></path>
 &nbsp; &nbsp; &nbsp;<rect class="cls-2" x="842.4" y="177.38" width="8.58" height="3.43" transform="translate(121.35 651.16) rotate(-45)"></rect>
 &nbsp; &nbsp;</g>
 &nbsp;</g>
</svg>