<!--?xml version="1.0" encoding="UTF-8"?-->
<svg id="Layer_1" xmlns="http://www.w3.org/2000/svg" viewBox="0 0 1460 846.37">
 &nbsp;<defs>
 &nbsp; &nbsp;<style>
 &nbsp; &nbsp; &nbsp;.cls-1 {
 &nbsp; &nbsp; &nbsp; &nbsp;fill: none;
 &nbsp; &nbsp; &nbsp;}

 &nbsp; &nbsp; &nbsp;.cls-2 {
 &nbsp; &nbsp; &nbsp; &nbsp;fill: currentColor;
 &nbsp; &nbsp; &nbsp;}
 &nbsp; &nbsp;</style>
 &nbsp;</defs>
 &nbsp;<rect class="cls-1" y="128.75" width="1460" height="595.28"></rect>
 &nbsp;<g>
 &nbsp; &nbsp;<path class="cls-2" d="M409.02,34.66h-12.76l.26-1.46c3.77-.42,4.18-.89,3.92-3.14-.26-2.14-.68-4.76-1.15-7.79h-10.98c-.89,1.67-2.67,4.71-3.87,7.06-1.62,3.09-.84,3.45,3.19,3.87l-.32,1.46h-11.97l.37-1.46c3.35-.42,4.03-.73,6.59-5.02L398.36.26l1.72-.26c2.3,15.37,3.45,22.38,4.5,28.7.58,3.66.99,4.13,4.81,4.5l-.36,1.46ZM397,6.59h-.11c-2.66,4.86-5.33,9.62-7.48,13.59h9.57l-1.99-13.59Z"></path>
 &nbsp; &nbsp;<path class="cls-2" d="M402.02,731.63c2.51,0,4.86,0,6.8-.05-.31,1.26-.89,4.86-1.36,7.95l-1.62.05c-.21-5.44-1.1-5.96-4.5-5.96h-5.17c-1.73,0-2.2.1-2.56,2.09l-2.2,11.24h5.38c4.29,0,4.5-.63,5.96-4.29h1.57l-2.14,10.82h-1.57c0-4.03.15-4.55-4.29-4.55h-5.28l-1.83,9.31c-.78,3.71-.68,5.39,3.04,5.39h3.86c3.09,0,4.45-.31,5.91-1.67,1.26-1.15,2.46-2.93,3.45-4.81l1.52.52c-.53,1.46-2.3,6.33-2.98,7.95h-25.46l.37-1.46c4.6-.47,5.02-.63,5.8-4.81l4.13-21.38c.79-4.03.53-4.5-4.02-4.86l.31-1.46h16.89Z"></path>
 &nbsp; &nbsp;<g>
 &nbsp; &nbsp; &nbsp;<path class="cls-2" d="M673.07,271.73v-1.46c5.8-.37,6.12-.63,6.12-4.55v-20.08c0-2.67-.37-2.77-2.67-2.98l-2.56-.26v-1.31c3.45-.58,6.9-1.41,9.57-2.56v27.19c0,3.97.31,4.18,6.17,4.55v1.46h-16.62Z"></path>
 &nbsp; &nbsp; &nbsp;<path class="cls-2" d="M706.79,238.53c5.02,0,8.52,3.5,8.52,7.74,0,1.57-.47,3.09-1.46,4.23-.47.52-2.04,1.67-4.34,3.35,3.61,1.99,7.16,4.5,7.16,9.05,0,6.12-5.54,9.46-10.51,9.46-5.8,0-10.09-3.35-10.09-8.63,0-2.67,1.15-4.13,2.41-5.18.83-.73,2.87-2.09,4.7-3.24-3.4-1.99-5.8-4.49-5.8-8.21,0-4.55,3.71-8.57,9.41-8.57ZM706.79,270.58c3.5,0,5.65-2.3,5.65-6.12,0-4.18-3.5-6.22-7.74-8.26-2.82,1.62-4.39,4.08-4.39,7.16,0,4.81,3.03,7.21,6.48,7.21ZM706.11,240.25c-3.14,0-4.76,2.46-4.76,5.39,0,3.82,2.56,5.23,6.64,7.37,2.04-1.57,3.45-3.4,3.45-6.48,0-4.39-2.61-6.27-5.33-6.27Z"></path>
 &nbsp; &nbsp; &nbsp;<path class="cls-2" d="M731.79,238.53c7.84,0,10.77,8.79,10.77,16.89,0,7.63-2.93,16.94-10.77,16.94s-10.93-8.63-10.93-16.89c0-7.63,2.98-16.94,10.93-16.94ZM731.79,240.36c-4.86,0-6.07,7.69-6.07,15.01s1.46,15.16,6.07,15.16,5.96-7.79,5.96-15.11-1.3-15.06-5.96-15.06Z"></path>
 &nbsp; &nbsp; &nbsp;<path class="cls-2" d="M757.14,238.53c7.84,0,10.77,8.79,10.77,16.89,0,7.63-2.93,16.94-10.77,16.94s-10.92-8.63-10.92-16.89c0-7.63,2.98-16.94,10.92-16.94ZM757.14,240.36c-4.86,0-6.06,7.69-6.06,15.01s1.46,15.16,6.06,15.16,5.96-7.79,5.96-15.11-1.31-15.06-5.96-15.06Z"></path>
 &nbsp; &nbsp;</g>
 &nbsp; &nbsp;<g>
 &nbsp; &nbsp; &nbsp;<path class="cls-2" d="M1050.71,444.59c-5.02,10.61-9.88,21.18-14.95,32l-3.77.37-.37-.58c5.44-8.84,11.19-19.66,15.32-28.6h-11.19c-3.4,0-3.61.47-5.02,3.92h-1.62c.52-2.93.73-5.54.99-7.79h20.29l.32.68Z"></path>
 &nbsp; &nbsp; &nbsp;<path class="cls-2" d="M1064.78,443.28c7.84,0,10.77,8.79,10.77,16.89,0,7.63-2.93,16.94-10.77,16.94s-10.93-8.63-10.93-16.89c0-7.63,2.98-16.94,10.93-16.94ZM1064.78,445.11c-4.86,0-6.06,7.69-6.06,15.01s1.46,15.16,6.06,15.16,5.96-7.79,5.96-15.11-1.31-15.06-5.96-15.06Z"></path>
 &nbsp; &nbsp; &nbsp;<path class="cls-2" d="M1090.14,443.28c7.84,0,10.77,8.79,10.77,16.89,0,7.63-2.93,16.94-10.77,16.94s-10.93-8.63-10.93-16.89c0-7.63,2.98-16.94,10.93-16.94ZM1090.14,445.11c-4.86,0-6.06,7.69-6.06,15.01s1.46,15.16,6.06,15.16,5.96-7.79,5.96-15.11-1.31-15.06-5.96-15.06Z"></path>
 &nbsp; &nbsp;</g>
 &nbsp; &nbsp;<g>
 &nbsp; &nbsp; &nbsp;<path class="cls-2" d="M684.46,680.87v-1.46c5.8-.37,6.12-.63,6.12-4.55v-20.08c0-2.67-.36-2.77-2.67-2.98l-2.56-.26v-1.31c3.45-.58,6.9-1.41,9.57-2.56v27.19c0,3.97.31,4.18,6.17,4.55v1.46h-16.63Z"></path>
 &nbsp; &nbsp; &nbsp;<path class="cls-2" d="M724.09,671.36v3.97c0,3.45.21,3.71,3.92,4.08v1.46h-12.23v-1.46c3.92-.37,4.18-.68,4.18-4.13v-3.92h-13.8v-1.57c4.97-7.06,10.35-14.69,15.58-21.96h2.35v21.02h5.12v2.51h-5.12ZM719.96,653.32c-3.29,4.81-6.95,10.14-10.56,15.53h10.56v-15.53Z"></path>
 &nbsp; &nbsp; &nbsp;<path class="cls-2" d="M743.18,647.67c7.84,0,10.77,8.79,10.77,16.89,0,7.63-2.93,16.94-10.77,16.94s-10.93-8.63-10.93-16.89c0-7.63,2.98-16.94,10.93-16.94ZM743.18,649.5c-4.86,0-6.06,7.69-6.06,15.01s1.46,15.16,6.06,15.16,5.96-7.79,5.96-15.11-1.31-15.06-5.96-15.06Z"></path>
 &nbsp; &nbsp; &nbsp;<path class="cls-2" d="M768.54,647.67c7.84,0,10.77,8.79,10.77,16.89,0,7.63-2.93,16.94-10.77,16.94s-10.93-8.63-10.93-16.89c0-7.63,2.98-16.94,10.93-16.94ZM768.54,649.5c-4.86,0-6.06,7.69-6.06,15.01s1.46,15.16,6.06,15.16,5.96-7.79,5.96-15.11-1.31-15.06-5.96-15.06Z"></path>
 &nbsp; &nbsp;</g>
 &nbsp; &nbsp;<g>
 &nbsp; &nbsp; &nbsp;<path class="cls-2" d="M266.09,419.96c2.25-3.5,4.55-5.44,6.22-5.44,1.46,0,2.46,1.67,3.66,5.7l.78,2.77c4.55-6.27,6.8-8.47,9.15-8.47,1.52,0,2.25,1.1,2.2,2.25,0,.73-.58,2.04-1.26,2.51-.47.36-.78.47-1.1.42-.58-.1-1.15-1.41-1.93-1.41-1.15,0-3.14,2.09-6.48,6.69l1.73,5.33c.99,3.14,1.78,4.71,2.67,4.71.84,0,1.78-.63,3.82-3.08l.94,1.2c-2.25,3.55-4.81,5.59-6.69,5.59-1.41,0-2.56-1.73-3.82-5.65l-1.41-4.55c-5.12,7.37-7.37,10.19-9.72,10.19-1.36,0-2.3-.99-2.3-2.46.05-1.52,1.31-3.14,2.3-3.14.73,0,1.2,1.41,1.93,1.41.94,0,2.61-1.62,7.22-8l-1.41-4.6c-.89-2.82-1.36-3.82-2.09-3.82-.52,0-1.57.52-3.35,2.98l-1.05-1.15Z"></path>
 &nbsp; &nbsp; &nbsp;<path class="cls-2" d="M304.89,415.15v-1.41c0-3.77,1.31-7.63,4.6-10.46,1.83-1.62,3.82-2.51,5.86-2.77,1.78.05,3.4.68,4.23,1.67.47.58.58,1.1.31,1.83-.16.52-.73,1.26-1.25,1.67-.58.36-.99.26-1.52-.11-1.04-.94-2.51-2.14-4.23-2.14-3.87,0-3.87,5.28-3.87,9.25v2.46h5.54c.32.47.05,1.78-.52,2.14h-5.02v15.11c0,3.77.58,3.82,4.5,4.24v1.46h-12.29v-1.46c3.29-.32,3.66-.52,3.66-3.92v-15.42h-3.71l-.21-.58,1.15-1.57h2.77Z"></path>
 &nbsp; &nbsp; &nbsp;<path class="cls-2" d="M335.53,433.66c-3.35,4.18-7,5.07-8.68,5.07-6.38,0-10.25-5.23-10.25-11.24,0-3.55,1.26-6.85,3.4-9.15,2.2-2.46,5.07-3.81,7.79-3.81,4.55,0,8,3.92,8,8.1-.05,1.04-.21,1.52-1.05,1.72-1.04.21-7.74.68-13.96.89-.16,7,4.13,9.88,7.84,9.88,2.14,0,4.13-.89,6.06-2.67l.84,1.2ZM326.53,416.51c-2.41,0-4.76,2.25-5.49,6.48,2.93,0,5.85,0,8.94-.16.94,0,1.26-.26,1.26-1.04.05-2.77-1.78-5.28-4.71-5.28Z"></path>
 &nbsp; &nbsp; &nbsp;<path class="cls-2" d="M358.58,433.66c-3.35,4.18-7,5.07-8.68,5.07-6.38,0-10.25-5.23-10.25-11.24,0-3.55,1.26-6.85,3.4-9.15,2.2-2.46,5.07-3.81,7.79-3.81,4.55,0,8,3.92,8,8.1-.05,1.04-.21,1.52-1.05,1.72-1.04.21-7.74.68-13.96.89-.16,7,4.13,9.88,7.84,9.88,2.14,0,4.13-.89,6.06-2.67l.84,1.2ZM349.59,416.51c-2.41,0-4.76,2.25-5.49,6.48,2.93,0,5.85,0,8.94-.16.94,0,1.26-.26,1.26-1.04.05-2.77-1.78-5.28-4.71-5.28Z"></path>
 &nbsp; &nbsp; &nbsp;<path class="cls-2" d="M372.55,438.05c-.89.47-1.73.68-2.25.68-3.35,0-5.12-2.04-5.12-6.22v-15.22h-3.61l-.21-.63,1.41-1.52h2.41v-4.39c.99-1.04,2.51-2.4,3.5-3.45l.78.1c-.1,2.2-.16,5.23-.16,7.74h5.96c.47.52.31,1.67-.32,2.14h-5.65v13.38c0,4.23,1.67,5.02,3.03,5.02,1.25,0,2.46-.47,3.19-.84l.47,1.36-3.45,1.83Z"></path>
 &nbsp; &nbsp;</g>
 &nbsp; &nbsp;<path class="cls-2" d="M1239.6,414.09c10.04,0,16.36,5.02,16.36,14.38,0,6.64-2.98,12.49-8.36,15.84-4.45,2.83-8.1,3.77-14.48,3.77h-13.07l.36-1.46c4.23-.37,4.71-.84,5.44-4.86l4.13-21.28c.79-4.13.63-4.55-4.03-4.92l.37-1.46h13.28ZM1230.29,441.28c-.84,4.39,1.88,4.86,4.91,4.86,10.72,0,15.89-8.42,15.89-17.93,0-8.1-4.23-12.29-11.92-12.29-3.08,0-4.08.26-4.6,3.09l-4.29,22.27Z"></path>
 &nbsp; &nbsp;<path class="cls-2" d="M1250.63,837.74c-.68,2.09-2.4,6.12-3.29,7.53-1.57.21-4.86,1.1-8.62,1.1-8.99,0-15.48-5.54-15.48-15.11,0-12.34,9.62-20.39,21.33-20.39,4.39,0,7.21.73,9.1,1.26-.37,1.78-.78,5.28-1.05,7.9l-1.62.1c-.1-6.12-2.66-7.37-7.58-7.37-8.94,0-15.16,8.68-15.16,18.46,0,7.89,3.87,13.23,10.87,13.23,5.12,0,7.53-3.03,10.09-7.37l1.41.68Z"></path>
 &nbsp; &nbsp;<path class="cls-2" d="M955.38,481.4c6.12,0,10.15,2.14,10.15,7.27,0,4.45-3.61,7.32-8.05,8.31,3.87.94,7.43,3.56,7.43,8.05,0,6.43-6.12,10.35-14.22,10.35h-13.91l.31-1.46c4.13-.37,4.7-.63,5.54-4.81l4.24-21.8c.68-3.77.15-4.08-4.13-4.45l.31-1.46h12.34ZM946.86,508.91c-.73,3.87.52,4.65,4.34,4.65,5.18,0,8.94-3.5,8.94-8.57s-4.02-7-8.52-7h-2.67l-2.09,10.93ZM952.4,496.2c6.01,0,8.52-3.24,8.52-7.48s-3.29-5.59-6.23-5.59c-2.09,0-2.93.05-3.4,2.77l-1.98,10.3h3.09Z"></path>
 &nbsp; &nbsp;<path class="cls-2" d="M390.32,714.84V49.26l558.52,499.5-91.78,27.31-466.74,138.77ZM395.4,60.62v647.4l543.28-161.54L395.4,60.62Z"></path>
 &nbsp; &nbsp;<path class="cls-2" d="M1222.17,800.01l-283.5-253.53,283.5-84.31v337.83ZM948.84,548.76l268.25,239.89v-319.67l-268.25,79.77Z"></path>
 &nbsp; &nbsp;<path class="cls-2" d="M336.63,726.08c-3.97,0-7.88-.21-11.74-.62-1.64-.15-3.32-.36-4.97-.63-47.26-7.26-68.68-37.85-77.25-55.45-47.85-98.25-41.35-236.2-32.14-256.78,12.56-28.09,33.67-74.13,36.87-78.08,13.97-17.13,24.01-27.65,31.34-35.33,13.37-14,17.4-18.23,20.67-36.3,4.58-25.39,3.11-46.49,1.55-68.82-1.7-24.36-3.46-49.54,1.71-83.97.16-1.09.35-2.15.6-3.18,1.44-6.29,4.06-11.37,6.44-15.52.53-.91,1.04-1.75,1.52-2.55.78-1.29,1.48-2.45,2.02-3.47l.41-.57c1.75-1.83,4.14-3.98,6.93-6.22,15.6-12.53,41.71-27.08,68.24-30.33,4.11-.47,7.93,2.74,15.57,9.17,3.52,2.96,7.9,6.65,13.5,11.01,11.4,8.82,23.92,19.65,35.25,30.5,3.35,3.2,6.77,6.57,10.16,10.01,3.46,3.51,6.29,6.5,8.93,9.39,5.57,6.04,10.78,12.12,15.48,18.07,12.1,15.27,20.57,29.38,25.18,41.95l.26.7c1.72,4.73,5.73,15.81,15.87,24.48,2.63,2.23,4.46,3.19,7,4.53,2.35,1.24,5.29,2.78,9.68,5.8,15.03,10.39,22.58,15.6,26.31,23.09,6.15,12.29,1.07,25.73-7.33,48-3.6,9.54-6.64,15.43-9.31,20.63-3.5,6.79-6.03,11.7-7.91,21.06-.04.18-2.5,11.05-1.25,26.11.48,5.83,3.44,8.17,8.81,12.4,10.62,8.37,28.39,22.38,41.16,81.12,5.53,25.5-2.3,47.36-12.31,71.27l-2.34-.98,2.34.98c-18.15,43.36-66.68,112.07-130.37,160.48-20.22,15.4-40.29,27.31-59.67,35.4-20.05,8.4-39.24,12.64-57.21,12.64ZM317.56,88.1c-.55,1.01-1.23,2.14-1.98,3.39-.47.78-.96,1.6-1.48,2.47-2.18,3.8-4.59,8.47-5.89,14.12-.22.92-.38,1.84-.52,2.78-5.09,33.88-3.35,58.78-1.67,82.86,1.58,22.66,3.08,44.06-1.62,70.07-3.54,19.57-8.56,24.84-21.99,38.9-7.27,7.62-17.23,18.05-31.07,35.02-2.16,2.69-18.73,37.94-36.18,76.95-7.08,15.83-17.22,151.28,32.07,252.49,8.13,16.7,28.48,45.74,73.46,52.65,1.56.25,3.13.44,4.7.59,20.45,2.21,42.8-1.72,66.47-11.65,18.98-7.93,38.68-19.62,58.55-34.76,62.94-47.84,110.87-115.64,128.76-158.39,9.67-23.1,17.25-44.18,12.03-68.23-12.38-56.96-29.25-70.26-39.34-78.21-5.63-4.43-10.07-7.94-10.73-15.97-1.31-15.91,1.25-27.14,1.35-27.61,2-9.98,4.8-15.42,8.35-22.31,2.61-5.08,5.58-10.83,9.02-19.94,8.24-21.84,12.75-33.79,7.6-44.1-3.15-6.32-10.33-11.28-24.65-21.17-4.14-2.85-6.81-4.25-9.16-5.48-2.61-1.37-4.87-2.56-7.94-5.16-11.16-9.54-15.5-21.5-17.35-26.61l-.25-.68c-4.43-12.06-12.64-25.7-24.4-40.55-4.63-5.85-9.76-11.83-15.24-17.79-2.6-2.86-5.4-5.8-8.81-9.26-3.35-3.4-6.73-6.73-10.05-9.9-11.21-10.73-23.59-21.44-34.85-30.16-5.69-4.42-10.11-8.14-13.66-11.13-5.89-4.96-9.78-8.21-11.69-8.01-25.46,3.12-50.61,17.16-65.67,29.25-2.49,2-4.62,3.9-6.2,5.53Z"></path>
 &nbsp; &nbsp;<path class="cls-2" d="M456.38,692.52c-1.51-5.27-3.73-10.38-6.6-15.2-11.88-20-33.69-32.41-56.92-32.41v-5.08c25.02,0,48.51,13.37,61.29,34.9,3.09,5.19,5.48,10.71,7.11,16.4l-4.88,1.4Z"></path>
 &nbsp; &nbsp;<path class="cls-2" d="M1219.63,534.44c-30.72,0-57.88-19.56-67.59-48.67l4.82-1.61c9.01,27.04,34.24,45.2,62.77,45.2v5.08Z"></path>
 &nbsp; &nbsp;<path class="cls-2" d="M392.86,129.41v-2.54c20.76,0,40.07-8.29,54.38-23.35.93-.97,1.72-1.83,2.41-2.63-11.01-10.48-23.08-20.9-34.09-29.42-5.67-4.41-10.08-8.12-13.62-11.1-6.58-5.54-10.2-8.62-12.65-8.3-25.73,3.16-51.12,17.32-66.31,29.52l-1.59-1.98c15.46-12.42,41.34-26.84,67.6-30.06,3.57-.42,7.24,2.69,14.59,8.88,3.53,2.97,7.92,6.67,13.54,11.04,11.37,8.8,23.85,19.6,35.15,30.41l.85.81-.74.91c-.91,1.11-1.96,2.28-3.29,3.68-14.78,15.56-34.75,24.14-56.21,24.14Z"></path>
 &nbsp; &nbsp;<path class="cls-2" d="M392.86,143.18v-2.54c24.78,0,47.83-9.84,64.89-27.72.68-.7,1.34-1.41,2-2.13-3.09-3.12-6.19-6.17-9.25-9.08-11.24-10.76-23.65-21.5-34.95-30.24-5.67-4.41-10.08-8.12-13.62-11.1-6.58-5.54-10.2-8.62-12.65-8.3-25.73,3.16-51.12,17.32-66.31,29.52-2.59,2.08-4.81,4.07-6.44,5.76-.56,1.04-1.26,2.2-2.04,3.5-.47.78-.97,1.61-1.48,2.49l-2.19-1.28c.52-.89,1.02-1.73,1.5-2.52.79-1.31,1.51-2.49,2.06-3.53l.2-.28c1.71-1.79,4.06-3.91,6.8-6.11,15.46-12.42,41.34-26.84,67.6-30.06,3.53-.42,7.24,2.69,14.59,8.88,3.53,2.97,7.92,6.67,13.54,11.04,11.37,8.8,23.85,19.6,35.15,30.41,3.35,3.19,6.76,6.55,10.14,9.98l.83.84-.78.89c-.93,1.06-1.89,2.09-2.86,3.1-17.54,18.38-41.24,28.5-66.72,28.5Z"></path>
 &nbsp; &nbsp;<path class="cls-2" d="M869.38,571.05l-.35-1.24c-1.92-6.78-2.89-13.84-2.89-20.97,0-19.47,7.24-38.1,20.37-52.44l.85-.93,58.94,52.72-76.92,22.86ZM887.54,499.05c-12.18,13.74-18.87,31.38-18.87,49.8,0,6.47.83,12.86,2.46,19.04l70.08-20.83-53.67-48.01Z"></path>
 &nbsp; &nbsp;<path class="cls-2" d="M1001.4,600.86l-60.19-53.81,76.25-22.67.37,1.2c2.35,7.49,3.54,15.32,3.54,23.26,0,18.82-6.8,36.95-19.14,51.05l-.84.97ZM946.3,548.19l54.87,49.06c11.41-13.49,17.67-30.63,17.67-48.41,0-7.26-1.03-14.42-3.06-21.31l-69.48,20.66Z"></path>
 &nbsp; &nbsp;<path class="cls-2" d="M855.47,575.22l-.36-1.22c-2.5-8.47-3.76-17.26-3.76-26.14,0-22.83,8.4-44.75,23.64-61.73l.85-.94,70.46,63.02-90.83,27.02ZM876.05,488.77c-14.29,16.38-22.15,37.31-22.15,59.08,0,8.21,1.11,16.34,3.3,24.2l12.69-3.8,71.33-21.2-65.17-58.29Z"></path>
 &nbsp; &nbsp;<path class="cls-2" d="M1011.91,610.28l-70.69-63.22,90.69-26.97.36,1.21c2.58,8.58,3.89,17.52,3.89,26.55,0,22.7-8.31,44.53-23.41,61.48l-.85.95ZM946.3,548.19l65.4,58.49c14.15-16.34,21.93-37.17,21.93-58.83,0-8.36-1.15-16.63-3.43-24.61l-83.9,24.95Z"></path>
 &nbsp; &nbsp;<path class="cls-2" d="M392.86,156.01v-2.54c28.43,0,54.88-11.35,74.47-31.97.44-.47.88-.94,1.32-1.42-2.39-2.6-4.97-5.31-8.06-8.44-3.36-3.41-6.75-6.75-10.08-9.93-11.24-10.76-23.65-21.5-34.95-30.24-5.67-4.41-10.08-8.12-13.62-11.1-6.58-5.54-10.2-8.62-12.65-8.3-25.73,3.16-51.12,17.32-66.31,29.52-2.59,2.08-4.81,4.07-6.44,5.76-.56,1.04-1.26,2.2-2.04,3.5-.47.78-.97,1.61-1.48,2.49-2.23,3.89-4.7,8.65-6.03,14.47l-2.48-.57c1.41-6.15,3.98-11.12,6.31-15.18.53-.9,1.03-1.74,1.51-2.53.79-1.31,1.51-2.49,2.06-3.53l.2-.28c1.71-1.79,4.06-3.91,6.8-6.11,15.46-12.42,41.34-26.84,67.6-30.06,3.57-.42,7.24,2.69,14.59,8.88,3.53,2.97,7.92,6.67,13.54,11.04,11.37,8.8,23.85,19.6,35.15,30.41,3.35,3.19,6.76,6.55,10.14,9.98,3.44,3.5,6.27,6.47,8.89,9.36l.76.84-.74.85c-.69.8-1.42,1.57-2.14,2.35-20.08,21.13-47.18,32.76-76.31,32.76Z"></path>
 &nbsp; &nbsp;<path class="cls-2" d="M1220.9,797.18l-59.49-53.19.87-.95c14.67-16.08,35.57-25.31,57.35-25.31h1.27v79.45ZM1165.03,743.81l53.33,47.69v-71.22c-20.18.34-39.49,8.86-53.33,23.53Z"></path>
 &nbsp; &nbsp;<path class="cls-2" d="M1220.9,797.18l-70.98-63.5.85-.95c17.52-19.58,42.62-30.8,68.87-30.8h1.27v95.25ZM1153.51,733.49l64.85,58.01v-87.01c-24.64.35-48.14,10.86-64.85,29.01Z"></path>
 &nbsp; &nbsp;<path class="cls-2" d="M1220.9,797.18l-80.56-72.03.85-.95c19.94-22.3,48.53-35.09,78.44-35.09h1.27v108.07ZM1143.94,724.95l74.42,66.55v-99.84c-28.31.35-55.3,12.43-74.42,33.3Z"></path>
 &nbsp;</g>
</svg>