<!--?xml version="1.0" encoding="UTF-8"?-->
<svg id="Layer_1" xmlns="http://www.w3.org/2000/svg" viewBox="0 0 1460 595.28">
 &nbsp;<defs>
 &nbsp; &nbsp;<style>
 &nbsp; &nbsp; &nbsp;.cls-1 {
 &nbsp; &nbsp; &nbsp; &nbsp;fill: none;
 &nbsp; &nbsp; &nbsp;}

 &nbsp; &nbsp; &nbsp;.cls-2 {
 &nbsp; &nbsp; &nbsp; &nbsp;fill: currentColor;
 &nbsp; &nbsp; &nbsp;}

 &nbsp; &nbsp; &nbsp;.cls-3 {
 &nbsp; &nbsp; &nbsp; &nbsp;fill: currentColor;
 &nbsp; &nbsp; &nbsp;}
 &nbsp; &nbsp;</style>
 &nbsp;</defs>
 &nbsp;<rect class="cls-1" width="1460" height="595.28"></rect>
 &nbsp;<g>
 &nbsp; &nbsp;<g>
 &nbsp; &nbsp; &nbsp;<path class="cls-2" d="M629.08,210.87l2.75-3.68c1.69-1.87,4.38-3.33,7.53-3.33,5.32,0,8.82,3.33,8.82,7.77,0,1.75-.76,3.15-1.81,4.32-.94.99-2.45,2.04-4.15,3.15,5.43,1.17,8.64,4.73,8.64,8.99,0,9.52-11.21,13.55-15.36,13.55-2.75,0-5.26-1.17-6.07-2.04-.7-.76-.88-1.28-.88-1.93.06-.94.82-1.81,1.34-2.22.47-.35.99-.41,1.52.06,1.58,1.4,3.91,3.1,7.24,3.1,4.2,0,7.18-3.15,7.18-8.82-.06-5.37-3.97-7.48-7.71-7.48-1.34,0-2.98.35-3.91.64l-.41-1.75c5.2-1.69,9.4-4.03,9.4-8.35,0-3.45-2.22-5.43-5.61-5.43s-5.78,2.39-7.3,4.61l-1.23-1.17Z"></path>
 &nbsp; &nbsp; &nbsp;<path class="cls-2" d="M666.35,218.93c1.23-.64,2.57-.99,3.74-.99,6.19,0,10.46,4.85,10.46,10.8,0,7.01-5.02,12.91-12.03,12.91s-12.15-5.67-12.15-14.6c0-12.03,9.17-19.63,16.18-22.02,1.28-.47,4.2-1.11,6.6-1.52l.35,1.93c-1.87.41-4.61,1.17-6.37,1.99-3.56,1.64-9.11,5.49-10.69,13.49l3.91-1.99ZM667.75,221.27c-2.34,0-4.32.88-5.67,1.64-.23,1.05-.35,2.51-.35,3.97,0,7.3,2.75,12.68,7.71,12.68,4.56,0,5.96-4.79,5.96-8.7,0-4.85-2.34-9.58-7.65-9.58Z"></path>
 &nbsp; &nbsp; &nbsp;<path class="cls-2" d="M696.78,203.86c8.76,0,12.03,9.81,12.03,18.87,0,8.53-3.27,18.92-12.03,18.92s-12.21-9.64-12.21-18.87c0-8.53,3.33-18.92,12.21-18.92ZM696.78,205.91c-5.43,0-6.77,8.59-6.77,16.76s1.63,16.94,6.77,16.94,6.66-8.7,6.66-16.88-1.46-16.82-6.66-16.82Z"></path>
 &nbsp; &nbsp; &nbsp;<path class="cls-2" d="M721.44,203.86c4.32,0,8,3.1,8,8.06s-3.85,8.18-8,8.18c-4.38,0-8.06-3.1-8.06-8.18,0-4.79,3.68-8.06,8.06-8.06ZM721.44,206.49c-3.04,0-4.85,2.28-4.85,5.43s2.04,5.49,4.85,5.49,4.79-2.04,4.79-5.37-1.99-5.55-4.79-5.55Z"></path>
 &nbsp; &nbsp;</g>
 &nbsp; &nbsp;<g>
 &nbsp; &nbsp; &nbsp;<rect class="cls-2" x="478.19" y="295.1" width="503.62" height="5.08"></rect>
 &nbsp; &nbsp; &nbsp;<polygon class="cls-2" points="456.67 297.64 486.99 310.03 479.8 297.64 486.99 285.25 456.67 297.64"></polygon>
 &nbsp; &nbsp; &nbsp;<polygon class="cls-2" points="1003.33 297.64 973.01 310.03 980.2 297.64 973.01 285.25 1003.33 297.64"></polygon>
 &nbsp; &nbsp;</g>
 &nbsp; &nbsp;<g>
 &nbsp; &nbsp; &nbsp;<line class="cls-3" x1="550.68" y1="503.92" x2="909.32" y2="91.35"></line>
 &nbsp; &nbsp; &nbsp;<g>
 &nbsp; &nbsp; &nbsp; &nbsp;<rect class="cls-2" x="478.19" y="295.1" width="503.63" height="5.08" transform="translate(26.44 653.29) rotate(-49)"></rect>
 &nbsp; &nbsp; &nbsp; &nbsp;<polygon class="cls-2" points="550.68 503.92 579.92 489.17 565.85 486.47 561.22 472.91 550.68 503.92"></polygon>
 &nbsp; &nbsp; &nbsp; &nbsp;<polygon class="cls-2" points="909.32 91.35 898.78 122.37 894.15 108.81 880.08 106.11 909.32 91.35"></polygon>
 &nbsp; &nbsp; &nbsp;</g>
 &nbsp; &nbsp;</g>
 &nbsp; &nbsp;<path class="cls-2" d="M730,336.19c-21.26,0-38.55-17.3-38.55-38.55s17.3-38.55,38.55-38.55,38.55,17.3,38.55,38.55-17.3,38.55-38.55,38.55ZM730,264.16c-18.46,0-33.47,15.02-33.47,33.47s15.02,33.47,33.47,33.47,33.47-15.02,33.47-33.47-15.02-33.47-33.47-33.47Z"></path>
 &nbsp;</g>
</svg>