<!--?xml version="1.0" encoding="UTF-8"?-->
<svg id="Layer_1" xmlns="http://www.w3.org/2000/svg" viewBox="0 0 1460 595.28">
 &nbsp;<defs>
 &nbsp; &nbsp;<style>
 &nbsp; &nbsp; &nbsp;.cls-1 {
 &nbsp; &nbsp; &nbsp; &nbsp;fill: none;
 &nbsp; &nbsp; &nbsp;}

 &nbsp; &nbsp; &nbsp;.cls-2 {
 &nbsp; &nbsp; &nbsp; &nbsp;fill: currentColor;
 &nbsp; &nbsp; &nbsp;}
 &nbsp; &nbsp;</style>
 &nbsp;</defs>
 &nbsp;<rect class="cls-1" width="1460" height="595.28"></rect>
 &nbsp;<g>
 &nbsp; &nbsp;<g>
 &nbsp; &nbsp; &nbsp;<path class="cls-2" d="M604.48,325.82l2.99-4.01c1.85-2.04,4.77-3.63,8.22-3.63,5.79,0,9.61,3.63,9.61,8.47,0,1.91-.83,3.44-1.97,4.71-1.02,1.08-2.68,2.23-4.52,3.44,5.92,1.27,9.43,5.16,9.43,9.8,0,10.38-12.23,14.78-16.75,14.78-2.99,0-5.73-1.27-6.62-2.23-.76-.83-.95-1.4-.95-2.1.07-1.02.89-1.97,1.46-2.42.51-.38,1.08-.45,1.66.06,1.72,1.53,4.26,3.38,7.9,3.38,4.59,0,7.83-3.44,7.83-9.62-.06-5.86-4.33-8.15-8.41-8.15-1.46,0-3.25.39-4.26.7l-.44-1.91c5.67-1.85,10.25-4.4,10.25-9.11,0-3.76-2.42-5.92-6.11-5.92s-6.3,2.61-7.96,5.03l-1.34-1.27Z"></path>
 &nbsp; &nbsp; &nbsp;<path class="cls-2" d="M647.39,318.18c9.55,0,13.12,10.7,13.12,20.57,0,9.3-3.57,20.63-13.12,20.63s-13.31-10.51-13.31-20.57c0-9.29,3.63-20.63,13.31-20.63ZM647.39,320.41c-5.92,0-7.39,9.36-7.39,18.28s1.78,18.46,7.39,18.46,7.26-9.49,7.26-18.4-1.59-18.34-7.26-18.34Z"></path>
 &nbsp; &nbsp; &nbsp;<path class="cls-2" d="M674.25,318.18c4.71,0,8.73,3.38,8.73,8.78s-4.2,8.92-8.73,8.92c-4.77,0-8.78-3.38-8.78-8.92,0-5.22,4.01-8.78,8.78-8.78ZM674.25,321.05c-3.31,0-5.28,2.48-5.28,5.92s2.23,5.99,5.28,5.99,5.22-2.23,5.22-5.86-2.16-6.05-5.22-6.05Z"></path>
 &nbsp; &nbsp;</g>
 &nbsp; &nbsp;<g>
 &nbsp; &nbsp; &nbsp;<path class="cls-2" d="M812.46,219.09c1.34-.7,2.8-1.08,4.08-1.08,6.75,0,11.4,5.28,11.4,11.78,0,7.64-5.47,14.07-13.12,14.07s-13.24-6.18-13.24-15.92c0-13.12,10-21.4,17.64-24.01,1.4-.51,4.59-1.21,7.2-1.65l.38,2.1c-2.04.45-5.03,1.27-6.94,2.17-3.89,1.78-9.93,5.98-11.65,14.71l4.26-2.17ZM813.99,221.64c-2.55,0-4.71.95-6.18,1.78-.25,1.15-.38,2.74-.38,4.33,0,7.96,2.99,13.82,8.41,13.82,4.97,0,6.5-5.22,6.5-9.49,0-5.28-2.55-10.44-8.34-10.44Z"></path>
 &nbsp; &nbsp; &nbsp;<path class="cls-2" d="M845.63,202.66c9.55,0,13.12,10.7,13.12,20.57,0,9.3-3.57,20.63-13.12,20.63s-13.31-10.51-13.31-20.57c0-9.29,3.63-20.63,13.31-20.63ZM845.63,204.89c-5.92,0-7.39,9.36-7.39,18.28s1.78,18.47,7.39,18.47,7.26-9.49,7.26-18.4-1.59-18.34-7.26-18.34Z"></path>
 &nbsp; &nbsp; &nbsp;<path class="cls-2" d="M872.49,202.66c4.71,0,8.73,3.38,8.73,8.79s-4.2,8.92-8.73,8.92c-4.77,0-8.78-3.38-8.78-8.92,0-5.22,4.01-8.79,8.78-8.79ZM872.49,205.52c-3.31,0-5.28,2.48-5.28,5.92s2.23,5.99,5.28,5.99,5.22-2.23,5.22-5.86-2.16-6.05-5.22-6.05Z"></path>
 &nbsp; &nbsp;</g>
 &nbsp; &nbsp;<g>
 &nbsp; &nbsp; &nbsp;<path class="cls-2" d="M660.23,225.09c-.83,2.86-1.91,6.11-2.55,8.47h-24v-1.53c3.5-3.44,7.32-7.19,10.44-10.82,4.01-4.71,7.83-9.81,7.83-15.35s-2.8-8.34-7.45-8.34c-4.39,0-7.13,3.44-8.79,5.92l-1.46-1.34,3.63-5.16c1.97-2.23,5.03-3.82,8.72-3.82,6.05,0,10.82,4.14,10.82,11.02,0,5.41-1.97,9.23-8.02,15.41-2.74,2.87-6.75,6.75-9.49,9.36h12.16c3.44,0,4.39-.32,6.56-4.33l1.59.51Z"></path>
 &nbsp; &nbsp; &nbsp;<path class="cls-2" d="M666.08,211.46c2.74-4.27,5.54-6.62,7.58-6.62,1.78,0,2.99,2.04,4.46,6.94l.96,3.38c5.54-7.64,8.28-10.31,11.14-10.31,1.85,0,2.74,1.34,2.68,2.74,0,.89-.7,2.48-1.53,3.06-.57.44-.95.57-1.34.51-.7-.12-1.4-1.72-2.36-1.72-1.4,0-3.82,2.55-7.9,8.15l2.1,6.5c1.21,3.82,2.16,5.73,3.25,5.73,1.02,0,2.16-.76,4.65-3.76l1.15,1.46c-2.74,4.33-5.86,6.81-8.15,6.81-1.72,0-3.12-2.1-4.65-6.88l-1.72-5.54c-6.24,8.98-8.98,12.42-11.84,12.42-1.65,0-2.8-1.21-2.8-2.99.06-1.85,1.59-3.82,2.8-3.82.89,0,1.46,1.72,2.36,1.72,1.15,0,3.18-1.97,8.79-9.74l-1.72-5.6c-1.08-3.44-1.66-4.65-2.55-4.65-.64,0-1.91.64-4.08,3.63l-1.27-1.4Z"></path>
 &nbsp; &nbsp;</g>
 &nbsp; &nbsp;<g>
 &nbsp; &nbsp; &nbsp;<path class="cls-2" d="M915.12,282.67v-1.78c7.07-.45,7.45-.76,7.45-5.54v-24.45c0-3.25-.44-3.38-3.25-3.63l-3.12-.32v-1.59c4.2-.7,8.41-1.72,11.65-3.12v33.11c0,4.84.38,5.09,7.51,5.54v1.78h-20.25Z"></path>
 &nbsp; &nbsp; &nbsp;<path class="cls-2" d="M943.83,260.58c2.74-4.27,5.54-6.62,7.58-6.62,1.78,0,2.99,2.03,4.46,6.94l.96,3.38c5.54-7.64,8.28-10.31,11.14-10.31,1.85,0,2.74,1.34,2.68,2.74,0,.89-.7,2.48-1.53,3.06-.57.44-.95.57-1.34.5-.7-.12-1.4-1.72-2.36-1.72-1.4,0-3.82,2.55-7.9,8.15l2.1,6.5c1.21,3.82,2.16,5.73,3.25,5.73,1.02,0,2.16-.76,4.65-3.76l1.15,1.47c-2.74,4.33-5.86,6.81-8.15,6.81-1.72,0-3.12-2.1-4.65-6.88l-1.72-5.54c-6.24,8.98-8.98,12.42-11.84,12.42-1.65,0-2.8-1.21-2.8-3,.06-1.85,1.59-3.82,2.8-3.82.89,0,1.46,1.72,2.36,1.72,1.15,0,3.18-1.97,8.79-9.74l-1.72-5.6c-1.08-3.44-1.66-4.65-2.55-4.65-.64,0-1.91.64-4.08,3.63l-1.27-1.4Z"></path>
 &nbsp; &nbsp;</g>
 &nbsp; &nbsp;<g>
 &nbsp; &nbsp; &nbsp;<path class="cls-2" d="M670.75,431.16c2.74-4.27,5.54-6.62,7.58-6.62,1.78,0,2.99,2.04,4.46,6.94l.95,3.38c5.54-7.64,8.28-10.31,11.14-10.31,1.85,0,2.74,1.34,2.67,2.74,0,.89-.7,2.48-1.53,3.06-.58.44-.96.57-1.34.51-.7-.12-1.4-1.72-2.35-1.72-1.4,0-3.82,2.55-7.9,8.15l2.1,6.5c1.21,3.82,2.17,5.73,3.25,5.73,1.02,0,2.17-.76,4.65-3.76l1.14,1.46c-2.74,4.33-5.86,6.81-8.15,6.81-1.72,0-3.12-2.1-4.65-6.88l-1.72-5.54c-6.24,8.98-8.98,12.42-11.84,12.42-1.66,0-2.8-1.21-2.8-2.99.07-1.85,1.59-3.82,2.8-3.82.89,0,1.46,1.72,2.36,1.72,1.14,0,3.18-1.97,8.78-9.74l-1.72-5.6c-1.08-3.44-1.65-4.65-2.55-4.65-.64,0-1.91.64-4.08,3.63l-1.27-1.4Z"></path>
 &nbsp; &nbsp; &nbsp;<path class="cls-2" d="M730.9,392.25h2.42l-10.18,63.55-16.19-33.33-6.46,2.97-1.11-2.09,9.82-4.93,13.22,26.86,8.49-53.04Z"></path>
 &nbsp; &nbsp; &nbsp;<path class="cls-2" d="M736.85,420.46l2.99-4.01c1.85-2.04,4.77-3.63,8.21-3.63,5.79,0,9.61,3.63,9.61,8.47,0,1.91-.83,3.44-1.97,4.71-1.02,1.08-2.67,2.23-4.52,3.44,5.92,1.27,9.43,5.16,9.43,9.8,0,10.38-12.23,14.77-16.75,14.77-2.99,0-5.73-1.27-6.62-2.23-.76-.83-.95-1.4-.95-2.1.06-1.02.89-1.97,1.46-2.42.51-.38,1.08-.44,1.65.07,1.72,1.53,4.27,3.38,7.9,3.38,4.59,0,7.83-3.44,7.83-9.62-.07-5.86-4.33-8.15-8.41-8.15-1.46,0-3.25.38-4.26.7l-.45-1.91c5.67-1.85,10.25-4.39,10.25-9.1,0-3.76-2.42-5.92-6.11-5.92s-6.3,2.61-7.96,5.03l-1.34-1.27Z"></path>
 &nbsp; &nbsp;</g>
 &nbsp; &nbsp;<path class="cls-2" d="M895.82,376.35h-406.46l406.46-236.88v236.88ZM512.93,369.99h376.52v-219.43l-376.52,219.43Z"></path>
 &nbsp; &nbsp;<rect class="cls-2" x="730.91" y="391.65" width="28.27" height="3.18"></rect>
 &nbsp; &nbsp;<path class="cls-2" d="M894.23,374.76h-41.97v-41.97h41.97v41.97ZM855.44,371.58h35.61v-35.61h-35.61v35.61Z"></path>
 &nbsp;</g>
</svg>