<!--?xml version="1.0" encoding="UTF-8"?-->
<svg id="Layer_1" xmlns="http://www.w3.org/2000/svg" viewBox="0 0 1460 595.28">
 &nbsp;<defs>
 &nbsp; &nbsp;<style>
 &nbsp; &nbsp; &nbsp;.cls-1 {
 &nbsp; &nbsp; &nbsp; &nbsp;fill: none;
 &nbsp; &nbsp; &nbsp;}

 &nbsp; &nbsp; &nbsp;.cls-2 {
 &nbsp; &nbsp; &nbsp; &nbsp;fill: currentColor;
 &nbsp; &nbsp; &nbsp;}
 &nbsp; &nbsp;</style>
 &nbsp;</defs>
 &nbsp;<rect class="cls-1" width="1460" height="595.28"></rect>
 &nbsp;<g>
 &nbsp; &nbsp;<g>
 &nbsp; &nbsp; &nbsp;<path class="cls-2" d="M620.16,333.65c2.51-3.91,5.08-6.07,6.95-6.07,1.63,0,2.75,1.87,4.09,6.37l.87,3.1c5.08-7.01,7.6-9.46,10.22-9.46,1.69,0,2.51,1.23,2.45,2.51,0,.82-.64,2.28-1.4,2.8-.53.41-.88.53-1.23.47-.64-.12-1.28-1.58-2.16-1.58-1.28,0-3.5,2.34-7.24,7.48l1.93,5.96c1.11,3.5,1.99,5.26,2.98,5.26.93,0,1.98-.7,4.26-3.45l1.05,1.34c-2.51,3.97-5.37,6.25-7.48,6.25-1.58,0-2.86-1.93-4.26-6.31l-1.58-5.08c-5.72,8.24-8.24,11.39-10.86,11.39-1.52,0-2.57-1.11-2.57-2.74.06-1.69,1.46-3.5,2.57-3.5.82,0,1.34,1.58,2.16,1.58,1.05,0,2.92-1.81,8.06-8.94l-1.58-5.14c-.99-3.15-1.52-4.26-2.34-4.26-.58,0-1.75.58-3.74,3.33l-1.17-1.29Z"></path>
 &nbsp; &nbsp; &nbsp;<path class="cls-2" d="M665.61,322.96c0,4.91-3.68,7.89-7.71,7.89-4.26,0-7.71-2.98-7.71-7.89s3.51-7.88,7.71-7.88,7.71,3.15,7.71,7.88ZM653.23,322.96c0,3.27,1.93,5.43,4.73,5.43s4.61-2.16,4.61-5.37-1.87-5.49-4.67-5.49c-2.98,0-4.67,2.16-4.67,5.43Z"></path>
 &nbsp; &nbsp;</g>
 &nbsp; &nbsp;<g>
 &nbsp; &nbsp; &nbsp;<path class="cls-2" d="M702.48,419.29c2.51-3.91,5.08-6.07,6.95-6.07,1.63,0,2.75,1.87,4.09,6.37l.88,3.1c5.08-7.01,7.6-9.46,10.22-9.46,1.69,0,2.51,1.23,2.45,2.51,0,.82-.64,2.28-1.4,2.8-.53.41-.88.53-1.23.47-.64-.12-1.28-1.58-2.16-1.58-1.28,0-3.5,2.34-7.24,7.48l1.93,5.96c1.11,3.5,1.98,5.26,2.98,5.26.94,0,1.99-.7,4.26-3.45l1.05,1.34c-2.51,3.97-5.37,6.25-7.48,6.25-1.58,0-2.86-1.93-4.26-6.31l-1.58-5.08c-5.72,8.24-8.24,11.39-10.86,11.39-1.52,0-2.57-1.11-2.57-2.74.06-1.69,1.46-3.5,2.57-3.5.82,0,1.34,1.58,2.16,1.58,1.05,0,2.92-1.81,8.06-8.94l-1.58-5.14c-.99-3.15-1.52-4.26-2.34-4.26-.59,0-1.75.58-3.74,3.33l-1.17-1.29Z"></path>
 &nbsp; &nbsp; &nbsp;<path class="cls-2" d="M747.92,408.6c0,4.91-3.68,7.89-7.71,7.89-4.26,0-7.71-2.98-7.71-7.89s3.5-7.88,7.71-7.88,7.71,3.15,7.71,7.88ZM735.54,408.6c0,3.27,1.93,5.43,4.73,5.43s4.61-2.16,4.61-5.37-1.87-5.49-4.67-5.49c-2.98,0-4.67,2.16-4.67,5.43Z"></path>
 &nbsp; &nbsp;</g>
 &nbsp; &nbsp;<g>
 &nbsp; &nbsp; &nbsp;<path class="cls-2" d="M748.47,333.36c1.81-2.69,5.08-5.78,7.19-5.78s2.8,3.74,3.15,8.82c.41,5.02.64,10.16.88,13.9,2.63-3.91,8.47-12.21,8.41-16.47,0-1.17-.58-2.22-.88-2.86-.29-.7-.29-1.23.23-1.87.58-.76,1.75-1.52,2.69-1.52,1.34,0,2.16,1.28,2.16,3.21,0,1.64-.58,4.03-2.04,6.72-4.73,8.7-14.48,22.37-21.2,29.73l-6.07,1.58-.53-1.34c5.84-3.74,10.51-8.53,13.37-12.38-.06-4.67-.76-13.08-1.28-18.4-.35-3.56-.94-4.91-1.52-4.91-.64,0-2.22,1.34-3.62,3.1l-.94-1.52Z"></path>
 &nbsp; &nbsp; &nbsp;<path class="cls-2" d="M793.86,322.96c0,4.91-3.68,7.89-7.71,7.89-4.26,0-7.71-2.98-7.71-7.89s3.5-7.88,7.71-7.88,7.71,3.15,7.71,7.88ZM781.48,322.96c0,3.27,1.93,5.43,4.73,5.43s4.62-2.16,4.62-5.37-1.87-5.49-4.67-5.49c-2.98,0-4.67,2.16-4.67,5.43Z"></path>
 &nbsp; &nbsp;</g>
 &nbsp; &nbsp;<g>
 &nbsp; &nbsp; &nbsp;<path class="cls-2" d="M561.43,419c1.81-2.69,5.08-5.78,7.19-5.78s2.8,3.74,3.15,8.82c.41,5.02.64,10.16.88,13.9,2.63-3.91,8.47-12.21,8.41-16.47,0-1.17-.58-2.22-.88-2.86-.29-.7-.29-1.23.24-1.87.58-.76,1.75-1.52,2.68-1.52,1.34,0,2.16,1.28,2.16,3.21,0,1.64-.59,4.03-2.04,6.72-4.73,8.7-14.49,22.37-21.2,29.73l-6.07,1.58-.53-1.34c5.84-3.74,10.51-8.53,13.38-12.38-.06-4.67-.76-13.08-1.28-18.4-.35-3.56-.94-4.91-1.52-4.91-.64,0-2.22,1.34-3.62,3.1l-.94-1.52Z"></path>
 &nbsp; &nbsp; &nbsp;<path class="cls-2" d="M606.82,408.6c0,4.91-3.68,7.89-7.71,7.89-4.26,0-7.71-2.98-7.71-7.89s3.5-7.88,7.71-7.88,7.71,3.15,7.71,7.88ZM594.44,408.6c0,3.27,1.93,5.43,4.73,5.43s4.61-2.16,4.61-5.37-1.87-5.49-4.67-5.49c-2.98,0-4.67,2.16-4.67,5.43Z"></path>
 &nbsp; &nbsp;</g>
 &nbsp; &nbsp;<g>
 &nbsp; &nbsp; &nbsp;<path class="cls-2" d="M735.6,166.69c2.51-3.91,5.08-6.07,6.95-6.07,1.64,0,2.75,1.87,4.09,6.37l.88,3.1c5.08-7.01,7.59-9.46,10.22-9.46,1.69,0,2.51,1.23,2.45,2.51,0,.82-.64,2.28-1.4,2.8-.53.41-.88.53-1.23.47-.64-.12-1.28-1.58-2.16-1.58-1.28,0-3.5,2.34-7.24,7.48l1.93,5.96c1.11,3.5,1.99,5.26,2.98,5.26.94,0,1.99-.7,4.26-3.45l1.05,1.34c-2.51,3.97-5.38,6.25-7.48,6.25-1.58,0-2.86-1.93-4.26-6.31l-1.58-5.08c-5.72,8.24-8.24,11.39-10.86,11.39-1.52,0-2.57-1.11-2.57-2.74.06-1.69,1.46-3.5,2.57-3.5.82,0,1.34,1.58,2.16,1.58,1.05,0,2.92-1.81,8.06-8.94l-1.58-5.14c-.99-3.15-1.52-4.26-2.34-4.26-.58,0-1.75.58-3.74,3.33l-1.17-1.29Z"></path>
 &nbsp; &nbsp; &nbsp;<path class="cls-2" d="M781.04,156c0,4.91-3.68,7.89-7.71,7.89-4.26,0-7.71-2.98-7.71-7.89s3.5-7.88,7.71-7.88,7.71,3.15,7.71,7.88ZM768.66,156c0,3.27,1.93,5.43,4.73,5.43s4.62-2.16,4.62-5.37-1.87-5.49-4.67-5.49c-2.98,0-4.67,2.16-4.67,5.43Z"></path>
 &nbsp; &nbsp;</g>
 &nbsp; &nbsp;<g>
 &nbsp; &nbsp; &nbsp;<path class="cls-2" d="M817.91,252.33c2.51-3.91,5.08-6.07,6.95-6.07,1.63,0,2.75,1.87,4.09,6.37l.88,3.1c5.08-7.01,7.6-9.46,10.22-9.46,1.69,0,2.51,1.23,2.45,2.51,0,.82-.64,2.28-1.4,2.8-.53.41-.88.53-1.23.47-.64-.12-1.28-1.58-2.16-1.58-1.28,0-3.5,2.34-7.24,7.48l1.93,5.96c1.11,3.5,1.98,5.26,2.98,5.26.94,0,1.99-.7,4.26-3.45l1.05,1.34c-2.51,3.97-5.37,6.25-7.48,6.25-1.58,0-2.86-1.93-4.26-6.31l-1.58-5.08c-5.72,8.24-8.24,11.39-10.86,11.39-1.52,0-2.57-1.11-2.57-2.74.06-1.69,1.46-3.5,2.57-3.5.82,0,1.34,1.58,2.16,1.58,1.05,0,2.92-1.81,8.06-8.94l-1.58-5.14c-.99-3.15-1.52-4.26-2.34-4.26-.59,0-1.75.58-3.74,3.33l-1.17-1.29Z"></path>
 &nbsp; &nbsp; &nbsp;<path class="cls-2" d="M863.36,241.64c0,4.91-3.68,7.89-7.71,7.89-4.26,0-7.71-2.98-7.71-7.89s3.5-7.88,7.71-7.88,7.71,3.15,7.71,7.88ZM850.98,241.64c0,3.27,1.93,5.43,4.73,5.43s4.61-2.16,4.61-5.37-1.87-5.49-4.67-5.49c-2.98,0-4.67,2.16-4.67,5.43Z"></path>
 &nbsp; &nbsp;</g>
 &nbsp; &nbsp;<g>
 &nbsp; &nbsp; &nbsp;<path class="cls-2" d="M863.91,166.39c1.81-2.69,5.08-5.78,7.19-5.78s2.8,3.74,3.15,8.82c.41,5.02.64,10.16.88,13.9,2.63-3.91,8.47-12.21,8.41-16.47,0-1.17-.58-2.22-.88-2.86-.29-.7-.29-1.23.23-1.87.58-.76,1.75-1.52,2.69-1.52,1.34,0,2.16,1.28,2.16,3.21,0,1.64-.58,4.03-2.04,6.72-4.73,8.7-14.48,22.37-21.2,29.73l-6.07,1.58-.53-1.34c5.84-3.74,10.51-8.53,13.37-12.38-.06-4.67-.76-13.08-1.28-18.4-.35-3.56-.94-4.91-1.52-4.91-.64,0-2.22,1.34-3.62,3.1l-.94-1.52Z"></path>
 &nbsp; &nbsp; &nbsp;<path class="cls-2" d="M909.3,156c0,4.91-3.68,7.89-7.71,7.89-4.26,0-7.71-2.98-7.71-7.89s3.5-7.88,7.71-7.88,7.71,3.15,7.71,7.88ZM896.91,156c0,3.27,1.93,5.43,4.73,5.43s4.62-2.16,4.62-5.37-1.87-5.49-4.67-5.49c-2.98,0-4.67,2.16-4.67,5.43Z"></path>
 &nbsp; &nbsp;</g>
 &nbsp; &nbsp;<g>
 &nbsp; &nbsp; &nbsp;<path class="cls-2" d="M676.87,252.03c1.81-2.69,5.08-5.78,7.19-5.78s2.8,3.74,3.15,8.82c.41,5.02.64,10.16.88,13.9,2.63-3.91,8.47-12.21,8.41-16.47,0-1.17-.58-2.22-.88-2.86-.29-.7-.29-1.23.24-1.87.58-.76,1.75-1.52,2.68-1.52,1.34,0,2.16,1.28,2.16,3.21,0,1.64-.59,4.03-2.04,6.72-4.73,8.7-14.49,22.37-21.2,29.73l-6.07,1.58-.53-1.34c5.84-3.74,10.51-8.53,13.38-12.38-.06-4.67-.76-13.08-1.28-18.4-.35-3.56-.94-4.91-1.52-4.91-.64,0-2.22,1.34-3.62,3.1l-.94-1.52Z"></path>
 &nbsp; &nbsp; &nbsp;<path class="cls-2" d="M722.25,241.64c0,4.91-3.68,7.89-7.71,7.89-4.26,0-7.71-2.98-7.71-7.89s3.5-7.88,7.71-7.88,7.71,3.15,7.71,7.88ZM709.87,241.64c0,3.27,1.93,5.43,4.73,5.43s4.61-2.16,4.61-5.37-1.87-5.49-4.67-5.49c-2.98,0-4.67,2.16-4.67,5.43Z"></path>
 &nbsp; &nbsp;</g>
 &nbsp; &nbsp;<path class="cls-2" d="M817.26,208.25h-5.11c.08.84.13,1.68.13,2.54s-.05,1.7-.13,2.54c-1.3,12.88-12.17,22.96-25.37,22.96-3.99,0-7.77-.91-11.15-2.57-.76-.38-1.52-.79-2.24-1.24-.74-.46-1.42-.94-2.11-1.45l-2.82,4.24c.69.51,1.4.99,2.11,1.42.71.46,1.45.89,2.21,1.27,4.19,2.18,8.94,3.4,14,3.4,16,0,29.18-12.37,30.48-28.04.08-.84.1-1.68.1-2.54s-.03-1.7-.1-2.54ZM799.5,188.69c.74.41,1.45.86,2.13,1.37.69.48,1.35,1.02,1.98,1.6l2.84-4.27c-.66-.56-1.32-1.07-2.03-1.55-.69-.51-1.4-.97-2.13-1.37-4.55-2.72-9.86-4.27-15.52-4.27-16,0-29.18,12.37-30.48,28.04-.08.84-.1,1.68-.1,2.54s.03,1.7.1,2.54h5.11c-.08-.84-.13-1.68-.13-2.54s.05-1.7.13-2.54c1.27-12.88,12.17-22.96,25.37-22.96,4.62,0,8.97,1.24,12.73,3.4Z"></path>
 &nbsp; &nbsp;<path class="cls-2" d="M833.28,208.25c-.76-13.89-7.62-26.16-17.93-34.19-.66-.53-1.35-1.04-2.06-1.52-.69-.48-1.4-.94-2.11-1.4l-2.84,4.24c.74.43,1.45.91,2.13,1.4.71.48,1.4.99,2.06,1.52,8.97,7.11,14.91,17.86,15.65,29.95.05.84.08,1.68.08,2.54s-.03,1.7-.08,2.54h5.11c.03-.84.05-1.68.05-2.54s-.03-1.7-.05-2.54ZM764.53,245.76c-.71-.46-1.42-.91-2.08-1.42-9.75-7.09-16.31-18.29-17.07-31.01-.05-.84-.08-1.68-.08-2.54s.03-1.7.08-2.54h-5.11c-.03.84-.05,1.68-.05,2.54s.03,1.7.05,2.54c.81,14.5,8.26,27.25,19.35,35.23.69.53,1.4.99,2.11,1.42.71.48,1.42.91,2.16,1.32l2.82-4.22c-.76-.43-1.47-.86-2.18-1.32Z"></path>
 &nbsp; &nbsp;<path class="cls-2" d="M845.17,208.25c-.76-18.03-9.7-33.96-23.22-44.12-.69-.53-1.37-1.04-2.06-1.5-.71-.48-1.4-.97-2.13-1.4l-2.82,4.24c.74.43,1.42.89,2.13,1.37.69.48,1.4.99,2.06,1.5,12.14,9.3,20.22,23.65,20.96,39.9.05.84.08,1.68.08,2.54s-.03,1.7-.08,2.54h5.08c.05-.84.08-1.68.08-2.54s-.03-1.7-.08-2.54ZM757.92,255.7c-.71-.46-1.42-.94-2.11-1.42-12.93-9.25-21.56-24.08-22.35-40.94-.05-.84-.08-1.68-.08-2.54s.03-1.7.08-2.54h-5.08c-.05.84-.08,1.68-.08,2.54s.03,1.7.08,2.54c.79,18.64,10.34,35.03,24.64,45.16.69.51,1.4.99,2.11,1.42.71.48,1.42.94,2.16,1.35l2.82-4.24c-.74-.43-1.47-.86-2.18-1.32Z"></path>
 &nbsp; &nbsp;<path class="cls-2" d="M701.05,381.96h-5.11c.08.84.13,1.68.13,2.54s-.05,1.7-.13,2.54c-1.27,12.85-12.19,22.96-25.37,22.96-3.84,0-7.49-.86-10.77-2.39-.76-.36-1.52-.76-2.24-1.19-.74-.43-1.45-.91-2.13-1.4l-2.82,4.22c.69.51,1.4.99,2.13,1.42.74.43,1.47.86,2.24,1.22,4.09,2.06,8.71,3.2,13.59,3.2,16,0,29.18-12.4,30.48-28.04.08-.84.1-1.68.1-2.54s-.03-1.7-.1-2.54ZM688.6,359.81c-.69-.51-1.4-.99-2.13-1.4-4.65-2.87-10.08-4.5-15.9-4.5-16,0-29.18,12.37-30.48,28.04-.08.84-.1,1.68-.1,2.54s.03,1.7.1,2.54h5.11c-.08-.84-.13-1.68-.13-2.54s.05-1.7.13-2.54c1.27-12.88,12.17-22.96,25.37-22.96,4.78,0,9.25,1.32,13.08,3.63.74.43,1.45.91,2.13,1.42.69.51,1.35,1.04,1.96,1.63l2.84-4.27c-.64-.56-1.3-1.09-1.98-1.6Z"></path>
 &nbsp; &nbsp;<path class="cls-2" d="M717.08,381.96c-.76-13.72-7.47-25.88-17.6-33.91-.66-.53-1.32-1.04-2.03-1.52-.69-.51-1.37-.97-2.11-1.42l-2.82,4.24c.71.43,1.42.89,2.11,1.4.71.48,1.37,1.02,2.03,1.55,8.76,7.09,14.58,17.7,15.32,29.67.05.84.08,1.68.08,2.54s-.03,1.7-.08,2.54h5.11c.03-.84.05-1.68.05-2.54s-.03-1.7-.05-2.54ZM648.73,419.7c-.74-.43-1.45-.91-2.13-1.42-9.93-7.04-16.64-18.36-17.42-31.24-.05-.84-.08-1.68-.08-2.54s.03-1.7.08-2.54h-5.11c-.03.84-.05,1.68-.05,2.54s.03,1.7.05,2.54c.81,14.66,8.41,27.53,19.71,35.51.69.48,1.4.94,2.11,1.4.71.46,1.45.89,2.18,1.3l2.84-4.27c-.76-.38-1.47-.81-2.18-1.27Z"></path>
 &nbsp; &nbsp;<path class="cls-2" d="M728.97,381.96c-.74-17.86-9.55-33.66-22.86-43.87-.66-.53-1.35-1.04-2.06-1.5-.69-.51-1.4-.99-2.11-1.42l-2.79,4.22c.71.46,1.42.91,2.11,1.42.69.48,1.37.97,2.03,1.5,11.94,9.3,19.86,23.55,20.6,39.65.05.84.08,1.68.08,2.54s-.03,1.7-.08,2.54h5.08c.05-.84.08-1.68.08-2.54s-.03-1.7-.08-2.54ZM642.1,429.63c-.71-.43-1.42-.91-2.11-1.4-13.16-9.19-21.97-24.18-22.76-41.2-.05-.84-.08-1.68-.08-2.54s.03-1.7.08-2.54h-5.08c-.05.84-.08,1.68-.08,2.54s.03,1.7.08,2.54c.79,18.8,10.52,35.31,25.02,45.42.69.51,1.4.97,2.11,1.42.71.46,1.45.91,2.18,1.3l2.82-4.24c-.74-.38-1.47-.84-2.18-1.3Z"></path>
 &nbsp; &nbsp;<g>
 &nbsp; &nbsp; &nbsp;<g>
 &nbsp; &nbsp; &nbsp; &nbsp;<rect class="cls-2" x="456.68" y="208.25" width="546.66" height="5.08"></rect>
 &nbsp; &nbsp; &nbsp; &nbsp;<polygon class="cls-2" points="1024.85 210.79 994.53 198.39 1001.72 210.79 994.53 223.17 1024.85 210.79"></polygon>
 &nbsp; &nbsp; &nbsp; &nbsp;<polygon class="cls-2" points="435.15 210.79 465.47 198.39 458.28 210.79 465.47 223.17 435.15 210.79"></polygon>
 &nbsp; &nbsp; &nbsp;</g>
 &nbsp; &nbsp; &nbsp;<g>
 &nbsp; &nbsp; &nbsp; &nbsp;<rect class="cls-2" x="456.68" y="381.96" width="546.66" height="5.08"></rect>
 &nbsp; &nbsp; &nbsp; &nbsp;<polygon class="cls-2" points="1024.85 384.49 994.53 372.1 1001.72 384.49 994.53 396.88 1024.85 384.49"></polygon>
 &nbsp; &nbsp; &nbsp; &nbsp;<polygon class="cls-2" points="435.15 384.49 465.47 372.1 458.28 384.49 465.47 396.88 435.15 384.49"></polygon>
 &nbsp; &nbsp; &nbsp;</g>
 &nbsp; &nbsp;</g>
 &nbsp; &nbsp;<g>
 &nbsp; &nbsp; &nbsp;<line class="cls-1" x1="869.11" y1="88.73" x2="590.89" y2="506.54"></line>
 &nbsp; &nbsp; &nbsp;<g>
 &nbsp; &nbsp; &nbsp; &nbsp;<polygon class="cls-2" points="871.23 90.14 869.5 92.73 821.95 164.13 819.14 168.34 815.35 174.06 812.53 178.3 806.46 187.39 803.62 191.66 792.57 208.25 790.89 210.79 789.19 213.33 775.62 233.72 772.78 237.97 766.71 247.08 763.89 251.3 760.11 257.02 757.29 261.26 706.11 338.09 703.29 342.31 699.48 348.05 696.66 352.29 690.59 361.41 687.74 365.68 676.9 381.96 675.19 384.5 673.52 387.04 659.8 407.61 656.98 411.88 650.91 420.97 648.07 425.24 644.28 430.93 641.46 435.17 594.7 505.38 593 507.94 590.89 506.55 588.78 505.12 590.48 502.56 637.17 432.45 639.99 428.24 643.77 422.55 646.59 418.28 652.61 409.24 655.43 405.02 667.42 387.04 669.1 384.5 670.8 381.96 683.65 362.63 686.47 358.41 692.52 349.35 695.34 345.1 699.15 339.39 701.94 335.17 753.02 258.49 755.81 254.27 759.62 248.56 762.44 244.34 768.46 235.27 771.28 231.03 783.09 213.33 784.77 210.79 786.47 208.25 799.5 188.69 802.29 184.47 808.34 175.38 811.18 171.14 814.94 165.47 817.76 161.23 865.29 89.88 866.99 87.32 869.1 88.74 871.23 90.14"></polygon>
 &nbsp; &nbsp; &nbsp; &nbsp;<polygon class="cls-2" points="881.04 70.82 853.91 89.19 868.22 90.07 874.54 102.93 881.04 70.82"></polygon>
 &nbsp; &nbsp; &nbsp; &nbsp;<polygon class="cls-2" points="578.96 524.45 585.46 492.35 591.78 505.2 606.08 506.08 578.96 524.45"></polygon>
 &nbsp; &nbsp; &nbsp;</g>
 &nbsp; &nbsp;</g>
 &nbsp;</g>
</svg>