<!--?xml version="1.0" encoding="UTF-8"?-->
<svg id="Layer_1" xmlns="http://www.w3.org/2000/svg" viewBox="0 0 1460 595.28">
 &nbsp;<defs>
 &nbsp; &nbsp;<style>
 &nbsp; &nbsp; &nbsp;.cls-1 {
 &nbsp; &nbsp; &nbsp; &nbsp;fill: none;
 &nbsp; &nbsp; &nbsp;}

 &nbsp; &nbsp; &nbsp;.cls-2 {
 &nbsp; &nbsp; &nbsp; &nbsp;fill: currentColor;
 &nbsp; &nbsp; &nbsp;}
 &nbsp; &nbsp;</style>
 &nbsp;</defs>
 &nbsp;<rect class="cls-1" width="1460" height="595.28"></rect>
 &nbsp;<g>
 &nbsp; &nbsp;<path class="cls-2" d="M736.68,153.52c2.43-3.79,4.92-5.88,6.73-5.88,1.59,0,2.66,1.81,3.96,6.17l.85,3c4.92-6.79,7.36-9.17,9.9-9.17,1.64,0,2.43,1.19,2.38,2.43,0,.79-.62,2.21-1.36,2.72-.51.39-.85.51-1.19.45-.62-.11-1.25-1.53-2.09-1.53-1.25,0-3.39,2.26-7.02,7.24l1.87,5.77c1.07,3.39,1.92,5.09,2.89,5.09.9,0,1.92-.68,4.13-3.34l1.02,1.3c-2.43,3.85-5.21,6.05-7.24,6.05-1.53,0-2.77-1.87-4.13-6.11l-1.53-4.92c-5.54,7.98-7.98,11.03-10.52,11.03-1.47,0-2.49-1.07-2.49-2.66.06-1.64,1.41-3.39,2.49-3.39.79,0,1.3,1.53,2.09,1.53,1.02,0,2.83-1.75,7.81-8.66l-1.53-4.98c-.96-3.06-1.47-4.13-2.26-4.13-.57,0-1.7.57-3.62,3.23l-1.13-1.25Z"></path>
 &nbsp; &nbsp;<path class="cls-2" d="M513.74,281.63c1.75-2.6,4.92-5.6,6.96-5.6s2.72,3.62,3.06,8.54c.4,4.87.62,9.84.85,13.47,2.55-3.79,8.2-11.83,8.15-15.95,0-1.13-.56-2.15-.85-2.77-.28-.68-.28-1.19.23-1.81.57-.73,1.7-1.47,2.6-1.47,1.3,0,2.09,1.24,2.09,3.11,0,1.59-.56,3.91-1.98,6.51-4.58,8.43-14.03,21.67-20.54,28.8l-5.89,1.53-.51-1.3c5.66-3.62,10.18-8.26,12.96-12-.06-4.53-.74-12.68-1.25-17.82-.34-3.45-.91-4.75-1.47-4.75-.62,0-2.15,1.3-3.51,3l-.9-1.47Z"></path>
 &nbsp; &nbsp;<path class="cls-2" d="M929,278.13c1.75-2.6,4.92-5.6,6.96-5.6s2.72,3.62,3.06,8.54c.39,4.87.62,9.85.85,13.47,2.55-3.79,8.2-11.83,8.15-15.96,0-1.13-.57-2.15-.85-2.77-.28-.68-.28-1.19.23-1.81.56-.73,1.7-1.47,2.6-1.47,1.3,0,2.09,1.25,2.09,3.11,0,1.59-.57,3.9-1.98,6.51-4.58,8.43-14.03,21.67-20.54,28.8l-5.88,1.53-.51-1.3c5.66-3.62,10.19-8.26,12.96-12-.06-4.52-.73-12.67-1.24-17.82-.34-3.45-.91-4.75-1.47-4.75-.62,0-2.15,1.3-3.51,3l-.91-1.47Z"></path>
 &nbsp; &nbsp;<path class="cls-2" d="M685.58,427.32c2.43-3.79,4.92-5.88,6.73-5.88,1.59,0,2.66,1.81,3.96,6.17l.85,3c4.92-6.79,7.36-9.17,9.9-9.17,1.64,0,2.43,1.19,2.38,2.43,0,.79-.62,2.21-1.36,2.72-.51.39-.85.51-1.19.45-.62-.11-1.25-1.53-2.09-1.53-1.25,0-3.39,2.26-7.02,7.24l1.87,5.77c1.07,3.39,1.92,5.09,2.88,5.09.91,0,1.93-.68,4.13-3.34l1.02,1.3c-2.43,3.85-5.2,6.05-7.24,6.05-1.52,0-2.77-1.87-4.13-6.11l-1.53-4.92c-5.55,7.98-7.98,11.03-10.52,11.03-1.47,0-2.49-1.07-2.49-2.66.06-1.64,1.42-3.39,2.49-3.39.79,0,1.3,1.53,2.09,1.53,1.02,0,2.83-1.75,7.81-8.66l-1.53-4.98c-.96-3.06-1.47-4.13-2.27-4.13-.56,0-1.7.57-3.62,3.23l-1.13-1.25Z"></path>
 &nbsp; &nbsp;<path class="cls-2" d="M877.56,399.43h-345.23l47.08-203.65h345.23l-47.08,203.65ZM539.45,393.77h333.62l44.46-192.34h-333.62l-44.46,192.34Z"></path>
 &nbsp; &nbsp;<polygon class="cls-2" points="571.03 298.5 562.57 281.87 547.68 293.1 545.98 290.84 563.57 277.58 573.55 297.22 571.03 298.5"></polygon>
 &nbsp; &nbsp;<polygon class="cls-2" points="568.89 307.75 560.44 291.12 545.55 302.36 543.84 300.1 561.43 286.83 571.41 306.47 568.89 307.75"></polygon>
 &nbsp; &nbsp;<polygon class="cls-2" points="911.07 295.45 902.62 278.82 887.72 290.06 886.02 287.8 903.61 274.53 913.59 294.17 911.07 295.45"></polygon>
 &nbsp; &nbsp;<polygon class="cls-2" points="908.93 304.7 900.48 288.07 885.59 299.31 883.89 297.05 901.47 283.78 911.45 303.42 908.93 304.7"></polygon>
 &nbsp; &nbsp;<polygon class="cls-2" points="744.48 212.75 742.66 210.58 756.96 198.6 742.66 186.62 744.48 184.46 761.37 198.6 744.48 212.75"></polygon>
 &nbsp; &nbsp;<polygon class="cls-2" points="698.71 410.75 696.9 408.58 711.2 396.6 696.9 384.62 698.71 382.45 715.6 396.6 698.71 410.75"></polygon>
 &nbsp;</g>
</svg>