<!--?xml version="1.0" encoding="UTF-8"?-->
<svg id="Layer_1" xmlns="http://www.w3.org/2000/svg" viewBox="0 0 1460 595.28">
 &nbsp;<defs>
 &nbsp; &nbsp;<style>
 &nbsp; &nbsp; &nbsp;.cls-1 {
 &nbsp; &nbsp; &nbsp; &nbsp;fill: none;
 &nbsp; &nbsp; &nbsp;}

 &nbsp; &nbsp; &nbsp;.cls-2 {
 &nbsp; &nbsp; &nbsp; &nbsp;fill: currentColor;
 &nbsp; &nbsp; &nbsp;}
 &nbsp; &nbsp;</style>
 &nbsp;</defs>
 &nbsp;<rect class="cls-1" width="1460" height="595.28"></rect>
 &nbsp;<g>
 &nbsp; &nbsp;<g>
 &nbsp; &nbsp; &nbsp;<path class="cls-2" d="M786.49,371.21v3.75c0,3.26.2,3.51,3.71,3.85v1.38h-11.57v-1.38c3.71-.35,3.95-.64,3.95-3.9v-3.71h-13.05v-1.49c4.69-6.67,9.78-13.88,14.72-20.75h2.23v19.86h4.84v2.37h-4.84ZM782.59,354.16c-3.11,4.55-6.57,9.59-9.98,14.68h9.98v-14.68Z"></path>
 &nbsp; &nbsp; &nbsp;<path class="cls-2" d="M812.68,349.42l.3.39-1.28,3.26h-11.37c-.44,2.72-1.09,6.58-1.53,8.99,1.88-.69,4.59-1.43,5.83-1.43,6.08,0,9.29,4.3,9.29,8.4,0,2.96-1.24,5.83-4.25,8.3-2.72,2.17-6.13,3.46-8.75,3.46-2.32,0-4.15-.94-5.14-1.92-.69-.64-.89-1.04-.79-1.68,0-.44.39-1.19,1.04-1.68.44-.3.89-.4,1.38,0,1.43,1.28,3.16,2.72,6.23,2.72,4.15,0,6.13-3.56,6.13-7.26,0-4.35-2.62-7.46-8.1-7.46-2.03,0-3.66.44-4.94.89l-.15-.2c.74-3.85,1.83-10.82,2.37-14.77h13.74Z"></path>
 &nbsp; &nbsp; &nbsp;<path class="cls-2" d="M825.38,348.83c3.66,0,6.77,2.62,6.77,6.81s-3.26,6.92-6.77,6.92c-3.71,0-6.82-2.62-6.82-6.92,0-4.05,3.11-6.81,6.82-6.81ZM825.38,351.05c-2.57,0-4.1,1.93-4.1,4.59s1.73,4.65,4.1,4.65,4.05-1.72,4.05-4.54-1.68-4.7-4.05-4.7Z"></path>
 &nbsp; &nbsp;</g>
 &nbsp; &nbsp;<g>
 &nbsp; &nbsp; &nbsp;<path class="cls-2" d="M627.36,244.06v3.76c0,3.26.2,3.51,3.71,3.85v1.38h-11.57v-1.38c3.71-.35,3.95-.64,3.95-3.91v-3.71h-13.05v-1.48c4.69-6.67,9.78-13.88,14.72-20.76h2.23v19.86h4.84v2.37h-4.84ZM623.46,227.01c-3.11,4.54-6.57,9.58-9.98,14.67h9.98v-14.67Z"></path>
 &nbsp; &nbsp; &nbsp;<path class="cls-2" d="M653.55,222.26l.3.4-1.28,3.26h-11.37c-.44,2.72-1.09,6.57-1.53,8.99,1.88-.69,4.6-1.43,5.83-1.43,6.08,0,9.29,4.3,9.29,8.4,0,2.97-1.24,5.83-4.25,8.3-2.72,2.17-6.13,3.46-8.74,3.46-2.32,0-4.15-.94-5.14-1.93-.69-.64-.89-1.04-.79-1.68,0-.44.39-1.18,1.04-1.68.44-.3.89-.39,1.38,0,1.43,1.29,3.16,2.72,6.23,2.72,4.15,0,6.13-3.56,6.13-7.26,0-4.35-2.62-7.46-8.1-7.46-2.03,0-3.66.44-4.94.89l-.15-.19c.74-3.85,1.83-10.82,2.37-14.78h13.74Z"></path>
 &nbsp; &nbsp; &nbsp;<path class="cls-2" d="M666.25,221.67c3.66,0,6.77,2.62,6.77,6.82s-3.26,6.92-6.77,6.92c-3.71,0-6.82-2.62-6.82-6.92,0-4.05,3.11-6.82,6.82-6.82ZM666.25,223.9c-2.57,0-4.1,1.92-4.1,4.59s1.73,4.65,4.1,4.65,4.05-1.73,4.05-4.55-1.68-4.69-4.05-4.69Z"></path>
 &nbsp; &nbsp;</g>
 &nbsp; &nbsp;<path class="cls-2" d="M553.3,278.31c2.83-4.41,5.73-6.85,7.84-6.85,1.85,0,3.1,2.11,4.61,7.18l.99,3.49c5.73-7.91,8.57-10.67,11.53-10.67,1.91,0,2.83,1.38,2.77,2.83,0,.92-.73,2.57-1.58,3.16-.59.46-.99.59-1.38.53-.72-.13-1.45-1.78-2.44-1.78-1.45,0-3.95,2.63-8.17,8.44l2.17,6.72c1.25,3.96,2.24,5.93,3.36,5.93,1.05,0,2.24-.79,4.81-3.89l1.19,1.51c-2.83,4.48-6.06,7.05-8.44,7.05-1.78,0-3.23-2.17-4.81-7.12l-1.78-5.73c-6.46,9.29-9.29,12.85-12.26,12.85-1.71,0-2.9-1.25-2.9-3.09.06-1.91,1.65-3.96,2.9-3.96.92,0,1.52,1.78,2.44,1.78,1.19,0,3.29-2.05,9.09-10.08l-1.78-5.8c-1.12-3.56-1.71-4.81-2.63-4.81-.66,0-1.98.66-4.22,3.75l-1.32-1.45Z"></path>
 &nbsp; &nbsp;<path class="cls-2" d="M723.75,422.4c2.83-4.42,5.74-6.86,7.84-6.86,1.85,0,3.1,2.11,4.61,7.18l.99,3.49c5.73-7.91,8.57-10.68,11.53-10.68,1.91,0,2.83,1.38,2.77,2.83,0,.92-.72,2.57-1.58,3.16-.6.46-.99.6-1.39.53-.72-.13-1.45-1.78-2.44-1.78-1.45,0-3.95,2.64-8.17,8.44l2.17,6.72c1.25,3.95,2.24,5.93,3.36,5.93,1.06,0,2.24-.79,4.81-3.89l1.18,1.52c-2.83,4.48-6.06,7.05-8.44,7.05-1.78,0-3.23-2.17-4.81-7.12l-1.78-5.73c-6.46,9.29-9.29,12.85-12.26,12.85-1.71,0-2.9-1.25-2.9-3.1.07-1.91,1.65-3.95,2.9-3.95.92,0,1.52,1.78,2.44,1.78,1.18,0,3.29-2.04,9.09-10.08l-1.78-5.8c-1.12-3.56-1.71-4.81-2.63-4.81-.66,0-1.98.66-4.22,3.76l-1.32-1.45Z"></path>
 &nbsp; &nbsp;<g>
 &nbsp; &nbsp; &nbsp;<path class="cls-2" d="M775.5,245.97c2.83-4.41,5.74-6.85,7.84-6.85,1.85,0,3.1,2.11,4.61,7.18l.99,3.49c5.73-7.91,8.57-10.67,11.53-10.67,1.91,0,2.83,1.38,2.77,2.83,0,.92-.72,2.57-1.58,3.17-.6.46-.99.59-1.39.53-.72-.14-1.45-1.78-2.44-1.78-1.45,0-3.95,2.64-8.17,8.44l2.17,6.72c1.25,3.95,2.24,5.93,3.36,5.93,1.06,0,2.24-.79,4.81-3.89l1.18,1.52c-2.83,4.48-6.06,7.05-8.44,7.05-1.78,0-3.23-2.17-4.81-7.12l-1.78-5.73c-6.46,9.29-9.29,12.85-12.26,12.85-1.71,0-2.9-1.25-2.9-3.1.07-1.91,1.65-3.95,2.9-3.95.92,0,1.52,1.78,2.44,1.78,1.18,0,3.29-2.04,9.09-10.08l-1.78-5.8c-1.12-3.56-1.71-4.81-2.63-4.81-.66,0-1.98.66-4.22,3.75l-1.32-1.45Z"></path>
 &nbsp; &nbsp; &nbsp;<path class="cls-2" d="M837.75,205.71h2.5l-10.54,65.77-16.75-34.49-6.69,3.08-1.15-2.16,10.17-5.1,13.68,27.8,8.78-54.89Z"></path>
 &nbsp; &nbsp; &nbsp;<path class="cls-2" d="M869.94,260.08c-.86,2.97-1.98,6.32-2.63,8.76h-24.85v-1.58c3.63-3.56,7.58-7.44,10.81-11.2,4.15-4.88,8.1-10.15,8.1-15.88s-2.9-8.63-7.71-8.63c-4.55,0-7.38,3.56-9.09,6.13l-1.52-1.39,3.75-5.33c2.04-2.31,5.21-3.96,9.03-3.96,6.26,0,11.2,4.29,11.2,11.4,0,5.6-2.04,9.55-8.3,15.95-2.83,2.96-6.98,6.98-9.82,9.68h12.59c3.56,0,4.55-.33,6.79-4.48l1.65.53Z"></path>
 &nbsp; &nbsp;</g>
 &nbsp; &nbsp;<path class="cls-2" d="M910.29,393.6h-312.84v-245.96l312.84,245.96ZM604.04,387.01h287.22l-287.22-225.81v225.81Z"></path>
 &nbsp; &nbsp;<path class="cls-2" d="M642.54,391.95h-43.44v-43.44h43.44v43.44ZM602.39,388.66h36.85v-36.85h-36.85v36.85Z"></path>
 &nbsp; &nbsp;<rect class="cls-2" x="837.54" y="204.03" width="29.25" height="3.29"></rect>
 &nbsp;</g>
</svg>