<!--?xml version="1.0" encoding="UTF-8"?-->
<svg id="Layer_1" xmlns="http://www.w3.org/2000/svg" viewBox="0 0 1460 595.28">
 &nbsp;<defs>
 &nbsp; &nbsp;<style>
 &nbsp; &nbsp; &nbsp;.cls-1 {
 &nbsp; &nbsp; &nbsp; &nbsp;fill: none;
 &nbsp; &nbsp; &nbsp;}

 &nbsp; &nbsp; &nbsp;.cls-2, .cls-3 {
 &nbsp; &nbsp; &nbsp; &nbsp;fill: currentColor;
 &nbsp; &nbsp; &nbsp;}

 &nbsp; &nbsp; &nbsp;.cls-3 {
 &nbsp; &nbsp; &nbsp; &nbsp;stroke: currentColor;
 &nbsp; &nbsp; &nbsp; &nbsp;stroke-miterlimit: 10;
 &nbsp; &nbsp; &nbsp;}
 &nbsp; &nbsp;</style>
 &nbsp;</defs>
 &nbsp;<rect class="cls-1" width="1460" height="595.28"></rect>
 &nbsp;<g>
 &nbsp; &nbsp;<path class="cls-2" d="M732.09,445.55h-55.07v-55.07h55.07v55.07ZM681.19,441.37h46.72v-46.72h-46.72v46.72Z"></path>
 &nbsp; &nbsp;<path class="cls-3" d="M879.44,406.46l-2.09-3.59-45.02-77.98-2.09-3.63-74.34-128.8-2.13-3.63-23.76-41.18-23.76,41.18-2.13,3.63-74.34,128.8-2.09,3.63-44.98,77.93-2.09,3.59-23.81,41.22h346.4l-23.76-41.18ZM564.02,443.46l20.17-34.96,2.09-3.59,44.98-77.93,2.09-3.63,74.38-128.8,2.09-3.59,20.17-34.96,20.17,34.96,2.09,3.59,74.38,128.8,2.09,3.63,44.98,77.93,2.09,3.63,20.17,34.92h-331.95Z"></path>
 &nbsp; &nbsp;<g>
 &nbsp; &nbsp; &nbsp;<path class="cls-2" d="M604.5,410.94c1.32-.69,2.76-1.07,4.01-1.07,6.64,0,11.21,5.2,11.21,11.59,0,7.51-5.39,13.84-12.9,13.84s-13.03-6.08-13.03-15.66c0-12.9,9.83-21.05,17.35-23.62,1.38-.51,4.51-1.19,7.08-1.63l.38,2.06c-2.01.44-4.95,1.26-6.83,2.14-3.82,1.75-9.77,5.88-11.47,14.47l4.2-2.13ZM606.01,413.45c-2.51,0-4.64.94-6.08,1.75-.25,1.13-.38,2.69-.38,4.26,0,7.83,2.94,13.59,8.27,13.59,4.89,0,6.39-5.13,6.39-9.33,0-5.2-2.51-10.27-8.21-10.27Z"></path>
 &nbsp; &nbsp; &nbsp;<path class="cls-2" d="M637.14,394.77c9.4,0,12.9,10.52,12.9,20.24,0,9.14-3.51,20.3-12.9,20.3s-13.09-10.34-13.09-20.24c0-9.14,3.57-20.3,13.09-20.3ZM637.14,396.97c-5.82,0-7.26,9.21-7.26,17.98s1.75,18.17,7.26,18.17,7.14-9.33,7.14-18.1-1.57-18.04-7.14-18.04Z"></path>
 &nbsp; &nbsp; &nbsp;<path class="cls-2" d="M663.58,394.77c4.63,0,8.58,3.32,8.58,8.65s-4.14,8.77-8.58,8.77c-4.7,0-8.65-3.32-8.65-8.77,0-5.14,3.95-8.65,8.65-8.65ZM663.58,397.6c-3.26,0-5.2,2.44-5.2,5.82s2.19,5.89,5.2,5.89,5.14-2.19,5.14-5.77-2.13-5.95-5.14-5.95Z"></path>
 &nbsp; &nbsp;</g>
 &nbsp; &nbsp;<g>
 &nbsp; &nbsp; &nbsp;<path class="cls-2" d="M785.4,177.82l2.94-3.95c1.82-2,4.7-3.56,8.08-3.56,5.7,0,9.46,3.56,9.46,8.33,0,1.88-.82,3.39-1.95,4.63-1,1.07-2.63,2.19-4.45,3.39,5.82,1.26,9.27,5.07,9.27,9.65,0,10.21-12.03,14.53-16.48,14.53-2.94,0-5.64-1.25-6.52-2.19-.75-.82-.94-1.38-.94-2.07.07-1,.88-1.94,1.44-2.38.5-.38,1.06-.43,1.62.07,1.7,1.5,4.2,3.32,7.77,3.32,4.51,0,7.7-3.39,7.7-9.46-.06-5.76-4.26-8.02-8.27-8.02-1.44,0-3.19.38-4.2.69l-.44-1.88c5.58-1.82,10.09-4.32,10.09-8.96,0-3.7-2.38-5.82-6.02-5.82s-6.2,2.57-7.83,4.95l-1.32-1.26Z"></path>
 &nbsp; &nbsp; &nbsp;<path class="cls-2" d="M827.62,170.31c9.4,0,12.9,10.52,12.9,20.23,0,9.14-3.51,20.3-12.9,20.3s-13.09-10.34-13.09-20.23c0-9.14,3.57-20.3,13.09-20.3ZM827.62,172.5c-5.82,0-7.26,9.21-7.26,17.99s1.75,18.17,7.26,18.17,7.15-9.34,7.15-18.11-1.57-18.04-7.15-18.04Z"></path>
 &nbsp; &nbsp; &nbsp;<path class="cls-2" d="M854.06,170.31c4.63,0,8.58,3.32,8.58,8.64s-4.14,8.78-8.58,8.78c-4.7,0-8.65-3.32-8.65-8.78,0-5.13,3.95-8.64,8.65-8.64ZM854.06,173.13c-3.25,0-5.2,2.45-5.2,5.82s2.19,5.89,5.2,5.89,5.14-2.19,5.14-5.76-2.13-5.95-5.14-5.95Z"></path>
 &nbsp; &nbsp;</g>
 &nbsp; &nbsp;<g>
 &nbsp; &nbsp; &nbsp;<path class="cls-2" d="M796.61,411.69c1.32-.69,2.76-1.07,4.01-1.07,6.64,0,11.21,5.2,11.21,11.59,0,7.52-5.39,13.84-12.9,13.84s-13.03-6.08-13.03-15.66c0-12.9,9.84-21.05,17.35-23.62,1.37-.5,4.51-1.19,7.08-1.63l.38,2.06c-2,.44-4.95,1.26-6.83,2.13-3.82,1.75-9.77,5.89-11.46,14.47l4.19-2.13ZM798.12,414.2c-2.51,0-4.64.94-6.08,1.75-.25,1.13-.38,2.69-.38,4.26,0,7.83,2.94,13.59,8.27,13.59,4.89,0,6.39-5.14,6.39-9.33,0-5.2-2.51-10.27-8.21-10.27Z"></path>
 &nbsp; &nbsp; &nbsp;<path class="cls-2" d="M829.26,395.53c9.4,0,12.9,10.52,12.9,20.23,0,9.14-3.51,20.3-12.9,20.3s-13.09-10.34-13.09-20.23c0-9.14,3.57-20.3,13.09-20.3ZM829.26,397.72c-5.82,0-7.26,9.21-7.26,17.98s1.75,18.17,7.26,18.17,7.14-9.34,7.14-18.11-1.57-18.04-7.14-18.04Z"></path>
 &nbsp; &nbsp; &nbsp;<path class="cls-2" d="M855.69,395.53c4.64,0,8.59,3.32,8.59,8.64s-4.14,8.77-8.59,8.77c-4.7,0-8.64-3.32-8.64-8.77,0-5.14,3.94-8.64,8.64-8.64ZM855.69,398.35c-3.25,0-5.2,2.44-5.2,5.82s2.19,5.89,5.2,5.89,5.14-2.19,5.14-5.76-2.13-5.95-5.14-5.95Z"></path>
 &nbsp; &nbsp;</g>
 &nbsp; &nbsp;<g>
 &nbsp; &nbsp; &nbsp;<rect class="cls-2" x="727.91" y="155.99" width="4.18" height="10.44"></rect>
 &nbsp; &nbsp; &nbsp;<path class="cls-2" d="M732.09,412.51h-4.18v-20.51h4.18v20.51ZM732.09,371.5h-4.18v-20.51h4.18v20.51ZM732.09,330.49h-4.18v-20.51h4.18v20.51ZM732.09,289.47h-4.18v-20.51h4.18v20.51ZM732.09,248.46h-4.18v-20.51h4.18v20.51ZM732.09,207.45h-4.18v-20.51h4.18v20.51Z"></path>
 &nbsp; &nbsp; &nbsp;<rect class="cls-2" x="727.91" y="433.02" width="4.18" height="10.44"></rect>
 &nbsp; &nbsp;</g>
 &nbsp; &nbsp;<g>
 &nbsp; &nbsp; &nbsp;<path class="cls-2" d="M770.63,244.74c-4.13,0-7.98-1.19-11.5-3.57-2.61-1.76-4.64-3.28-6.4-4.79l2.72-3.17c1.63,1.4,3.54,2.83,6.01,4.5,4.03,2.72,8.65,3.49,13.72,2.29,12.68-3.01,24.62-16.95,29.17-25.04l3.64,2.05c-4.89,8.7-17.86,23.75-31.84,27.06-1.89.45-3.73.67-5.52.67Z"></path>
 &nbsp; &nbsp; &nbsp;<polygon class="cls-2" points="745.26 219.45 749.99 245.97 755.44 235.52 767.21 235.07 745.26 219.45"></polygon>
 &nbsp; &nbsp;</g>
 &nbsp; &nbsp;<g>
 &nbsp; &nbsp; &nbsp;<path class="cls-2" d="M610.28,174.99l2.94-3.95c1.81-2.01,4.7-3.57,8.08-3.57,5.7,0,9.46,3.57,9.46,8.34,0,1.88-.82,3.38-1.95,4.63-1,1.06-2.63,2.19-4.45,3.39,5.82,1.25,9.27,5.07,9.27,9.64,0,10.21-12.03,14.54-16.47,14.54-2.94,0-5.64-1.26-6.52-2.19-.75-.82-.94-1.38-.94-2.06.06-1,.88-1.94,1.44-2.38.5-.38,1.06-.44,1.63.07,1.69,1.5,4.2,3.32,7.77,3.32,4.51,0,7.7-3.39,7.7-9.46-.06-5.77-4.26-8.02-8.27-8.02-1.44,0-3.2.38-4.2.69l-.44-1.88c5.58-1.82,10.09-4.32,10.09-8.96,0-3.7-2.38-5.82-6.02-5.82s-6.2,2.56-7.83,4.94l-1.32-1.25Z"></path>
 &nbsp; &nbsp; &nbsp;<path class="cls-2" d="M652.5,167.47c9.4,0,12.9,10.52,12.9,20.24,0,9.14-3.51,20.3-12.9,20.3s-13.09-10.34-13.09-20.24c0-9.14,3.57-20.3,13.09-20.3ZM652.5,169.67c-5.82,0-7.26,9.21-7.26,17.98s1.75,18.17,7.26,18.17,7.14-9.33,7.14-18.1-1.57-18.04-7.14-18.04Z"></path>
 &nbsp; &nbsp; &nbsp;<path class="cls-2" d="M678.94,167.47c4.63,0,8.58,3.32,8.58,8.65s-4.14,8.77-8.58,8.77c-4.7,0-8.65-3.32-8.65-8.77,0-5.14,3.95-8.65,8.65-8.65ZM678.94,170.29c-3.26,0-5.2,2.44-5.2,5.82s2.19,5.89,5.2,5.89,5.14-2.19,5.14-5.77-2.13-5.95-5.14-5.95Z"></path>
 &nbsp; &nbsp;</g>
 &nbsp; &nbsp;<g>
 &nbsp; &nbsp; &nbsp;<path class="cls-2" d="M688.87,244.74c-1.79,0-3.63-.22-5.52-.67-13.98-3.31-26.95-18.35-31.84-27.06l3.64-2.05c4.55,8.09,16.48,22.04,29.17,25.04,5.07,1.2,9.69.43,13.73-2.29,2.47-1.67,4.38-3.1,6.01-4.5l2.72,3.17c-1.75,1.5-3.78,3.02-6.39,4.79-3.52,2.37-7.37,3.57-11.51,3.57Z"></path>
 &nbsp; &nbsp; &nbsp;<polygon class="cls-2" points="714.23 219.45 692.29 235.07 704.06 235.52 709.5 245.97 714.23 219.45"></polygon>
 &nbsp; &nbsp;</g>
 &nbsp;</g>
</svg>