<!--?xml version="1.0" encoding="UTF-8"?-->
<svg id="Layer_1" xmlns="http://www.w3.org/2000/svg" viewBox="0 0 1460 595.28">
 &nbsp;<defs>
 &nbsp; &nbsp;<style>
 &nbsp; &nbsp; &nbsp;.cls-1 {
 &nbsp; &nbsp; &nbsp; &nbsp;fill: none;
 &nbsp; &nbsp; &nbsp;}

 &nbsp; &nbsp; &nbsp;.cls-2 {
 &nbsp; &nbsp; &nbsp; &nbsp;fill: currentColor;
 &nbsp; &nbsp; &nbsp;}
 &nbsp; &nbsp;</style>
 &nbsp;</defs>
 &nbsp;<rect class="cls-1" width="1460" height="595.28"></rect>
 &nbsp;<g>
 &nbsp; &nbsp;<rect class="cls-2" x="545.64" y="474.22" width="402.3" height="5.18"></rect>
 &nbsp; &nbsp;<rect class="cls-2" x="545.64" y="72.64" width="5.18" height="404.17"></rect>
 &nbsp; &nbsp;<g>
 &nbsp; &nbsp; &nbsp;<path class="cls-2" d="M678.21,513.63v-.96c1.99-.21,2.26-.38,2.26-2.64v-5.62c0-2.84-1.09-4.28-3.39-4.25-1.3,0-2.67.65-3.63,1.78v8.08c0,2.23.28,2.43,2.33,2.64v.96h-7.47v-.96c1.99-.17,2.43-.34,2.43-2.64v-16.51c0-1.82-.1-2.26-2.4-2.47v-.89c1.82-.17,3.87-.69,5.1-1.16v11.68c1.23-1.23,3.12-2.5,4.97-2.5,2.81,0,4.76,1.75,4.76,5.86v6.03c0,2.26.28,2.43,2.26,2.6v.96h-7.23Z"></path>
 &nbsp; &nbsp; &nbsp;<path class="cls-2" d="M695.27,513.63h-7.88v-.96c2.16-.21,2.36-.38,2.36-2.6v-7.13c0-2.26-.14-2.36-2.12-2.6v-.86c1.68-.27,3.22-.69,4.83-1.4v3.77c1.2-1.78,2.64-3.67,4.35-3.67,1.27,0,1.98.79,1.98,1.65,0,.79-.55,1.54-1.16,1.88-.34.2-.62.17-.89-.07-.52-.52-.93-.86-1.54-.86-.72,0-1.99,1.06-2.74,2.81v6.44c0,2.26.17,2.43,2.81,2.64v.96Z"></path>
 &nbsp; &nbsp; &nbsp;<path class="cls-2" d="M708.87,502.67c-.62-1.99-1.51-3.36-3.6-3.36-1.2,0-2.12.86-2.12,2.23,0,1.47.99,2.16,2.91,3.05,2.95,1.4,4.42,2.43,4.42,4.69,0,3.15-2.88,4.76-5.58,4.76-1.78,0-3.36-.55-4.08-.96-.17-.99-.48-2.88-.62-4.01l.99-.17c.61,2.19,1.82,3.97,4.21,3.97,1.3,0,2.4-.89,2.4-2.33,0-1.54-.93-2.33-2.74-3.22-2.4-1.16-4.35-2.26-4.35-4.73s2.12-4.42,5.34-4.42c1.44,0,2.6.34,3.29.45.1.82.34,2.98.51,3.8l-.99.24Z"></path>
 &nbsp; &nbsp; &nbsp;<path class="cls-2" d="M715.21,514.11c-1.23,0-2.09-.89-2.09-2.19s.86-2.19,2.09-2.19,2.16.96,2.16,2.19c0,1.3-.93,2.19-2.16,2.19Z"></path>
 &nbsp; &nbsp; &nbsp;<path class="cls-2" d="M736.96,502.67c-.62-1.99-1.51-3.36-3.6-3.36-1.2,0-2.12.86-2.12,2.23,0,1.47.99,2.16,2.91,3.05,2.95,1.4,4.42,2.43,4.42,4.69,0,3.15-2.88,4.76-5.58,4.76-1.78,0-3.36-.55-4.08-.96-.17-.99-.48-2.88-.62-4.01l.99-.17c.61,2.19,1.82,3.97,4.21,3.97,1.3,0,2.4-.89,2.4-2.33,0-1.54-.93-2.33-2.74-3.22-2.4-1.16-4.35-2.26-4.35-4.73s2.12-4.42,5.34-4.42c1.44,0,2.6.34,3.29.45.1.82.34,2.98.51,3.8l-.99.24Z"></path>
 &nbsp; &nbsp; &nbsp;<path class="cls-2" d="M747.2,513.59c-.58.31-1.13.45-1.47.45-2.19,0-3.36-1.34-3.36-4.08v-9.97h-2.36l-.14-.41.93-.99h1.58v-2.88c.65-.69,1.64-1.58,2.3-2.26l.51.07c-.07,1.44-.1,3.43-.1,5.07h3.9c.31.34.21,1.09-.2,1.4h-3.7v8.77c0,2.78,1.1,3.29,1.99,3.29.82,0,1.61-.31,2.09-.55l.31.89-2.26,1.2Z"></path>
 &nbsp; &nbsp; &nbsp;<path class="cls-2" d="M767,512.84c-1.64.24-3.49.69-5.24,1.2v-2.64c-1.85,1.54-3.36,2.64-5.24,2.64-2.3,0-4.28-1.41-4.28-5.14v-6.65c0-1.85-.27-2.05-1.13-2.23l-.96-.17v-.89c1.47-.07,3.73-.41,4.9-.62-.1,1.1-.1,2.74-.1,5v4.66c0,3.01,1.58,3.87,3.12,3.87,1.27,0,2.54-.55,3.7-1.64v-7.98c0-1.85-.41-2.09-1.58-2.26l-1.09-.14v-.89c2.19-.1,4.59-.48,5.38-.62v11.47c0,1.71.27,1.95,1.58,2.02l.96.03v.96Z"></path>
 &nbsp; &nbsp; &nbsp;<path class="cls-2" d="M785.26,512.77c-.72.14-3.29.55-5.31,1.27v-2.23c-.62.38-1.51.86-2.12,1.23-1.37.79-2.3.99-2.71.99-2.74,0-6.37-2.74-6.37-7.54s4.18-8.32,8.87-8.32c.48,0,1.61.07,2.33.38v-5.03c0-2.19-.24-2.26-2.67-2.47v-.89c1.71-.24,4.11-.72,5.38-1.16v20.66c0,1.78.24,2.02,1.51,2.09l1.1.07v.96ZM779.95,501.26c-.79-1.2-2.26-1.75-3.6-1.75-1.64,0-4.55,1.09-4.55,6.03,0,4.14,2.57,6.34,4.76,6.37,1.23,0,2.57-.62,3.39-1.23v-9.42Z"></path>
 &nbsp; &nbsp; &nbsp;<path class="cls-2" d="M801.91,499.52c-1.78.27-2.16.55-3.01,2.5-.86,1.92-1.78,4.25-4.14,10.21-2.23,5.48-2.84,7.6-3.39,9.38-.2.72-.58.89-1.03.89-1.1,0-2.09-.79-2.09-1.65,0-.45.24-.75.75-1.2,1.09-.85,1.88-1.68,2.29-2.53.72-1.44,1.23-2.64,1.41-3.08.14-.52.14-.82-.07-1.41-1.34-3.9-3.19-8.12-4.22-10.58-.75-1.88-1.06-2.29-2.95-2.53v-.93h6.92v.93c-1.58.24-1.75.58-1.3,1.85l3.32,8.43c.96-2.36,2.33-6.17,3.05-8.32.41-1.3.17-1.68-1.82-1.95v-.93h6.27v.93Z"></path>
 &nbsp; &nbsp; &nbsp;<path class="cls-2" d="M803.28,513.63v-.96c2.16-.21,2.4-.38,2.4-2.71v-7.05c0-2.12-.1-2.26-2.16-2.6v-.82c1.78-.31,3.39-.75,4.86-1.37v11.85c0,2.33.24,2.5,2.47,2.71v.96h-7.57ZM806.84,494.76c-.96,0-1.82-.86-1.82-1.82,0-1.1.86-1.88,1.85-1.88s1.75.79,1.75,1.88c0,.96-.79,1.82-1.78,1.82Z"></path>
 &nbsp; &nbsp; &nbsp;<path class="cls-2" d="M822.43,513.63v-.96c1.99-.21,2.19-.45,2.19-2.78v-5.65c0-2.4-.85-4.01-3.12-4.01-1.4,0-2.74.82-3.8,1.78v8.02c0,2.36.2,2.43,2.23,2.64v.96h-7.4v-.96c2.26-.24,2.47-.38,2.47-2.64v-7.06c0-2.23-.24-2.33-2.09-2.64v-.89c1.68-.28,3.36-.72,4.8-1.37v2.71c.69-.48,1.44-.99,2.33-1.58.96-.62,1.85-1.03,2.84-1.03,2.74,0,4.45,2.02,4.45,5.35v6.51c0,2.33.21,2.43,2.19,2.64v.96h-7.09Z"></path>
 &nbsp; &nbsp; &nbsp;<path class="cls-2" d="M836.06,508.63c-.82.65-1.13,1.3-1.13,1.71,0,.61.58,1.3,2.12,1.3,1.27,0,2.71-.03,3.84-.03,2.19,0,5,.72,5,4.11,0,3.56-4.21,6.92-8.77,6.92-3.87,0-5.96-2.26-6.03-4.28,0-.75.31-1.4.86-1.95.69-.72,2.02-1.85,2.81-2.47-1.23-.34-2.12-1.13-2.57-1.85-.31-.51-.41-1.13-.41-1.47,1.3-.48,2.47-1.44,3.15-2.36l1.13.38ZM837.71,508.97c-3.19,0-5.82-1.95-5.82-5.17,0-3.9,3.49-5.72,6.16-5.72,1.13,0,2.26.31,3.29.85,1.58,0,3.63-.27,4.59-.51l.2.31c-.2.55-.75,1.51-1.27,1.82-.51,0-1.64-.14-2.12-.17.58.79.99,1.88.99,3.12,0,3.73-3.08,5.48-6.03,5.48ZM838.5,514.04c-1.68,0-2.43.2-3.05.72-.96.79-1.65,1.82-1.65,2.81,0,1.88,1.95,3.29,4.59,3.29,3.25,0,5.1-1.68,5.1-3.87,0-1.17-.55-2.09-1.51-2.5-.86-.38-2.06-.45-3.49-.45ZM837.71,499.17c-1.54,0-2.91,1.41-2.91,4.11s1.37,4.59,3.25,4.59c1.51-.07,2.84-1.34,2.84-4.11s-1.27-4.59-3.19-4.59Z"></path>
 &nbsp; &nbsp;</g>
 &nbsp; &nbsp;<g>
 &nbsp; &nbsp; &nbsp;<path class="cls-2" d="M525.45,292.86c.27,2.12.48,2.26,2.5,2.26h2.88c1.2,0,2.33-.03,3.25-.2.48,2.12,1.23,4.9,1.23,7.77,0,7.78-4.83,12.51-11.71,12.51-7.23,0-11.54-5.89-11.54-12.74,0-3.49.69-6.06.86-7.13,1.27-.07,3.36-.24,5.51-.51l.2,1.03c-2.91.82-4.14,1.82-4.86,3.97-.27.79-.45,2.19-.45,3.18,0,5.24,3.6,8.63,9.87,8.63,5.45,0,10.86-2.81,10.86-9.45,0-1.17-.24-2.23-.58-2.91-.41-.72-.79-1.16-2.19-1.16h-2.81c-2.5,0-2.77.27-3.01,3.56h-.99v-8.8h.99Z"></path>
 &nbsp; &nbsp; &nbsp;<path class="cls-2" d="M512.54,281.34c0-2.43.45-4.38,1.47-5.79.99-1.34,2.6-2.26,4.86-2.26,5,0,7.02,4.28,7.02,7.53,0,.38-.04.72-.07.93l-.62,2.36h5.34c2.88,0,2.95-.24,3.29-3.39h.96v9.46h-.96c-.31-2.95-.52-3.08-3.36-3.08h-13.6c-3.05,0-3.12.38-3.39,3.08h-.96v-8.84ZM524.01,284.12c.2-.41.45-1.34.45-2.5,0-2.29-1.17-5.14-5.48-5.14-3.77,0-5.27,2.47-5.27,5.35,0,.99.17,1.71.41,1.92.24.28.65.38,1.58.38h8.32Z"></path>
 &nbsp; &nbsp; &nbsp;<path class="cls-2" d="M534.8,260.41h-.96c-.28-2.23-.62-2.5-1.92-2.02-1.34.45-3.05,1.13-5.21,1.85v7.4c1.54.55,2.88,1.06,4.28,1.54,2.23.75,2.5.28,2.84-2.53h.96v7.91h-.96c-.28-2.16-.52-2.71-3.6-3.91l-17.98-7.09-.2-1.09c5.86-2.16,12.33-4.52,18.26-6.68,2.98-1.1,3.25-1.41,3.53-3.84h.96v8.46ZM516.54,263.84c2.95,1.09,6.06,2.26,8.77,3.29v-6.41l-8.77,3.12Z"></path>
 &nbsp; &nbsp;</g>
 &nbsp; &nbsp;<circle class="cls-2" cx="728.69" cy="311.62" r="6.73"></circle>
 &nbsp; &nbsp;<circle class="cls-2" cx="778.51" cy="346.9" r="6.73"></circle>
 &nbsp; &nbsp;<circle class="cls-2" cx="668.31" cy="321.92" r="6.73"></circle>
 &nbsp; &nbsp;<circle class="cls-2" cx="645.78" cy="315.19" r="6.73"></circle>
 &nbsp; &nbsp;<circle class="cls-2" cx="679" cy="272.14" r="6.73"></circle>
 &nbsp; &nbsp;<circle class="cls-2" cx="715.23" cy="292.32" r="6.73"></circle>
 &nbsp; &nbsp;<circle class="cls-2" cx="715.23" cy="231.46" r="6.73"></circle>
 &nbsp; &nbsp;<circle class="cls-2" cx="785.24" cy="265.41" r="6.73"></circle>
 &nbsp; &nbsp;<circle class="cls-2" cx="721.96" cy="359.57" r="6.73"></circle>
 &nbsp; &nbsp;<circle class="cls-2" cx="679" cy="367.12" r="6.73"></circle>
 &nbsp; &nbsp;<circle class="cls-2" cx="638.46" cy="346.9" r="6.73"></circle>
 &nbsp; &nbsp;<circle class="cls-2" cx="652.51" cy="363.97" r="6.73"></circle>
 &nbsp; &nbsp;<circle class="cls-2" cx="619.14" cy="355.21" r="6.73"></circle>
 &nbsp; &nbsp;<circle class="cls-2" cx="616.59" cy="398.21" r="6.73"></circle>
 &nbsp; &nbsp;<circle class="cls-2" cx="605.27" cy="427.66" r="6.73"></circle>
 &nbsp; &nbsp;<circle class="cls-2" cx="594.69" cy="407.67" r="6.73"></circle>
 &nbsp; &nbsp;<circle class="cls-2" cx="591.36" cy="382.53" r="6.73"></circle>
 &nbsp; &nbsp;<circle class="cls-2" cx="616.59" cy="450.32" r="6.73"></circle>
 &nbsp; &nbsp;<circle class="cls-2" cx="579.05" cy="435.92" r="6.73"></circle>
 &nbsp; &nbsp;<circle class="cls-2" cx="585.08" cy="455.87" r="6.73"></circle>
 &nbsp; &nbsp;<circle class="cls-2" cx="800.89" cy="304.93" r="6.73"></circle>
 &nbsp; &nbsp;<circle class="cls-2" cx="754.28" cy="276.42" r="6.73"></circle>
 &nbsp; &nbsp;<circle class="cls-2" cx="766.74" cy="219" r="6.73"></circle>
 &nbsp; &nbsp;<circle class="cls-2" cx="801.95" cy="231.46" r="6.73"></circle>
 &nbsp; &nbsp;<circle class="cls-2" cx="831.74" cy="265.04" r="6.73"></circle>
 &nbsp; &nbsp;<circle class="cls-2" cx="820.99" cy="241.75" r="6.73"></circle>
 &nbsp; &nbsp;<circle class="cls-2" cx="837.54" cy="241.75" r="6.73"></circle>
 &nbsp; &nbsp;<circle class="cls-2" cx="868.8" cy="205.65" r="6.73"></circle>
 &nbsp; &nbsp;<circle class="cls-2" cx="815.19" cy="193.14" r="6.73"></circle>
 &nbsp; &nbsp;<circle class="cls-2" cx="825.47" cy="209.23" r="6.73"></circle>
 &nbsp; &nbsp;<circle class="cls-2" cx="867.91" cy="231.57" r="6.73"></circle>
 &nbsp; &nbsp;<circle class="cls-2" cx="887.12" cy="171.25" r="6.73"></circle>
 &nbsp; &nbsp;<circle class="cls-2" cx="874.61" cy="180.19" r="6.73"></circle>
 &nbsp; &nbsp;<g>
 &nbsp; &nbsp; &nbsp;<line class="cls-2" x1="567.47" y1="455.87" x2="917.57" y2="142.04"></line>
 &nbsp; &nbsp; &nbsp;<rect class="cls-2" x="507.44" y="297.66" width="470.17" height="2.59" transform="translate(-9.74 572.48) rotate(-41.91)"></rect>
 &nbsp; &nbsp;</g>
 &nbsp;</g>
</svg>