<!--?xml version="1.0" encoding="UTF-8"?-->
<svg id="Layer_1" xmlns="http://www.w3.org/2000/svg" viewBox="0 0 1460.61 595.28">
 &nbsp;<defs>
 &nbsp; &nbsp;<style>
 &nbsp; &nbsp; &nbsp;.cls-1 {
 &nbsp; &nbsp; &nbsp; &nbsp;fill: none;
 &nbsp; &nbsp; &nbsp;}

 &nbsp; &nbsp; &nbsp;.cls-2 {
 &nbsp; &nbsp; &nbsp; &nbsp;fill: currentColor;
 &nbsp; &nbsp; &nbsp;}
 &nbsp; &nbsp;</style>
 &nbsp;</defs>
 &nbsp;<rect class="cls-1" x=".61" width="1460" height="595.28"></rect>
 &nbsp;<g>
 &nbsp; &nbsp;<g>
 &nbsp; &nbsp; &nbsp;<g>
 &nbsp; &nbsp; &nbsp; &nbsp;<rect class="cls-2" x="3.31" y="399.57" width="278.45" height="2.31"></rect>
 &nbsp; &nbsp; &nbsp; &nbsp;<rect class="cls-2" x="3.31" y="119.68" width="2.31" height="281.04"></rect>
 &nbsp; &nbsp; &nbsp; &nbsp;<circle class="cls-2" cx="136.82" cy="279.14" r="4.68"></circle>
 &nbsp; &nbsp; &nbsp; &nbsp;<circle class="cls-2" cx="251.33" cy="252.04" r="4.68"></circle>
 &nbsp; &nbsp; &nbsp; &nbsp;<circle class="cls-2" cx="87.96" cy="293.02" r="4.68"></circle>
 &nbsp; &nbsp; &nbsp; &nbsp;<circle class="cls-2" cx="115.8" cy="264.88" r="4.68"></circle>
 &nbsp; &nbsp; &nbsp; &nbsp;<circle class="cls-2" cx="86.08" cy="256.28" r="4.68"></circle>
 &nbsp; &nbsp; &nbsp; &nbsp;<circle class="cls-2" cx="106.59" cy="233.41" r="4.68"></circle>
 &nbsp; &nbsp; &nbsp; &nbsp;<circle class="cls-2" cx="155.05" cy="241.95" r="4.68"></circle>
 &nbsp; &nbsp; &nbsp; &nbsp;<circle class="cls-2" cx="170.19" cy="296.14" r="4.68"></circle>
 &nbsp; &nbsp; &nbsp; &nbsp;<circle class="cls-2" cx="115.91" cy="305.71" r="4.68"></circle>
 &nbsp; &nbsp; &nbsp; &nbsp;<circle class="cls-2" cx="115.8" cy="329.67" r="4.68"></circle>
 &nbsp; &nbsp; &nbsp; &nbsp;<circle class="cls-2" cx="67.21" cy="296.14" r="4.68"></circle>
 &nbsp; &nbsp; &nbsp; &nbsp;<circle class="cls-2" cx="97.38" cy="327.48" r="4.68"></circle>
 &nbsp; &nbsp; &nbsp; &nbsp;<circle class="cls-2" cx="34.46" cy="301.9" r="4.68"></circle>
 &nbsp; &nbsp; &nbsp; &nbsp;<circle class="cls-2" cx="125.69" cy="361.37" r="4.68"></circle>
 &nbsp; &nbsp; &nbsp; &nbsp;<circle class="cls-2" cx="63.64" cy="372.28" r="4.68"></circle>
 &nbsp; &nbsp; &nbsp; &nbsp;<circle class="cls-2" cx="57.38" cy="240.26" r="4.68"></circle>
 &nbsp; &nbsp; &nbsp; &nbsp;<circle class="cls-2" cx="34.46" cy="335.16" r="4.68"></circle>
 &nbsp; &nbsp; &nbsp; &nbsp;<circle class="cls-2" cx="72.83" cy="342.4" r="4.68"></circle>
 &nbsp; &nbsp; &nbsp; &nbsp;<circle class="cls-2" cx="25.89" cy="372.28" r="4.68"></circle>
 &nbsp; &nbsp; &nbsp; &nbsp;<circle class="cls-2" cx="150.37" cy="327.48" r="4.68"></circle>
 &nbsp; &nbsp; &nbsp; &nbsp;<circle class="cls-2" cx="181.07" cy="310.17" r="4.68"></circle>
 &nbsp; &nbsp; &nbsp; &nbsp;<circle class="cls-2" cx="115.38" cy="203.13" r="4.68"></circle>
 &nbsp; &nbsp; &nbsp; &nbsp;<circle class="cls-2" cx="180.15" cy="212.17" r="4.68"></circle>
 &nbsp; &nbsp; &nbsp; &nbsp;<circle class="cls-2" cx="159.73" cy="204.98" r="4.68"></circle>
 &nbsp; &nbsp; &nbsp; &nbsp;<circle class="cls-2" cx="202.52" cy="295.88" r="4.68"></circle>
 &nbsp; &nbsp; &nbsp; &nbsp;<circle class="cls-2" cx="196.76" cy="266.58" r="4.68"></circle>
 &nbsp; &nbsp; &nbsp; &nbsp;<circle class="cls-2" cx="208.28" cy="266.58" r="4.68"></circle>
 &nbsp; &nbsp; &nbsp; &nbsp;<circle class="cls-2" cx="227.37" cy="212.17" r="4.68"></circle>
 &nbsp; &nbsp; &nbsp; &nbsp;<circle class="cls-2" cx="236.18" cy="165.92" r="4.68"></circle>
 &nbsp; &nbsp; &nbsp; &nbsp;<circle class="cls-2" cx="187.18" cy="157.44" r="4.68"></circle>
 &nbsp; &nbsp; &nbsp; &nbsp;<circle class="cls-2" cx="226.75" cy="230.19" r="4.68"></circle>
 &nbsp; &nbsp; &nbsp; &nbsp;<circle class="cls-2" cx="240.11" cy="188.25" r="4.68"></circle>
 &nbsp; &nbsp; &nbsp; &nbsp;<circle class="cls-2" cx="202.52" cy="183.57" r="4.68"></circle>
 &nbsp; &nbsp; &nbsp;</g>
 &nbsp; &nbsp; &nbsp;<g>
 &nbsp; &nbsp; &nbsp; &nbsp;<path class="cls-2" d="M25.51,449.36c-1.89.27-2.16.49-2.89,2.7-.89,2.7-3.05,9.56-4.54,14.39h-.92c-1.4-4.21-3.21-9.42-4.62-13.42-1.57,4.64-3.16,9.26-4.56,13.42h-.89c-1.35-4.64-2.89-9.69-4.35-14.42-.7-2.19-1-2.48-2.75-2.67v-.76h6.67v.76c-2,.22-2.05.51-1.67,1.86,1.05,3.65,2.13,7.24,3.24,11.04,1.48-4.29,3.1-8.99,4.48-13.42h.86c1.51,4.59,3.02,8.86,4.59,13.45,1.13-3.59,2.67-8.4,3.27-10.75.4-1.57.19-1.92-2.11-2.19v-.76h6.18v.76Z"></path>
 &nbsp; &nbsp; &nbsp; &nbsp;<path class="cls-2" d="M34.05,463.86c-1.73,2.16-3.62,2.62-4.48,2.62-3.29,0-5.29-2.7-5.29-5.8,0-1.84.65-3.54,1.75-4.72,1.13-1.27,2.62-1.97,4.02-1.97,2.35,0,4.13,2.03,4.13,4.19-.03.54-.11.78-.54.89-.54.11-4,.35-7.21.46-.08,3.62,2.13,5.1,4.05,5.1,1.11,0,2.13-.46,3.13-1.38l.43.62ZM29.41,455c-1.24,0-2.46,1.16-2.84,3.35,1.51,0,3.02,0,4.62-.08.49,0,.65-.14.65-.54.03-1.43-.92-2.73-2.43-2.73Z"></path>
 &nbsp; &nbsp; &nbsp; &nbsp;<path class="cls-2" d="M44.61,466.48c-.41,0-1-.22-1.27-.51-.35-.35-.51-.73-.65-1.22-1.08.73-2.4,1.73-3.24,1.73-1.92,0-3.29-1.59-3.29-3.32,0-1.32.73-2.19,2.21-2.7,1.65-.57,3.67-1.27,4.27-1.75v-.54c0-1.92-.97-3.02-2.38-3.02-.62,0-1,.3-1.27.62-.3.38-.49.97-.73,1.75-.14.43-.38.62-.78.62-.51,0-1.19-.54-1.19-1.19,0-.38.35-.7.89-1.08.78-.57,2.35-1.57,3.89-1.89.81,0,1.65.24,2.27.73.94.81,1.38,1.73,1.38,3.13v5.21c0,1.24.46,1.62.95,1.62.32,0,.68-.14.97-.3l.27.76-2.29,1.35ZM42.64,459.65c-.59.3-1.89.86-2.51,1.13-1.03.46-1.65.97-1.65,1.97,0,1.43,1.08,2.08,1.94,2.08.7,0,1.67-.43,2.21-.97v-4.21Z"></path>
 &nbsp; &nbsp; &nbsp; &nbsp;<path class="cls-2" d="M61.16,466.15c-1.46,0-3.05.03-3.62.05-.16-.19-4.4-5.21-4.56-5.37-.38-.43-.54-.57-.78-.57-.11,0-.32,0-.49.05v3c0,1.81.14,1.92,1.89,2.08v.76h-5.97v-.76c1.81-.16,1.94-.35,1.94-2.08v-12.91c0-1.75-.19-1.81-1.86-2.05v-.7c1.4-.14,3.02-.54,4-.92v12.88c.81-.19,1.32-.51,1.73-.94.62-.62,1.62-1.84,2.08-2.51.57-.78.35-1-.95-1.11v-.76l5.56-.24v.73c-1.89.3-2.43.51-3.59,1.73-.51.54-1.73,1.92-2.29,2.62.54.76,3.29,3.89,4.19,4.83,1.3,1.3,1.67,1.38,2.73,1.43v.76Z"></path>
 &nbsp; &nbsp; &nbsp; &nbsp;<path class="cls-2" d="M74.86,448.6c1.92,0,3.46.35,4.56,1.16,1.05.78,1.78,2.05,1.78,3.83,0,3.94-3.37,5.53-5.94,5.53-.3,0-.57-.03-.73-.05l-1.86-.49v4.21c0,2.27.19,2.32,2.67,2.59v.76h-7.45v-.76c2.32-.24,2.43-.4,2.43-2.65v-10.72c0-2.4-.3-2.46-2.43-2.67v-.76h6.97ZM72.67,457.65c.32.16,1.05.35,1.97.35,1.81,0,4.05-.92,4.05-4.32,0-2.97-1.94-4.16-4.21-4.16-.78,0-1.35.14-1.51.32-.22.19-.3.51-.3,1.24v6.56Z"></path>
 &nbsp; &nbsp; &nbsp; &nbsp;<path class="cls-2" d="M88.28,453.98c3.37,0,5.88,2.57,5.88,6.05,0,4.37-3.24,6.45-5.88,6.45-3.73,0-5.99-3-5.99-6.02,0-4.4,3.43-6.48,5.99-6.48ZM87.95,454.89c-1.65,0-3.13,1.59-3.13,4.72,0,3.43,1.51,5.91,3.73,5.91,1.67,0,3.08-1.22,3.08-4.91,0-3.16-1.3-5.72-3.67-5.72Z"></path>
 &nbsp; &nbsp; &nbsp; &nbsp;<path class="cls-2" d="M103.13,457.51c-.49-1.57-1.19-2.65-2.83-2.65-.94,0-1.67.67-1.67,1.75,0,1.16.78,1.7,2.29,2.4,2.32,1.11,3.48,1.92,3.48,3.7,0,2.48-2.27,3.75-4.4,3.75-1.4,0-2.65-.43-3.21-.76-.14-.78-.38-2.27-.49-3.16l.78-.14c.49,1.73,1.43,3.13,3.32,3.13,1.03,0,1.89-.7,1.89-1.84,0-1.22-.73-1.84-2.16-2.54-1.89-.92-3.43-1.78-3.43-3.73s1.67-3.48,4.21-3.48c1.13,0,2.05.27,2.59.35.08.65.27,2.35.41,3l-.78.19Z"></path>
 &nbsp; &nbsp; &nbsp; &nbsp;<path class="cls-2" d="M106.13,466.15v-.76c1.7-.16,1.89-.3,1.89-2.13v-5.56c0-1.67-.08-1.78-1.7-2.05v-.65c1.4-.24,2.67-.59,3.83-1.08v9.34c0,1.84.19,1.97,1.94,2.13v.76h-5.97ZM108.94,451.28c-.76,0-1.43-.68-1.43-1.43,0-.86.68-1.48,1.46-1.48s1.38.62,1.38,1.48c0,.76-.62,1.43-1.4,1.43Z"></path>
 &nbsp; &nbsp; &nbsp; &nbsp;<path class="cls-2" d="M118.61,466.13c-.46.24-.89.35-1.16.35-1.73,0-2.65-1.05-2.65-3.21v-7.86h-1.86l-.11-.32.73-.78h1.24v-2.27c.51-.54,1.3-1.24,1.81-1.78l.41.05c-.05,1.13-.08,2.7-.08,4h3.08c.24.27.16.86-.16,1.11h-2.92v6.91c0,2.19.86,2.59,1.57,2.59.65,0,1.27-.24,1.65-.43l.24.7-1.78.94Z"></path>
 &nbsp; &nbsp; &nbsp; &nbsp;<path class="cls-2" d="M121.5,466.15v-.76c1.7-.16,1.89-.3,1.89-2.13v-5.56c0-1.67-.08-1.78-1.7-2.05v-.65c1.4-.24,2.67-.59,3.83-1.08v9.34c0,1.84.19,1.97,1.94,2.13v.76h-5.97ZM124.3,451.28c-.76,0-1.43-.68-1.43-1.43,0-.86.68-1.48,1.46-1.48s1.38.62,1.38,1.48c0,.76-.62,1.43-1.4,1.43Z"></path>
 &nbsp; &nbsp; &nbsp; &nbsp;<path class="cls-2" d="M140.59,455.03c-1.46.19-1.65.41-2.35,2.03-.89,2.16-2.43,5.75-3.83,9.39h-.78c-1.13-3.1-2.46-6.32-3.73-9.48-.62-1.57-.84-1.73-2.24-1.94v-.73h5.51v.73c-1.48.19-1.54.38-1.11,1.54.68,1.86,1.81,4.72,2.56,6.61.97-2.4,1.86-4.62,2.46-6.34.46-1.32.38-1.62-1.4-1.81v-.73h4.91v.73Z"></path>
 &nbsp; &nbsp; &nbsp; &nbsp;<path class="cls-2" d="M150.96,463.86c-1.73,2.16-3.62,2.62-4.48,2.62-3.29,0-5.29-2.7-5.29-5.8,0-1.84.65-3.54,1.75-4.72,1.13-1.27,2.62-1.97,4.02-1.97,2.35,0,4.13,2.03,4.13,4.19-.03.54-.11.78-.54.89-.54.11-4,.35-7.21.46-.08,3.62,2.13,5.1,4.05,5.1,1.11,0,2.13-.46,3.13-1.38l.43.62ZM146.31,455c-1.24,0-2.46,1.16-2.83,3.35,1.51,0,3.02,0,4.62-.08.49,0,.65-.14.65-.54.03-1.43-.92-2.73-2.43-2.73Z"></path>
 &nbsp; &nbsp; &nbsp; &nbsp;<path class="cls-2" d="M175.53,461.83c-.38,1.3-1.08,3.24-1.48,4.08-.78.16-2.89.65-4.94.65-6.45,0-9.75-4.29-9.75-9.02,0-5.51,4.19-9.31,10.23-9.31,2.32,0,4.21.49,5.1.62.11,1.22.3,2.83.51,4.19l-.84.19c-.54-1.81-1.19-2.91-2.57-3.48-.7-.32-1.81-.51-2.83-.51-4.45,0-6.8,3.29-6.8,7.75,0,5.21,2.7,8.56,7.07,8.56,2.75,0,4.1-1.27,5.48-3.97l.81.27Z"></path>
 &nbsp; &nbsp; &nbsp; &nbsp;<path class="cls-2" d="M183.96,453.98c3.37,0,5.88,2.57,5.88,6.05,0,4.37-3.24,6.45-5.88,6.45-3.73,0-5.99-3-5.99-6.02,0-4.4,3.43-6.48,5.99-6.48ZM183.63,454.89c-1.65,0-3.13,1.59-3.13,4.72,0,3.43,1.51,5.91,3.73,5.91,1.67,0,3.08-1.22,3.08-4.91,0-3.16-1.3-5.72-3.67-5.72Z"></path>
 &nbsp; &nbsp; &nbsp; &nbsp;<path class="cls-2" d="M197.81,466.15h-6.21v-.76c1.7-.16,1.86-.3,1.86-2.05v-5.62c0-1.78-.11-1.86-1.67-2.05v-.68c1.32-.22,2.54-.54,3.81-1.11v2.97c.95-1.4,2.08-2.89,3.43-2.89,1,0,1.57.62,1.57,1.3,0,.62-.43,1.22-.92,1.48-.27.16-.49.14-.7-.05-.4-.4-.73-.67-1.21-.67-.57,0-1.57.84-2.16,2.21v5.08c0,1.78.14,1.92,2.21,2.08v.76Z"></path>
 &nbsp; &nbsp; &nbsp; &nbsp;<path class="cls-2" d="M207.86,466.15h-6.21v-.76c1.7-.16,1.86-.3,1.86-2.05v-5.62c0-1.78-.11-1.86-1.67-2.05v-.68c1.32-.22,2.54-.54,3.81-1.11v2.97c.95-1.4,2.08-2.89,3.43-2.89,1,0,1.57.62,1.57,1.3,0,.62-.43,1.22-.92,1.48-.27.16-.49.14-.7-.05-.4-.4-.73-.67-1.21-.67-.57,0-1.57.84-2.16,2.21v5.08c0,1.78.14,1.92,2.21,2.08v.76Z"></path>
 &nbsp; &nbsp; &nbsp; &nbsp;<path class="cls-2" d="M221.36,463.86c-1.73,2.16-3.62,2.62-4.48,2.62-3.29,0-5.29-2.7-5.29-5.8,0-1.84.65-3.54,1.75-4.72,1.13-1.27,2.62-1.97,4.02-1.97,2.35,0,4.13,2.03,4.13,4.19-.03.54-.11.78-.54.89-.54.11-4,.35-7.21.46-.08,3.62,2.13,5.1,4.05,5.1,1.11,0,2.13-.46,3.13-1.38l.43.62ZM216.72,455c-1.24,0-2.46,1.16-2.84,3.35,1.51,0,3.02,0,4.62-.08.49,0,.65-.14.65-.54.03-1.43-.92-2.73-2.43-2.73Z"></path>
 &nbsp; &nbsp; &nbsp; &nbsp;<path class="cls-2" d="M222.71,466.15v-.76c1.73-.16,1.94-.3,1.94-2.08v-12.93c0-1.65-.14-1.81-1.86-2.02v-.7c1.46-.16,3.13-.59,4-.92v16.58c0,1.78.16,1.92,1.92,2.08v.76h-5.99Z"></path>
 &nbsp; &nbsp; &nbsp; &nbsp;<path class="cls-2" d="M238.67,466.48c-.4,0-1-.22-1.27-.51-.35-.35-.51-.73-.65-1.22-1.08.73-2.4,1.73-3.24,1.73-1.92,0-3.29-1.59-3.29-3.32,0-1.32.73-2.19,2.21-2.7,1.65-.57,3.67-1.27,4.27-1.75v-.54c0-1.92-.97-3.02-2.38-3.02-.62,0-1,.3-1.27.62-.3.38-.49.97-.73,1.75-.14.43-.38.62-.78.62-.51,0-1.19-.54-1.19-1.19,0-.38.35-.7.89-1.08.78-.57,2.35-1.57,3.89-1.89.81,0,1.65.24,2.27.73.95.81,1.38,1.73,1.38,3.13v5.21c0,1.24.46,1.62.94,1.62.32,0,.68-.14.97-.3l.27.76-2.29,1.35ZM236.7,459.65c-.59.3-1.89.86-2.51,1.13-1.03.46-1.65.97-1.65,1.97,0,1.43,1.08,2.08,1.94,2.08.7,0,1.67-.43,2.21-.97v-4.21Z"></path>
 &nbsp; &nbsp; &nbsp; &nbsp;<path class="cls-2" d="M247.13,466.13c-.46.24-.89.35-1.16.35-1.73,0-2.65-1.05-2.65-3.21v-7.86h-1.86l-.11-.32.73-.78h1.24v-2.27c.51-.54,1.3-1.24,1.81-1.78l.4.05c-.05,1.13-.08,2.7-.08,4h3.08c.24.27.16.86-.16,1.11h-2.92v6.91c0,2.19.86,2.59,1.57,2.59.65,0,1.27-.24,1.65-.43l.24.7-1.78.94Z"></path>
 &nbsp; &nbsp; &nbsp; &nbsp;<path class="cls-2" d="M250.02,466.15v-.76c1.7-.16,1.89-.3,1.89-2.13v-5.56c0-1.67-.08-1.78-1.7-2.05v-.65c1.4-.24,2.67-.59,3.83-1.08v9.34c0,1.84.19,1.97,1.94,2.13v.76h-5.97ZM252.82,451.28c-.76,0-1.43-.68-1.43-1.43,0-.86.68-1.48,1.46-1.48s1.38.62,1.38,1.48c0,.76-.62,1.43-1.4,1.43Z"></path>
 &nbsp; &nbsp; &nbsp; &nbsp;<path class="cls-2" d="M263.38,453.98c3.37,0,5.88,2.57,5.88,6.05,0,4.37-3.24,6.45-5.88,6.45-3.73,0-5.99-3-5.99-6.02,0-4.4,3.43-6.48,5.99-6.48ZM263.06,454.89c-1.65,0-3.13,1.59-3.13,4.72,0,3.43,1.51,5.91,3.73,5.91,1.67,0,3.08-1.22,3.08-4.91,0-3.16-1.3-5.72-3.67-5.72Z"></path>
 &nbsp; &nbsp; &nbsp; &nbsp;<path class="cls-2" d="M278.77,466.15v-.76c1.57-.16,1.73-.35,1.73-2.19v-4.45c0-1.89-.68-3.16-2.46-3.16-1.11,0-2.16.65-3,1.4v6.32c0,1.86.16,1.92,1.75,2.08v.76h-5.83v-.76c1.78-.19,1.94-.3,1.94-2.08v-5.56c0-1.75-.19-1.84-1.65-2.08v-.7c1.32-.22,2.65-.57,3.78-1.08v2.13c.54-.38,1.13-.78,1.84-1.24.76-.49,1.46-.81,2.24-.81,2.16,0,3.51,1.59,3.51,4.21v5.13c0,1.84.16,1.92,1.73,2.08v.76h-5.59Z"></path>
 &nbsp; &nbsp; &nbsp;</g>
 &nbsp; &nbsp;</g>
 &nbsp; &nbsp;<g>
 &nbsp; &nbsp; &nbsp;<g>
 &nbsp; &nbsp; &nbsp; &nbsp;<rect class="cls-2" x="391.78" y="399.57" width="278.45" height="2.31"></rect>
 &nbsp; &nbsp; &nbsp; &nbsp;<rect class="cls-2" x="391.78" y="119.68" width="2.31" height="281.04"></rect>
 &nbsp; &nbsp; &nbsp; &nbsp;<circle class="cls-2" cx="549.42" cy="273.58" r="4.68"></circle>
 &nbsp; &nbsp; &nbsp; &nbsp;<circle class="cls-2" cx="593.67" cy="374.73" r="4.68"></circle>
 &nbsp; &nbsp; &nbsp; &nbsp;<circle class="cls-2" cx="500.56" cy="259.7" r="4.68"></circle>
 &nbsp; &nbsp; &nbsp; &nbsp;<circle class="cls-2" cx="528.4" cy="287.84" r="4.68"></circle>
 &nbsp; &nbsp; &nbsp; &nbsp;<circle class="cls-2" cx="498.68" cy="296.44" r="4.68"></circle>
 &nbsp; &nbsp; &nbsp; &nbsp;<circle class="cls-2" cx="519.19" cy="319.31" r="4.68"></circle>
 &nbsp; &nbsp; &nbsp; &nbsp;<circle class="cls-2" cx="559.29" cy="310.77" r="4.68"></circle>
 &nbsp; &nbsp; &nbsp; &nbsp;<circle class="cls-2" cx="438.49" cy="261.41" r="4.68"></circle>
 &nbsp; &nbsp; &nbsp; &nbsp;<circle class="cls-2" cx="528.51" cy="247.02" r="4.68"></circle>
 &nbsp; &nbsp; &nbsp; &nbsp;<circle class="cls-2" cx="519.47" cy="195.62" r="4.68"></circle>
 &nbsp; &nbsp; &nbsp; &nbsp;<circle class="cls-2" cx="479.81" cy="256.58" r="4.68"></circle>
 &nbsp; &nbsp; &nbsp; &nbsp;<circle class="cls-2" cx="509.98" cy="225.24" r="4.68"></circle>
 &nbsp; &nbsp; &nbsp; &nbsp;<circle class="cls-2" cx="465.3" cy="186.67" r="4.68"></circle>
 &nbsp; &nbsp; &nbsp; &nbsp;<circle class="cls-2" cx="538.29" cy="191.35" r="4.68"></circle>
 &nbsp; &nbsp; &nbsp; &nbsp;<circle class="cls-2" cx="429.58" cy="151.44" r="4.68"></circle>
 &nbsp; &nbsp; &nbsp; &nbsp;<circle class="cls-2" cx="469.98" cy="312.46" r="4.68"></circle>
 &nbsp; &nbsp; &nbsp; &nbsp;<circle class="cls-2" cx="429.58" cy="217.56" r="4.68"></circle>
 &nbsp; &nbsp; &nbsp; &nbsp;<circle class="cls-2" cx="485.43" cy="210.32" r="4.68"></circle>
 &nbsp; &nbsp; &nbsp; &nbsp;<circle class="cls-2" cx="438.49" cy="180.44" r="4.68"></circle>
 &nbsp; &nbsp; &nbsp; &nbsp;<circle class="cls-2" cx="562.97" cy="225.24" r="4.68"></circle>
 &nbsp; &nbsp; &nbsp; &nbsp;<circle class="cls-2" cx="482.8" cy="163.32" r="4.68"></circle>
 &nbsp; &nbsp; &nbsp; &nbsp;<circle class="cls-2" cx="527.98" cy="349.59" r="4.68"></circle>
 &nbsp; &nbsp; &nbsp; &nbsp;<circle class="cls-2" cx="592.75" cy="340.55" r="4.68"></circle>
 &nbsp; &nbsp; &nbsp; &nbsp;<circle class="cls-2" cx="572.33" cy="347.75" r="4.68"></circle>
 &nbsp; &nbsp; &nbsp; &nbsp;<circle class="cls-2" cx="584.31" cy="260.2" r="4.68"></circle>
 &nbsp; &nbsp; &nbsp; &nbsp;<circle class="cls-2" cx="592.75" cy="286.15" r="4.68"></circle>
 &nbsp; &nbsp; &nbsp; &nbsp;<circle class="cls-2" cx="620.88" cy="286.15" r="4.68"></circle>
 &nbsp; &nbsp; &nbsp; &nbsp;<circle class="cls-2" cx="639.97" cy="340.55" r="4.68"></circle>
 &nbsp; &nbsp; &nbsp; &nbsp;<circle class="cls-2" cx="648.78" cy="386.8" r="4.68"></circle>
 &nbsp; &nbsp; &nbsp; &nbsp;<circle class="cls-2" cx="540.5" cy="382.27" r="4.68"></circle>
 &nbsp; &nbsp; &nbsp; &nbsp;<circle class="cls-2" cx="592.75" cy="319.31" r="4.68"></circle>
 &nbsp; &nbsp; &nbsp; &nbsp;<circle class="cls-2" cx="652.71" cy="364.47" r="4.68"></circle>
 &nbsp; &nbsp; &nbsp; &nbsp;<circle class="cls-2" cx="615.12" cy="369.15" r="4.68"></circle>
 &nbsp; &nbsp; &nbsp;</g>
 &nbsp; &nbsp; &nbsp;<g>
 &nbsp; &nbsp; &nbsp; &nbsp;<path class="cls-2" d="M408.87,449.36c-1.89.27-2.16.49-2.89,2.7-.89,2.7-3.05,9.56-4.54,14.39h-.92c-1.4-4.21-3.21-9.42-4.62-13.42-1.57,4.64-3.16,9.26-4.56,13.42h-.89c-1.35-4.64-2.89-9.69-4.35-14.42-.7-2.19-1-2.48-2.75-2.67v-.76h6.67v.76c-2,.22-2.05.51-1.67,1.86,1.05,3.65,2.13,7.24,3.24,11.04,1.48-4.29,3.1-8.99,4.48-13.42h.86c1.51,4.59,3.02,8.86,4.59,13.45,1.13-3.59,2.67-8.4,3.27-10.75.4-1.57.19-1.92-2.11-2.19v-.76h6.18v.76Z"></path>
 &nbsp; &nbsp; &nbsp; &nbsp;<path class="cls-2" d="M417.41,463.86c-1.73,2.16-3.62,2.62-4.48,2.62-3.29,0-5.29-2.7-5.29-5.8,0-1.84.65-3.54,1.75-4.72,1.13-1.27,2.62-1.97,4.02-1.97,2.35,0,4.13,2.03,4.13,4.19-.03.54-.11.78-.54.89-.54.11-4,.35-7.21.46-.08,3.62,2.13,5.1,4.05,5.1,1.11,0,2.13-.46,3.13-1.38l.43.62ZM412.76,455c-1.24,0-2.46,1.16-2.84,3.35,1.51,0,3.02,0,4.62-.08.49,0,.65-.14.65-.54.03-1.43-.92-2.73-2.43-2.73Z"></path>
 &nbsp; &nbsp; &nbsp; &nbsp;<path class="cls-2" d="M427.97,466.48c-.41,0-1-.22-1.27-.51-.35-.35-.51-.73-.65-1.22-1.08.73-2.4,1.73-3.24,1.73-1.92,0-3.29-1.59-3.29-3.32,0-1.32.73-2.19,2.21-2.7,1.65-.57,3.67-1.27,4.27-1.75v-.54c0-1.92-.97-3.02-2.38-3.02-.62,0-1,.3-1.27.62-.3.38-.49.97-.73,1.75-.14.43-.38.62-.78.62-.51,0-1.19-.54-1.19-1.19,0-.38.35-.7.89-1.08.78-.57,2.35-1.57,3.89-1.89.81,0,1.65.24,2.27.73.94.81,1.38,1.73,1.38,3.13v5.21c0,1.24.46,1.62.95,1.62.32,0,.68-.14.97-.3l.27.76-2.29,1.35ZM425.99,459.65c-.59.3-1.89.86-2.51,1.13-1.03.46-1.65.97-1.65,1.97,0,1.43,1.08,2.08,1.94,2.08.7,0,1.67-.43,2.21-.97v-4.21Z"></path>
 &nbsp; &nbsp; &nbsp; &nbsp;<path class="cls-2" d="M444.52,466.15c-1.46,0-3.05.03-3.62.05-.16-.19-4.4-5.21-4.56-5.37-.38-.43-.54-.57-.78-.57-.11,0-.32,0-.49.05v3c0,1.81.14,1.92,1.89,2.08v.76h-5.97v-.76c1.81-.16,1.94-.35,1.94-2.08v-12.91c0-1.75-.19-1.81-1.86-2.05v-.7c1.4-.14,3.02-.54,4-.92v12.88c.81-.19,1.32-.51,1.73-.94.62-.62,1.62-1.84,2.08-2.51.57-.78.35-1-.95-1.11v-.76l5.56-.24v.73c-1.89.3-2.43.51-3.59,1.73-.51.54-1.73,1.92-2.29,2.62.54.76,3.29,3.89,4.19,4.83,1.3,1.3,1.67,1.38,2.73,1.43v.76Z"></path>
 &nbsp; &nbsp; &nbsp; &nbsp;<path class="cls-2" d="M469.9,449.36c-1.73.19-2.29.46-2.38,1.7-.03.86-.08,2-.08,4.51v10.83h-1.03l-11.56-14.12v6.75c0,2.43.08,3.65.14,4.43.05,1.38.73,1.78,2.67,1.94v.76h-6.56v-.76c1.67-.13,2.32-.54,2.43-1.86.08-.86.14-2.08.14-4.54v-6.88c0-.76-.05-1.19-.54-1.78-.51-.67-1.08-.84-2.4-.97v-.76h4.05l11.45,13.58v-6.62c0-2.51-.05-3.67-.14-4.48-.08-1.22-.7-1.59-2.86-1.73v-.76h6.67v.76Z"></path>
 &nbsp; &nbsp; &nbsp; &nbsp;<path class="cls-2" d="M480.71,463.86c-1.73,2.16-3.62,2.62-4.48,2.62-3.29,0-5.29-2.7-5.29-5.8,0-1.84.65-3.54,1.75-4.72,1.13-1.27,2.62-1.97,4.02-1.97,2.35,0,4.13,2.03,4.13,4.19-.03.54-.11.78-.54.89-.54.11-4,.35-7.21.46-.08,3.62,2.13,5.1,4.05,5.1,1.11,0,2.13-.46,3.13-1.38l.43.62ZM476.06,455c-1.24,0-2.46,1.16-2.83,3.35,1.51,0,3.02,0,4.62-.08.49,0,.65-.14.65-.54.03-1.43-.92-2.73-2.43-2.73Z"></path>
 &nbsp; &nbsp; &nbsp; &nbsp;<path class="cls-2" d="M486.38,462.21c-.65.51-.89,1.03-.89,1.35,0,.49.46,1.03,1.67,1.03,1,0,2.13-.03,3.02-.03,1.73,0,3.94.57,3.94,3.24,0,2.81-3.32,5.45-6.91,5.45-3.05,0-4.7-1.78-4.75-3.37,0-.59.24-1.11.68-1.54.54-.57,1.59-1.46,2.21-1.94-.97-.27-1.67-.89-2.03-1.46-.24-.4-.32-.89-.32-1.16,1.03-.38,1.94-1.13,2.48-1.86l.89.3ZM487.68,462.48c-2.51,0-4.59-1.54-4.59-4.08,0-3.08,2.75-4.51,4.86-4.51.89,0,1.78.24,2.59.68,1.24,0,2.86-.22,3.62-.4l.16.24c-.16.43-.59,1.19-1,1.43-.4,0-1.3-.11-1.67-.14.46.62.78,1.49.78,2.46,0,2.94-2.43,4.32-4.75,4.32ZM488.3,466.48c-1.32,0-1.92.16-2.4.57-.76.62-1.3,1.43-1.3,2.21,0,1.48,1.54,2.59,3.62,2.59,2.56,0,4.02-1.32,4.02-3.05,0-.92-.43-1.65-1.19-1.97-.68-.3-1.62-.35-2.75-.35ZM487.68,454.76c-1.22,0-2.29,1.11-2.29,3.24s1.08,3.62,2.56,3.62c1.19-.05,2.24-1.05,2.24-3.24s-1-3.62-2.51-3.62Z"></path>
 &nbsp; &nbsp; &nbsp; &nbsp;<path class="cls-2" d="M503.74,466.48c-.41,0-1-.22-1.27-.51-.35-.35-.51-.73-.65-1.22-1.08.73-2.4,1.73-3.24,1.73-1.92,0-3.29-1.59-3.29-3.32,0-1.32.73-2.19,2.21-2.7,1.65-.57,3.67-1.27,4.27-1.75v-.54c0-1.92-.97-3.02-2.38-3.02-.62,0-1,.3-1.27.62-.3.38-.49.97-.73,1.75-.14.43-.38.62-.78.62-.51,0-1.19-.54-1.19-1.19,0-.38.35-.7.89-1.08.78-.57,2.35-1.57,3.89-1.89.81,0,1.65.24,2.27.73.94.81,1.38,1.73,1.38,3.13v5.21c0,1.24.46,1.62.95,1.62.32,0,.68-.14.97-.3l.27.76-2.29,1.35ZM501.77,459.65c-.59.3-1.89.86-2.51,1.13-1.03.46-1.65.97-1.65,1.97,0,1.43,1.08,2.08,1.94,2.08.7,0,1.67-.43,2.21-.97v-4.21Z"></path>
 &nbsp; &nbsp; &nbsp; &nbsp;<path class="cls-2" d="M512.2,466.13c-.46.24-.89.35-1.16.35-1.73,0-2.65-1.05-2.65-3.21v-7.86h-1.86l-.11-.32.73-.78h1.24v-2.27c.51-.54,1.3-1.24,1.81-1.78l.41.05c-.05,1.13-.08,2.7-.08,4h3.08c.24.27.16.86-.16,1.11h-2.92v6.91c0,2.19.86,2.59,1.57,2.59.65,0,1.27-.24,1.65-.43l.24.7-1.78.94Z"></path>
 &nbsp; &nbsp; &nbsp; &nbsp;<path class="cls-2" d="M515.09,466.15v-.76c1.7-.16,1.89-.3,1.89-2.13v-5.56c0-1.67-.08-1.78-1.7-2.05v-.65c1.4-.24,2.67-.59,3.83-1.08v9.34c0,1.84.19,1.97,1.94,2.13v.76h-5.97ZM517.9,451.28c-.76,0-1.43-.68-1.43-1.43,0-.86.68-1.48,1.46-1.48s1.38.62,1.38,1.48c0,.76-.62,1.43-1.4,1.43Z"></path>
 &nbsp; &nbsp; &nbsp; &nbsp;<path class="cls-2" d="M534.18,455.03c-1.46.19-1.65.41-2.35,2.03-.89,2.16-2.43,5.75-3.83,9.39h-.78c-1.13-3.1-2.46-6.32-3.73-9.48-.62-1.57-.84-1.73-2.24-1.94v-.73h5.51v.73c-1.49.19-1.54.38-1.11,1.54.68,1.86,1.81,4.72,2.57,6.61.97-2.4,1.86-4.62,2.46-6.34.46-1.32.38-1.62-1.4-1.81v-.73h4.91v.73Z"></path>
 &nbsp; &nbsp; &nbsp; &nbsp;<path class="cls-2" d="M544.55,463.86c-1.73,2.16-3.62,2.62-4.48,2.62-3.29,0-5.29-2.7-5.29-5.8,0-1.84.65-3.54,1.75-4.72,1.13-1.27,2.62-1.97,4.02-1.97,2.35,0,4.13,2.03,4.13,4.19-.03.54-.11.78-.54.89-.54.11-4,.35-7.21.46-.08,3.62,2.13,5.1,4.05,5.1,1.11,0,2.13-.46,3.13-1.38l.43.62ZM539.9,455c-1.24,0-2.46,1.16-2.84,3.35,1.51,0,3.02,0,4.62-.08.49,0,.65-.14.65-.54.03-1.43-.92-2.73-2.43-2.73Z"></path>
 &nbsp; &nbsp; &nbsp; &nbsp;<path class="cls-2" d="M569.12,461.83c-.38,1.3-1.08,3.24-1.49,4.08-.78.16-2.89.65-4.94.65-6.45,0-9.75-4.29-9.75-9.02,0-5.51,4.18-9.31,10.23-9.31,2.32,0,4.21.49,5.1.62.11,1.22.3,2.83.51,4.19l-.84.19c-.54-1.81-1.19-2.91-2.57-3.48-.7-.32-1.81-.51-2.83-.51-4.45,0-6.8,3.29-6.8,7.75,0,5.21,2.7,8.56,7.07,8.56,2.75,0,4.1-1.27,5.48-3.97l.81.27Z"></path>
 &nbsp; &nbsp; &nbsp; &nbsp;<path class="cls-2" d="M577.55,453.98c3.37,0,5.89,2.57,5.89,6.05,0,4.37-3.24,6.45-5.89,6.45-3.73,0-5.99-3-5.99-6.02,0-4.4,3.43-6.48,5.99-6.48ZM577.23,454.89c-1.65,0-3.13,1.59-3.13,4.72,0,3.43,1.51,5.91,3.73,5.91,1.67,0,3.08-1.22,3.08-4.91,0-3.16-1.3-5.72-3.67-5.72Z"></path>
 &nbsp; &nbsp; &nbsp; &nbsp;<path class="cls-2" d="M591.4,466.15h-6.21v-.76c1.7-.16,1.86-.3,1.86-2.05v-5.62c0-1.78-.11-1.86-1.67-2.05v-.68c1.32-.22,2.54-.54,3.81-1.11v2.97c.94-1.4,2.08-2.89,3.43-2.89,1,0,1.57.62,1.57,1.3,0,.62-.43,1.22-.92,1.48-.27.16-.49.14-.7-.05-.4-.4-.73-.67-1.22-.67-.57,0-1.57.84-2.16,2.21v5.08c0,1.78.14,1.92,2.21,2.08v.76Z"></path>
 &nbsp; &nbsp; &nbsp; &nbsp;<path class="cls-2" d="M601.45,466.15h-6.21v-.76c1.7-.16,1.86-.3,1.86-2.05v-5.62c0-1.78-.11-1.86-1.67-2.05v-.68c1.32-.22,2.54-.54,3.81-1.11v2.97c.94-1.4,2.08-2.89,3.43-2.89,1,0,1.57.62,1.57,1.3,0,.62-.43,1.22-.92,1.48-.27.16-.49.14-.7-.05-.4-.4-.73-.67-1.22-.67-.57,0-1.57.84-2.16,2.21v5.08c0,1.78.14,1.92,2.21,2.08v.76Z"></path>
 &nbsp; &nbsp; &nbsp; &nbsp;<path class="cls-2" d="M614.95,463.86c-1.73,2.16-3.62,2.62-4.48,2.62-3.29,0-5.29-2.7-5.29-5.8,0-1.84.65-3.54,1.75-4.72,1.13-1.27,2.62-1.97,4.02-1.97,2.35,0,4.13,2.03,4.13,4.19-.03.54-.11.78-.54.89-.54.11-4,.35-7.21.46-.08,3.62,2.13,5.1,4.05,5.1,1.11,0,2.13-.46,3.13-1.38l.43.62ZM610.31,455c-1.24,0-2.46,1.16-2.83,3.35,1.51,0,3.02,0,4.62-.08.49,0,.65-.14.65-.54.03-1.43-.92-2.73-2.43-2.73Z"></path>
 &nbsp; &nbsp; &nbsp; &nbsp;<path class="cls-2" d="M616.3,466.15v-.76c1.73-.16,1.94-.3,1.94-2.08v-12.93c0-1.65-.14-1.81-1.86-2.02v-.7c1.46-.16,3.13-.59,4-.92v16.58c0,1.78.16,1.92,1.92,2.08v.76h-5.99Z"></path>
 &nbsp; &nbsp; &nbsp; &nbsp;<path class="cls-2" d="M632.26,466.48c-.41,0-1-.22-1.27-.51-.35-.35-.51-.73-.65-1.22-1.08.73-2.4,1.73-3.24,1.73-1.92,0-3.29-1.59-3.29-3.32,0-1.32.73-2.19,2.21-2.7,1.65-.57,3.67-1.27,4.27-1.75v-.54c0-1.92-.97-3.02-2.38-3.02-.62,0-1,.3-1.27.62-.3.38-.49.97-.73,1.75-.14.43-.38.62-.78.62-.51,0-1.19-.54-1.19-1.19,0-.38.35-.7.89-1.08.78-.57,2.35-1.57,3.89-1.89.81,0,1.65.24,2.27.73.94.81,1.38,1.73,1.38,3.13v5.21c0,1.24.46,1.62.95,1.62.32,0,.68-.14.97-.3l.27.76-2.29,1.35ZM630.29,459.65c-.59.3-1.89.86-2.51,1.13-1.03.46-1.65.97-1.65,1.97,0,1.43,1.08,2.08,1.94,2.08.7,0,1.67-.43,2.21-.97v-4.21Z"></path>
 &nbsp; &nbsp; &nbsp; &nbsp;<path class="cls-2" d="M640.72,466.13c-.46.24-.89.35-1.16.35-1.73,0-2.65-1.05-2.65-3.21v-7.86h-1.86l-.11-.32.73-.78h1.24v-2.27c.51-.54,1.3-1.24,1.81-1.78l.41.05c-.05,1.13-.08,2.7-.08,4h3.08c.24.27.16.86-.16,1.11h-2.92v6.91c0,2.19.86,2.59,1.57,2.59.65,0,1.27-.24,1.65-.43l.24.7-1.78.94Z"></path>
 &nbsp; &nbsp; &nbsp; &nbsp;<path class="cls-2" d="M643.61,466.15v-.76c1.7-.16,1.89-.3,1.89-2.13v-5.56c0-1.67-.08-1.78-1.7-2.05v-.65c1.4-.24,2.67-.59,3.83-1.08v9.34c0,1.84.19,1.97,1.94,2.13v.76h-5.97ZM646.41,451.28c-.76,0-1.43-.68-1.43-1.43,0-.86.68-1.48,1.46-1.48s1.38.62,1.38,1.48c0,.76-.62,1.43-1.4,1.43Z"></path>
 &nbsp; &nbsp; &nbsp; &nbsp;<path class="cls-2" d="M656.97,453.98c3.37,0,5.89,2.57,5.89,6.05,0,4.37-3.24,6.45-5.89,6.45-3.73,0-5.99-3-5.99-6.02,0-4.4,3.43-6.48,5.99-6.48ZM656.65,454.89c-1.65,0-3.13,1.59-3.13,4.72,0,3.43,1.51,5.91,3.73,5.91,1.67,0,3.08-1.22,3.08-4.91,0-3.16-1.3-5.72-3.67-5.72Z"></path>
 &nbsp; &nbsp; &nbsp; &nbsp;<path class="cls-2" d="M672.37,466.15v-.76c1.57-.16,1.73-.35,1.73-2.19v-4.45c0-1.89-.68-3.16-2.46-3.16-1.11,0-2.16.65-3,1.4v6.32c0,1.86.16,1.92,1.75,2.08v.76h-5.83v-.76c1.78-.19,1.94-.3,1.94-2.08v-5.56c0-1.75-.19-1.84-1.65-2.08v-.7c1.32-.22,2.65-.57,3.78-1.08v2.13c.54-.38,1.13-.78,1.84-1.24.76-.49,1.46-.81,2.24-.81,2.16,0,3.51,1.59,3.51,4.21v5.13c0,1.84.16,1.92,1.73,2.08v.76h-5.59Z"></path>
 &nbsp; &nbsp; &nbsp;</g>
 &nbsp; &nbsp;</g>
 &nbsp; &nbsp;<g>
 &nbsp; &nbsp; &nbsp;<g>
 &nbsp; &nbsp; &nbsp; &nbsp;<rect class="cls-2" x="780.26" y="399.57" width="278.45" height="2.31"></rect>
 &nbsp; &nbsp; &nbsp; &nbsp;<rect class="cls-2" x="780.26" y="119.68" width="2.31" height="281.04"></rect>
 &nbsp; &nbsp; &nbsp; &nbsp;<circle class="cls-2" cx="906.89" cy="285.85" r="4.68"></circle>
 &nbsp; &nbsp; &nbsp; &nbsp;<circle class="cls-2" cx="931.99" cy="277.12" r="4.68"></circle>
 &nbsp; &nbsp; &nbsp; &nbsp;<circle class="cls-2" cx="864.91" cy="293.02" r="4.68"></circle>
 &nbsp; &nbsp; &nbsp; &nbsp;<circle class="cls-2" cx="885.9" cy="285.85" r="4.68"></circle>
 &nbsp; &nbsp; &nbsp; &nbsp;<circle class="cls-2" cx="872.34" cy="275.71" r="4.68"></circle>
 &nbsp; &nbsp; &nbsp; &nbsp;<circle class="cls-2" cx="897.53" cy="272.44" r="4.68"></circle>
 &nbsp; &nbsp; &nbsp; &nbsp;<circle class="cls-2" cx="931.99" cy="241.95" r="4.68"></circle>
 &nbsp; &nbsp; &nbsp; &nbsp;<circle class="cls-2" cx="946.22" cy="253.73" r="4.68"></circle>
 &nbsp; &nbsp; &nbsp; &nbsp;<circle class="cls-2" cx="892.85" cy="305.71" r="4.68"></circle>
 &nbsp; &nbsp; &nbsp; &nbsp;<circle class="cls-2" cx="872.34" cy="324.45" r="4.68"></circle>
 &nbsp; &nbsp; &nbsp; &nbsp;<circle class="cls-2" cx="844.15" cy="310.39" r="4.68"></circle>
 &nbsp; &nbsp; &nbsp; &nbsp;<circle class="cls-2" cx="853.92" cy="322.26" r="4.68"></circle>
 &nbsp; &nbsp; &nbsp; &nbsp;<circle class="cls-2" cx="830.72" cy="316.17" r="4.68"></circle>
 &nbsp; &nbsp; &nbsp; &nbsp;<circle class="cls-2" cx="828.95" cy="346.06" r="4.68"></circle>
 &nbsp; &nbsp; &nbsp; &nbsp;<circle class="cls-2" cx="821.07" cy="366.55" r="4.68"></circle>
 &nbsp; &nbsp; &nbsp; &nbsp;<circle class="cls-2" cx="813.72" cy="352.65" r="4.68"></circle>
 &nbsp; &nbsp; &nbsp; &nbsp;<circle class="cls-2" cx="811.4" cy="335.16" r="4.68"></circle>
 &nbsp; &nbsp; &nbsp; &nbsp;<circle class="cls-2" cx="846.07" cy="335.16" r="4.68"></circle>
 &nbsp; &nbsp; &nbsp; &nbsp;<circle class="cls-2" cx="802.84" cy="372.28" r="4.68"></circle>
 &nbsp; &nbsp; &nbsp; &nbsp;<circle class="cls-2" cx="807.03" cy="386.16" r="4.68"></circle>
 &nbsp; &nbsp; &nbsp; &nbsp;<circle class="cls-2" cx="957.1" cy="267.76" r="4.68"></circle>
 &nbsp; &nbsp; &nbsp; &nbsp;<circle class="cls-2" cx="924.68" cy="261.38" r="4.68"></circle>
 &nbsp; &nbsp; &nbsp; &nbsp;<circle class="cls-2" cx="957.1" cy="212.17" r="4.68"></circle>
 &nbsp; &nbsp; &nbsp; &nbsp;<circle class="cls-2" cx="957.83" cy="230.11" r="4.68"></circle>
 &nbsp; &nbsp; &nbsp; &nbsp;<circle class="cls-2" cx="978.55" cy="253.47" r="4.68"></circle>
 &nbsp; &nbsp; &nbsp; &nbsp;<circle class="cls-2" cx="971.07" cy="237.27" r="4.68"></circle>
 &nbsp; &nbsp; &nbsp; &nbsp;<circle class="cls-2" cx="982.58" cy="237.27" r="4.68"></circle>
 &nbsp; &nbsp; &nbsp; &nbsp;<circle class="cls-2" cx="1004.32" cy="212.17" r="4.68"></circle>
 &nbsp; &nbsp; &nbsp; &nbsp;<circle class="cls-2" cx="1013.13" cy="165.92" r="4.68"></circle>
 &nbsp; &nbsp; &nbsp; &nbsp;<circle class="cls-2" cx="974.19" cy="214.66" r="4.68"></circle>
 &nbsp; &nbsp; &nbsp; &nbsp;<circle class="cls-2" cx="1003.7" cy="230.19" r="4.68"></circle>
 &nbsp; &nbsp; &nbsp; &nbsp;<circle class="cls-2" cx="1017.06" cy="188.25" r="4.68"></circle>
 &nbsp; &nbsp; &nbsp; &nbsp;<circle class="cls-2" cx="1000.11" cy="188.25" r="4.68"></circle>
 &nbsp; &nbsp; &nbsp;</g>
 &nbsp; &nbsp; &nbsp;<g>
 &nbsp; &nbsp; &nbsp; &nbsp;<path class="cls-2" d="M781.82,452.71c-.46-1.78-1.22-3.54-3.75-3.54-2.11,0-2.83,1.54-2.83,2.94,0,1.86,1.19,2.81,3.43,3.97,3.24,1.67,4.64,2.92,4.64,5.48,0,2.83-2.46,4.99-5.94,4.99-1.62,0-3.02-.46-4.13-.89-.22-.76-.54-2.59-.73-4.05l.84-.22c.54,1.81,1.73,4.16,4.54,4.16,1.94,0,3.13-1.35,3.13-3.11,0-2.08-1.11-2.92-3.48-4.21-2.83-1.54-4.43-2.83-4.43-5.35s2-4.67,5.56-4.67c1.51,0,3,.4,3.56.51.11.97.22,2.05.43,3.81l-.84.16Z"></path>
 &nbsp; &nbsp; &nbsp; &nbsp;<path class="cls-2" d="M790.24,466.13c-.46.24-.89.35-1.16.35-1.73,0-2.65-1.05-2.65-3.21v-7.86h-1.86l-.11-.32.73-.78h1.24v-2.27c.51-.54,1.3-1.24,1.81-1.78l.4.05c-.05,1.13-.08,2.7-.08,4h3.08c.24.27.16.86-.16,1.11h-2.92v6.91c0,2.19.86,2.59,1.57,2.59.65,0,1.27-.24,1.65-.43l.24.7-1.78.94Z"></path>
 &nbsp; &nbsp; &nbsp; &nbsp;<path class="cls-2" d="M799.21,466.15h-6.21v-.76c1.7-.16,1.86-.3,1.86-2.05v-5.62c0-1.78-.11-1.86-1.67-2.05v-.68c1.32-.22,2.54-.54,3.81-1.11v2.97c.94-1.4,2.08-2.89,3.43-2.89,1,0,1.57.62,1.57,1.3,0,.62-.43,1.22-.92,1.48-.27.16-.49.14-.7-.05-.41-.4-.73-.67-1.22-.67-.57,0-1.57.84-2.16,2.21v5.08c0,1.78.13,1.92,2.21,2.08v.76Z"></path>
 &nbsp; &nbsp; &nbsp; &nbsp;<path class="cls-2" d="M808.93,453.98c3.37,0,5.89,2.57,5.89,6.05,0,4.37-3.24,6.45-5.89,6.45-3.73,0-5.99-3-5.99-6.02,0-4.4,3.43-6.48,5.99-6.48ZM808.61,454.89c-1.65,0-3.13,1.59-3.13,4.72,0,3.43,1.51,5.91,3.73,5.91,1.67,0,3.08-1.22,3.08-4.91,0-3.16-1.3-5.72-3.67-5.72Z"></path>
 &nbsp; &nbsp; &nbsp; &nbsp;<path class="cls-2" d="M824.32,466.15v-.76c1.57-.16,1.73-.35,1.73-2.19v-4.45c0-1.89-.68-3.16-2.46-3.16-1.11,0-2.16.65-3,1.4v6.32c0,1.86.16,1.92,1.75,2.08v.76h-5.83v-.76c1.78-.19,1.94-.3,1.94-2.08v-5.56c0-1.75-.19-1.84-1.65-2.08v-.7c1.32-.22,2.65-.57,3.78-1.08v2.13c.54-.38,1.14-.78,1.84-1.24.76-.49,1.46-.81,2.24-.81,2.16,0,3.51,1.59,3.51,4.21v5.13c0,1.84.16,1.92,1.73,2.08v.76h-5.59Z"></path>
 &nbsp; &nbsp; &nbsp; &nbsp;<path class="cls-2" d="M835.07,462.21c-.65.51-.89,1.03-.89,1.35,0,.49.46,1.03,1.67,1.03,1,0,2.13-.03,3.02-.03,1.73,0,3.94.57,3.94,3.24,0,2.81-3.32,5.45-6.91,5.45-3.05,0-4.7-1.78-4.75-3.37,0-.59.24-1.11.67-1.54.54-.57,1.59-1.46,2.21-1.94-.97-.27-1.67-.89-2.03-1.46-.24-.4-.32-.89-.32-1.16,1.03-.38,1.94-1.13,2.48-1.86l.89.3ZM836.37,462.48c-2.51,0-4.59-1.54-4.59-4.08,0-3.08,2.75-4.51,4.86-4.51.89,0,1.78.24,2.59.68,1.24,0,2.86-.22,3.62-.4l.16.24c-.16.43-.59,1.19-1,1.43-.4,0-1.3-.11-1.67-.14.46.62.78,1.49.78,2.46,0,2.94-2.43,4.32-4.75,4.32ZM836.99,466.48c-1.32,0-1.92.16-2.4.57-.76.62-1.3,1.43-1.3,2.21,0,1.48,1.54,2.59,3.62,2.59,2.56,0,4.02-1.32,4.02-3.05,0-.92-.43-1.65-1.19-1.97-.68-.3-1.62-.35-2.75-.35ZM836.37,454.76c-1.22,0-2.29,1.11-2.29,3.24s1.08,3.62,2.56,3.62c1.19-.05,2.24-1.05,2.24-3.24s-1-3.62-2.51-3.62Z"></path>
 &nbsp; &nbsp; &nbsp; &nbsp;<path class="cls-2" d="M857.52,448.6c1.92,0,3.46.35,4.56,1.16,1.05.78,1.78,2.05,1.78,3.83,0,3.94-3.37,5.53-5.94,5.53-.3,0-.57-.03-.73-.05l-1.86-.49v4.21c0,2.27.19,2.32,2.67,2.59v.76h-7.45v-.76c2.32-.24,2.43-.4,2.43-2.65v-10.72c0-2.4-.3-2.46-2.43-2.67v-.76h6.97ZM855.33,457.65c.32.16,1.05.35,1.97.35,1.81,0,4.05-.92,4.05-4.32,0-2.97-1.94-4.16-4.21-4.16-.78,0-1.35.14-1.51.32-.22.19-.3.51-.3,1.24v6.56Z"></path>
 &nbsp; &nbsp; &nbsp; &nbsp;<path class="cls-2" d="M870.94,453.98c3.37,0,5.89,2.57,5.89,6.05,0,4.37-3.24,6.45-5.89,6.45-3.73,0-5.99-3-5.99-6.02,0-4.4,3.43-6.48,5.99-6.48ZM870.61,454.89c-1.65,0-3.13,1.59-3.13,4.72,0,3.43,1.51,5.91,3.73,5.91,1.67,0,3.08-1.22,3.08-4.91,0-3.16-1.3-5.72-3.67-5.72Z"></path>
 &nbsp; &nbsp; &nbsp; &nbsp;<path class="cls-2" d="M885.79,457.51c-.49-1.57-1.19-2.65-2.83-2.65-.94,0-1.67.67-1.67,1.75,0,1.16.78,1.7,2.29,2.4,2.32,1.11,3.48,1.92,3.48,3.7,0,2.48-2.27,3.75-4.4,3.75-1.4,0-2.65-.43-3.21-.76-.14-.78-.38-2.27-.49-3.16l.78-.14c.49,1.73,1.43,3.13,3.32,3.13,1.03,0,1.89-.7,1.89-1.84,0-1.22-.73-1.84-2.16-2.54-1.89-.92-3.43-1.78-3.43-3.73s1.67-3.48,4.21-3.48c1.13,0,2.05.27,2.59.35.08.65.27,2.35.4,3l-.78.19Z"></path>
 &nbsp; &nbsp; &nbsp; &nbsp;<path class="cls-2" d="M888.79,466.15v-.76c1.7-.16,1.89-.3,1.89-2.13v-5.56c0-1.67-.08-1.78-1.7-2.05v-.65c1.4-.24,2.67-.59,3.83-1.08v9.34c0,1.84.19,1.97,1.94,2.13v.76h-5.97ZM891.6,451.28c-.76,0-1.43-.68-1.43-1.43,0-.86.68-1.48,1.46-1.48s1.38.62,1.38,1.48c0,.76-.62,1.43-1.4,1.43Z"></path>
 &nbsp; &nbsp; &nbsp; &nbsp;<path class="cls-2" d="M901.26,466.13c-.46.24-.89.35-1.16.35-1.73,0-2.65-1.05-2.65-3.21v-7.86h-1.86l-.11-.32.73-.78h1.24v-2.27c.51-.54,1.3-1.24,1.81-1.78l.4.05c-.05,1.13-.08,2.7-.08,4h3.08c.24.27.16.86-.16,1.11h-2.92v6.91c0,2.19.86,2.59,1.57,2.59.65,0,1.27-.24,1.65-.43l.24.7-1.78.94Z"></path>
 &nbsp; &nbsp; &nbsp; &nbsp;<path class="cls-2" d="M904.15,466.15v-.76c1.7-.16,1.89-.3,1.89-2.13v-5.56c0-1.67-.08-1.78-1.7-2.05v-.65c1.4-.24,2.67-.59,3.83-1.08v9.34c0,1.84.19,1.97,1.94,2.13v.76h-5.97ZM906.96,451.28c-.76,0-1.43-.68-1.43-1.43,0-.86.68-1.48,1.46-1.48s1.38.62,1.38,1.48c0,.76-.62,1.43-1.4,1.43Z"></path>
 &nbsp; &nbsp; &nbsp; &nbsp;<path class="cls-2" d="M923.24,455.03c-1.46.19-1.65.41-2.35,2.03-.89,2.16-2.43,5.75-3.83,9.39h-.78c-1.13-3.1-2.46-6.32-3.73-9.48-.62-1.57-.84-1.73-2.24-1.94v-.73h5.51v.73c-1.49.19-1.54.38-1.11,1.54.68,1.86,1.81,4.72,2.56,6.61.97-2.4,1.86-4.62,2.46-6.34.46-1.32.38-1.62-1.4-1.81v-.73h4.91v.73Z"></path>
 &nbsp; &nbsp; &nbsp; &nbsp;<path class="cls-2" d="M933.61,463.86c-1.73,2.16-3.62,2.62-4.48,2.62-3.29,0-5.29-2.7-5.29-5.8,0-1.84.65-3.54,1.75-4.72,1.13-1.27,2.62-1.97,4.02-1.97,2.35,0,4.13,2.03,4.13,4.19-.03.54-.11.78-.54.89-.54.11-4,.35-7.21.46-.08,3.62,2.13,5.1,4.05,5.1,1.11,0,2.13-.46,3.13-1.38l.43.62ZM928.97,455c-1.24,0-2.46,1.16-2.83,3.35,1.51,0,3.02,0,4.62-.08.49,0,.65-.14.65-.54.03-1.43-.92-2.73-2.43-2.73Z"></path>
 &nbsp; &nbsp; &nbsp; &nbsp;<path class="cls-2" d="M958.19,461.83c-.38,1.3-1.08,3.24-1.49,4.08-.78.16-2.89.65-4.94.65-6.45,0-9.75-4.29-9.75-9.02,0-5.51,4.19-9.31,10.23-9.31,2.32,0,4.21.49,5.1.62.11,1.22.3,2.83.51,4.19l-.84.19c-.54-1.81-1.19-2.91-2.57-3.48-.7-.32-1.81-.51-2.83-.51-4.45,0-6.8,3.29-6.8,7.75,0,5.21,2.7,8.56,7.07,8.56,2.75,0,4.1-1.27,5.48-3.97l.81.27Z"></path>
 &nbsp; &nbsp; &nbsp; &nbsp;<path class="cls-2" d="M966.62,453.98c3.37,0,5.89,2.57,5.89,6.05,0,4.37-3.24,6.45-5.89,6.45-3.73,0-5.99-3-5.99-6.02,0-4.4,3.43-6.48,5.99-6.48ZM966.29,454.89c-1.65,0-3.13,1.59-3.13,4.72,0,3.43,1.51,5.91,3.73,5.91,1.67,0,3.08-1.22,3.08-4.91,0-3.16-1.3-5.72-3.67-5.72Z"></path>
 &nbsp; &nbsp; &nbsp; &nbsp;<path class="cls-2" d="M980.47,466.15h-6.21v-.76c1.7-.16,1.86-.3,1.86-2.05v-5.62c0-1.78-.11-1.86-1.67-2.05v-.68c1.32-.22,2.54-.54,3.81-1.11v2.97c.94-1.4,2.08-2.89,3.43-2.89,1,0,1.57.62,1.57,1.3,0,.62-.43,1.22-.92,1.48-.27.16-.49.14-.7-.05-.41-.4-.73-.67-1.22-.67-.57,0-1.57.84-2.16,2.21v5.08c0,1.78.13,1.92,2.21,2.08v.76Z"></path>
 &nbsp; &nbsp; &nbsp; &nbsp;<path class="cls-2" d="M990.52,466.15h-6.21v-.76c1.7-.16,1.86-.3,1.86-2.05v-5.62c0-1.78-.11-1.86-1.67-2.05v-.68c1.32-.22,2.54-.54,3.81-1.11v2.97c.94-1.4,2.08-2.89,3.43-2.89,1,0,1.57.62,1.57,1.3,0,.62-.43,1.22-.92,1.48-.27.16-.49.14-.7-.05-.41-.4-.73-.67-1.22-.67-.57,0-1.57.84-2.16,2.21v5.08c0,1.78.13,1.92,2.21,2.08v.76Z"></path>
 &nbsp; &nbsp; &nbsp; &nbsp;<path class="cls-2" d="M1004.02,463.86c-1.73,2.16-3.62,2.62-4.48,2.62-3.29,0-5.29-2.7-5.29-5.8,0-1.84.65-3.54,1.75-4.72,1.13-1.27,2.62-1.97,4.02-1.97,2.35,0,4.13,2.03,4.13,4.19-.03.54-.11.78-.54.89-.54.11-4,.35-7.21.46-.08,3.62,2.13,5.1,4.05,5.1,1.11,0,2.13-.46,3.13-1.38l.43.62ZM999.37,455c-1.24,0-2.46,1.16-2.83,3.35,1.51,0,3.02,0,4.62-.08.49,0,.65-.14.65-.54.03-1.43-.92-2.73-2.43-2.73Z"></path>
 &nbsp; &nbsp; &nbsp; &nbsp;<path class="cls-2" d="M1005.37,466.15v-.76c1.73-.16,1.94-.3,1.94-2.08v-12.93c0-1.65-.14-1.81-1.86-2.02v-.7c1.46-.16,3.13-.59,4-.92v16.58c0,1.78.16,1.92,1.92,2.08v.76h-5.99Z"></path>
 &nbsp; &nbsp; &nbsp; &nbsp;<path class="cls-2" d="M1021.33,466.48c-.4,0-1-.22-1.27-.51-.35-.35-.51-.73-.65-1.22-1.08.73-2.4,1.73-3.24,1.73-1.92,0-3.29-1.59-3.29-3.32,0-1.32.73-2.19,2.21-2.7,1.65-.57,3.67-1.27,4.27-1.75v-.54c0-1.92-.97-3.02-2.38-3.02-.62,0-1,.3-1.27.62-.3.38-.49.97-.73,1.75-.13.43-.38.62-.78.62-.51,0-1.19-.54-1.19-1.19,0-.38.35-.7.89-1.08.78-.57,2.35-1.57,3.89-1.89.81,0,1.65.24,2.27.73.94.81,1.38,1.73,1.38,3.13v5.21c0,1.24.46,1.62.95,1.62.32,0,.67-.14.97-.3l.27.76-2.29,1.35ZM1019.36,459.65c-.59.3-1.89.86-2.51,1.13-1.03.46-1.65.97-1.65,1.97,0,1.43,1.08,2.08,1.94,2.08.7,0,1.67-.43,2.21-.97v-4.21Z"></path>
 &nbsp; &nbsp; &nbsp; &nbsp;<path class="cls-2" d="M1029.78,466.13c-.46.24-.89.35-1.16.35-1.73,0-2.65-1.05-2.65-3.21v-7.86h-1.86l-.11-.32.73-.78h1.24v-2.27c.51-.54,1.3-1.24,1.81-1.78l.4.05c-.05,1.13-.08,2.7-.08,4h3.08c.24.27.16.86-.16,1.11h-2.92v6.91c0,2.19.86,2.59,1.57,2.59.65,0,1.27-.24,1.65-.43l.24.7-1.78.94Z"></path>
 &nbsp; &nbsp; &nbsp; &nbsp;<path class="cls-2" d="M1032.67,466.15v-.76c1.7-.16,1.89-.3,1.89-2.13v-5.56c0-1.67-.08-1.78-1.7-2.05v-.65c1.4-.24,2.67-.59,3.83-1.08v9.34c0,1.84.19,1.97,1.94,2.13v.76h-5.97ZM1035.48,451.28c-.76,0-1.43-.68-1.43-1.43,0-.86.68-1.48,1.46-1.48s1.38.62,1.38,1.48c0,.76-.62,1.43-1.4,1.43Z"></path>
 &nbsp; &nbsp; &nbsp; &nbsp;<path class="cls-2" d="M1046.04,453.98c3.37,0,5.89,2.57,5.89,6.05,0,4.37-3.24,6.45-5.89,6.45-3.73,0-5.99-3-5.99-6.02,0-4.4,3.43-6.48,5.99-6.48ZM1045.71,454.89c-1.65,0-3.13,1.59-3.13,4.72,0,3.43,1.51,5.91,3.73,5.91,1.67,0,3.08-1.22,3.08-4.91,0-3.16-1.3-5.72-3.67-5.72Z"></path>
 &nbsp; &nbsp; &nbsp; &nbsp;<path class="cls-2" d="M1061.43,466.15v-.76c1.57-.16,1.73-.35,1.73-2.19v-4.45c0-1.89-.68-3.16-2.46-3.16-1.11,0-2.16.65-3,1.4v6.32c0,1.86.16,1.92,1.75,2.08v.76h-5.83v-.76c1.78-.19,1.94-.3,1.94-2.08v-5.56c0-1.75-.19-1.84-1.65-2.08v-.7c1.32-.22,2.65-.57,3.78-1.08v2.13c.54-.38,1.13-.78,1.84-1.24.76-.49,1.46-.81,2.24-.81,2.16,0,3.51,1.59,3.51,4.21v5.13c0,1.84.16,1.92,1.73,2.08v.76h-5.59Z"></path>
 &nbsp; &nbsp; &nbsp;</g>
 &nbsp; &nbsp;</g>
 &nbsp; &nbsp;<g>
 &nbsp; &nbsp; &nbsp;<g>
 &nbsp; &nbsp; &nbsp; &nbsp;<rect class="cls-2" x="1168.73" y="399.57" width="278.45" height="2.31"></rect>
 &nbsp; &nbsp; &nbsp; &nbsp;<rect class="cls-2" x="1168.73" y="119.68" width="2.31" height="281.04"></rect>
 &nbsp; &nbsp; &nbsp; &nbsp;<circle class="cls-2" cx="1309.98" cy="282.37" r="4.68"></circle>
 &nbsp; &nbsp; &nbsp; &nbsp;<circle class="cls-2" cx="1284.88" cy="273.63" r="4.68"></circle>
 &nbsp; &nbsp; &nbsp; &nbsp;<circle class="cls-2" cx="1351.96" cy="289.54" r="4.68"></circle>
 &nbsp; &nbsp; &nbsp; &nbsp;<circle class="cls-2" cx="1340.72" cy="299.29" r="4.68"></circle>
 &nbsp; &nbsp; &nbsp; &nbsp;<circle class="cls-2" cx="1265.98" cy="211.17" r="4.68"></circle>
 &nbsp; &nbsp; &nbsp; &nbsp;<circle class="cls-2" cx="1317.17" cy="263.24" r="4.68"></circle>
 &nbsp; &nbsp; &nbsp; &nbsp;<circle class="cls-2" cx="1287.77" cy="232.75" r="4.68"></circle>
 &nbsp; &nbsp; &nbsp; &nbsp;<circle class="cls-2" cx="1270.66" cy="250.24" r="4.68"></circle>
 &nbsp; &nbsp; &nbsp; &nbsp;<circle class="cls-2" cx="1324.02" cy="302.22" r="4.68"></circle>
 &nbsp; &nbsp; &nbsp; &nbsp;<circle class="cls-2" cx="1344.53" cy="320.96" r="4.68"></circle>
 &nbsp; &nbsp; &nbsp; &nbsp;<circle class="cls-2" cx="1372.72" cy="306.9" r="4.68"></circle>
 &nbsp; &nbsp; &nbsp; &nbsp;<circle class="cls-2" cx="1374.81" cy="318.78" r="4.68"></circle>
 &nbsp; &nbsp; &nbsp; &nbsp;<circle class="cls-2" cx="1420.89" cy="341.93" r="4.68"></circle>
 &nbsp; &nbsp; &nbsp; &nbsp;<circle class="cls-2" cx="1420.89" cy="362.03" r="4.68"></circle>
 &nbsp; &nbsp; &nbsp; &nbsp;<circle class="cls-2" cx="1305.3" cy="299.29" r="4.68"></circle>
 &nbsp; &nbsp; &nbsp; &nbsp;<circle class="cls-2" cx="1423.4" cy="376.33" r="4.68"></circle>
 &nbsp; &nbsp; &nbsp; &nbsp;<circle class="cls-2" cx="1405.47" cy="331.68" r="4.68"></circle>
 &nbsp; &nbsp; &nbsp; &nbsp;<circle class="cls-2" cx="1370.8" cy="331.68" r="4.68"></circle>
 &nbsp; &nbsp; &nbsp; &nbsp;<circle class="cls-2" cx="1396.52" cy="350.33" r="4.68"></circle>
 &nbsp; &nbsp; &nbsp; &nbsp;<circle class="cls-2" cx="1409.84" cy="382.67" r="4.68"></circle>
 &nbsp; &nbsp; &nbsp; &nbsp;<circle class="cls-2" cx="1259.78" cy="264.27" r="4.68"></circle>
 &nbsp; &nbsp; &nbsp; &nbsp;<circle class="cls-2" cx="1292.19" cy="257.9" r="4.68"></circle>
 &nbsp; &nbsp; &nbsp; &nbsp;<circle class="cls-2" cx="1230.88" cy="207.65" r="4.68"></circle>
 &nbsp; &nbsp; &nbsp; &nbsp;<circle class="cls-2" cx="1238.71" cy="188.56" r="4.68"></circle>
 &nbsp; &nbsp; &nbsp; &nbsp;<circle class="cls-2" cx="1238.33" cy="249.98" r="4.68"></circle>
 &nbsp; &nbsp; &nbsp; &nbsp;<circle class="cls-2" cx="1259.59" cy="233.79" r="4.68"></circle>
 &nbsp; &nbsp; &nbsp; &nbsp;<circle class="cls-2" cx="1234.29" cy="233.79" r="4.68"></circle>
 &nbsp; &nbsp; &nbsp; &nbsp;<circle class="cls-2" cx="1198.04" cy="200.46" r="4.68"></circle>
 &nbsp; &nbsp; &nbsp; &nbsp;<circle class="cls-2" cx="1188.89" cy="165.05" r="4.68"></circle>
 &nbsp; &nbsp; &nbsp; &nbsp;<circle class="cls-2" cx="1242.69" cy="211.17" r="4.68"></circle>
 &nbsp; &nbsp; &nbsp; &nbsp;<circle class="cls-2" cx="1223.73" cy="225.6" r="4.68"></circle>
 &nbsp; &nbsp; &nbsp; &nbsp;<circle class="cls-2" cx="1212.56" cy="170.02" r="4.68"></circle>
 &nbsp; &nbsp; &nbsp; &nbsp;<circle class="cls-2" cx="1216.76" cy="184.77" r="4.68"></circle>
 &nbsp; &nbsp; &nbsp;</g>
 &nbsp; &nbsp; &nbsp;<g>
 &nbsp; &nbsp; &nbsp; &nbsp;<path class="cls-2" d="M1165.17,452.71c-.46-1.78-1.22-3.54-3.75-3.54-2.11,0-2.83,1.54-2.83,2.94,0,1.86,1.19,2.81,3.43,3.97,3.24,1.67,4.64,2.92,4.64,5.48,0,2.83-2.46,4.99-5.94,4.99-1.62,0-3.02-.46-4.13-.89-.22-.76-.54-2.59-.73-4.05l.84-.22c.54,1.81,1.73,4.16,4.54,4.16,1.94,0,3.13-1.35,3.13-3.11,0-2.08-1.11-2.92-3.48-4.21-2.83-1.54-4.43-2.83-4.43-5.35s2-4.67,5.56-4.67c1.51,0,3,.4,3.56.51.11.97.22,2.05.43,3.81l-.84.16Z"></path>
 &nbsp; &nbsp; &nbsp; &nbsp;<path class="cls-2" d="M1173.6,466.13c-.46.24-.89.35-1.16.35-1.73,0-2.65-1.05-2.65-3.21v-7.86h-1.86l-.11-.32.73-.78h1.24v-2.27c.51-.54,1.3-1.24,1.81-1.78l.4.05c-.05,1.13-.08,2.7-.08,4h3.08c.24.27.16.86-.16,1.11h-2.92v6.91c0,2.19.86,2.59,1.57,2.59.65,0,1.27-.24,1.65-.43l.24.7-1.78.94Z"></path>
 &nbsp; &nbsp; &nbsp; &nbsp;<path class="cls-2" d="M1182.56,466.15h-6.21v-.76c1.7-.16,1.86-.3,1.86-2.05v-5.62c0-1.78-.11-1.86-1.67-2.05v-.68c1.32-.22,2.54-.54,3.81-1.11v2.97c.94-1.4,2.08-2.89,3.43-2.89,1,0,1.57.62,1.57,1.3,0,.62-.43,1.22-.92,1.48-.27.16-.49.14-.7-.05-.41-.4-.73-.67-1.22-.67-.57,0-1.57.84-2.16,2.21v5.08c0,1.78.13,1.92,2.21,2.08v.76Z"></path>
 &nbsp; &nbsp; &nbsp; &nbsp;<path class="cls-2" d="M1192.29,453.98c3.37,0,5.89,2.57,5.89,6.05,0,4.37-3.24,6.45-5.89,6.45-3.73,0-5.99-3-5.99-6.02,0-4.4,3.43-6.48,5.99-6.48ZM1191.96,454.89c-1.65,0-3.13,1.59-3.13,4.72,0,3.43,1.51,5.91,3.73,5.91,1.67,0,3.08-1.22,3.08-4.91,0-3.16-1.3-5.72-3.67-5.72Z"></path>
 &nbsp; &nbsp; &nbsp; &nbsp;<path class="cls-2" d="M1207.68,466.15v-.76c1.57-.16,1.73-.35,1.73-2.19v-4.45c0-1.89-.68-3.16-2.46-3.16-1.11,0-2.16.65-3,1.4v6.32c0,1.86.16,1.92,1.75,2.08v.76h-5.83v-.76c1.78-.19,1.94-.3,1.94-2.08v-5.56c0-1.75-.19-1.84-1.65-2.08v-.7c1.32-.22,2.65-.57,3.78-1.08v2.13c.54-.38,1.13-.78,1.84-1.24.76-.49,1.46-.81,2.24-.81,2.16,0,3.51,1.59,3.51,4.21v5.13c0,1.84.16,1.92,1.73,2.08v.76h-5.59Z"></path>
 &nbsp; &nbsp; &nbsp; &nbsp;<path class="cls-2" d="M1218.43,462.21c-.65.51-.89,1.03-.89,1.35,0,.49.46,1.03,1.67,1.03,1,0,2.13-.03,3.02-.03,1.73,0,3.94.57,3.94,3.24,0,2.81-3.32,5.45-6.91,5.45-3.05,0-4.7-1.78-4.75-3.37,0-.59.24-1.11.67-1.54.54-.57,1.59-1.46,2.21-1.94-.97-.27-1.67-.89-2.03-1.46-.24-.4-.32-.89-.32-1.16,1.03-.38,1.94-1.13,2.48-1.86l.89.3ZM1219.73,462.48c-2.51,0-4.59-1.54-4.59-4.08,0-3.08,2.75-4.51,4.86-4.51.89,0,1.78.24,2.59.68,1.24,0,2.86-.22,3.62-.4l.16.24c-.16.43-.59,1.19-1,1.43-.41,0-1.3-.11-1.67-.14.46.62.78,1.49.78,2.46,0,2.94-2.43,4.32-4.75,4.32ZM1220.35,466.48c-1.32,0-1.92.16-2.4.57-.76.62-1.3,1.43-1.3,2.21,0,1.48,1.54,2.59,3.62,2.59,2.56,0,4.02-1.32,4.02-3.05,0-.92-.43-1.65-1.19-1.97-.68-.3-1.62-.35-2.75-.35ZM1219.73,454.76c-1.22,0-2.29,1.11-2.29,3.24s1.08,3.62,2.56,3.62c1.19-.05,2.24-1.05,2.24-3.24s-1-3.62-2.51-3.62Z"></path>
 &nbsp; &nbsp; &nbsp; &nbsp;<path class="cls-2" d="M1252.56,449.36c-1.73.19-2.29.46-2.37,1.7-.03.86-.08,2-.08,4.51v10.83h-1.03l-11.56-14.12v6.75c0,2.43.08,3.65.13,4.43.05,1.38.73,1.78,2.67,1.94v.76h-6.56v-.76c1.67-.13,2.32-.54,2.43-1.86.08-.86.14-2.08.14-4.54v-6.88c0-.76-.05-1.19-.54-1.78-.51-.67-1.08-.84-2.4-.97v-.76h4.05l11.45,13.58v-6.62c0-2.51-.05-3.67-.14-4.48-.08-1.22-.7-1.59-2.86-1.73v-.76h6.67v.76Z"></path>
 &nbsp; &nbsp; &nbsp; &nbsp;<path class="cls-2" d="M1263.36,463.86c-1.73,2.16-3.62,2.62-4.48,2.62-3.29,0-5.29-2.7-5.29-5.8,0-1.84.65-3.54,1.75-4.72,1.13-1.27,2.62-1.97,4.02-1.97,2.35,0,4.13,2.03,4.13,4.19-.03.54-.11.78-.54.89-.54.11-4,.35-7.21.46-.08,3.62,2.13,5.1,4.05,5.1,1.11,0,2.13-.46,3.13-1.38l.43.62ZM1258.72,455c-1.24,0-2.46,1.16-2.83,3.35,1.51,0,3.02,0,4.62-.08.49,0,.65-.14.65-.54.03-1.43-.92-2.73-2.43-2.73Z"></path>
 &nbsp; &nbsp; &nbsp; &nbsp;<path class="cls-2" d="M1269.04,462.21c-.65.51-.89,1.03-.89,1.35,0,.49.46,1.03,1.67,1.03,1,0,2.13-.03,3.02-.03,1.73,0,3.94.57,3.94,3.24,0,2.81-3.32,5.45-6.91,5.45-3.05,0-4.7-1.78-4.75-3.37,0-.59.24-1.11.67-1.54.54-.57,1.59-1.46,2.21-1.94-.97-.27-1.67-.89-2.03-1.46-.24-.4-.32-.89-.32-1.16,1.03-.38,1.94-1.13,2.48-1.86l.89.3ZM1270.33,462.48c-2.51,0-4.59-1.54-4.59-4.08,0-3.08,2.75-4.51,4.86-4.51.89,0,1.78.24,2.59.68,1.24,0,2.86-.22,3.62-.4l.16.24c-.16.43-.59,1.19-1,1.43-.41,0-1.3-.11-1.67-.14.46.62.78,1.49.78,2.46,0,2.94-2.43,4.32-4.75,4.32ZM1270.96,466.48c-1.32,0-1.92.16-2.4.57-.76.62-1.3,1.43-1.3,2.21,0,1.48,1.54,2.59,3.62,2.59,2.56,0,4.02-1.32,4.02-3.05,0-.92-.43-1.65-1.19-1.97-.68-.3-1.62-.35-2.75-.35ZM1270.33,454.76c-1.22,0-2.29,1.11-2.29,3.24s1.08,3.62,2.56,3.62c1.19-.05,2.24-1.05,2.24-3.24s-1-3.62-2.51-3.62Z"></path>
 &nbsp; &nbsp; &nbsp; &nbsp;<path class="cls-2" d="M1286.4,466.48c-.4,0-1-.22-1.27-.51-.35-.35-.51-.73-.65-1.22-1.08.73-2.4,1.73-3.24,1.73-1.92,0-3.29-1.59-3.29-3.32,0-1.32.73-2.19,2.21-2.7,1.65-.57,3.67-1.27,4.27-1.75v-.54c0-1.92-.97-3.02-2.38-3.02-.62,0-1,.3-1.27.62-.3.38-.49.97-.73,1.75-.13.43-.38.62-.78.62-.51,0-1.19-.54-1.19-1.19,0-.38.35-.7.89-1.08.78-.57,2.35-1.57,3.89-1.89.81,0,1.65.24,2.27.73.94.81,1.38,1.73,1.38,3.13v5.21c0,1.24.46,1.62.95,1.62.32,0,.67-.14.97-.3l.27.76-2.29,1.35ZM1284.43,459.65c-.59.3-1.89.86-2.51,1.13-1.03.46-1.65.97-1.65,1.97,0,1.43,1.08,2.08,1.94,2.08.7,0,1.67-.43,2.21-.97v-4.21Z"></path>
 &nbsp; &nbsp; &nbsp; &nbsp;<path class="cls-2" d="M1294.85,466.13c-.46.24-.89.35-1.16.35-1.73,0-2.65-1.05-2.65-3.21v-7.86h-1.86l-.11-.32.73-.78h1.24v-2.27c.51-.54,1.3-1.24,1.81-1.78l.4.05c-.05,1.13-.08,2.7-.08,4h3.08c.24.27.16.86-.16,1.11h-2.92v6.91c0,2.19.86,2.59,1.57,2.59.65,0,1.27-.24,1.65-.43l.24.7-1.78.94Z"></path>
 &nbsp; &nbsp; &nbsp; &nbsp;<path class="cls-2" d="M1297.75,466.15v-.76c1.7-.16,1.89-.3,1.89-2.13v-5.56c0-1.67-.08-1.78-1.7-2.05v-.65c1.4-.24,2.67-.59,3.83-1.08v9.34c0,1.84.19,1.97,1.94,2.13v.76h-5.97ZM1300.55,451.28c-.76,0-1.43-.68-1.43-1.43,0-.86.68-1.48,1.46-1.48s1.38.62,1.38,1.48c0,.76-.62,1.43-1.4,1.43Z"></path>
 &nbsp; &nbsp; &nbsp; &nbsp;<path class="cls-2" d="M1316.84,455.03c-1.46.19-1.65.41-2.35,2.03-.89,2.16-2.43,5.75-3.83,9.39h-.78c-1.13-3.1-2.46-6.32-3.73-9.48-.62-1.57-.84-1.73-2.24-1.94v-.73h5.51v.73c-1.49.19-1.54.38-1.11,1.54.68,1.86,1.81,4.72,2.56,6.61.97-2.4,1.86-4.62,2.46-6.34.46-1.32.38-1.62-1.4-1.81v-.73h4.91v.73Z"></path>
 &nbsp; &nbsp; &nbsp; &nbsp;<path class="cls-2" d="M1327.2,463.86c-1.73,2.16-3.62,2.62-4.48,2.62-3.29,0-5.29-2.7-5.29-5.8,0-1.84.65-3.54,1.75-4.72,1.13-1.27,2.62-1.97,4.02-1.97,2.35,0,4.13,2.03,4.13,4.19-.03.54-.11.78-.54.89-.54.11-4,.35-7.21.46-.08,3.62,2.13,5.1,4.05,5.1,1.11,0,2.13-.46,3.13-1.38l.43.62ZM1322.56,455c-1.24,0-2.46,1.16-2.83,3.35,1.51,0,3.02,0,4.62-.08.49,0,.65-.14.65-.54.03-1.43-.92-2.73-2.43-2.73Z"></path>
 &nbsp; &nbsp; &nbsp; &nbsp;<path class="cls-2" d="M1351.78,461.83c-.38,1.3-1.08,3.24-1.49,4.08-.78.16-2.89.65-4.94.65-6.45,0-9.75-4.29-9.75-9.02,0-5.51,4.19-9.31,10.23-9.31,2.32,0,4.21.49,5.1.62.11,1.22.3,2.83.51,4.19l-.84.19c-.54-1.81-1.19-2.91-2.57-3.48-.7-.32-1.81-.51-2.83-.51-4.45,0-6.8,3.29-6.8,7.75,0,5.21,2.7,8.56,7.07,8.56,2.75,0,4.1-1.27,5.48-3.97l.81.27Z"></path>
 &nbsp; &nbsp; &nbsp; &nbsp;<path class="cls-2" d="M1360.21,453.98c3.37,0,5.89,2.57,5.89,6.05,0,4.37-3.24,6.45-5.89,6.45-3.73,0-5.99-3-5.99-6.02,0-4.4,3.43-6.48,5.99-6.48ZM1359.88,454.89c-1.65,0-3.13,1.59-3.13,4.72,0,3.43,1.51,5.91,3.73,5.91,1.67,0,3.08-1.22,3.08-4.91,0-3.16-1.3-5.72-3.67-5.72Z"></path>
 &nbsp; &nbsp; &nbsp; &nbsp;<path class="cls-2" d="M1374.06,466.15h-6.21v-.76c1.7-.16,1.86-.3,1.86-2.05v-5.62c0-1.78-.11-1.86-1.67-2.05v-.68c1.32-.22,2.54-.54,3.81-1.11v2.97c.94-1.4,2.08-2.89,3.43-2.89,1,0,1.57.62,1.57,1.3,0,.62-.43,1.22-.92,1.48-.27.16-.49.14-.7-.05-.41-.4-.73-.67-1.22-.67-.57,0-1.57.84-2.16,2.21v5.08c0,1.78.13,1.92,2.21,2.08v.76Z"></path>
 &nbsp; &nbsp; &nbsp; &nbsp;<path class="cls-2" d="M1384.11,466.15h-6.21v-.76c1.7-.16,1.86-.3,1.86-2.05v-5.62c0-1.78-.11-1.86-1.67-2.05v-.68c1.32-.22,2.54-.54,3.81-1.11v2.97c.94-1.4,2.08-2.89,3.43-2.89,1,0,1.57.62,1.57,1.3,0,.62-.43,1.22-.92,1.48-.27.16-.49.14-.7-.05-.41-.4-.73-.67-1.22-.67-.57,0-1.57.84-2.16,2.21v5.08c0,1.78.13,1.92,2.21,2.08v.76Z"></path>
 &nbsp; &nbsp; &nbsp; &nbsp;<path class="cls-2" d="M1397.61,463.86c-1.73,2.16-3.62,2.62-4.48,2.62-3.29,0-5.29-2.7-5.29-5.8,0-1.84.65-3.54,1.75-4.72,1.13-1.27,2.62-1.97,4.02-1.97,2.35,0,4.13,2.03,4.13,4.19-.03.54-.11.78-.54.89-.54.11-4,.35-7.21.46-.08,3.62,2.13,5.1,4.05,5.1,1.11,0,2.13-.46,3.13-1.38l.43.62ZM1392.96,455c-1.24,0-2.46,1.16-2.83,3.35,1.51,0,3.02,0,4.62-.08.49,0,.65-.14.65-.54.03-1.43-.92-2.73-2.43-2.73Z"></path>
 &nbsp; &nbsp; &nbsp; &nbsp;<path class="cls-2" d="M1398.96,466.15v-.76c1.73-.16,1.94-.3,1.94-2.08v-12.93c0-1.65-.14-1.81-1.86-2.02v-.7c1.46-.16,3.13-.59,4-.92v16.58c0,1.78.16,1.92,1.92,2.08v.76h-5.99Z"></path>
 &nbsp; &nbsp; &nbsp; &nbsp;<path class="cls-2" d="M1414.92,466.48c-.4,0-1-.22-1.27-.51-.35-.35-.51-.73-.65-1.22-1.08.73-2.4,1.73-3.24,1.73-1.92,0-3.29-1.59-3.29-3.32,0-1.32.73-2.19,2.21-2.7,1.65-.57,3.67-1.27,4.27-1.75v-.54c0-1.92-.97-3.02-2.38-3.02-.62,0-1,.3-1.27.62-.3.38-.49.97-.73,1.75-.13.43-.38.62-.78.62-.51,0-1.19-.54-1.19-1.19,0-.38.35-.7.89-1.08.78-.57,2.35-1.57,3.89-1.89.81,0,1.65.24,2.27.73.94.81,1.38,1.73,1.38,3.13v5.21c0,1.24.46,1.62.95,1.62.32,0,.67-.14.97-.3l.27.76-2.29,1.35ZM1412.95,459.65c-.59.3-1.89.86-2.51,1.13-1.03.46-1.65.97-1.65,1.97,0,1.43,1.08,2.08,1.94,2.08.7,0,1.67-.43,2.21-.97v-4.21Z"></path>
 &nbsp; &nbsp; &nbsp; &nbsp;<path class="cls-2" d="M1423.37,466.13c-.46.24-.89.35-1.16.35-1.73,0-2.65-1.05-2.65-3.21v-7.86h-1.86l-.11-.32.73-.78h1.24v-2.27c.51-.54,1.3-1.24,1.81-1.78l.4.05c-.05,1.13-.08,2.7-.08,4h3.08c.24.27.16.86-.16,1.11h-2.92v6.91c0,2.19.86,2.59,1.57,2.59.65,0,1.27-.24,1.65-.43l.24.7-1.78.94Z"></path>
 &nbsp; &nbsp; &nbsp; &nbsp;<path class="cls-2" d="M1426.26,466.15v-.76c1.7-.16,1.89-.3,1.89-2.13v-5.56c0-1.67-.08-1.78-1.7-2.05v-.65c1.4-.24,2.67-.59,3.83-1.08v9.34c0,1.84.19,1.97,1.94,2.13v.76h-5.97ZM1429.07,451.28c-.76,0-1.43-.68-1.43-1.43,0-.86.68-1.48,1.46-1.48s1.38.62,1.38,1.48c0,.76-.62,1.43-1.4,1.43Z"></path>
 &nbsp; &nbsp; &nbsp; &nbsp;<path class="cls-2" d="M1439.63,453.98c3.37,0,5.89,2.57,5.89,6.05,0,4.37-3.24,6.45-5.89,6.45-3.73,0-5.99-3-5.99-6.02,0-4.4,3.43-6.48,5.99-6.48ZM1439.31,454.89c-1.65,0-3.13,1.59-3.13,4.72,0,3.43,1.51,5.91,3.73,5.91,1.67,0,3.08-1.22,3.08-4.91,0-3.16-1.3-5.72-3.67-5.72Z"></path>
 &nbsp; &nbsp; &nbsp; &nbsp;<path class="cls-2" d="M1455.02,466.15v-.76c1.57-.16,1.73-.35,1.73-2.19v-4.45c0-1.89-.68-3.16-2.46-3.16-1.11,0-2.16.65-3,1.4v6.32c0,1.86.16,1.92,1.75,2.08v.76h-5.83v-.76c1.78-.19,1.94-.3,1.94-2.08v-5.56c0-1.75-.19-1.84-1.65-2.08v-.7c1.32-.22,2.65-.57,3.78-1.08v2.13c.54-.38,1.14-.78,1.84-1.24.76-.49,1.46-.81,2.24-.81,2.16,0,3.51,1.59,3.51,4.21v5.13c0,1.84.16,1.92,1.73,2.08v.76h-5.59Z"></path>
 &nbsp; &nbsp; &nbsp;</g>
 &nbsp; &nbsp;</g>
 &nbsp;</g>
</svg>